<svg height="3000" viewBox="0 0 793.74998 793.75003" width="3000" xmlns="http://www.w3.org/2000/svg" xmlns:xlink="http://www.w3.org/1999/xlink"><marker id="a" orient="auto" overflow="visible" refX="0.0" refY="0.0"><path d="m0 0 5-5-17.5 5 17.5 5z" fill="#0b1809" fill-rule="evenodd" stroke="#0b1809" stroke-width="1pt" transform="matrix(-.2 0 0 -.2 -1.2 0)"/></marker><marker id="b" orient="auto" overflow="visible" refX="0.0" refY="0.0"><path d="m0 0 5-5-17.5 5 17.5 5z" fill="#0b1809" fill-rule="evenodd" stroke="#0b1809" stroke-width="1pt" transform="matrix(-.2 0 0 -.2 -1.2 0)"/></marker><marker id="c" orient="auto" overflow="visible" refX="0.0" refY="0.0"><path d="m0 0 5-5-17.5 5 17.5 5z" fill="#0b1809" fill-rule="evenodd" stroke="#0b1809" stroke-width="1pt" transform="matrix(-.2 0 0 -.2 -1.2 0)"/></marker><marker id="d" orient="auto" overflow="visible" refX="0.0" refY="0.0"><path d="m0 0 5-5-17.5 5 17.5 5z" fill="#0b1809" fill-rule="evenodd" stroke="#0b1809" stroke-width="1pt" transform="matrix(-.2 0 0 -.2 -1.2 0)"/></marker><marker id="e" orient="auto" overflow="visible" refX="0.0" refY="0.0"><path d="m0 0 5-5-17.5 5 17.5 5z" fill="#0b1809" fill-rule="evenodd" stroke="#0b1809" stroke-width="1pt" transform="matrix(-.2 0 0 -.2 -1.2 0)"/></marker><marker id="f" orient="auto" overflow="visible" refX="0.0" refY="0.0"><path d="m0 0 5-5-17.5 5 17.5 5z" fill="#0b1809" fill-rule="evenodd" stroke="#0b1809" stroke-width="1pt" transform="matrix(-.2 0 0 -.2 -1.2 0)"/></marker><marker id="g" orient="auto" overflow="visible" refX="0.0" refY="0.0"><path d="m0 0 5-5-17.5 5 17.5 5z" fill="#0b1809" fill-rule="evenodd" stroke="#0b1809" stroke-width="1pt" transform="matrix(.2 0 0 .2 1.2 0)"/></marker><marker id="h" orient="auto" overflow="visible" refX="0.0" refY="0.0"><path d="m0 0 5-5-17.5 5 17.5 5z" fill="#0b1809" fill-rule="evenodd" stroke="#0b1809" stroke-width="1pt" transform="matrix(.2 0 0 .2 1.2 0)"/></marker><marker id="i" orient="auto" overflow="visible" refX="0.0" refY="0.0"><path d="m0 0 5-5-17.5 5 17.5 5z" fill="#0b1809" fill-rule="evenodd" stroke="#0b1809" stroke-width="1pt" transform="matrix(.2 0 0 .2 1.2 0)"/></marker><marker id="j" orient="auto" overflow="visible" refX="0.0" refY="0.0"><path d="m0 0 5-5-17.5 5 17.5 5z" fill="#0b1809" fill-rule="evenodd" stroke="#0b1809" stroke-width="1pt" transform="matrix(.2 0 0 .2 1.2 0)"/></marker><marker id="k" orient="auto" overflow="visible" refX="0.0" refY="0.0"><path d="m0 0 5-5-17.5 5 17.5 5z" fill="#0b1809" fill-rule="evenodd" stroke="#0b1809" stroke-width="1pt" transform="matrix(.2 0 0 .2 1.2 0)"/></marker><marker id="l" orient="auto" overflow="visible" refX="0.0" refY="0.0"><path d="m0 0 5-5-17.5 5 17.5 5z" fill="#0b1809" fill-rule="evenodd" stroke="#0b1809" stroke-width="1pt" transform="matrix(.2 0 0 .2 1.2 0)"/></marker><g transform="translate(0 496.75002)"><path d="m0-496.75h793.75v793.75h-793.75z" fill="#4a9c36"/><g transform="matrix(4.9999997 0 0 5 16.933331 -1310.6343)"><path d="m.000001 301.20685h67.733337v16.933332h-67.733337z" fill="none"/><g fill="#fff"><path d="m2.1166667 303.32353 4.7625001 6.35-4.7625001 6.35h3.1750001l9.5250002-12.7h-3.175l-3.1750001 4.23333-3.1750001-4.23333zm8.2020833 6.70295-1.5874998 2.11666 2.9104168 3.88039h3.175z" fill-rule="evenodd"/><path d="m3.1145386 305.35968c-.9537655 1.18092-1.5265218 2.68132-1.5265218 4.31395 0 1.63251.5723599 3.13358 1.526005 4.31446l.6552573-.87333c-.7057636-.96311-1.122929-2.15217-1.122929-3.44113 0-1.28897.4171654-2.47751 1.122929-3.44062zm10.7042564 0-.65474.87333c.705763.96311 1.122929 2.15165 1.122929 3.44062 0 1.28896-.417166 2.47802-1.122929 3.44113l.655257.87333c.953672-1.18088 1.526522-2.68192 1.526522-4.31446 0-1.63265-.573246-3.13302-1.527039-4.31395zm-9.3730715 1.77509c-.4665443.73626-.7405233 1.60559-.7405233 2.53886 0 .93338.273879 1.80286.7405233 2.53886l.6903971-.91984c-.2374587-.48907-.3746539-1.03686-.3746539-1.61902s.1371952-1.12972.3746539-1.61902zm8.0418865 0-.690914.92087c.23689.48902.373104 1.03628.373104 1.61799s-.136214 1.1292-.373104 1.61799l.690914.92087c.466645-.736.74104-1.60548.74104-2.53886 0-.93327-.274495-1.8026-.74104-2.53886z"/><g stroke-width=".288084"><path d="m19.050001 304.21844 1.769559 2.33348-1.717704 2.26867h.51207l1.458428-1.94457 1.458428 1.94457h.499106l-1.717704-2.26867 1.769559-2.33348h-.499106l-1.510283 2.00939-1.510283-2.00939z"/><path d="m23.660759 310.24661c.110193.0194.181494.0194.265758.0194.375951 0 .589853-.2139.687082-.4667l1.750113-4.35583h-.421324l-1.16026 2.96871-1.251007-2.96871h-.453733l1.471392 3.37707c-.388914.93339-.388914 1.05007-.693564 1.05007-.05834 0-.129638-.006-.194457-.013z"/><path d="m28.671066 305.43055c-.03241-.006-.05185-.006-.08426-.006-.479661 0-.933394.31113-1.186188.82968v-.81023h-.414841v3.37707h.440769v-2.10014c.181493-.54448.654672-.86857 1.244525-.88802z"/><path d="m29.705334 308.82059v-3.37707h-.440769v3.37707zm0-4.0836v-.64819h-.440769v.64819z"/><path d="m30.701927 308.20481c0 .40836.252794.65467.654672.65467.175011 0 .447251-.0519.609299-.11668l-.07778-.3565c-.110193.0454-.252794.0713-.350023.0713-.246312 0-.395396-.14908-.395396-.40188v-3.96692h-.440769z"/><path d="m32.461661 308.20481c0 .40836.252794.65467.654672.65467.175011 0 .447251-.0519.609299-.11668l-.07778-.3565c-.110192.0454-.252794.0713-.350023.0713-.246312 0-.395396-.14908-.395396-.40188v-3.96692h-.440769z"/><path d="m34.64272 308.82059v-3.37707h-.44077v3.37707zm0-4.0836v-.64819h-.44077v.64819z"/><path d="m36.468996 308.88541c.537998 0 1.037104-.22687 1.348235-.62875l.01296.26576c.0065.19446.142602.31761.362986.31761.04537 0 .09723-.006.16853-.0194v-.38892c-.110193 0-.162048-.0583-.162048-.18149v-1.52325c0-.83616-.518552-1.34175-1.361199-1.34175-.414842 0-.836165.14908-1.270452.44077l.155565.29168c.369469-.25927.738937-.40187 1.082478-.40187.589853 0 .952839.37595.952839.97228v.30465c-.278722-.11019-.654672-.17501-.998213-.17501-.829683 0-1.413054.42132-1.413054 1.01766 0 .58985.486142 1.05007 1.121369 1.05007zm.10371-.33706c-.453733 0-.803756-.3241-.803756-.74542s.427806-.70653 1.050068-.70653c.324095 0 .64819.0648.939876.17501v.55096c0 .0778-.03889.17502-.116674.2528-.194457.2852-.615781.47318-1.069514.47318z"/><path d="m41.991069 306.84361c0-.88802-.252795-1.45843-1.004695-1.45843-.602817 0-1.16026.33058-1.4325.8232v-.76486h-.401878v3.37707h.440769v-2.06773c.162048-.55744.713009-.9658 1.231561-.9658.492625 0 .725973.35002.725973 1.14729v1.88624h.44077z"/><path d="m48.141379 308.82059h.395395v-4.59567h-.453733v3.82432l-3.046493-3.8308h-.350023v4.60215h.453734v-3.75951z"/><path d="m50.984805 308.88541c.978767 0 1.678813-.80376 1.678813-1.74364 0-.94635-.706527-1.75659-1.678813-1.75659-.965803 0-1.67233.81024-1.67233 1.75659 0 .93988.693563 1.74364 1.67233 1.74364zm-1.225079-1.73715c0-.75839.557444-1.37417 1.225079-1.37417.674118 0 1.231562.6093 1.231562 1.3612s-.557444 1.3612-1.231562 1.3612c-.674117 0-1.225079-.59633-1.225079-1.34823z"/><path d="m53.847881 308.82059v-3.37707h-.440769v3.37707zm0-4.0836v-.64819h-.440769v.64819z"/><path d="m55.946396 308.88541c.797274 0 1.315826-.3954 1.315826-1.01118 0-.57689-.447252-.74542-1.315826-.95284-.602817-.1426-.842647-.22038-.842647-.57689 0-.44077.369468-.62874.829683-.62874.382432 0 .764864.12963 1.017658.38891l.213903-.25928c-.259276-.27224-.700045-.46021-1.218597-.46021-.693564 0-1.263971.34354-1.263971 1.02414 0 .53152.350023.66764 1.134333.86209.680599.16205 1.017658.26576 1.017658.64171 0 .40188-.356504.63523-.894502.63523-.447251 0-.836165-.15557-1.212116-.4667l-.200939.29817c.362987.33057.894503.50559 1.419537.50559z"/><path d="m59.435787 308.88541c.654672 0 1.231561-.35003 1.438982-.84265l-.382432-.10371c-.162048.36299-.596335.6093-1.037104.6093-.64819 0-1.19267-.53152-1.251007-1.25749h2.890927c.0065-.0259.0065-.11019.0065-.17501 0-.92691-.680599-1.73067-1.67233-1.73067-.972285 0-1.685294.79079-1.685294 1.73715 0 .95932.713009 1.76308 1.691776 1.76308zm-1.238043-1.93161c.04537-.71301.576889-1.22508 1.238043-1.22508s1.186188.50559 1.244525 1.22508z"/><path d="m62.909378 308.88541c.797274 0 1.315826-.3954 1.315826-1.01118 0-.57689-.447251-.74542-1.315826-.95284-.602817-.1426-.842647-.22038-.842647-.57689 0-.44077.369468-.62874.829683-.62874.382432 0 .764864.12963 1.017659.38891l.213902-.25928c-.259276-.27224-.700045-.46021-1.218597-.46021-.693563 0-1.263971.34354-1.263971 1.02414 0 .53152.350023.66764 1.134333.86209.680599.16205 1.017658.26576 1.017658.64171 0 .40188-.356504.63523-.894502.63523-.447251 0-.836165-.15557-1.212115-.4667l-.200939.29817c.362986.33057.894502.50559 1.419536.50559z"/></g><g stroke-width=".237982"><path d="m21.721946 311.37429v1.73489h-2.398859v-1.73489h-.273085v3.80177h.273085v-1.82057h2.398859v1.82057h.273084v-3.80177z"/><path d="m23.781123 311.74911v-.4712h-.235603v.4712zm.728225 0v-.4712h-.235602v.4712zm-.481914 3.48049c.776417 0 1.360068-.66397 1.360068-1.44038 0-.78178-.594361-1.44575-1.360068-1.44575-.771062 0-1.360067.66397-1.360067 1.44575 0 .77641.578296 1.44038 1.360067 1.44038zm-1.092338-1.42968c0-.66397.497978-1.21549 1.092338-1.21549s1.086983.54617 1.086983 1.19943c0 .66397-.492623 1.20479-1.092337 1.20479-.599715 0-1.086984-.53011-1.086984-1.18873z"/><path d="m27.346196 312.38096c-.03748 0-.09638 0-.165992.005-.358758.0375-.701452.29986-.894218.69074v-.68538h-.25702v2.78439h.267729v-1.74025c.149929-.48727.551524-.78712 1.049501-.80319z"/><path d="m28.250035 315.17606v-2.56486h.79248v-.21953h-.79248v-.0964c0-.54617.203475-.84602.567587-.84602.155284 0 .315922.0535.412304.13386l.09638-.19276c-.12851-.1071-.342694-.17671-.556878-.17671-.487268 0-.787126.40695-.787126 1.08699v.091h-.390882v.21953h.390885v2.56486z"/><path d="m30.425926 315.2296c.492623 0 .947763-.26773 1.18872-.71216v.41766c0 .14993.133865.24631.273085.24631.01606 0 .04284 0 .08032-.005v-.24096c-.07496 0-.112446-.0482-.112446-.13387v-2.40956h-.26773v1.7563c-.165992.50334-.615778.84068-1.081628.84068-.471205 0-.701452-.33734-.701452-1.02809v-1.56889h-.26773v1.60637c0 .8139.305212 1.23156.888863 1.23156z"/><path d="m34.987456 313.57503c0-.78712-.224893-1.23156-.829962-1.23156-.492623 0-.969182.28915-1.194075.71217v-.66397h-.251666v2.78439h.267729v-1.72418c.144574-.49263.631843-.86209 1.103047-.86209.439077 0 .637197.31592.637197 1.03343v1.55284h.26773z"/><path d="m38.10475 315.17606-1.199429-1.64922 1.161947-1.12982h-.310566l-1.692053 1.60102v-2.73084h-.267729v3.90886h.267729v-.88351l.658616-.60507 1.086983 1.48858z"/><path d="m39.949326 315.2296c.760353 0 1.274394-.66397 1.274394-1.44038 0-.73358-.556878-1.44575-1.333294-1.44575-.423013 0-.824608.25167-1.054856.60507v-.55687h-.246311v3.92491h.26773v-1.74024c.230247.36411.615778.65326 1.092337.65326zm-.06425-.24095c-.444431 0-.846026-.32664-1.028082-.73894v-.91564c.04819-.39624.59436-.74964.979891-.74964.621133 0 1.113756.56759 1.113756 1.20479 0 .59971-.417659 1.19943-1.065565 1.19943z"/><path d="m43.179904 312.38096c-.03748 0-.09638 0-.165992.005-.358758.0375-.701452.29986-.894218.69074v-.68538h-.257021v2.78439h.26773v-1.74025c.149929-.48727.551524-.78712 1.049501-.80319z"/><path d="m44.724203 315.2296c.776416 0 1.360067-.66397 1.360067-1.44038 0-.78178-.59436-1.44575-1.360067-1.44575-.771062 0-1.360068.66397-1.360068 1.44575 0 .77641.578297 1.44038 1.360068 1.44038zm-1.092338-1.42968c0-.66397.497977-1.21549 1.092338-1.21549.59436 0 1.086983.54617 1.086983 1.19943 0 .66397-.492623 1.20479-1.092338 1.20479s-1.086983-.53011-1.086983-1.18873z"/><path d="m47.871617 315.2296c.412304 0 .829962-.24095 1.054855-.61042v.31056c0 .12316.112447.25703.257021.25703.02677 0 .05355-.005.09638-.0107v-.24096c-.07496 0-.112447-.0482-.112447-.13387v-3.53403h-.26773v1.72954c-.214183-.35341-.605069-.65327-1.086983-.65327-.738934 0-1.279748.66933-1.279748 1.44575 0 .73893.562233 1.44038 1.338649 1.44038zm.04819-.24095c-.621133 0-1.113756-.55688-1.113756-1.19408 0-.61042.417659-1.21014 1.065565-1.21014.406949 0 .878154.33199 1.028082.73894v.91563c-.04819.40695-.589005.74965-.979891.74965z"/><path d="m50.882156 315.2296c.492623 0 .947763-.26773 1.18872-.71216v.41766c0 .14993.133865.24631.273085.24631.01606 0 .04284 0 .08032-.005v-.24096c-.07497 0-.112447-.0482-.112447-.13387v-2.40956h-.26773v1.7563c-.165992.50334-.615778.84068-1.081628.84068-.471205 0-.701452-.33734-.701452-1.02809v-1.56889h-.26773v1.60637c0 .8139.305212 1.23156.888863 1.23156z"/><path d="m55.475814 315.17606-1.19943-1.64922 1.161948-1.12982h-.310567l-1.692052 1.60102v-2.73084h-.26773v3.90886h.26773v-.88351l.658615-.60507 1.086983 1.48858z"/><path d="m57.122269 314.82801c-.03213.0214-.214183.12851-.433722.12851-.176702 0-.348049-.10174-.348049-.31057v-2.03475h.647907v-.21953h-.647907v-.95312h-.267729v.95312h-.390886v.21953h.390886v2.09901c0 .32127.251666.49797.546168.49797.299858 0 .530105-.13386.583651-.16599z"/><path d="m57.943193 315.17606v-2.78439h-.26773v2.78439zm0-3.41624v-.49262h-.26773v.49262z"/><path d="m59.951335 315.2296c.776417 0 1.360068-.66397 1.360068-1.44038 0-.78178-.59436-1.44575-1.360068-1.44575-.771061 0-1.360067.66397-1.360067 1.44575 0 .77641.578296 1.44038 1.360067 1.44038zm-1.092337-1.42968c0-.66397.497977-1.21549 1.092337-1.21549.594361 0 1.086983.54617 1.086983 1.19943 0 .66397-.492622 1.20479-1.092337 1.20479s-1.086983-.53011-1.086983-1.18873z"/><path d="m64.228572 313.57503c0-.78712-.224894-1.23156-.829963-1.23156-.492623 0-.969182.28915-1.194075.71217v-.66397h-.251666v2.78439h.26773v-1.72418c.144574-.49263.631842-.86209 1.103047-.86209.439077 0 .637197.31592.637197 1.03343v1.55284h.26773z"/></g></g></g><g fill="#fff" stroke-width="5.489986"><path d="m117.96104-351.98041h14.08182v-45.08651h-31.74585v12.47599h17.66403v6.17624c-6.79386 7.90558-14.57591 11.98189-22.975592 11.98189-14.946488 0-25.940186-12.84657-25.940186-29.39887 0-15.81117 10.0055-29.39888 24.951988-29.39888 9.38788 0 17.91108 4.81746 22.35797 13.46419l12.72304-9.38788c-5.92918-11.61132-18.0346-19.14633-34.463386-19.14633-24.334365 0-42.739545 20.01101-42.739545 43.9748 0 25.32256 18.528704 44.96299 41.627823 44.96299 9.264348 0 17.293458-3.33517 24.457888-10.4996z"/><path d="m162.62873-350.74516c9.38788 0 17.91108-4.07632 23.71674-11.61132l.37058 3.58221c.86467 4.57042 4.19984 7.65854 10.37607 7.65854 1.9764 0 4.32337-.24705 7.28796-.86468v-14.08181c-2.84107-.12353-3.95279-1.4823-3.95279-4.94099v-20.13453c0-17.16993-10.87017-26.68133-29.39888-26.68133-9.63492 0-18.5287 2.71754-26.92838 8.27615l5.06451 10.4996c6.91738-4.81746 13.34067-7.28795 20.25805-7.28795 9.5114 0 14.45239 4.81746 14.45239 13.34066v3.70574c-4.19984-1.85287-10.0055-2.84106-15.81116-2.84106-16.18174 0-27.54601 8.5232-27.54601 20.87567 0 11.73485 9.5114 20.5051 22.11092 20.5051zm4.69394-12.10542c-6.29976 0-11.11722-4.19984-11.11722-9.75845 0-5.92919 6.05271-10.25255 14.57591-10.25255 4.19984 0 9.14083.9882 13.09362 2.47049v7.41148c0 1.60582-.9882 3.33517-2.71754 4.69394-2.84107 3.33517-8.27616 5.43509-13.83477 5.43509z"/><path d="m254.4346-417.4485c-.74115-.12352-1.60582-.12352-3.33517-.12352-6.91738 0-15.44059 5.92918-20.011 14.69944v-13.83477h-15.19354v64.72694h16.55231v-39.15733c3.45869-7.28795 11.9819-11.11722 21.9874-11.24074z"/><path d="m350.60051-392.37298c0-12.59952-3.33517-25.44609-19.5169-25.44609-11.24075 0-20.87568 4.94099-25.69314 13.09362v-11.9819h-14.94649v64.72694h16.55231v-37.79855c2.47049-7.78206 10.12902-13.4642 16.79936-13.4642 6.42328 0 10.25255 4.57042 10.25255 14.94649v36.31626h16.55231z"/><path d="m381.54538-351.98041v-64.72694h-16.55231v64.72694zm0-73.74424v-16.42879h-16.55231v16.42879z"/><path d="m392.5217-384.34388c0 17.91108 13.21715 33.59872 34.21634 33.59872 14.20534 0 24.95199-7.04091 29.39888-16.79936l-16.18173-4.94099c-1.9764 4.32337-7.53501 7.65853-13.4642 7.65853-9.26435 0-16.92288-8.15263-16.92288-19.5169 0-11.48779 7.41148-19.39338 16.92288-19.39338 5.55862 0 10.4996 2.71755 13.21715 7.41149l16.18173-4.94099c-4.94099-9.88198-15.19354-16.55231-29.27535-16.55231-21.12272 0-34.09282 15.44059-34.09282 33.47519z"/><path d="m526.47845-392.37298c0-12.72305-3.70574-25.44609-20.38157-25.44609-9.75845 0-18.40518 4.81746-23.22265 13.09362v-37.42799h-16.5523v90.17303h16.5523v-37.79855c2.4705-7.90559 10.12903-13.4642 16.18174-13.4642 6.79386 0 10.87017 4.81747 10.87017 14.94649v36.31626h16.55231z"/><path d="m575.59883-368.40919c-1.97639.86467-5.55861 2.34697-9.0173 2.34697s-6.17624-1.72935-6.17624-6.29976v-31.62232h13.58772v-12.72305h-13.58772v-20.9992h-16.55231v20.9992h-8.5232v12.72305h8.5232v37.18093c0 11.4878 7.65853 15.93468 16.79936 15.93468 7.04091 0 13.83477-2.47049 18.28166-4.44688z"/><path d="m641.80807-350.74516c16.05821 0 26.18724-7.90558 26.18724-20.5051 0-10.87017-7.16443-15.07001-25.07551-19.5169-9.51141-2.4705-12.72305-3.70574-12.72305-8.15263 0-5.06451 4.32337-7.28796 9.88198-7.28796 6.05271 0 12.22894 2.22345 18.77575 7.16443l6.67034-10.0055c-7.04091-6.17623-15.68764-8.89378-25.32257-8.89378-14.45239 0-25.44608 8.15263-25.44608 21.36978 0 9.88197 6.17623 13.46419 23.09911 18.0346 10.12903 2.71755 14.20534 4.19984 14.20534 8.77026 0 4.57041-4.07631 7.16443-10.62312 7.16443-7.41148 0-14.94649-2.96459-22.72854-8.52321l-6.17624 10.37608c7.28796 6.42328 18.52871 10.0055 29.27535 10.0055z"/><path d="m708.52301-350.74516c21.12272 0 33.84576-15.68764 33.84576-33.47519 0-18.03461-12.84656-33.59872-33.84576-33.59872s-33.96929 15.56411-33.96929 33.59872c0 17.78755 12.84656 33.47519 33.96929 33.47519zm-16.92289-33.47519c0-11.24075 7.41149-19.51691 16.92289-19.51691s16.92288 8.15263 16.92288 19.39338c0 11.36427-7.41148 19.5169-16.92288 19.5169s-16.92289-8.0291-16.92289-19.39337z"/><path d="m85.474046-213.49551c14.328865 0 25.446084-7.0409 30.140024-16.92288l-14.20534-3.95279c-2.099918 5.31156-8.770251 8.77025-15.31706 8.77025-8.646729 0-16.30526-6.05271-17.169933-16.18173h50.027503c.24705-1.35877.37057-3.45869.37057-5.55861 0-17.54051-12.59952-33.22815-33.722239-33.22815-21.122723 0-34.216341 15.44059-34.216341 33.84577 0 17.91108 13.217143 33.22814 34.092816 33.22814zm-16.799358-39.0338c.741148-9.63493 7.782056-16.05821 16.675834-16.05821 9.017303 0 16.058208 6.42328 16.922888 16.05821z"/><path d="m146.07642-214.73075v-64.72694h-16.55231v64.72694zm0-73.74425v-16.42878h-16.55231v16.42878z"/><path d="m221.28559-255.12333c0-12.59952-3.33517-25.44609-19.5169-25.44609-11.24075 0-20.87568 4.94099-25.69314 13.09362v-11.98189h-14.94649v64.72694h16.55231v-37.79856c2.47049-7.78206 10.12903-13.46419 16.79936-13.46419 6.42328 0 10.25255 4.57041 10.25255 14.94649v36.31626h16.55231z"/><path d="m255.45947-214.73075v-48.66873h15.81116v-12.59952h-15.81116v-4.57042c0-7.535 2.96459-11.61132 8.64673-11.61132 2.84107 0 6.54681.9882 9.0173 2.34697l3.33517-12.47599c-5.18804-2.4705-10.74665-3.82927-15.93469-3.82927-13.21714 0-21.61682 10.12903-21.61682 26.18724v3.95279h-8.5232v12.59952h8.5232v48.66873z"/><path d="m297.25135-213.49551c9.38788 0 17.91108-4.07631 23.71674-11.61132l.37058 3.58222c.86467 4.57041 4.19984 7.65853 10.37607 7.65853 1.9764 0 4.32337-.24705 7.28796-.86467v-14.08182c-2.84107-.12352-3.95279-1.4823-3.95279-4.94099v-20.13452c0-17.16993-10.87017-26.68134-29.39888-26.68134-9.63492 0-18.5287 2.71755-26.92838 8.27616l5.06451 10.4996c6.91738-4.81747 13.34067-7.28796 20.25805-7.28796 9.5114 0 14.45239 4.81746 14.45239 13.34067v3.70574c-4.19984-1.85287-10.0055-2.84107-15.81116-2.84107-16.18174 0-27.54601 8.5232-27.54601 20.87567 0 11.73485 9.5114 20.5051 22.11092 20.5051zm4.69394-12.10542c-6.29976 0-11.11722-4.19984-11.11722-9.75845 0-5.92918 6.05271-10.25255 14.57591-10.25255 4.19984 0 9.14083.9882 13.09362 2.4705v7.41148c0 1.60582-.9882 3.33517-2.71754 4.69394-2.84107 3.33516-8.27616 5.43508-13.83477 5.43508z"/><path d="m346.4412-247.09422c0 17.91108 13.21714 33.59871 34.21634 33.59871 14.20534 0 24.95199-7.0409 29.39888-16.79936l-16.18174-4.94098c-1.97639 4.32336-7.53501 7.65853-13.46419 7.65853-9.26435 0-16.92288-8.15263-16.92288-19.5169 0-11.4878 7.41148-19.39338 16.92288-19.39338 5.55861 0 10.4996 2.71754 13.21714 7.41148l16.18174-4.94099c-4.94099-9.88197-15.19354-16.55231-29.27536-16.55231-21.12272 0-34.09281 15.44059-34.09281 33.4752z"/><path d="m480.39795-255.12333c0-12.72304-3.70574-25.44609-20.38158-25.44609-9.75845 0-18.40518 4.81747-23.22264 13.09362v-37.42798h-16.55231v90.17303h16.55231v-37.79856c2.47049-7.90558 10.12902-13.46419 16.18173-13.46419 6.79386 0 10.87018 4.81746 10.87018 14.94649v36.31626h16.55231z"/></g><path d="m514.07116-222.75592h228.29761" fill="none" stroke="#fff" stroke-width="18.520834"/><g stroke="#0b1809" stroke-width="10.583333"><path d="m66.523834-151.27979h95.25v95.25h-95.25z" fill="#4a9c36" stroke-linecap="round" stroke-linejoin="round"/><path d="m371.17263-138.42859 47.625 95.250001h-95.25z" fill="#4a9c36" stroke-linecap="round" stroke-linejoin="round"/><circle cx="241.52678" cy="126.53271" fill="#4a9c36" r="47.625" stroke-linecap="round" stroke-linejoin="round"/><circle cx="691.69641" cy="-13.696444" fill="#4a9c36" r="47.625" stroke-linecap="round" stroke-linejoin="round"/><path d="m596.44642 269.83502-47.625-95.25h95.25z" fill="#4a9c36" stroke-linecap="round" stroke-linejoin="round"/><path d="m176.1369-104.41075 143.63096 6.803593" fill="none" marker-end="url(#b)" marker-mid="url(#h)"/><path d="m413.50594-24.279776 164.79762 173.113076" fill="none" marker-end="url(#f)" marker-mid="url(#l)"/><path d="m534.45832 167.0255-346.22618-204.912427" fill="none" marker-end="url(#e)" marker-mid="url(#k)"/><path d="m328.8393-25.03574-56.69645 79.374998" fill="none" marker-end="url(#c)" marker-mid="url(#i)"/><path d="m628.19641-22.767886-199.57141-62.744045" fill="none" marker-end="url(#a)" marker-mid="url(#g)"/><path d="m299.35714 102.72022 317.49999-94.4940595" fill="none" marker-end="url(#d)" marker-mid="url(#j)"/></g></g></svg>