<svg height="3000" viewBox="0 0 793.74998 793.75003" width="3000" xmlns="http://www.w3.org/2000/svg" xmlns:xlink="http://www.w3.org/1999/xlink"><marker id="a" orient="auto" overflow="visible" refX="0.0" refY="0.0"><path d="m0 0 5-5-17.5 5 17.5 5z" fill="#fff" fill-rule="evenodd" stroke="#fff" stroke-width="1pt" transform="matrix(.2 0 0 .2 1.2 0)"/></marker><marker id="b" orient="auto" overflow="visible" refX="0.0" refY="0.0"><path d="m0 0 5-5-17.5 5 17.5 5z" fill="#fff" fill-rule="evenodd" stroke="#fff" stroke-width="1pt" transform="matrix(-.2 0 0 -.2 -1.2 0)"/></marker><mask id="c"><path d="m-32-32h64v64h-64z"/><path d="m-34-32 24 32-24 32zm68 0-24 32 24 32z" fill="#fff"/></mask><g transform="translate(0 496.75002)"><path d="m.000002-496.75003h793.75v793.75h-793.75z" fill="#c01212"/><g fill="#fff" stroke-width="5.48999"><path d="m116.84949-430.54231c-7.65855-5.18805-18.405226-9.75847-30.634201-9.75847-17.7876 0-31.992975 9.63495-31.992975 27.54607 0 13.46423 8.15265 19.02285 24.828525 23.7168 13.711275 3.82928 22.728601 6.17625 22.728601 13.71128 0 5.80567-4.817476 9.01732-14.081851 9.01732-13.3407 0-26.557875-7.78207-29.522475-10.74667l-7.535025 14.69947c10.12905 7.16445 23.7168 11.3643 36.81045 11.3643 17.169971 0 32.487071-7.16445 32.487071-26.06377 0-16.05825-10.8702-21.49335-28.163696-25.94025-13.217175-3.4587-20.01105-5.31158-20.01105-12.47603 0-6.29977 4.69395-9.882 13.958325-9.882 10.499625 0 21.369821 6.17625 23.593271 8.64675z"/><path d="m169.96535-350.74516c16.42882 0 28.28722-14.823 28.28722-33.72232 0-18.2817-12.8466-33.35175-30.26362-33.35175-9.75848 0-17.54055 4.69395-22.35803 12.22897v-11.11725h-14.45242v91.03793h16.55235v-37.67513c4.32337 7.65855 12.10545 12.59955 22.2345 12.59955zm-5.55863-14.08185c-7.04092 0-13.71127-5.55862-16.67587-12.8466v-15.19357c2.22345-6.29978 9.3879-10.8702 15.68767-10.8702 10.25258 0 17.91113 8.3997 17.91113 19.2699 0 10.25257-6.9174 19.64047-16.92293 19.64047z"/><path d="m227.15753-350.74516c9.3879 0 17.91112-4.07632 23.7168-11.61135l.37057 3.58223c.86468 4.57042 4.19985 7.65855 10.3761 7.65855 1.9764 0 4.32338-.24705 7.28798-.86468v-14.08185c-2.84108-.12352-3.9528-1.4823-3.9528-4.941v-20.13457c0-17.16998-10.8702-26.6814-29.39895-26.6814-9.63495 0-18.52875 2.71755-26.92845 8.27617l5.06452 10.49963c6.9174-4.81748 13.3407-7.28798 20.2581-7.28798 9.51143 0 14.45243 4.81748 14.45243 13.3407v3.70575c-4.19985-1.85287-10.00553-2.84107-15.8112-2.84107-16.18178 0-27.54608 8.52322-27.54608 20.87572 0 11.73488 9.51143 20.50515 22.11098 20.50515zm4.69395-12.10545c-6.29978 0-11.11725-4.19985-11.11725-9.75847 0-5.9292 6.05272-10.25258 14.57595-10.25258 4.19985 0 9.14085.9882 13.09365 2.4705v7.4115c0 1.60583-.9882 3.33518-2.71755 4.69395-2.84108 3.33518-8.27618 5.4351-13.8348 5.4351z"/><path d="m276.32039-384.34396c0 17.91113 13.21717 33.5988 34.21642 33.5988 14.20538 0 24.95205-7.04092 29.39895-16.7994l-16.18177-4.941c-1.9764 4.32338-7.53503 7.65855-13.46423 7.65855-9.26437 0-16.92292-8.15265-16.92292-19.51695 0-11.48782 7.4115-19.39342 16.92292-19.39342 5.55863 0 10.49963 2.71755 13.21718 7.4115l16.18177-4.941c-4.941-9.882-15.19357-16.55235-29.27542-16.55235-21.12278 0-34.0929 15.44062-34.0929 33.47527z"/><path d="m379.46376-350.74516c14.3289 0 25.44615-7.04092 30.1401-16.92292l-14.20537-3.9528c-2.09993 5.31157-8.77028 8.77027-15.3171 8.77027-8.64675 0-16.3053-6.05272-17.16998-16.18177h50.02763c.24705-1.35878.37057-3.4587.37057-5.55863 0-17.54055-12.59955-33.22822-33.72232-33.22822-21.12278 0-34.21643 15.44062-34.21643 33.84585 0 17.91112 13.21718 33.22822 34.0929 33.22822zm-16.7994-39.0339c.74115-9.63495 7.78208-16.05825 16.67588-16.05825 9.01732 0 16.05825 6.4233 16.92292 16.05825z"/><path d="m415.6562-302.43317h-73.00327v14.94653h28.04017v72.75623h16.92293v-72.75623h28.04017z"/><path d="m440.73166-213.49516c21.12277 0 33.84585-15.68768 33.84585-33.47528 0-18.03465-12.8466-33.5988-33.84585-33.5988s-33.96938 15.56415-33.96938 33.5988c0 17.7876 12.8466 33.47528 33.96938 33.47528zm-16.92293-33.47528c0-11.24077 7.4115-19.51695 16.92293-19.51695 9.51142 0 16.92292 8.15265 16.92292 19.39343 0 11.3643-7.4115 19.51695-16.92292 19.51695-9.51143 0-16.92293-8.02913-16.92293-19.39343z"/><path d="m505.45887-213.49516c10.8702 0 20.2581-4.4469 26.06377-13.3407l.37058 5.18805c.61762 4.81747 4.57042 7.65855 10.49962 7.65855 1.85288 0 3.82928-.12353 7.16445-.74115v-14.08185c-2.84107-.12353-3.9528-1.4823-3.9528-4.941v-45.70425h-16.55235v40.14562c-3.82927 7.9056-10.25257 11.73488-16.67587 11.73488-7.04093 0-10.74668-5.06453-10.74668-14.94653v-36.93397h-16.55235v40.5162c0 16.67587 7.04093 25.44615 20.38163 25.44615z"/><path d="m600.57314-280.19867c-.74115-.12352-1.60583-.12352-3.33518-.12352-6.9174 0-15.44062 5.9292-20.01105 14.69948v-13.8348h-15.19357v64.7271h16.55235v-39.15743c3.4587-7.28797 11.98192-11.11725 21.98745-11.24077z"/><path d="m626.38974-214.73041v-64.7271h-16.55235v64.7271zm0-73.74443v-16.42883h-16.55235v16.42883z"/><path d="m665.79412-213.49516c16.05825 0 26.1873-7.9056 26.1873-20.50515 0-10.8702-7.16445-15.07005-25.07558-19.51695-9.51142-2.4705-12.72307-3.70575-12.72307-8.15265 0-5.06453 4.32337-7.28798 9.882-7.28798 6.05272 0 12.22897 2.22345 18.7758 7.16445l6.67035-10.00552c-7.04093-6.17625-15.68768-8.89381-25.32263-8.89381-14.45242 0-25.44615 8.15266-25.44615 21.36983 0 9.882 6.17625 13.46423 23.09918 18.03465 10.12905 2.71755 14.20537 4.19985 14.20537 8.77028 0 4.57042-4.07632 7.16445-10.62315 7.16445-7.4115 0-14.94652-2.9646-22.7286-8.52323l-6.17625 10.3761c7.28797 6.4233 18.52875 10.00553 29.27543 10.00553z"/><path d="m738.17975-231.15924c-1.9764.86468-5.55863 2.34698-9.01733 2.34698s-6.17625-1.72935-6.17625-6.29978v-31.6224h13.58775v-12.72307h-13.58775v-20.99926h-16.55235v20.99926h-8.52322v12.72307h8.52322v37.18103c0 11.48782 7.65855 15.93472 16.7994 15.93472 7.04093 0 13.8348-2.4705 18.2817-4.4469z"/></g><path d="m49.651885-247.67598h246.175505" fill="none" marker-end="url(#b)" stroke="#fff" stroke-width="18.520834"/><path d="m476.01922-382.76382h266.34955" fill="none" marker-start="url(#a)" stroke="#fff" stroke-width="18.520834"/><g fill-rule="evenodd"><path d="m228.05285 208.41241c-2.73878 1.4387 12.29874 37.99867 16.77035 38.74522 44.84848 5.11231 167.88377-71.67969 186.99116-135.49455 131.93445-23.961156 213.34339-90.287116 252.79609-214.87507 1.79442-6.50258 14.42487-15.26745 34.98638-27.83008-15.49353 4.61608-34.23345 13.08723-41.63666 8.09602-38.64936-20.4336-69.23103-28.60425-94.26078-28.33605-13.66391-7.1772-35.72826-9.16837-49.73271-.57827-60.10996 6.3732-130.03666 36.26552-216.27933 105.248221-48.7414-5.611476-97.55054-10.789918-153.82432 31.805759.0718 5.554315-.98174 11.6710783 3.46971 15.03547227-18.11337 8.64498873-35.82048 18.50879473-50.88926 36.28750873-12.00095 9.361033 29.08114 41.982191 35.85378 37.877816 33.65328-21.279663 72.79433-23.275338 115.07915-18.649772 7.18126 21.203475 17.63352 39.181225 34.62705 56.023675-2.32424 43.9109-28.08131 73.10903-73.95061 96.6441z" fill="#6e0a0a"/><g fill="#ee9700"><path d="m126.21832 35.480335c77.79954-60.182093 210.17426-75.047702 244.11967-47.433663 5.10948 5.305504-44.79841 52.823834-85.05341 67.061354 24.67538-2.194342 106.04938-50.1476138 92.82268-78.101947-19.54363-39.476036-177.78159-20.886306-251.88894 58.474256z"/><path d="m383.32295-38.805277c50.67213-47.294552 79.61281-57.109431 112.47682-69.394433 3.03952 6.26881 6.47669 13.93945 9.74367 22.243496-39.03618 12.718653-85.49744 29.805988-122.22049 47.150937z"/><path d="m602.61047-132.57245c10.46293 15.26546 5.63756 21.20996-2.8716 41.768311 6.28427-5.550784 14.92095-9.918291 21.97562-19.863561 20.98485-3.89086 38.80069-3.51843 58.55881-3.3149-23.20276-21.58401-51.31531-18.49475-77.66283-18.58985z"/><path d="m431.89903 111.54932c-38.51568 9.40339-75.97284 13.27863-111.03106 4.6263 22.33284 8.84187 48.64149 15.35447 108.57335 2.16858z"/></g><path d="m260.72612 66.153812 22.26403 49.154408c-15.19563 24.65477-31.1042 64.72859-67.94873 26.02291-58.23693 13.78206-114.70793 42.7496-172.907814 70.55099 45.171368-36.46346 97.977874-65.29181 148.041474-96.86304 16.48489-38.171785 41.21601-65.043735 70.55104-48.865268z" fill="#e10000"/><path d="m265.12961 75.672902 12.85476 28.327158c-8.77363 14.20832-17.95883 37.30244-39.23201 14.99673-33.62465 7.94251-66.2297 24.63615-99.83296 40.65782 26.0809-21.01348 56.57015-37.62698 85.47571-55.82117 9.51799-21.997971 23.79714-37.484004 40.7345-28.160538z" fill="#ffac1c"/></g><ellipse cx="552.91663" cy="-117.97596" fill="#ee9700" rx="55.31316" ry="42.113213" stroke="#6e0a0a" stroke-linecap="round" stroke-linejoin="round" stroke-width="5.275296"/><g fill="#fff" stroke-width=".661457"><path d="m4.9741644 290.40652v-7.51414h-.740831v7.51414z"/><path d="m14.911874 287.17862c0-1.43933-.444498-2.38124-1.682744-2.38124-.899581 0-1.619245.48683-2.127244 1.41816-.126999-.83608-.709081-1.41816-1.6298278-1.41816-.8889972 0-1.6509948.49741-2.1060766 1.34407v-1.24882h-.6561646v5.51389h.7196644v-3.37607c.2751657-.94191.9842468-1.57691 1.8097442-1.57691.8149144 0 1.2064964.5715 1.2064964 1.87324v3.07974h.719664v-3.36548c.264583-.93133.973664-1.5875 1.809744-1.5875.804331 0 1.21708.59267 1.21708 1.87324v3.07974h.719664z"/><path d="m17.822288 290.51236c.878414 0 1.693328-.37042 2.201327-1.02658l.02117.43391c.01058.3175.232833.51858.592665.51858.07408 0 .15875-.0106.275166-.0317v-.63499c-.179916 0-.264583-.0952-.264583-.29634v-2.48707c0-1.36525-.846664-2.19074-2.222492-2.19074-.677332 0-1.365246.24341-2.074327.71966l.253999.47625c.603248-.42333 1.206496-.65617 1.767411-.65617.96308 0 1.555745.61384 1.555745 1.5875v.49741c-.455082-.17991-1.068913-.28574-1.629828-.28574-1.354662 0-2.307159.68791-2.307159 1.66157 0 .96308.793747 1.7145 1.83091 1.7145zm.169333-.55033c-.740831 0-1.312329-.52917-1.312329-1.21708 0-.68792.698498-1.15358 1.714495-1.15358.529165 0 1.05833.10583 1.534578.28575v.89958c0 .127-.0635.28575-.190499.41275-.317499.46566-1.005414.77258-1.746245.77258z"/><path d="m24.415685 290.48061c.793748 0 1.598079-.4445 2.021411-1.143v1.09008c0 1.18533-.910164 1.76741-1.979077 1.76741-.825498 0-1.598079-.32808-2.031994-1.02658l-.444499.34925c.486832.762 1.206497 1.24883 2.476493 1.24883 1.471078 0 2.698741-.80433 2.698741-2.33891v-5.53506h-.645581v1.15358c-.486832-.70909-1.174747-1.24883-2.11666-1.24883-1.513412 0-2.561159 1.33349-2.561159 2.86807 0 1.44991 1.068913 2.81516 2.582325 2.81516zm.201083-.60325c-1.142996 0-2.05316-1.016-2.05316-2.20133 0-1.09008.740831-2.24366 1.968494-2.24366.793747 0 1.598078.58209 1.904994 1.37583v1.70391c-.127.67734-.963081 1.36525-1.820328 1.36525z"/><path d="m31.125498 290.51236c1.068913 0 2.010827-.5715 2.349492-1.37583l-.624414-.16933c-.264583.59266-.973664.99483-1.693328.99483-1.05833 0-1.947327-.86783-2.042577-2.05316h4.720151c.01058-.0423.01058-.17992.01058-.28575 0-1.51341-1.111247-2.82574-2.730492-2.82574-1.587494 0-2.751657 1.29116-2.751657 2.83632 0 1.56633 1.164163 2.87866 2.762241 2.87866zm-2.02141-3.15383c.07408-1.16416.941913-2.00024 2.02141-2.00024 1.079496 0 1.936744.8255 2.031993 2.00024z"/><path d="m37.274386 287.6337c0 1.56633 1.164163 2.87866 2.772824 2.87866 1.05833 0 1.979077-.5715 2.285993-1.36525l-.709081-.21166c-.169333.50799-.899581.94191-1.608662.94191-1.09008 0-2.010827-.99483-2.010827-2.24366 0-1.25941.878414-2.20133 2.000244-2.20133.677331 0 1.269996.33867 1.576912.89958l.698497-.22224c-.391582-.80434-1.206496-1.31233-2.243659-1.31233-1.629828 0-2.762241 1.26999-2.762241 2.83632z"/><path d="m46.217269 284.87146c-.05292-.0106-.08467-.0106-.137583-.0106-.783164 0-1.523995.50799-1.936744 1.35466v-1.32291h-.677331v5.51389h.719664v-3.42898c.296333-.889 1.068913-1.41817 2.031994-1.44992z"/><path d="m49.286436 290.51236c1.068913 0 2.010827-.5715 2.349493-1.37583l-.624415-.16933c-.264583.59266-.973664.99483-1.693328.99483-1.05833 0-1.947327-.86783-2.042577-2.05316h4.720152c.01058-.0423.01058-.17992.01058-.28575 0-1.51341-1.111246-2.82574-2.730491-2.82574-1.587495 0-2.751658 1.29116-2.751658 2.83632 0 1.56633 1.164163 2.87866 2.762241 2.87866zm-2.02141-3.15383c.07408-1.16416.941913-2.00024 2.02141-2.00024s1.936744.8255 2.031994 2.00024z"/><path d="m55.382414 290.51236c.804331 0 1.619245-.45508 2.053161-1.17475v.53975c0 .30692.296332.56091.634998.56091.07408 0 .148166-.0106.253999-.0317v-.63499c-.179916 0-.253999-.0952-.253999-.29634v-6.79447h-.719665v3.36549c-.412749-.68792-1.164163-1.24883-2.08491-1.24883-1.460495 0-2.518825 1.31233-2.518825 2.86807 0 1.48166 1.100663 2.84691 2.635241 2.84691zm.15875-.635c-1.15358 0-2.05316-1.016-2.05316-2.21191 0-1.13241.772581-2.23308 1.95791-2.23308.761998 0 1.629828.61384 1.904994 1.37583v1.70391c-.116416.75142-1.09008 1.36525-1.809744 1.36525z"/><path d="m60.420062 290.40652v-5.51389h-.719664v5.51389zm0-6.66747v-1.05833h-.719664v1.05833z"/><path d="m64.462887 289.55986c-.08467.0529-.433916.24342-.836081.24342-.338666 0-.634998-.1905-.666748-.59267v-3.74649h1.269996v-.57149h-1.269996v-1.86267h-.719664v1.86267h-.761998v.57149h.761998v3.94757c0 .70909.539748 1.05833 1.164163 1.05833.592664 0 1.079496-.25399 1.248829-.32808z"/><path d="m66.060954 285.96154v-1.03716h-.613831v1.03716zm0 4.44498v-1.03716h-.613831v1.03716z"/><path d="m74.876834 287.17862c0-1.41816-.486832-2.38124-1.746245-2.38124-.89958 0-1.735661.51858-2.169576 1.34407v-3.46073h-.719664v7.7258h.719664v-3.37607c.253999-.89958 1.111246-1.57691 1.92616-1.57691.825498 0 1.269996.62442 1.269996 1.87324v3.07974h.719665z"/><path d="m78.813831 289.55986c-.08467.0529-.433915.24342-.836081.24342-.338665 0-.634998-.1905-.666747-.59267v-3.74649h1.269995v-.57149h-1.269995v-1.86267h-.719665v1.86267h-.761997v.57149h.761997v3.94757c0 .70909.539748 1.05833 1.164163 1.05833.592665 0 1.079497-.25399 1.248829-.32808z"/><path d="m82.359226 289.55986c-.08467.0529-.433915.24342-.836081.24342-.338665 0-.634998-.1905-.666748-.59267v-3.74649h1.269996v-.57149h-1.269996v-1.86267h-.719664v1.86267h-.761998v.57149h.761998v3.94757c0 .70909.539748 1.05833 1.164163 1.05833.592665 0 1.079497-.25399 1.248829-.32808z"/><path d="m86.264453 290.51236c1.481662 0 2.497659-1.30175 2.497659-2.85749 0-1.47108-1.100663-2.85749-2.614075-2.85749-.836081 0-1.608662.47624-2.05316 1.16416v-1.06891h-.645582v7.76814h.719665v-3.39724c.433915.70908 1.174746 1.24883 2.095493 1.24883zm-.201083-.635c-.814914 0-1.566328-.60325-1.89441-1.38641v-1.69333c.105833-.74083 1.09008-1.36525 1.809744-1.36525 1.15358 0 2.05316 1.03717 2.05316 2.2225 0 1.12183-.772581 2.22249-1.968494 2.22249z"/><path d="m91.810106 290.51236c1.301746 0 2.14841-.64558 2.14841-1.651 0-.94191-.730248-1.21708-2.14841-1.55574-.984247-.23283-1.375829-.35983-1.375829-.94192 0-.71966.603248-1.02658 1.354662-1.02658.624415 0 1.24883.21167 1.661578.635l.349249-.42333c-.423332-.4445-1.142996-.75141-1.98966-.75141-1.132413 0-2.063744.56091-2.063744 1.67216 0 .86783.571499 1.09008 1.852078 1.40758 1.111246.26458 1.661578.43391 1.661578 1.04774 0 .65617-.582082 1.03717-1.460496 1.03717-.730247 0-1.365245-.254-1.979077-.762l-.328082.48683c.592665.53975 1.460495.8255 2.317743.8255z"/><path d="m95.641261 285.96154v-1.03716h-.613831v1.03716zm0 4.44498v-1.03716h-.613831v1.03716z"/><path d="m101.61024 282.89238-4.995321 7.51414h.814914l4.995317-7.51414z"/><path d="m105.38848 282.89238-4.99532 7.51414h.81492l4.99531-7.51414z"/><path d="m112.09829 289.66569-1.04775-2.51882.94191-2.24366h-.61383l-.71966 1.79916-.71967-1.79916h-.60325l.94192 2.24366-1.04775 2.51882-2.01083-4.77306h-.69849l2.37066 5.51389h.59266l1.17475-2.81515 1.18533 2.81515h.59266l2.37066-5.51389h-.70908z"/><path d="m120.7025 289.66569-1.04774-2.51882.94191-2.24366h-.61383l-.71967 1.79916-.71966-1.79916h-.60325l.94191 2.24366-1.04774 2.51882-2.01083-4.77306h-.6985l2.37066 5.51389h.59267l1.17474-2.81515 1.18533 2.81515h.59267l2.37066-5.51389h-.70908z"/><path d="m129.30673 289.66569-1.04775-2.51882.94191-2.24366h-.61383l-.71966 1.79916-.71967-1.79916h-.60324l.94191 2.24366-1.04775 2.51882-2.01082-4.77306h-.6985l2.37066 5.51389h.59266l1.17475-2.81515 1.18533 2.81515h.59266l2.37066-5.51389h-.70908z"/><path d="m132.97913 290.40652v-1.03716h-.62441v1.03716z"/><path d="m136.84202 290.51236c1.06891 0 2.01083-.5715 2.34949-1.37583l-.62441-.16933c-.26458.59266-.97367.99483-1.69333.99483-1.05833 0-1.94733-.86783-2.04258-2.05316h4.72015c.0106-.0423.0106-.17992.0106-.28575 0-1.51341-1.11125-2.82574-2.73049-2.82574-1.5875 0-2.75166 1.29116-2.75166 2.83632 0 1.56633 1.16416 2.87866 2.76224 2.87866zm-2.02141-3.15383c.0741-1.16416.94191-2.00024 2.02141-2.00024s1.93674.8255 2.03199 2.00024z"/><path d="m140.70493 289.40111c0 .66675.41275 1.06891 1.06891 1.06891.28575 0 .73025-.0847.99483-.19049l-.127-.58209c-.17991.0741-.41275.11642-.57149.11642-.40217 0-.64559-.24342-.64559-.65616v-6.47698h-.71966z"/><path d="m145.93307 290.51236c1.06891 0 2.01083-.5715 2.34949-1.37583l-.62441-.16933c-.26459.59266-.97367.99483-1.69333.99483-1.05833 0-1.94733-.86783-2.04258-2.05316h4.72015c.0106-.0423.0106-.17992.0106-.28575 0-1.51341-1.11125-2.82574-2.73049-2.82574-1.5875 0-2.75166 1.29116-2.75166 2.83632 0 1.56633 1.16416 2.87866 2.76224 2.87866zm-2.02141-3.15383c.0741-1.16416.94191-2.00024 2.02141-2.00024s1.93674.8255 2.03199 2.00024z"/><path d="m154.48437 290.40652-2.33891-3.24907 2.25424-2.25424h-.81491l-3.10091 3.02682v-5.24931h-.71967v7.7258h.71967v-1.72507l1.18533-1.10067 2.03199 2.82574z"/><path d="m157.8287 289.55986c-.0847.0529-.43391.24342-.83608.24342-.33867 0-.635-.1905-.66675-.59267v-3.74649h1.27v-.57149h-1.27v-1.86267h-.71966v1.86267h-.762v.57149h.762v3.94757c0 .70909.53975 1.05833 1.16416 1.05833.59267 0 1.0795-.25399 1.24883-.32808z"/><path d="m161.67043 284.87146c-.0529-.0106-.0847-.0106-.13758-.0106-.78317 0-1.524.50799-1.93675 1.35466v-1.32291h-.67733v5.51389h.71966v-3.42898c.29634-.889 1.06892-1.41817 2.032-1.44992z"/><path d="m164.70784 290.51236c1.59808 0 2.74107-1.31233 2.74107-2.84691 0-1.54516-1.15358-2.86807-2.74107-2.86807-1.57691 0-2.73049 1.32291-2.73049 2.86807 0 1.53458 1.13241 2.84691 2.73049 2.84691zm-2.00025-2.83633c0-1.23824.91017-2.24366 2.00025-2.24366 1.10066 0 2.01082.99483 2.01082 2.2225 0 1.22766-.91016 2.22249-2.01082 2.22249-1.10067 0-2.00025-.97366-2.00025-2.20133z"/><path d="m168.68715 289.40111c0 .66675.41275 1.06891 1.06892 1.06891.28575 0 .73024-.0847.99483-.19049l-.127-.58209c-.17992.0741-.41275.11642-.5715.11642-.40217 0-.64558-.24342-.64558-.65616v-6.47698h-.71967z"/><path d="m171.5658 289.40111c0 .66675.41275 1.06891 1.06891 1.06891.28575 0 .73025-.0847.99483-.19049l-.127-.58209c-.17991.0741-.41274.11642-.57149.11642-.40217 0-.64559-.24342-.64559-.65616v-6.47698h-.71966z"/><path d="m175.79912 290.51236c.87842 0 1.69333-.37042 2.20133-1.02658l.0212.43391c.0106.3175.23283.51858.59266.51858.0741 0 .15875-.0106.27517-.0317v-.63499c-.17992 0-.26458-.0952-.26458-.29634v-2.48707c0-1.36525-.84667-2.19074-2.2225-2.19074-.67733 0-1.36524.24341-2.07432.71966l.254.47625c.60324-.42333 1.20649-.65617 1.76741-.65617.96308 0 1.55574.61384 1.55574 1.5875v.49741c-.45508-.17991-1.06891-.28574-1.62983-.28574-1.35466 0-2.30716.68791-2.30716 1.66157 0 .96308.79375 1.7145 1.83091 1.7145zm.16934-.55033c-.74083 0-1.31233-.52917-1.31233-1.21708 0-.68792.6985-1.15358 1.71449-1.15358.52917 0 1.05833.10583 1.53458.28575v.89958c0 .127-.0635.28575-.1905.41275-.3175.46566-1.00541.77258-1.74624.77258z"/><path d="m182.93227 284.87146c-.0529-.0106-.0847-.0106-.13758-.0106-.78317 0-1.524.50799-1.93675 1.35466v-1.32291h-.67733v5.51389h.71967v-3.42898c.29633-.889 1.06891-1.41817 2.03199-1.44992z"/><path d="m186.35067 289.55986c-.0847.0529-.43391.24342-.83608.24342-.33866 0-.635-.1905-.66675-.59267v-3.74649h1.27v-.57149h-1.27v-1.86267h-.71966v1.86267h-.762v.57149h.762v3.94757c0 .70909.53975 1.05833 1.16416 1.05833.59267 0 1.0795-.25399 1.24883-.32808z"/><path d="m187.95932 290.40652v-1.03716h-.62441v1.03716z"/><path d="m191.7058 290.51236c.80433 0 1.61924-.45508 2.05316-1.17475v.53975c0 .30692.29633.56091.635.56091.0741 0 .14816-.0106.254-.0317v-.63499c-.17992 0-.254-.0952-.254-.29634v-6.79447h-.71967v3.36549c-.41275-.68792-1.16416-1.24883-2.08491-1.24883-1.46049 0-2.51882 1.31233-2.51882 2.86807 0 1.48166 1.10066 2.84691 2.63524 2.84691zm.15875-.635c-1.15358 0-2.05316-1.016-2.05316-2.21191 0-1.13241.77258-2.23308 1.95791-2.23308.762 0 1.62983.61384 1.90499 1.37583v1.70391c-.11641.75142-1.09008 1.36525-1.80974 1.36525z"/><path d="m198.40502 290.51236c1.06892 0 2.01083-.5715 2.3495-1.37583l-.62442-.16933c-.26458.59266-.97366.99483-1.69333.99483-1.05833 0-1.94732-.86783-2.04257-2.05316h4.72015c.0106-.0423.0106-.17992.0106-.28575 0-1.51341-1.11124-2.82574-2.73049-2.82574-1.58749 0-2.75166 1.29116-2.75166 2.83632 0 1.56633 1.16417 2.87866 2.76224 2.87866zm-2.02141-3.15383c.0741-1.16416.94192-2.00024 2.02141-2.00024 1.0795 0 1.93675.8255 2.032 2.00024z"/><path d="m206.7235 282.89238-4.99531 7.51414h.81491l4.99532-7.51414z"/><path d="m210.0784 288.2687c0-1.016.46566-1.29116.96308-1.56633.71966-.39158 1.42874-.762 1.42874-1.88383 0-1.36524-1.02658-2.02141-2.06374-2.02141-.92075 0-1.82033.49742-2.21191 1.36525l.49742.3175c.30691-.60325.95249-1.0795 1.70391-1.0795.73025 0 1.43933.45508 1.43933 1.37583 0 1.03716-.91017 1.35466-1.47108 1.69333-.61383.37041-.89958.86783-.89958 1.79916zm.0212 2.13782v-1.13241h-.62442v1.13241z"/><path d="m216.4813 290.51236c1.48167 0 2.49766-1.30175 2.49766-2.85749 0-1.47108-1.10066-2.85749-2.61407-2.85749-.83608 0-1.60866.47624-2.05316 1.16416v-1.06891h-.64558v7.76814h.71966v-3.39724c.43392.70908 1.17475 1.24883 2.09549 1.24883zm-.20108-.635c-.81491 0-1.56633-.60325-1.89441-1.38641v-1.69333c.10583-.74083 1.09008-1.36525 1.80974-1.36525 1.15358 0 2.05316 1.03717 2.05316 2.2225 0 1.12183-.77258 2.22249-1.96849 2.22249z"/><path d="m223.31811 288.35336v-.51858h-3.19616v.51858zm0-1.21707v-.51859h-3.19616v.51859z"/><path d="m228.52509 291.7506v-1.88382h.93133v-.65617h-.93133v-4.84715h-.48683l-3.75707 4.86832v.635h3.52424v1.88382zm-.64558-6.25473v3.71474h-2.83632z"/><path d="m230.56768 291.7506h.82549l3.79941-7.51414h-5.1964v.66675h4.0534z"/><path d="m239.12955 291.7506v-1.88382h.93133v-.65617h-.93133v-4.84715h-.48683l-3.75707 4.86832v.635h3.52424v1.88382zm-.64558-6.25473v3.71474h-2.83632z"/><path d="m243.37345 289.75036v-5.3869h-.74083c-.0635.127-1.06892 1.00541-1.72508 1.00541v.6985c.55033 0 1.49224-.51858 1.72508-.84666v4.52965h-1.50283v.65616h3.58774v-.65616z"/></g><path d="m438.15 195.39998h338.6666496v84.6666624h-338.6666496z" fill="none"/><g transform="matrix(1.3229166 0 0 1.3229166 480.483331 237.733311)"><path d="m-24-24h12l12 16 12-16h12l-36 48h-12l18-24zm48 48h-12l-9-12 6-8z" fill="#fff"/><g fill="none" stroke="#fff" stroke-width="3"><circle mask="url(#c)" r="18"/><circle mask="url(#c)" r="26"/></g></g><g fill="#fff" transform="matrix(1.3229166 0 0 1.3229166 438.15 195.39998)"><g><path d="m68.075 10.25 6.675 9-6.475 8.75h2.5l5.2-7.15 5.2 7.15h2.475l-6.475-8.75 6.675-9h-2.475l-5.4 7.4-5.4-7.4z"/><path d="m85.498305 33.5c.45.1.75.125 1.05.125 1.875 0 2.95-1.025 3.4-2.2l6.35-16.475h-2.1l-4.05 11.075-4.45-11.075h-2.275l5.525 13.05c-1.175 3.075-1.5 3.65-2.3 3.65-.225 0-.725-.05-1.15-.1z"/><path d="m105.29664 14.875c-.175-.025-.4-.025-.725-.025-1.65.125-3.225 1.325-4.125 3.125v-3.025h-2.049995v13.05h2.199995v-8.05c.7-1.9 2.5-3.025 4.7-3.075z"/><path d="m109.545 28v-13.05h-2.2v13.05zm0-15.5v-2.75h-2.2v2.75z"/><path d="m113.01833 25.425c0 1.725 1.05 2.75 2.75 2.75.775 0 1.9-.225 2.625-.525l-.35-1.775c-.425.175-.975.3-1.35.3-.925 0-1.475-.575-1.475-1.55v-14.875h-2.2z"/><path d="m120.04165 25.425c0 1.725 1.05 2.75 2.75 2.75.775 0 1.9-.225 2.625-.525l-.35-1.775c-.425.175-.975.3-1.35.3-.925 0-1.475-.575-1.475-1.55v-14.875h-2.2z"/><path d="m129.21497 28v-13.05h-2.2v13.05zm0-15.5v-2.75h-2.2v2.75z"/><path d="m135.9883 28.25c2.025 0 3.9-.85 5.075-2.4l.05.925c.1.725.625 1.325 1.5 1.325.325 0 .6-.025 1.05-.1v-1.9c-.5-.025-.7-.25-.7-.8v-5.325c0-3.3-2.05-5.25-5.45-5.25-1.725 0-3.4.575-5.075 1.7l.725 1.425c1.425-1 2.8-1.525 4.15-1.525 2.175 0 3.45 1.3 3.45 3.425v1.05c-1-.4-2.375-.65-3.65-.65-3.225 0-5.5 1.65-5.5 4.025 0 2.3 1.9 4.075 4.375 4.075zm.575-1.65c-1.625 0-2.85-1.125-2.85-2.6 0-1.5 1.525-2.525 3.725-2.525 1.125 0 2.3.225 3.325.625v1.925c0 .3-.175.675-.475.975-.7.975-2.175 1.6-3.725 1.6z"/><path d="m157.68665 20.2c0-3.15-.875-5.475-3.9-5.475-2.3 0-4.4 1.2-5.425 3.025v-2.8h-2v13.05h2.2v-7.875c.6-1.975 2.55-3.425 4.35-3.425 1.725 0 2.575 1.225 2.575 4v7.3h2.2z"/><path d="m180.63334 28h1.9v-17.725h-2.25v13.8l-11-13.825h-1.75v17.75h2.25v-13.55z"/><path d="m191.78167 28.25c3.925 0 6.6-3.125 6.6-6.75 0-3.65-2.7-6.775-6.6-6.775-3.875 0-6.575 3.125-6.575 6.775 0 3.625 2.65 6.75 6.575 6.75zm-4.325-6.725c0-2.725 1.95-4.9 4.325-4.9 2.4 0 4.35 2.15 4.35 4.85 0 2.725-1.95 4.875-4.35 4.875s-4.325-2.1-4.325-4.825z"/><path d="m203.13003 28v-13.05h-2.2v13.05zm0-15.5v-2.75h-2.2v2.75z"/><path d="m211.12837 28.25c3.15 0 5.175-1.55 5.175-3.975 0-2.225-1.65-2.925-5.125-3.75-2.225-.55-3.075-.825-3.075-2.05 0-1.5 1.275-2.15 2.875-2.15 1.425 0 2.85.475 3.95 1.45l1-1.325c-1.175-1.025-2.95-1.725-4.9-1.725-2.775 0-5 1.425-5 4.05 0 2.05 1.325 2.65 4.475 3.425 2.5.6 3.675.975 3.675 2.275 0 1.35-1.225 2.15-3.1 2.15-1.675 0-3.2-.6-4.725-1.75l-.95 1.475c1.45 1.225 3.65 1.9 5.725 1.9z"/><path d="m224.55168 28.25c2.625 0 4.85-1.375 5.7-3.3l-1.9-.525c-.55 1.3-2.125 2.175-3.725 2.175-2.275 0-4.2-1.8-4.4-4.375h10.825c.025-.15.05-.5.05-.85 0-3.5-2.575-6.65-6.525-6.65-3.925 0-6.675 3.075-6.675 6.75s2.725 6.775 6.65 6.775zm-4.375-7.65c.175-2.475 2.075-4.225 4.4-4.225s4.225 1.725 4.45 4.225z"/><path d="m238.00001 28.25c3.15 0 5.175-1.55 5.175-3.975 0-2.225-1.65-2.925-5.125-3.75-2.225-.55-3.075-.825-3.075-2.05 0-1.5 1.275-2.15 2.875-2.15 1.425 0 2.85.475 3.95 1.45l1-1.325c-1.175-1.025-2.95-1.725-4.9-1.725-2.775 0-5 1.425-5 4.05 0 2.05 1.325 2.65 4.475 3.425 2.5.6 3.675.975 3.675 2.275 0 1.35-1.225 2.15-3.1 2.15-1.675 0-3.2-.6-4.725-1.75l-.95 1.475c1.45 1.225 3.65 1.9 5.725 1.9z"/></g><g><path d="m80.136 37.445v6.642h-9.184v-6.642h-1.0455v14.555h1.0455v-6.97h9.184v6.97h1.0455v-14.555z"/><path d="m88.027704 38.88v-1.804h-.902v1.804zm2.788 0v-1.804h-.902v1.804zm-1.845 13.325c2.9725 0 5.207-2.542 5.207-5.5145 0-2.993-2.2755-5.535-5.207-5.535-2.952 0-5.207 2.542-5.207 5.535 0 2.9725 2.214 5.5145 5.207 5.5145zm-4.182-5.4735c0-2.542 1.9065-4.6535 4.182-4.6535s4.1615 2.091 4.1615 4.592c0 2.542-1.886 4.6125-4.182 4.6125s-4.1615-2.0295-4.1615-4.551z"/><path d="m101.65938 41.299c-.1435 0-.369 0-.6355.0205-1.373504.1435-2.685504 1.148-3.423504 2.6445v-2.624h-.984v10.66h1.025v-6.6625c.574-1.8655 2.1115-3.0135 4.018004-3.075z"/><path d="m105.08206 52v-9.8195h3.034v-.8405h-3.034v-.369c0-2.091.779-3.239 2.173-3.239.5945 0 1.2095.205 1.5785.5125l.369-.738c-.492-.41-1.312-.6765-2.132-.6765-1.8655 0-3.0135 1.558-3.0135 4.1615v.3485h-1.4965v.8405h1.4965v9.8195z"/><path d="m113.38377 52.205c1.886 0 3.6285-1.025 4.551-2.7265v1.599c0 .574.5125.943 1.0455.943.0615 0 .164 0 .3075-.0205v-.9225c-.287 0-.4305-.1845-.4305-.5125v-9.225h-1.025v6.724c-.6355 1.927-2.3575 3.2185-4.141 3.2185-1.804 0-2.6855-1.2915-2.6855-3.936v-6.0065h-1.025v6.15c0 3.116 1.1685 4.715 3.403 4.715z"/><path d="m130.80796 45.8705c0-3.0135-.861-4.715-3.1775-4.715-1.886 0-3.7105 1.107-4.5715 2.7265v-2.542h-.9635v10.66h1.025v-6.601c.5535-1.886 2.419-3.3005 4.223-3.3005 1.681 0 2.4395 1.2095 2.4395 3.9565v5.945h1.025z"/><path d="m142.71765 52-4.592-6.314 4.4485-4.3255h-1.189l-6.478 6.1295v-10.455h-1.025v14.965h1.025v-3.3825l2.5215-2.3165 4.1615 5.699z"/><path d="m149.76883 52.205c2.911 0 4.879-2.542 4.879-5.5145 0-2.8085-2.132-5.535-5.1045-5.535-1.6195 0-3.157.9635-4.0385 2.3165v-2.132h-.943v15.0265h1.025v-6.6625c.8815 1.394 2.3575 2.501 4.182 2.501zm-.246-.9225c-1.7015 0-3.239-1.2505-3.936-2.829v-3.5055c.1845-1.517 2.2755-2.87 3.7515-2.87 2.378 0 4.264 2.173 4.264 4.6125 0 2.296-1.599 4.592-4.0795 4.592z"/><path d="m162.12951 41.299c-.1435 0-.369 0-.6355.0205-1.3735.1435-2.6855 1.148-3.4235 2.6445v-2.624h-.984v10.66h1.025v-6.6625c.574-1.8655 2.1115-3.0135 4.018-3.075z"/><path d="m167.99171 52.205c2.9725 0 5.207-2.542 5.207-5.5145 0-2.993-2.2755-5.535-5.207-5.535-2.952 0-5.207 2.542-5.207 5.535 0 2.9725 2.214 5.5145 5.207 5.5145zm-4.182-5.4735c0-2.542 1.9065-4.6535 4.182-4.6535s4.1615 2.091 4.1615 4.592c0 2.542-1.886 4.6125-4.182 4.6125s-4.1615-2.0295-4.1615-4.551z"/><path d="m180.02438 52.205c1.5785 0 3.1775-.9225 4.0385-2.337v1.189c0 .4715.4305.984.984.984.1025 0 .205-.0205.369-.041v-.9225c-.287 0-.4305-.1845-.4305-.5125v-13.53h-1.025v6.6215c-.82-1.353-2.3165-2.501-4.1615-2.501-2.829 0-4.8995 2.5625-4.8995 5.535 0 2.829 2.1525 5.5145 5.125 5.5145zm.1845-.9225c-2.378 0-4.264-2.132-4.264-4.5715 0-2.337 1.599-4.633 4.0795-4.633 1.558 0 3.362 1.271 3.936 2.829v3.5055c-.1845 1.558-2.255 2.87-3.7515 2.87z"/><path d="m191.52407 52.205c1.886 0 3.6285-1.025 4.551-2.7265v1.599c0 .574.5125.943 1.0455.943.0615 0 .164 0 .3075-.0205v-.9225c-.287 0-.4305-.1845-.4305-.5125v-9.225h-1.025v6.724c-.6355 1.927-2.3575 3.2185-4.141 3.2185-1.804 0-2.6855-1.2915-2.6855-3.936v-6.0065h-1.025v6.15c0 3.116 1.1685 4.715 3.403 4.715z"/><path d="m209.07126 52-4.592-6.314 4.4485-4.3255h-1.189l-6.478 6.1295v-10.455h-1.025v14.965h1.025v-3.3825l2.5215-2.3165 4.1615 5.699z"/><path d="m215.36394 50.6675c-.123.082-.82.492-1.6605.492-.6765 0-1.3325-.3895-1.3325-1.189v-7.79h2.4805v-.8405h-2.4805v-3.649h-1.025v3.649h-1.4965v.8405h1.4965v8.036c0 1.23.9635 1.9065 2.091 1.9065 1.148 0 2.0295-.5125 2.2345-.6355z"/><path d="m218.47912 52v-10.66h-1.025v10.66zm0-13.079v-1.886h-1.025v1.886z"/><path d="m226.14533 52.205c2.9725 0 5.207-2.542 5.207-5.5145 0-2.993-2.2755-5.535-5.207-5.535-2.952 0-5.207 2.542-5.207 5.535 0 2.9725 2.214 5.5145 5.207 5.5145zm-4.182-5.4735c0-2.542 1.9065-4.6535 4.182-4.6535s4.1615 2.091 4.1615 4.592c0 2.542-1.886 4.6125-4.182 4.6125s-4.1615-2.0295-4.1615-4.551z"/><path d="m242.5035 45.8705c0-3.0135-.861-4.715-3.1775-4.715-1.886 0-3.7105 1.107-4.5715 2.7265v-2.542h-.9635v10.66h1.025v-6.601c.5535-1.886 2.419-3.3005 4.223-3.3005 1.681 0 2.4395 1.2095 2.4395 3.9565v5.945h1.025z"/></g></g></g></svg>