<svg height="3000" viewBox="0 0 793.74998 793.75003" width="3000" xmlns="http://www.w3.org/2000/svg" xmlns:xlink="http://www.w3.org/1999/xlink"><mask id="a"><path d="m-32-32h64v64h-64z"/><path d="m-34-32 24 32-24 32zm68 0-24 32 24 32z" fill="#fff"/></mask><path d="m0 .00002h793.75v793.75h-793.75z" fill="#261fb3"/><g fill="#fff" stroke-width=".264583"><path d="m110.17374 66.202948c-7.65526-5.185824-18.397329-9.754288-30.621057-9.754288-17.779968 0-31.979248 9.630816-31.979248 27.534256 0 13.458448 8.149152 19.014684 24.817872 23.706624 13.705392 3.82763 22.718848 6.1736 22.718848 13.70539 0 5.80319-4.815408 9.01346-14.075808 9.01346-13.334976 0-26.54648-7.77874-29.509808-10.74207l-7.531792 14.69317c10.124704 7.16138 23.706624 11.35943 36.794656 11.35943 17.162608 0 32.473137-7.16138 32.473137-26.0526 0-16.05136-10.86554-21.484124-28.151617-25.929116-13.211504-3.457216-20.002464-5.309296-20.002464-12.470672 0-6.297072 4.691936-9.87776 13.952336-9.87776 10.49512 0 21.360655 6.1736 23.583155 8.64304z"/><path d="m120.42203 112.38148c0 17.90344 13.2115 33.58438 34.20174 33.58438 14.19928 0 24.94134-7.0379 29.38634-16.79219l-16.17484-4.93888c-1.97555 4.32152-7.53179 7.65526-13.45844 7.65526-9.2604 0-16.91567-8.14915-16.91567-19.50857 0-11.4829 7.40832-19.385108 16.91567-19.385108 5.55624 0 10.49512 2.716384 13.2115 7.408318l16.17483-4.938878c-4.93888-9.87776-15.18705-16.545248-29.26286-16.545248-21.11371 0-34.07827 15.434-34.07827 33.460916z"/><path d="m254.26557 104.3558c0-12.71762-3.70416-25.435236-20.37288-25.435236-9.75429 0-18.39733 4.815408-23.21273 13.088032v-37.412016h-16.54525v90.13456h16.54525v-37.78243c2.46944-7.90221 10.1247-13.45845 16.17483-13.45845 6.79096 0 10.86553 4.815408 10.86553 14.94011v36.30077h16.54525z"/><path d="m268.58834 129.79103c0 10.1247 6.05013 15.92789 16.2983 15.92789 4.81541 0 11.35943-1.23472 15.80442-3.33375l-2.2225-12.59414c-2.09902.98777-4.69193 1.72861-6.66748 1.72861-4.19805 0-6.66749-2.71639-6.66749-7.5318v-69.39126h-16.54525z"/><path d="m332.4233 70.154052v-14.693168h-13.70539v14.693168zm23.70663 0v-14.693168h-13.70539v14.693168zm-28.52203 75.811808c10.86553 0 20.2494-4.44499 26.05259-13.33498l.37041 5.18583c.61736 4.81541 4.56847 7.65526 10.49512 7.65526 1.85208 0 3.82764-.12347 7.16138-.74083v-14.07581c-2.83986-.12347-3.9511-1.48166-3.9511-4.93888v-45.684638h-16.54525v40.128398c-3.82763 7.90221-10.24818 11.72984-16.66872 11.72984-7.03791 0-10.74207-5.06235-10.74207-14.94011v-36.918128h-16.54524v40.498818c0 16.66872 7.0379 25.43523 20.37288 25.43523z"/><path d="m408.60553 145.96586c16.05136 0 26.17606-7.90221 26.17606-20.49635 0-10.86554-7.16138-15.06359-25.06482-19.50858-9.50734-2.46944-12.71761-3.70416-12.71761-8.14915 0-5.062352 4.32152-7.284848 9.87776-7.284848 6.05013 0 12.22373 2.222496 18.76774 7.161376l6.66749-10.001232c-7.0379-6.1736-15.68094-8.889984-25.31176-8.889984-14.44622 0-25.43523 8.149152-25.43523 21.360658 0 9.87776 6.1736 13.45845 23.08926 18.02691 10.12471 2.71638 14.19928 4.19805 14.19928 8.76651 0 4.56847-4.07457 7.16138-10.61859 7.16138-7.40832 0-14.94011-2.96333-22.71885-8.51957l-6.1736 10.37165c7.28485 6.42054 18.5208 10.00123 29.26287 10.00123z"/><path d="m469.97107 145.96586c16.05136 0 26.17606-7.90221 26.17606-20.49635 0-10.86554-7.16138-15.06359-25.06482-19.50858-9.50734-2.46944-12.71761-3.70416-12.71761-8.14915 0-5.062352 4.32152-7.284848 9.87776-7.284848 6.05013 0 12.22373 2.222496 18.76774 7.161376l6.66749-10.001232c-7.0379-6.1736-15.68094-8.889984-25.31176-8.889984-14.44622 0-25.43523 8.149152-25.43523 21.360658 0 9.87776 6.1736 13.45845 23.08926 18.02691 10.12471 2.71638 14.19928 4.19805 14.19928 8.76651 0 4.56847-4.07457 7.16138-10.61859 7.16138-7.40832 0-14.94011-2.96333-22.71885-8.51957l-6.1736 10.37165c7.28485 6.42054 18.5208 10.00123 29.26287 10.00123z"/><path d="m536.89288 145.96586c14.32275 0 25.43523-7.0379 30.12716-16.91566l-14.19928-3.95111c-2.09902 5.3093-8.76651 8.76651-15.31052 8.76651-8.64304 0-16.29831-6.05012-17.16261-16.17483h50.00616c.24694-1.35819.37041-3.45721.37041-5.55624 0-17.533022-12.59414-33.213966-33.70785-33.213966s-34.20175 15.434-34.20175 33.831326c0 17.90344 13.21151 33.21397 34.07828 33.21397zm-16.7922-39.01715c.74084-9.630818 7.77874-16.051362 16.66872-16.051362 9.01346 0 16.05136 6.420544 16.91567 16.051362z"/><path d="m580.72552 129.79103c0 10.1247 6.05012 15.92789 16.2983 15.92789 4.81541 0 11.35942-1.23472 15.80442-3.33375l-2.2225-12.59414c-2.09902.98777-4.69194 1.72861-6.66749 1.72861-4.19805 0-6.66749-2.71639-6.66749-7.5318v-69.39126h-16.54524z"/><path d="m84.244619 265.89236c-1.975552.8643-5.55624 2.34597-9.013456 2.34597s-6.1736-1.72861-6.1736-6.29707v-31.60884h13.58192v-12.71761h-13.58192v-20.99024h-16.545248v20.99024h-8.519568v12.71761h8.519568v37.16508c0 11.48289 7.655264 15.92788 16.792192 15.92788 7.037904 0 13.828864-2.46944 18.273856-4.44499z"/><path d="m124.62 283.54886c14.32275 0 25.43523-7.03791 30.12717-16.91567l-14.19928-3.9511c-2.09903 5.30929-8.76652 8.76651-15.31053 8.76651-8.64304 0-16.29831-6.05013-17.16261-16.17483h50.00616c.24694-1.35819.37042-3.45722.37042-5.55624 0-17.53303-12.59415-33.21397-33.70786-33.21397s-34.201743 15.434-34.201743 33.83133c0 17.90344 13.211503 33.21397 34.078273 33.21397zm-16.79219-39.01716c.74083-9.63081 7.77873-16.05136 16.66872-16.05136 9.01345 0 16.05136 6.42055 16.91566 16.05136z"/><path d="m164.50157 249.96447c0 17.90344 13.2115 33.58439 34.20174 33.58439 14.19928 0 24.94135-7.03791 29.38634-16.7922l-16.17483-4.93888c-1.97555 4.32152-7.53179 7.65527-13.45845 7.65527-9.2604 0-16.91566-8.14915-16.91566-19.50858 0-11.48289 7.40832-19.3851 16.91566-19.3851 5.55624 0 10.49512 2.71638 13.2115 7.40832l16.17484-4.93888c-4.93888-9.87776-15.18706-16.54525-29.26287-16.54525-21.11371 0-34.07827 15.434-34.07827 33.46091z"/><path d="m298.34512 241.93879c0-12.71761-3.70416-25.43523-20.37288-25.43523-9.75429 0-18.39733 4.81541-23.21274 13.08803v-37.41201h-16.54525v90.13456h16.54525v-37.78244c2.46944-7.9022 10.1247-13.45844 16.17483-13.45844 6.79096 0 10.86554 4.8154 10.86554 14.94011v36.30077h16.54525z"/><path d="m372.92223 241.93879c0-12.59414-3.33374-25.43523-19.50857-25.43523-11.23595 0-20.86677 4.93888-25.68218 13.08803v-11.97678h-14.94011v64.69933h16.54525v-37.78244c2.46944-7.77873 10.1247-13.45844 16.79219-13.45844 6.42054 0 10.24818 4.56846 10.24818 14.94011v36.30077h16.54524z"/><path d="m417.24868 283.54886c21.11371 0 33.83133-15.68095 33.83133-33.46092 0-18.02691-12.84109-33.58438-33.83133-33.58438s-33.9548 15.55747-33.9548 33.58438c0 17.77997 12.84109 33.46092 33.9548 33.46092zm-16.91566-33.46092c0-11.23595 7.40832-19.50857 16.91566-19.50857 9.50735 0 16.91567 8.14915 16.91567 19.3851 0 11.35943-7.40832 19.50858-16.91567 19.50858-9.50734 0-16.91566-8.02568-16.91566-19.38511z"/><path d="m462.06914 267.37402c0 10.12471 6.05013 15.92789 16.29831 15.92789 4.81541 0 11.35942-1.23472 15.80441-3.33374l-2.22249-12.59415c-2.09903.98778-4.69194 1.72861-6.66749 1.72861-4.19805 0-6.66749-2.71638-6.66749-7.53179v-69.39126h-16.54525z"/><path d="m531.21337 283.54886c21.11372 0 33.83133-15.68095 33.83133-33.46092 0-18.02691-12.84109-33.58438-33.83133-33.58438s-33.9548 15.55747-33.9548 33.58438c0 17.77997 12.84109 33.46092 33.9548 33.46092zm-16.91566-33.46092c0-11.23595 7.40832-19.50857 16.91566-19.50857 9.50735 0 16.91567 8.14915 16.91567 19.3851 0 11.35943-7.40832 19.50858-16.91567 19.50858-9.50734 0-16.91566-8.02568-16.91566-19.38511z"/><path d="m601.46904 282.68455c8.76651 0 17.1626-4.19805 21.48412-11.60637v8.14916c0 12.59414-9.01345 18.15038-19.3851 18.15038-8.3961 0-16.2983-3.70416-21.23718-9.75429l-9.01346 8.76651c6.91443 8.51957 16.17483 13.45845 30.25064 13.45845 20.7433 0 35.93035-11.48289 35.93035-30.62105v-61.61253h-14.44622v11.35942c-4.93888-7.53179-12.59415-12.47067-22.59538-12.47067-17.77997 0-30.12717 14.81664-30.12717 33.46091 0 17.77997 11.85332 32.72008 29.1394 32.72008zm5.55624-13.2115c-10.12471 0-17.77997-8.3961-17.77997-19.01469 0-10.24818 6.66749-19.87899 16.79219-19.87899 6.91443 0 13.95234 5.06235 16.91566 12.59414v15.434c-2.34596 5.92666-8.76651 10.86554-15.92788 10.86554z"/><path d="m670.9839 282.31414v-64.69933h-16.54525v64.69933zm0-73.71279v-16.42177h-16.54525v16.42177z"/><path d="m715.92757 283.54886c14.32276 0 25.43524-7.03791 30.12717-16.91567l-14.19928-3.9511c-2.09902 5.30929-8.76651 8.76651-15.31053 8.76651-8.64304 0-16.2983-6.05013-17.1626-16.17483h50.00616c.24694-1.35819.37041-3.45722.37041-5.55624 0-17.53303-12.59414-33.21397-33.70785-33.21397-21.11372 0-34.20175 15.434-34.20175 33.83133 0 17.90344 13.21151 33.21397 34.07827 33.21397zm-16.79219-39.01716c.74083-9.63081 7.77874-16.05136 16.66872-16.05136 9.01346 0 16.05136 6.42055 16.91567 16.05136z"/></g><path d="m634.10397 136.70546h115.65328" fill="none" stroke="#fff" stroke-width="18.5208"/><g stroke="#fff" stroke-width="16.9333" transform="matrix(.93969262 -.34202014 .34202014 .93969262 -438.730597 -414.014658)"><ellipse fill="none" stroke-linecap="round"/><circle cx="318.4404" cy="1112.1488" fill="#261fb3" r="26.458334" stroke-linecap="square"/><path d="m351.77873 1112.1488h445.98235" fill="none" stroke-linecap="round"/><ellipse cx="209.34029" cy="1186.9739" fill="none" stroke-linecap="square"/><path d="m331.56185 1237.5997h87.39547" fill="none" stroke-linecap="round"/><circle cx="418.95731" cy="1237.5997" fill="#261fb3" r="26.458334" stroke-linecap="square"/><g fill="none" stroke-linecap="round"><path d="m442.1585 1256.5082 40.18939 40.1894"/><path d="m496.95687 1210.6172 91.67974 91.6798"/><path d="m532.69253 1246.3529-50.34465 50.3447"/><path d="m638.98125 1251.9523-50.34465 50.3447"/><path d="m547.3015 1160.2725 91.67974 91.6798"/><path d="m638.98126 1251.9523h87.39547"/></g><circle cx="638.98126" cy="1251.9523" fill="#261fb3" r="26.458334" stroke-linecap="square"/><path d="m680.53686 1206.1124 91.67974 91.6798" fill="none" stroke-linecap="round"/><path d="m822.56124 1247.4475-50.34465 50.3447" fill="none" stroke-linecap="round"/><path d="m753.70426 1178.5905 68.85697 68.857" fill="none" stroke-linecap="round"/><circle cx="753.70428" cy="1178.5905" fill="#261fb3" r="26.458334" stroke-linecap="square"/><g fill="none"><path d="m797.76108 1112.1488 45.83987 45.8399" stroke-linecap="round"/><path d="m843.60095 1157.9887-50.34465 50.3447" stroke-linecap="round"/><circle cx="209.34029" cy="1186.9739" r="66.145836" stroke-linecap="round"/><path d="m331.07998 1238.7477a132.29167 132.29167 0 0 1 -134.77364 79.8742 132.29167 132.29167 0 0 1 -116.494618-104.7512 132.29167 132.29167 0 0 1 65.158408-142.4718 132.29167 132.29167 0 0 1 155.43219 19.6125" stroke-linecap="round"/></g></g><path d="m438.15 692.15h338.6666496v84.6666624h-338.6666496z" fill="none"/><g transform="matrix(1.3229166 0 0 1.3229166 480.483331 734.483331)"><path d="m-24-24h12l12 16 12-16h12l-36 48h-12l18-24zm48 48h-12l-9-12 6-8z" fill="#fff"/><g fill="none" stroke="#f5f5f5" stroke-width="3"><circle mask="url(#a)" r="18"/><circle mask="url(#a)" r="26"/></g></g><g fill="#fff" transform="matrix(1.3229166 0 0 1.3229166 438.15 692.15)"><g><path d="m68.075 10.25 6.675 9-6.475 8.75h2.5l5.2-7.15 5.2 7.15h2.475l-6.475-8.75 6.675-9h-2.475l-5.4 7.4-5.4-7.4z"/><path d="m85.498305 33.5c.45.1.75.125 1.05.125 1.875 0 2.95-1.025 3.4-2.2l6.35-16.475h-2.1l-4.05 11.075-4.45-11.075h-2.275l5.525 13.05c-1.175 3.075-1.5 3.65-2.3 3.65-.225 0-.725-.05-1.15-.1z"/><path d="m105.29664 14.875c-.175-.025-.4-.025-.725-.025-1.65.125-3.225 1.325-4.125 3.125v-3.025h-2.049995v13.05h2.199995v-8.05c.7-1.9 2.5-3.025 4.7-3.075z"/><path d="m109.545 28v-13.05h-2.2v13.05zm0-15.5v-2.75h-2.2v2.75z"/><path d="m113.01833 25.425c0 1.725 1.05 2.75 2.75 2.75.775 0 1.9-.225 2.625-.525l-.35-1.775c-.425.175-.975.3-1.35.3-.925 0-1.475-.575-1.475-1.55v-14.875h-2.2z"/><path d="m120.04165 25.425c0 1.725 1.05 2.75 2.75 2.75.775 0 1.9-.225 2.625-.525l-.35-1.775c-.425.175-.975.3-1.35.3-.925 0-1.475-.575-1.475-1.55v-14.875h-2.2z"/><path d="m129.21497 28v-13.05h-2.2v13.05zm0-15.5v-2.75h-2.2v2.75z"/><path d="m135.9883 28.25c2.025 0 3.9-.85 5.075-2.4l.05.925c.1.725.625 1.325 1.5 1.325.325 0 .6-.025 1.05-.1v-1.9c-.5-.025-.7-.25-.7-.8v-5.325c0-3.3-2.05-5.25-5.45-5.25-1.725 0-3.4.575-5.075 1.7l.725 1.425c1.425-1 2.8-1.525 4.15-1.525 2.175 0 3.45 1.3 3.45 3.425v1.05c-1-.4-2.375-.65-3.65-.65-3.225 0-5.5 1.65-5.5 4.025 0 2.3 1.9 4.075 4.375 4.075zm.575-1.65c-1.625 0-2.85-1.125-2.85-2.6 0-1.5 1.525-2.525 3.725-2.525 1.125 0 2.3.225 3.325.625v1.925c0 .3-.175.675-.475.975-.7.975-2.175 1.6-3.725 1.6z"/><path d="m157.68665 20.2c0-3.15-.875-5.475-3.9-5.475-2.3 0-4.4 1.2-5.425 3.025v-2.8h-2v13.05h2.2v-7.875c.6-1.975 2.55-3.425 4.35-3.425 1.725 0 2.575 1.225 2.575 4v7.3h2.2z"/><path d="m180.63334 28h1.9v-17.725h-2.25v13.8l-11-13.825h-1.75v17.75h2.25v-13.55z"/><path d="m191.78167 28.25c3.925 0 6.6-3.125 6.6-6.75 0-3.65-2.7-6.775-6.6-6.775-3.875 0-6.575 3.125-6.575 6.775 0 3.625 2.65 6.75 6.575 6.75zm-4.325-6.725c0-2.725 1.95-4.9 4.325-4.9 2.4 0 4.35 2.15 4.35 4.85 0 2.725-1.95 4.875-4.35 4.875s-4.325-2.1-4.325-4.825z"/><path d="m203.13003 28v-13.05h-2.2v13.05zm0-15.5v-2.75h-2.2v2.75z"/><path d="m211.12837 28.25c3.15 0 5.175-1.55 5.175-3.975 0-2.225-1.65-2.925-5.125-3.75-2.225-.55-3.075-.825-3.075-2.05 0-1.5 1.275-2.15 2.875-2.15 1.425 0 2.85.475 3.95 1.45l1-1.325c-1.175-1.025-2.95-1.725-4.9-1.725-2.775 0-5 1.425-5 4.05 0 2.05 1.325 2.65 4.475 3.425 2.5.6 3.675.975 3.675 2.275 0 1.35-1.225 2.15-3.1 2.15-1.675 0-3.2-.6-4.725-1.75l-.95 1.475c1.45 1.225 3.65 1.9 5.725 1.9z"/><path d="m224.55168 28.25c2.625 0 4.85-1.375 5.7-3.3l-1.9-.525c-.55 1.3-2.125 2.175-3.725 2.175-2.275 0-4.2-1.8-4.4-4.375h10.825c.025-.15.05-.5.05-.85 0-3.5-2.575-6.65-6.525-6.65-3.925 0-6.675 3.075-6.675 6.75s2.725 6.775 6.65 6.775zm-4.375-7.65c.175-2.475 2.075-4.225 4.4-4.225s4.225 1.725 4.45 4.225z"/><path d="m238.00001 28.25c3.15 0 5.175-1.55 5.175-3.975 0-2.225-1.65-2.925-5.125-3.75-2.225-.55-3.075-.825-3.075-2.05 0-1.5 1.275-2.15 2.875-2.15 1.425 0 2.85.475 3.95 1.45l1-1.325c-1.175-1.025-2.95-1.725-4.9-1.725-2.775 0-5 1.425-5 4.05 0 2.05 1.325 2.65 4.475 3.425 2.5.6 3.675.975 3.675 2.275 0 1.35-1.225 2.15-3.1 2.15-1.675 0-3.2-.6-4.725-1.75l-.95 1.475c1.45 1.225 3.65 1.9 5.725 1.9z"/></g><g><path d="m80.136 37.445v6.642h-9.184v-6.642h-1.0455v14.555h1.0455v-6.97h9.184v6.97h1.0455v-14.555z"/><path d="m88.027704 38.88v-1.804h-.902v1.804zm2.788 0v-1.804h-.902v1.804zm-1.845 13.325c2.9725 0 5.207-2.542 5.207-5.5145 0-2.993-2.2755-5.535-5.207-5.535-2.952 0-5.207 2.542-5.207 5.535 0 2.9725 2.214 5.5145 5.207 5.5145zm-4.182-5.4735c0-2.542 1.9065-4.6535 4.182-4.6535s4.1615 2.091 4.1615 4.592c0 2.542-1.886 4.6125-4.182 4.6125s-4.1615-2.0295-4.1615-4.551z"/><path d="m101.65938 41.299c-.1435 0-.369 0-.6355.0205-1.373504.1435-2.685504 1.148-3.423504 2.6445v-2.624h-.984v10.66h1.025v-6.6625c.574-1.8655 2.1115-3.0135 4.018004-3.075z"/><path d="m105.08206 52v-9.8195h3.034v-.8405h-3.034v-.369c0-2.091.779-3.239 2.173-3.239.5945 0 1.2095.205 1.5785.5125l.369-.738c-.492-.41-1.312-.6765-2.132-.6765-1.8655 0-3.0135 1.558-3.0135 4.1615v.3485h-1.4965v.8405h1.4965v9.8195z"/><path d="m113.38377 52.205c1.886 0 3.6285-1.025 4.551-2.7265v1.599c0 .574.5125.943 1.0455.943.0615 0 .164 0 .3075-.0205v-.9225c-.287 0-.4305-.1845-.4305-.5125v-9.225h-1.025v6.724c-.6355 1.927-2.3575 3.2185-4.141 3.2185-1.804 0-2.6855-1.2915-2.6855-3.936v-6.0065h-1.025v6.15c0 3.116 1.1685 4.715 3.403 4.715z"/><path d="m130.80796 45.8705c0-3.0135-.861-4.715-3.1775-4.715-1.886 0-3.7105 1.107-4.5715 2.7265v-2.542h-.9635v10.66h1.025v-6.601c.5535-1.886 2.419-3.3005 4.223-3.3005 1.681 0 2.4395 1.2095 2.4395 3.9565v5.945h1.025z"/><path d="m142.71765 52-4.592-6.314 4.4485-4.3255h-1.189l-6.478 6.1295v-10.455h-1.025v14.965h1.025v-3.3825l2.5215-2.3165 4.1615 5.699z"/><path d="m149.76883 52.205c2.911 0 4.879-2.542 4.879-5.5145 0-2.8085-2.132-5.535-5.1045-5.535-1.6195 0-3.157.9635-4.0385 2.3165v-2.132h-.943v15.0265h1.025v-6.6625c.8815 1.394 2.3575 2.501 4.182 2.501zm-.246-.9225c-1.7015 0-3.239-1.2505-3.936-2.829v-3.5055c.1845-1.517 2.2755-2.87 3.7515-2.87 2.378 0 4.264 2.173 4.264 4.6125 0 2.296-1.599 4.592-4.0795 4.592z"/><path d="m162.12951 41.299c-.1435 0-.369 0-.6355.0205-1.3735.1435-2.6855 1.148-3.4235 2.6445v-2.624h-.984v10.66h1.025v-6.6625c.574-1.8655 2.1115-3.0135 4.018-3.075z"/><path d="m167.99171 52.205c2.9725 0 5.207-2.542 5.207-5.5145 0-2.993-2.2755-5.535-5.207-5.535-2.952 0-5.207 2.542-5.207 5.535 0 2.9725 2.214 5.5145 5.207 5.5145zm-4.182-5.4735c0-2.542 1.9065-4.6535 4.182-4.6535s4.1615 2.091 4.1615 4.592c0 2.542-1.886 4.6125-4.182 4.6125s-4.1615-2.0295-4.1615-4.551z"/><path d="m180.02438 52.205c1.5785 0 3.1775-.9225 4.0385-2.337v1.189c0 .4715.4305.984.984.984.1025 0 .205-.0205.369-.041v-.9225c-.287 0-.4305-.1845-.4305-.5125v-13.53h-1.025v6.6215c-.82-1.353-2.3165-2.501-4.1615-2.501-2.829 0-4.8995 2.5625-4.8995 5.535 0 2.829 2.1525 5.5145 5.125 5.5145zm.1845-.9225c-2.378 0-4.264-2.132-4.264-4.5715 0-2.337 1.599-4.633 4.0795-4.633 1.558 0 3.362 1.271 3.936 2.829v3.5055c-.1845 1.558-2.255 2.87-3.7515 2.87z"/><path d="m191.52407 52.205c1.886 0 3.6285-1.025 4.551-2.7265v1.599c0 .574.5125.943 1.0455.943.0615 0 .164 0 .3075-.0205v-.9225c-.287 0-.4305-.1845-.4305-.5125v-9.225h-1.025v6.724c-.6355 1.927-2.3575 3.2185-4.141 3.2185-1.804 0-2.6855-1.2915-2.6855-3.936v-6.0065h-1.025v6.15c0 3.116 1.1685 4.715 3.403 4.715z"/><path d="m209.07126 52-4.592-6.314 4.4485-4.3255h-1.189l-6.478 6.1295v-10.455h-1.025v14.965h1.025v-3.3825l2.5215-2.3165 4.1615 5.699z"/><path d="m215.36394 50.6675c-.123.082-.82.492-1.6605.492-.6765 0-1.3325-.3895-1.3325-1.189v-7.79h2.4805v-.8405h-2.4805v-3.649h-1.025v3.649h-1.4965v.8405h1.4965v8.036c0 1.23.9635 1.9065 2.091 1.9065 1.148 0 2.0295-.5125 2.2345-.6355z"/><path d="m218.47912 52v-10.66h-1.025v10.66zm0-13.079v-1.886h-1.025v1.886z"/><path d="m226.14533 52.205c2.9725 0 5.207-2.542 5.207-5.5145 0-2.993-2.2755-5.535-5.207-5.535-2.952 0-5.207 2.542-5.207 5.535 0 2.9725 2.214 5.5145 5.207 5.5145zm-4.182-5.4735c0-2.542 1.9065-4.6535 4.182-4.6535s4.1615 2.091 4.1615 4.592c0 2.542-1.886 4.6125-4.182 4.6125s-4.1615-2.0295-4.1615-4.551z"/><path d="m242.5035 45.8705c0-3.0135-.861-4.715-3.1775-4.715-1.886 0-3.7105 1.107-4.5715 2.7265v-2.542h-.9635v10.66h1.025v-6.601c.5535-1.886 2.419-3.3005 4.223-3.3005 1.681 0 2.4395 1.2095 2.4395 3.9565v5.945h1.025z"/></g></g></svg>