<svg height="3000" viewBox="0 0 793.74998 793.75003" width="3000" xmlns="http://www.w3.org/2000/svg" xmlns:xlink="http://www.w3.org/1999/xlink"><marker id="a" orient="auto" overflow="visible" refX="0.0" refY="0.0"><path d="m0 0 5-5-17.5 5 17.5 5z" fill="#fff" fill-rule="evenodd" stroke="#fff" stroke-width="1pt" transform="matrix(.2 0 0 .2 1.2 0)"/></marker><marker id="b" orient="auto" overflow="visible" refX="0.0" refY="0.0"><path d="m0 0 5-5-17.5 5 17.5 5z" fill="#fff" fill-rule="evenodd" stroke="#fff" stroke-width="1pt" transform="matrix(-.2 0 0 -.2 -1.2 0)"/></marker><g transform="translate(0 496.75002)"><path d="m.0000025-496.75003h793.7499975v793.75h-793.7499975z" fill="#c01212"/><g transform="matrix(4.9999997 0 0 5 438.15 -1310.6343)"><path d="m.00000053 301.20685h67.73333747v16.93333h-67.73333747z" fill="none"/><g fill="#fff"><path d="m2.1166667 303.32353 4.7625001 6.35-4.7625001 6.35h3.1750001l9.5250002-12.7h-3.175l-3.1750001 4.23333-3.1750001-4.23333zm8.2020833 6.70295-1.5874998 2.11666 2.9104168 3.88039h3.175z" fill-rule="evenodd"/><path d="m3.1145386 305.35968c-.9537655 1.18092-1.5265218 2.68132-1.5265218 4.31395 0 1.63251.5723599 3.13358 1.526005 4.31446l.6552573-.87333c-.7057636-.96311-1.122929-2.15217-1.122929-3.44113 0-1.28897.4171654-2.47751 1.122929-3.44062zm10.7042564 0-.65474.87333c.705763.96311 1.122929 2.15165 1.122929 3.44062 0 1.28896-.417166 2.47802-1.122929 3.44113l.655257.87333c.953672-1.18088 1.526522-2.68192 1.526522-4.31446 0-1.63265-.573246-3.13302-1.527039-4.31395zm-9.3730715 1.77509c-.4665443.73626-.7405233 1.60559-.7405233 2.53886 0 .93338.273879 1.80286.7405233 2.53886l.6903971-.91984c-.2374587-.48907-.3746539-1.03686-.3746539-1.61902s.1371952-1.12972.3746539-1.61902zm8.0418865 0-.690914.92087c.23689.48902.373104 1.03628.373104 1.61799s-.136214 1.1292-.373104 1.61799l.690914.92087c.466645-.736.74104-1.60548.74104-2.53886 0-.93327-.274495-1.8026-.74104-2.53886z"/><g stroke-width=".288084"><path d="m19.050001 304.21844 1.769559 2.33348-1.717704 2.26867h.51207l1.458428-1.94457 1.458428 1.94457h.499106l-1.717704-2.26867 1.769559-2.33348h-.499106l-1.510283 2.00939-1.510283-2.00939z"/><path d="m23.660759 310.24661c.110193.0194.181494.0194.265758.0194.375951 0 .589853-.2139.687082-.4667l1.750113-4.35583h-.421324l-1.16026 2.96871-1.251007-2.96871h-.453733l1.471392 3.37707c-.388914.93339-.388914 1.05007-.693564 1.05007-.05834 0-.129638-.006-.194457-.013z"/><path d="m28.671066 305.43055c-.03241-.006-.05185-.006-.08426-.006-.479661 0-.933394.31113-1.186188.82968v-.81023h-.414841v3.37707h.440769v-2.10014c.181493-.54448.654672-.86857 1.244525-.88802z"/><path d="m29.705334 308.82059v-3.37707h-.440769v3.37707zm0-4.0836v-.64819h-.440769v.64819z"/><path d="m30.701927 308.20481c0 .40836.252794.65467.654672.65467.175011 0 .447251-.0519.609299-.11668l-.07778-.3565c-.110193.0454-.252794.0713-.350023.0713-.246312 0-.395396-.14908-.395396-.40188v-3.96692h-.440769z"/><path d="m32.461661 308.20481c0 .40836.252794.65467.654672.65467.175011 0 .447251-.0519.609299-.11668l-.07778-.3565c-.110192.0454-.252794.0713-.350023.0713-.246312 0-.395396-.14908-.395396-.40188v-3.96692h-.440769z"/><path d="m34.64272 308.82059v-3.37707h-.44077v3.37707zm0-4.0836v-.64819h-.44077v.64819z"/><path d="m36.468996 308.88541c.537998 0 1.037104-.22687 1.348235-.62875l.01296.26576c.0065.19446.142602.31761.362986.31761.04537 0 .09723-.006.16853-.0194v-.38892c-.110193 0-.162048-.0583-.162048-.18149v-1.52325c0-.83616-.518552-1.34175-1.361199-1.34175-.414842 0-.836165.14908-1.270452.44077l.155565.29168c.369469-.25927.738937-.40187 1.082478-.40187.589853 0 .952839.37595.952839.97228v.30465c-.278722-.11019-.654672-.17501-.998213-.17501-.829683 0-1.413054.42132-1.413054 1.01766 0 .58985.486142 1.05007 1.121369 1.05007zm.10371-.33706c-.453733 0-.803756-.3241-.803756-.74542s.427806-.70653 1.050068-.70653c.324095 0 .64819.0648.939876.17501v.55096c0 .0778-.03889.17502-.116674.2528-.194457.2852-.615781.47318-1.069514.47318z"/><path d="m41.991069 306.84361c0-.88802-.252795-1.45843-1.004695-1.45843-.602817 0-1.16026.33058-1.4325.8232v-.76486h-.401878v3.37707h.440769v-2.06773c.162048-.55744.713009-.9658 1.231561-.9658.492625 0 .725973.35002.725973 1.14729v1.88624h.44077z"/><path d="m48.141379 308.82059h.395395v-4.59567h-.453733v3.82432l-3.046493-3.8308h-.350023v4.60215h.453734v-3.75951z"/><path d="m50.984805 308.88541c.978767 0 1.678813-.80376 1.678813-1.74364 0-.94635-.706527-1.75659-1.678813-1.75659-.965803 0-1.67233.81024-1.67233 1.75659 0 .93988.693563 1.74364 1.67233 1.74364zm-1.225079-1.73715c0-.75839.557444-1.37417 1.225079-1.37417.674118 0 1.231562.6093 1.231562 1.3612s-.557444 1.3612-1.231562 1.3612c-.674117 0-1.225079-.59633-1.225079-1.34823z"/><path d="m53.847881 308.82059v-3.37707h-.440769v3.37707zm0-4.0836v-.64819h-.440769v.64819z"/><path d="m55.946396 308.88541c.797274 0 1.315826-.3954 1.315826-1.01118 0-.57689-.447252-.74542-1.315826-.95284-.602817-.1426-.842647-.22038-.842647-.57689 0-.44077.369468-.62874.829683-.62874.382432 0 .764864.12963 1.017658.38891l.213903-.25928c-.259276-.27224-.700045-.46021-1.218597-.46021-.693564 0-1.263971.34354-1.263971 1.02414 0 .53152.350023.66764 1.134333.86209.680599.16205 1.017658.26576 1.017658.64171 0 .40188-.356504.63523-.894502.63523-.447251 0-.836165-.15557-1.212116-.4667l-.200939.29817c.362987.33057.894503.50559 1.419537.50559z"/><path d="m59.435787 308.88541c.654672 0 1.231561-.35003 1.438982-.84265l-.382432-.10371c-.162048.36299-.596335.6093-1.037104.6093-.64819 0-1.19267-.53152-1.251007-1.25749h2.890927c.0065-.0259.0065-.11019.0065-.17501 0-.92691-.680599-1.73067-1.67233-1.73067-.972285 0-1.685294.79079-1.685294 1.73715 0 .95932.713009 1.76308 1.691776 1.76308zm-1.238043-1.93161c.04537-.71301.576889-1.22508 1.238043-1.22508s1.186188.50559 1.244525 1.22508z"/><path d="m62.909378 308.88541c.797274 0 1.315826-.3954 1.315826-1.01118 0-.57689-.447251-.74542-1.315826-.95284-.602817-.1426-.842647-.22038-.842647-.57689 0-.44077.369468-.62874.829683-.62874.382432 0 .764864.12963 1.017659.38891l.213902-.25928c-.259276-.27224-.700045-.46021-1.218597-.46021-.693563 0-1.263971.34354-1.263971 1.02414 0 .53152.350023.66764 1.134333.86209.680599.16205 1.017658.26576 1.017658.64171 0 .40188-.356504.63523-.894502.63523-.447251 0-.836165-.15557-1.212115-.4667l-.200939.29817c.362986.33057.894502.50559 1.419536.50559z"/></g><g stroke-width=".237982"><path d="m21.721946 311.37429v1.73489h-2.398859v-1.73489h-.273085v3.80177h.273085v-1.82057h2.398859v1.82057h.273084v-3.80177z"/><path d="m23.781123 311.74911v-.4712h-.235603v.4712zm.728225 0v-.4712h-.235602v.4712zm-.481914 3.48049c.776417 0 1.360068-.66397 1.360068-1.44038 0-.78178-.594361-1.44575-1.360068-1.44575-.771062 0-1.360067.66397-1.360067 1.44575 0 .77641.578296 1.44038 1.360067 1.44038zm-1.092338-1.42968c0-.66397.497978-1.21549 1.092338-1.21549s1.086983.54617 1.086983 1.19943c0 .66397-.492623 1.20479-1.092337 1.20479-.599715 0-1.086984-.53011-1.086984-1.18873z"/><path d="m27.346196 312.38096c-.03748 0-.09638 0-.165992.005-.358758.0375-.701452.29986-.894218.69074v-.68538h-.25702v2.78439h.267729v-1.74025c.149929-.48727.551524-.78712 1.049501-.80319z"/><path d="m28.250035 315.17606v-2.56486h.79248v-.21953h-.79248v-.0964c0-.54617.203475-.84602.567587-.84602.155284 0 .315922.0535.412304.13386l.09638-.19276c-.12851-.1071-.342694-.17671-.556878-.17671-.487268 0-.787126.40695-.787126 1.08699v.091h-.390882v.21953h.390885v2.56486z"/><path d="m30.425926 315.2296c.492623 0 .947763-.26773 1.18872-.71216v.41766c0 .14993.133865.24631.273085.24631.01606 0 .04284 0 .08032-.005v-.24096c-.07496 0-.112446-.0482-.112446-.13387v-2.40956h-.26773v1.7563c-.165992.50334-.615778.84068-1.081628.84068-.471205 0-.701452-.33734-.701452-1.02809v-1.56889h-.26773v1.60637c0 .8139.305212 1.23156.888863 1.23156z"/><path d="m34.987456 313.57503c0-.78712-.224893-1.23156-.829962-1.23156-.492623 0-.969182.28915-1.194075.71217v-.66397h-.251666v2.78439h.267729v-1.72418c.144574-.49263.631843-.86209 1.103047-.86209.439077 0 .637197.31592.637197 1.03343v1.55284h.26773z"/><path d="m38.10475 315.17606-1.199429-1.64922 1.161947-1.12982h-.310566l-1.692053 1.60102v-2.73084h-.267729v3.90886h.267729v-.88351l.658616-.60507 1.086983 1.48858z"/><path d="m39.949326 315.2296c.760353 0 1.274394-.66397 1.274394-1.44038 0-.73358-.556878-1.44575-1.333294-1.44575-.423013 0-.824608.25167-1.054856.60507v-.55687h-.246311v3.92491h.26773v-1.74024c.230247.36411.615778.65326 1.092337.65326zm-.06425-.24095c-.444431 0-.846026-.32664-1.028082-.73894v-.91564c.04819-.39624.59436-.74964.979891-.74964.621133 0 1.113756.56759 1.113756 1.20479 0 .59971-.417659 1.19943-1.065565 1.19943z"/><path d="m43.179904 312.38096c-.03748 0-.09638 0-.165992.005-.358758.0375-.701452.29986-.894218.69074v-.68538h-.257021v2.78439h.26773v-1.74025c.149929-.48727.551524-.78712 1.049501-.80319z"/><path d="m44.724203 315.2296c.776416 0 1.360067-.66397 1.360067-1.44038 0-.78178-.59436-1.44575-1.360067-1.44575-.771062 0-1.360068.66397-1.360068 1.44575 0 .77641.578297 1.44038 1.360068 1.44038zm-1.092338-1.42968c0-.66397.497977-1.21549 1.092338-1.21549.59436 0 1.086983.54617 1.086983 1.19943 0 .66397-.492623 1.20479-1.092338 1.20479s-1.086983-.53011-1.086983-1.18873z"/><path d="m47.871617 315.2296c.412304 0 .829962-.24095 1.054855-.61042v.31056c0 .12316.112447.25703.257021.25703.02677 0 .05355-.005.09638-.0107v-.24096c-.07496 0-.112447-.0482-.112447-.13387v-3.53403h-.26773v1.72954c-.214183-.35341-.605069-.65327-1.086983-.65327-.738934 0-1.279748.66933-1.279748 1.44575 0 .73893.562233 1.44038 1.338649 1.44038zm.04819-.24095c-.621133 0-1.113756-.55688-1.113756-1.19408 0-.61042.417659-1.21014 1.065565-1.21014.406949 0 .878154.33199 1.028082.73894v.91563c-.04819.40695-.589005.74965-.979891.74965z"/><path d="m50.882156 315.2296c.492623 0 .947763-.26773 1.18872-.71216v.41766c0 .14993.133865.24631.273085.24631.01606 0 .04284 0 .08032-.005v-.24096c-.07497 0-.112447-.0482-.112447-.13387v-2.40956h-.26773v1.7563c-.165992.50334-.615778.84068-1.081628.84068-.471205 0-.701452-.33734-.701452-1.02809v-1.56889h-.26773v1.60637c0 .8139.305212 1.23156.888863 1.23156z"/><path d="m55.475814 315.17606-1.19943-1.64922 1.161948-1.12982h-.310567l-1.692052 1.60102v-2.73084h-.26773v3.90886h.26773v-.88351l.658615-.60507 1.086983 1.48858z"/><path d="m57.122269 314.82801c-.03213.0214-.214183.12851-.433722.12851-.176702 0-.348049-.10174-.348049-.31057v-2.03475h.647907v-.21953h-.647907v-.95312h-.267729v.95312h-.390886v.21953h.390886v2.09901c0 .32127.251666.49797.546168.49797.299858 0 .530105-.13386.583651-.16599z"/><path d="m57.943193 315.17606v-2.78439h-.26773v2.78439zm0-3.41624v-.49262h-.26773v.49262z"/><path d="m59.951335 315.2296c.776417 0 1.360068-.66397 1.360068-1.44038 0-.78178-.59436-1.44575-1.360068-1.44575-.771061 0-1.360067.66397-1.360067 1.44575 0 .77641.578296 1.44038 1.360067 1.44038zm-1.092337-1.42968c0-.66397.497977-1.21549 1.092337-1.21549.594361 0 1.086983.54617 1.086983 1.19943 0 .66397-.492622 1.20479-1.092337 1.20479s-1.086983-.53011-1.086983-1.18873z"/><path d="m64.228572 313.57503c0-.78712-.224894-1.23156-.829963-1.23156-.492623 0-.969182.28915-1.194075.71217v-.66397h-.251666v2.78439h.26773v-1.72418c.144574-.49263.631842-.86209 1.103047-.86209.439077 0 .637197.31592.637197 1.03343v1.55284h.26773z"/></g></g></g><g fill="#fff" stroke-width="5.489986"><path d="m116.84932-430.54211c-7.65853-5.18804-18.40518-9.75846-30.634125-9.75846-17.787557 0-31.992897 9.63493-31.992897 27.54601 0 13.46419 8.15263 19.0228 24.828464 23.71674 13.711242 3.82927 22.728548 6.17624 22.728548 13.71124 0 5.80567-4.817467 9.01731-14.081819 9.01731-13.340667 0-26.55781-7.78206-29.522402-10.74665l-7.535007 14.69944c10.129025 7.16443 23.716742 11.36427 36.81036 11.36427 17.169928 0 32.486998-7.16443 32.486998-26.06371 0-16.05821-10.87018-21.4933-28.163634-25.94019-13.217143-3.45869-20.011001-5.31156-20.011001-12.47599 0-6.29976 4.693939-9.88198 13.958291-9.88198 10.499599 0 21.369774 6.17624 23.593214 8.64673z"/><path d="m169.99968-350.74516c16.42878 0 28.28715-14.82296 28.28715-33.72224 0-18.28166-12.84656-33.35167-30.26355-33.35167-9.75845 0-17.5405 4.69394-22.35797 12.22894v-11.11722h-14.45239v91.0377h16.55231v-37.67503c4.32337 7.65853 12.10542 12.59952 22.23445 12.59952zm-5.55861-14.08182c-7.04091 0-13.71124-5.55861-16.67584-12.84656v-15.19354c2.22345-6.29976 9.38788-10.87018 15.68764-10.87018 10.25255 0 17.91108 8.39968 17.91108 19.26986 0 10.25255-6.91738 19.64042-16.92288 19.64042z"/><path d="m227.28619-350.74516c9.38788 0 17.91108-4.07632 23.71674-11.61132l.37057 3.58221c.86468 4.57042 4.19984 7.65854 10.37608 7.65854 1.97639 0 4.32336-.24705 7.28796-.86468v-14.08181c-2.84107-.12353-3.95279-1.4823-3.95279-4.94099v-20.13453c0-17.16993-10.87018-26.68133-29.39888-26.68133-9.63493 0-18.52871 2.71754-26.92839 8.27615l5.06452 10.4996c6.91738-4.81746 13.34066-7.28795 20.25805-7.28795 9.5114 0 14.45239 4.81746 14.45239 13.34066v3.70574c-4.19984-1.85287-10.0055-2.84106-15.81116-2.84106-16.18174 0-27.54601 8.5232-27.54601 20.87567 0 11.73485 9.5114 20.5051 22.11092 20.5051zm4.69394-12.10542c-6.29976 0-11.11723-4.19984-11.11723-9.75845 0-5.92919 6.05271-10.25255 14.57592-10.25255 4.19984 0 9.14083.9882 13.09362 2.47049v7.41148c0 1.60582-.9882 3.33517-2.71755 4.69394-2.84106 3.33517-8.27615 5.43509-13.83476 5.43509z"/><path d="m276.47605-384.34388c0 17.91108 13.21714 33.59872 34.21634 33.59872 14.20534 0 24.95199-7.04091 29.39888-16.79936l-16.18174-4.94099c-1.97639 4.32337-7.535 7.65853-13.46419 7.65853-9.26435 0-16.92288-8.15263-16.92288-19.5169 0-11.48779 7.41148-19.39338 16.92288-19.39338 5.55861 0 10.4996 2.71755 13.21714 7.41149l16.18174-4.94099c-4.94099-9.88198-15.19354-16.55231-29.27536-16.55231-21.12272 0-34.09281 15.44059-34.09281 33.47519z"/><path d="m379.56899-350.74516c14.32886 0 25.44608-7.04091 30.14002-16.92288l-14.20534-3.95279c-2.09992 5.31156-8.77025 8.77025-15.31706 8.77025-8.64673 0-16.30526-6.05271-17.16993-16.18174h50.0275c.24705-1.35877.37057-3.45869.37057-5.55861 0-17.5405-12.59952-33.22814-33.72224-33.22814s-34.21634 15.44059-34.21634 33.84577c0 17.91108 13.21714 33.22814 34.09282 33.22814zm-16.79936-39.0338c.74115-9.63493 7.78205-16.05822 16.67583-16.05822 9.0173 0 16.05821 6.42329 16.92289 16.05822z"/><path d="m416.02613-302.43329h-73.00309v14.94649h28.04011v72.75605h16.92288v-72.75605h28.0401z"/><path d="m441.20782-213.49551c21.12272 0 33.84577-15.68763 33.84577-33.47519 0-18.0346-12.84657-33.59872-33.84577-33.59872s-33.96929 15.56412-33.96929 33.59872c0 17.78756 12.84657 33.47519 33.96929 33.47519zm-16.92288-33.47519c0-11.24075 7.41148-19.5169 16.92288-19.5169s16.92288 8.15263 16.92288 19.39338c0 11.36427-7.41148 19.5169-16.92288 19.5169s-16.92288-8.02911-16.92288-19.39338z"/><path d="m505.86914-213.49551c10.87017 0 20.25805-4.44689 26.06371-13.34066l.37058 5.18803c.61762 4.81747 4.57041 7.65853 10.49959 7.65853 1.85288 0 3.82927-.12352 7.16444-.74114v-14.08182c-2.84107-.12352-3.95279-1.4823-3.95279-4.94099v-45.70413h-16.55231v40.14552c-3.82927 7.90558-10.25255 11.73485-16.67584 11.73485-7.0409 0-10.74664-5.06451-10.74664-14.94649v-36.93388h-16.55231v40.5161c0 16.67583 7.0409 25.44608 20.38157 25.44608z"/><path d="m600.88278-280.19884c-.74115-.12353-1.60582-.12353-3.33517-.12353-6.91738 0-15.44058 5.92919-20.011 14.69944v-13.83476h-15.19354v64.72694h16.55231v-39.15733c3.45869-7.28796 11.9819-11.11722 21.9874-11.24075z"/><path d="m626.6647-214.73075v-64.72694h-16.55231v64.72694zm0-73.74425v-16.42878h-16.55231v16.42878z"/><path d="m666.17526-213.49551c16.05821 0 26.18724-7.90558 26.18724-20.5051 0-10.87017-7.16443-15.07001-25.07552-19.5169-9.5114-2.47049-12.72304-3.70574-12.72304-8.15263 0-5.06451 4.32336-7.28795 9.88198-7.28795 6.05271 0 12.22894 2.22344 18.77575 7.16443l6.67033-10.0055c-7.0409-6.17624-15.68763-8.89378-25.32256-8.89378-14.45239 0-25.44609 8.15263-25.44609 21.36977 0 9.88198 6.17624 13.46419 23.09912 18.03461 10.12903 2.71754 14.20534 4.19984 14.20534 8.77025s-4.07631 7.16443-10.62312 7.16443c-7.41148 0-14.94649-2.96459-22.72855-8.5232l-6.17623 10.37607c7.28796 6.42329 18.5287 10.0055 29.27535 10.0055z"/><path d="m738.44874-231.15954c-1.97639.86467-5.55861 2.34697-9.0173 2.34697s-6.17623-1.72934-6.17623-6.29976v-31.62232h13.58771v-12.72304h-13.58771v-20.9992h-16.55231v20.9992h-8.52321v12.72304h8.52321v37.18093c0 11.4878 7.65853 15.93469 16.79936 15.93469 7.0409 0 13.83476-2.47049 18.28165-4.44689z"/></g><path d="m49.651885-247.67598h246.175505" fill="none" marker-end="url(#b)" stroke="#fff" stroke-width="18.520834"/><path d="m476.01922-382.76382h266.34955" fill="none" marker-start="url(#a)" stroke="#fff" stroke-width="18.520834"/><g fill-rule="evenodd"><path d="m228.05285 208.41241c-2.73878 1.4387 12.29874 37.99867 16.77035 38.74522 44.84848 5.11231 167.88377-71.67969 186.99116-135.49455 131.93445-23.961156 213.34339-90.287116 252.79609-214.87507 1.79442-6.50258 14.42487-15.26745 34.98638-27.83008-15.49353 4.61608-34.23345 13.08723-41.63666 8.09602-38.64936-20.4336-69.23103-28.60425-94.26078-28.33605-13.66391-7.1772-35.72826-9.16837-49.73271-.57827-60.10996 6.3732-130.03666 36.26552-216.27933 105.248221-48.7414-5.611476-97.55054-10.789918-153.82432 31.805759.0718 5.554315-.98174 11.6710783 3.46971 15.03547227-18.11337 8.64498873-35.82048 18.50879473-50.88926 36.28750873-12.00095 9.361033 29.08114 41.982191 35.85378 37.877816 33.65328-21.279663 72.79433-23.275338 115.07915-18.649772 7.18126 21.203475 17.63352 39.181225 34.62705 56.023675-2.32424 43.9109-28.08131 73.10903-73.95061 96.6441z" fill="#6e0a0a"/><path d="m126.21832 35.480335c77.79954-60.182093 210.17426-75.047702 244.11967-47.433663 5.10948 5.305504-44.79841 52.823834-85.05341 67.061354 24.67538-2.194342 106.04938-50.1476138 92.82268-78.101947-19.54363-39.476036-177.78159-20.886306-251.88894 58.474256z" fill="#ee9700"/><path d="m383.32295-38.805277c50.67213-47.294552 79.61281-57.109431 112.47682-69.394433 3.03952 6.26881 6.47669 13.93945 9.74367 22.243496-39.03618 12.718653-85.49744 29.805988-122.22049 47.150937z" fill="#ee9700"/><path d="m602.61047-132.57245c10.46293 15.26546 5.63756 21.20996-2.8716 41.768311 6.28427-5.550784 14.92095-9.918291 21.97562-19.863561 20.98485-3.89086 38.80069-3.51843 58.55881-3.3149-23.20276-21.58401-51.31531-18.49475-77.66283-18.58985z" fill="#ee9700"/><path d="m431.89903 111.54932c-38.51568 9.40339-75.97284 13.27863-111.03106 4.6263 22.33284 8.84187 48.64149 15.35447 108.57335 2.16858z" fill="#ee9700"/><path d="m260.72612 66.153812 22.26403 49.154408c-15.19563 24.65477-31.1042 64.72859-67.94873 26.02291-58.23693 13.78206-114.70793 42.7496-172.907814 70.55099 45.171368-36.46346 97.977874-65.29181 148.041474-96.86304 16.48489-38.171785 41.21601-65.043735 70.55104-48.865268z" fill="#e10000"/><path d="m265.12961 75.672902 12.85476 28.327158c-8.77363 14.20832-17.95883 37.30244-39.23201 14.99673-33.62465 7.94251-66.2297 24.63615-99.83296 40.65782 26.0809-21.01348 56.57015-37.62698 85.47571-55.82117 9.51799-21.997971 23.79714-37.484004 40.7345-28.160538z" fill="#ffac1c"/></g><path d="m608.22979-117.97596a55.31316 42.113213 0 0 1 -55.31316 42.113213 55.31316 42.113213 0 0 1 -55.31316-42.113213 55.31316 42.113213 0 0 1 55.31316-42.11321 55.31316 42.113213 0 0 1 55.31316 42.11321z" fill="#ee9700" stroke="#6e0a0a" stroke-linecap="round" stroke-linejoin="round" stroke-width="5.275296"/><g fill="#fff" stroke-width=".264583"><path d="m4.5296667 292.88095v-3.00567h-.2963333v3.00567z"/><path d="m8.5049654 291.58978c0-.57573-.1778-.9525-.6731001-.9525-.3598333 0-.6477.19474-.8509.56727-.0508-.33443-.2836334-.56727-.6519334-.56727-.3556 0-.6604.19897-.8424334.53764v-.49954h-.2624667v2.20557h.2878667v-1.35043c.1100667-.37677.3937001-.63077.7239001-.63077.3259667 0 .4826.2286.4826.7493v1.2319h.2878667v-1.3462c.1058333-.37253.3894667-.635.7239-.635.3217334 0 .4868334.23707.4868334.7493v1.2319h.2878667z"/><path d="m9.6730347 292.92328c.3513663 0 .6773333-.14816.8805333-.41063l.0085.17357c.0042.127.09313.20743.237066.20743.02963 0 .0635-.004.110067-.0127v-.254c-.07197 0-.105833-.0381-.105833-.11853v-.99484c0-.5461-.338667-.8763-.8890003-.8763-.2709334 0-.5461001.0974-.8297334.28787l.1016.1905c.2413-.16933.4826-.26247.7069667-.26247.385233 0 .6223.24554.6223.635v.19897c-.182033-.072-.427567-.1143-.6519333-.1143-.5418667 0-.9228668.27517-.9228668.66463 0 .38524.3175001.6858.7323668.6858zm.067733-.22013c-.2963334 0-.5249334-.21167-.5249334-.48683 0-.27517.2794-.46144.6858001-.46144.2116663 0 .4233333.0423.6138333.1143v.35984c0 .0508-.0254.1143-.0762.1651-.127.18626-.402167.30903-.6985.30903z"/><path d="m12.310071 292.91058c.3175 0 .639233-.1778.808567-.4572v.43604c0 .47413-.364067.70696-.791634.70696-.3302 0-.639233-.13123-.8128-.41063l-.1778.1397c.194733.3048.4826.49953.9906.49953.588434 0 1.0795-.32173 1.0795-.93556v-2.21404h-.258233v.46144c-.194733-.28364-.4699-.49954-.846667-.49954-.605367 0-1.024467.5334-1.024467 1.14724 0 .57996.427567 1.12606 1.032934 1.12606zm.08043-.2413c-.4572 0-.821267-.4064-.821267-.88053 0-.43603.296334-.89747.7874-.89747.3175 0 .639234.23284.762001.55034v.68156c-.0508.27094-.385234.5461-.728134.5461z"/><path d="m14.990565 292.92328c.427567 0 .804334-.2286.9398-.55033l-.249766-.0677c-.105834.23706-.389467.39793-.677334.39793-.423333 0-.778933-.34713-.817033-.82127h1.888067c.0042-.0169.0042-.072.0042-.1143 0-.60536-.4445-1.1303-1.0922-1.1303-.635 0-1.100667.51647-1.100667 1.13454 0 .62653.465667 1.15146 1.1049 1.15146zm-.808567-1.26153c.02963-.46567.376767-.8001.808567-.8001s.7747.3302.8128.8001z"/><path d="m17.45754 291.77182c0 .62653.465666 1.15146 1.109133 1.15146.423333 0 .791633-.2286.9144-.5461l-.283633-.0847c-.06773.2032-.359834.37676-.643467.37676-.436033 0-.804333-.39793-.804333-.89746 0-.50377.351366-.88054.8001-.88054.270933 0 .508.13547.630766.35984l.2794-.0889c-.156633-.32174-.4826-.52494-.897466-.52494-.651934 0-1.1049.508-1.1049 1.13454z"/><path d="m21.033979 290.66692c-.02117-.004-.03387-.004-.05503-.004-.313267 0-.6096.2032-.7747.54187v-.52917h-.270933v2.20557h.287866v-1.3716c.118534-.3556.427567-.56727.8128-.57997z"/><path d="m22.266606 292.92328c.427567 0 .804334-.2286.9398-.55033l-.249766-.0677c-.105834.23706-.389467.39793-.677334.39793-.423333 0-.778933-.34713-.817033-.82127h1.888067c.0042-.0169.0042-.072.0042-.1143 0-.60536-.4445-1.1303-1.0922-1.1303-.635 0-1.100667.51647-1.100667 1.13454 0 .62653.465667 1.15146 1.1049 1.15146zm-.808567-1.26153c.02963-.46567.376767-.8001.808567-.8001s.7747.3302.8128.8001z"/><path d="m24.708777 292.92328c.321733 0 .6477-.18203.821266-.4699v.2159c0 .12277.118534.22437.254.22437.02963 0 .05927-.004.1016-.0127v-.254c-.07197 0-.1016-.0381-.1016-.11853v-2.7178h-.287866v1.3462c-.1651-.27517-.465667-.49954-.833967-.49954-.5842 0-1.007533.52494-1.007533 1.14724 0 .59266.440266 1.13876 1.0541 1.13876zm.0635-.254c-.461434 0-.821267-.4064-.821267-.88476 0-.45297.309033-.89324.783167-.89324.3048 0 .651933.24554.762.55034v.68156c-.04657.30057-.436034.5461-.7239.5461z"/><path d="m26.720007 292.88095v-2.20557h-.287867v2.20557zm0-2.667v-.42333h-.287867v.42333z"/><path d="m28.340316 292.54228c-.03387.0212-.173566.0974-.334433.0974-.135467 0-.254-.0762-.2667-.23707v-1.4986h.508v-.2286h-.508v-.74506h-.287867v.74506h-.3048v.2286h.3048v1.57904c0 .28363.2159.42333.465667.42333.237067 0 .4318-.1016.499533-.13123z"/><path d="m28.983517 291.10295v-.41487h-.245533v.41487zm0 1.778v-.41487h-.245533v.41487z"/><path d="m32.511406 291.58978c0-.56726-.194734-.9525-.6985-.9525-.359834 0-.694267.20744-.867834.53764v-1.3843h-.287866v3.09033h.287866v-1.35043c.1016-.35984.4445-.63077.770467-.63077.3302 0 .508.24977.508.7493v1.2319h.287867z"/><path d="m34.086736 292.54228c-.03387.0212-.173566.0974-.334433.0974-.135467 0-.254-.0762-.2667-.23707v-1.4986h.508v-.2286h-.508v-.74506h-.287867v.74506h-.3048v.2286h.3048v1.57904c0 .28363.2159.42333.465667.42333.237067 0 .4318-.1016.499533-.13123z"/><path d="m35.508871 292.54228c-.03387.0212-.173567.0974-.334434.0974-.135466 0-.254-.0762-.2667-.23707v-1.4986h.508v-.2286h-.508v-.74506h-.287866v.74506h-.3048v.2286h.3048v1.57904c0 .28363.2159.42333.465666.42333.237067 0 .4318-.1016.499534-.13123z"/><path d="m37.07494 292.92328c.592667 0 .999067-.5207.999067-1.143 0-.58843-.440267-1.143-1.045633-1.143-.334434 0-.643467.1905-.821267.46567v-.42757h-.258233v3.10727h.287866v-1.3589c.173567.28363.4699.49953.8382.49953zm-.08043-.254c-.325967 0-.626533-.2413-.757767-.55456v-.67734c.04233-.29633.436034-.5461.7239-.5461.461434 0 .821267.41487.821267.889 0 .44874-.309033.889-.7874.889z"/><path d="m39.293999 292.92328c.5207 0 .859367-.25823.859367-.6604 0-.37676-.2921-.48683-.859367-.6223-.3937-.0931-.550333-.14393-.550333-.37676 0-.28787.2413-.41064.541866-.41064.249767 0 .499534.0847.664634.254l.1397-.16933c-.169334-.1778-.4572-.30057-.795867-.30057-.452967 0-.8255.22437-.8255.66887 0 .34713.2286.43603.740833.56303.4445.10584.664634.17357.664634.4191 0 .26247-.232834.41487-.5842.41487-.2921 0-.5461-.1016-.791634-.3048l-.131233.19473c.237067.2159.5842.3302.9271.3302z"/><path d="m40.823624 291.10295v-.41487h-.245533v.41487zm0 1.778v-.41487h-.245533v.41487z"/><path d="m43.209105 289.87528-1.998134 3.00567h.325967l1.998133-3.00567z"/><path d="m44.722193 289.87528-1.998133 3.00567h.325966l1.998134-3.00567z"/><path d="m47.401232 292.58462-.4191-1.00754.376767-.89746h-.245534l-.287867.71966-.287866-.71966h-.2413l.376766.89746-.4191 1.00754-.804333-1.90924h-.2794l.948267 2.20557h.237066l.4699-1.12607.474134 1.12607h.237067l.948266-2.20557h-.283633z"/><path d="m50.840815 292.58462-.4191-1.00754.376766-.89746h-.245533l-.287867.71966-.287866-.71966h-.2413l.376766.89746-.4191 1.00754-.804333-1.90924h-.2794l.948267 2.20557h.237066l.4699-1.12607.474134 1.12607h.237066l.948267-2.20557h-.283633z"/><path d="m54.280397 292.58462-.4191-1.00754.376767-.89746h-.245533l-.287867.71966-.287867-.71966h-.2413l.376767.89746-.4191 1.00754-.804333-1.90924h-.2794l.948266 2.20557h.237067l.4699-1.12607.474133 1.12607h.237067l.948267-2.20557h-.283633z"/><path d="m55.743744 292.88095v-.41487h-.249767v.41487z"/><path d="m57.290828 292.92328c.427566 0 .804333-.2286.9398-.55033l-.249767-.0677c-.105833.23706-.389467.39793-.677333.39793-.423334 0-.778934-.34713-.817034-.82127h1.888067c.0042-.0169.0042-.072.0042-.1143 0-.60536-.4445-1.1303-1.0922-1.1303-.635 0-1.100666.51647-1.100666 1.13454 0 .62653.465666 1.15146 1.1049 1.15146zm-.808567-1.26153c.02963-.46567.376767-.8001.808567-.8001s.7747.3302.8128.8001z"/><path d="m58.839767 292.47878c0 .2667.1651.42757.427566.42757.1143 0 .2921-.0339.397934-.0762l-.0508-.23283c-.07197.0296-.1651.0466-.2286.0466-.160867 0-.258234-.0974-.258234-.26246v-2.5908h-.287866z"/><path d="m60.928847 292.92328c.427567 0 .804334-.2286.9398-.55033l-.249766-.0677c-.105834.23706-.389467.39793-.677334.39793-.423333 0-.778933-.34713-.817033-.82127h1.888067c.0042-.0169.0042-.072.0042-.1143 0-.60536-.4445-1.1303-1.0922-1.1303-.635 0-1.100667.51647-1.100667 1.13454 0 .62653.465667 1.15146 1.1049 1.15146zm-.808567-1.26153c.02963-.46567.376767-.8001.808567-.8001s.7747.3302.8128.8001z"/><path d="m64.353153 292.88095-.935567-1.29963.9017-.9017h-.325966l-1.240367 1.21073v-2.09973h-.287867v3.09033h.287867v-.69003l.474133-.44027.8128 1.1303z"/><path d="m65.687908 292.54228c-.03387.0212-.173567.0974-.334434.0974-.135466 0-.254-.0762-.2667-.23707v-1.4986h.508001v-.2286h-.508001v-.74506h-.287866v.74506h-.3048v.2286h.3048v1.57904c0 .28363.2159.42333.465666.42333.237067 0 .431801-.1016.499534-.13123z"/><path d="m67.228579 290.66692c-.02117-.004-.03387-.004-.05503-.004-.313267 0-.6096.2032-.7747.54187v-.52917h-.270933v2.20557h.287866v-1.3716c.118534-.3556.427567-.56727.8128-.57997z"/><path d="m68.448507 292.92328c.639234 0 1.096434-.52493 1.096434-1.13876 0-.61807-.461434-1.14724-1.096434-1.14724-.630766 0-1.0922.52917-1.0922 1.14724 0 .61383.452967 1.13876 1.0922 1.13876zm-.8001-1.13453c0-.4953.364067-.89747.8001-.89747.440267 0 .804334.39794.804334.889 0 .49107-.364067.889-.804334.889-.440266 0-.8001-.38946-.8001-.88053z"/><path d="m70.04322 292.47878c0 .2667.1651.42757.427566.42757.1143 0 .2921-.0339.397934-.0762l-.0508-.23283c-.07197.0296-.1651.0466-.2286.0466-.160867 0-.258234-.0974-.258234-.26246v-2.5908h-.287866z"/><path d="m71.192496 292.47878c0 .2667.1651.42757.427567.42757.1143 0 .2921-.0339.397933-.0762l-.0508-.23283c-.07197.0296-.1651.0466-.2286.0466-.160866 0-.258233-.0974-.258233-.26246v-2.5908h-.287867z"/><path d="m72.883647 292.92328c.351367 0 .677334-.14816.880534-.41063l.0085.17357c.0042.127.09313.20743.237067.20743.02963 0 .0635-.004.110067-.0127v-.254c-.07197 0-.105834-.0381-.105834-.11853v-.99484c0-.5461-.338666-.8763-.889-.8763-.270933 0-.5461.0974-.829733.28787l.1016.1905c.2413-.16933.4826-.26247.706967-.26247.385233 0 .6223.24554.6223.635v.19897c-.182034-.072-.427567-.1143-.651934-.1143-.541866 0-.922866.27517-.922866.66463 0 .38524.3175.6858.732366.6858zm.06773-.22013c-.296334 0-.524934-.21167-.524934-.48683 0-.27517.2794-.46144.6858-.46144.211667 0 .423334.0423.613834.1143v.35984c0 .0508-.0254.1143-.0762.1651-.127.18626-.402167.30903-.6985.30903z"/><path d="m75.736586 290.66692c-.02117-.004-.03387-.004-.05503-.004-.313267 0-.6096.2032-.7747.54187v-.52917h-.270936v2.20557h.287866v-1.3716c.118534-.3556.427567-.56727.8128-.57997z"/><path d="m77.106334 292.54228c-.03387.0212-.173566.0974-.334433.0974-.135467 0-.254-.0762-.2667-.23707v-1.4986h.508v-.2286h-.508v-.74506h-.287867v.74506h-.3048v.2286h.3048v1.57904c0 .28363.2159.42333.465667.42333.237067 0 .4318-.1016.499533-.13123z"/><path d="m77.753769 292.88095v-.41487h-.249767v.41487z"/><path d="m79.254286 292.92328c.321733 0 .6477-.18203.821267-.4699v.2159c0 .12277.118533.22437.254.22437.02963 0 .05927-.004.1016-.0127v-.254c-.07197 0-.1016-.0381-.1016-.11853v-2.7178h-.287867v1.3462c-.1651-.27517-.465667-.49954-.833967-.49954-.5842 0-1.007533.52494-1.007533 1.14724 0 .59266.440267 1.13876 1.0541 1.13876zm.0635-.254c-.461433 0-.821267-.4064-.821267-.88476 0-.45297.309034-.89324.783167-.89324.3048 0 .651933.24554.762.55034v.68156c-.04657.30057-.436033.5461-.7239.5461z"/><path d="m81.930156 292.92328c.427566 0 .804333-.2286.9398-.55033l-.249767-.0677c-.105833.23706-.389467.39793-.677333.39793-.423334 0-.778934-.34713-.817034-.82127h1.888067c.0042-.0169.0042-.072.0042-.1143 0-.60536-.4445-1.1303-1.0922-1.1303-.635 0-1.100666.51647-1.100666 1.13454 0 .62653.465666 1.15146 1.1049 1.15146zm-.808567-1.26153c.02963-.46567.376767-.8001.808567-.8001s.7747.3302.8128.8001z"/><path d="m85.26132 289.87528-1.998133 3.00567h.325967l1.998133-3.00567z"/><path d="m86.60124 292.02582c0-.4064.186266-.51647.385233-.62654.287867-.15663.5715-.3048.5715-.75353 0-.5461-.410633-.80857-.8255-.80857-.3683 0-.728134.19897-.884767.5461l.198967.127c.122766-.2413.381-.4318.681567-.4318.2921 0 .575733.18204.575733.55034 0 .41486-.364067.54186-.588433.67733-.245534.14817-.359834.34713-.359834.71967zm.0085.85513v-.45297h-.249767v.45297z"/><path d="m89.164788 292.92328c.592667 0 .999067-.5207.999067-1.143 0-.58843-.440267-1.143-1.045634-1.143-.334433 0-.643466.1905-.821266.46567v-.42757h-.258234v3.10727h.287867v-1.3589c.173567.28363.4699.49953.8382.49953zm-.08043-.254c-.325967 0-.626534-.2413-.757767-.55456v-.67734c.04233-.29633.436033-.5461.7239-.5461.461433 0 .821267.41487.821267.889 0 .44874-.309034.889-.7874.889z"/><path d="m91.900317 292.05968v-.20743h-1.278467v.20743zm0-.48683v-.20743h-1.278467v.20743z"/><path d="m93.980998 293.41858v-.75353h.372534v-.26247h-.372534v-1.93886h-.194733l-1.502833 1.94733v.254h1.4097v.75353zm-.258233-2.5019v1.4859h-1.134533z"/><path d="m94.79929 293.41858h.3302l1.519767-3.00566h-2.078567v.2667h1.621367z"/><path d="m98.222598 293.41858v-.75353h.372534v-.26247h-.372534v-1.93886h-.194733l-1.502833 1.94733v.254h1.4097v.75353zm-.258233-2.5019v1.4859h-1.134533z"/><path d="m99.923867 292.61848v-2.15476h-.296334c-.0254.0508-.427566.40216-.690033.40216v.2794c.220133 0 .5969-.20743.690033-.33866v1.81186h-.601133v.26247h1.4351v-.26247z"/></g></g></svg>