<?xml version="1.0" encoding="UTF-8" standalone="no"?>
<svg
   xmlns:dc="http://purl.org/dc/elements/1.1/"
   xmlns:cc="http://creativecommons.org/ns#"
   xmlns:rdf="http://www.w3.org/1999/02/22-rdf-syntax-ns#"
   xmlns:svg="http://www.w3.org/2000/svg"
   xmlns="http://www.w3.org/2000/svg"
   id="svg8"
   version="1.1"
   viewBox="0 0 793.74998 793.75003"
   height="3000"
   width="3000">
  <defs
     id="defs2">
    <marker
       orient="auto"
       refY="0.0"
       refX="0.0"
       id="marker2113"
       style="overflow:visible;">
      <path
         id="path2111"
         d="M 0.0,0.0 L 5.0,-5.0 L -12.5,0.0 L 5.0,5.0 L 0.0,0.0 z "
         style="fill-rule:evenodd;stroke:#0b1809;stroke-width:1pt;stroke-opacity:1;fill:#0b1809;fill-opacity:1"
         transform="scale(0.2) rotate(180) translate(6,0)" />
    </marker>
    <marker
       orient="auto"
       refY="0.0"
       refX="0.0"
       id="marker2019"
       style="overflow:visible;">
      <path
         id="path2017"
         d="M 0.0,0.0 L 5.0,-5.0 L -12.5,0.0 L 5.0,5.0 L 0.0,0.0 z "
         style="fill-rule:evenodd;stroke:#0b1809;stroke-width:1pt;stroke-opacity:1;fill:#0b1809;fill-opacity:1"
         transform="scale(0.2) rotate(180) translate(6,0)" />
    </marker>
    <marker
       orient="auto"
       refY="0.0"
       refX="0.0"
       id="marker1937"
       style="overflow:visible;">
      <path
         id="path1935"
         d="M 0.0,0.0 L 5.0,-5.0 L -12.5,0.0 L 5.0,5.0 L 0.0,0.0 z "
         style="fill-rule:evenodd;stroke:#0b1809;stroke-width:1pt;stroke-opacity:1;fill:#0b1809;fill-opacity:1"
         transform="scale(0.2) rotate(180) translate(6,0)" />
    </marker>
    <marker
       orient="auto"
       refY="0.0"
       refX="0.0"
       id="marker1861"
       style="overflow:visible;">
      <path
         id="path1859"
         d="M 0.0,0.0 L 5.0,-5.0 L -12.5,0.0 L 5.0,5.0 L 0.0,0.0 z "
         style="fill-rule:evenodd;stroke:#000000;stroke-width:1pt;stroke-opacity:1;fill:#000000;fill-opacity:1"
         transform="scale(0.2) rotate(180) translate(6,0)" />
    </marker>
    <marker
       orient="auto"
       refY="0.0"
       refX="0.0"
       id="marker1791"
       style="overflow:visible;">
      <path
         id="path1789"
         d="M 0.0,0.0 L 5.0,-5.0 L -12.5,0.0 L 5.0,5.0 L 0.0,0.0 z "
         style="fill-rule:evenodd;stroke:#0b1809;stroke-width:1pt;stroke-opacity:1;fill:#0b1809;fill-opacity:1"
         transform="scale(0.2) rotate(180) translate(6,0)" />
    </marker>
    <marker
       orient="auto"
       refY="0.0"
       refX="0.0"
       id="marker1727"
       style="overflow:visible;">
      <path
         id="path1725"
         d="M 0.0,0.0 L 5.0,-5.0 L -12.5,0.0 L 5.0,5.0 L 0.0,0.0 z "
         style="fill-rule:evenodd;stroke:#0b1809;stroke-width:1pt;stroke-opacity:1;fill:#0b1809;fill-opacity:1"
         transform="scale(0.2) rotate(180) translate(6,0)" />
    </marker>
    <marker
       style="overflow:visible;"
       id="Arrow1Send"
       refX="0.0"
       refY="0.0"
       orient="auto">
      <path
         transform="scale(0.2) rotate(180) translate(6,0)"
         style="fill-rule:evenodd;stroke:#0b1809;stroke-width:1pt;stroke-opacity:1;fill:#0b1809;fill-opacity:1"
         d="M 0.0,0.0 L 5.0,-5.0 L -12.5,0.0 L 5.0,5.0 L 0.0,0.0 z "
         id="path1138" />
    </marker>
    <marker
       orient="auto"
       refY="0.0"
       refX="0.0"
       id="marker1635"
       style="overflow:visible">
      <path
         id="path1633"
         d="M 0.0,0.0 L 5.0,-5.0 L -12.5,0.0 L 5.0,5.0 L 0.0,0.0 z "
         style="fill-rule:evenodd;stroke:#0b1809;stroke-width:1pt;stroke-opacity:1;fill:#0b1809;fill-opacity:1"
         transform="scale(0.2) translate(6,0)" />
    </marker>
    <marker
       orient="auto"
       refY="0.0"
       refX="0.0"
       id="marker1531"
       style="overflow:visible">
      <path
         id="path1529"
         d="M 0.0,0.0 L 5.0,-5.0 L -12.5,0.0 L 5.0,5.0 L 0.0,0.0 z "
         style="fill-rule:evenodd;stroke:#0b1809;stroke-width:1pt;stroke-opacity:1;fill:#0b1809;fill-opacity:1"
         transform="scale(0.2) translate(6,0)" />
    </marker>
    <marker
       orient="auto"
       refY="0.0"
       refX="0.0"
       id="marker1491"
       style="overflow:visible">
      <path
         id="path1489"
         d="M 0.0,0.0 L 5.0,-5.0 L -12.5,0.0 L 5.0,5.0 L 0.0,0.0 z "
         style="fill-rule:evenodd;stroke:#0b1809;stroke-width:1pt;stroke-opacity:1;fill:#0b1809;fill-opacity:1"
         transform="scale(0.2) translate(6,0)" />
    </marker>
    <marker
       orient="auto"
       refY="0.0"
       refX="0.0"
       id="marker1457"
       style="overflow:visible">
      <path
         id="path1455"
         d="M 0.0,0.0 L 5.0,-5.0 L -12.5,0.0 L 5.0,5.0 L 0.0,0.0 z "
         style="fill-rule:evenodd;stroke:#000000;stroke-width:1pt;stroke-opacity:1;fill:#000000;fill-opacity:1"
         transform="scale(0.2) translate(6,0)" />
    </marker>
    <marker
       orient="auto"
       refY="0.0"
       refX="0.0"
       id="marker1429"
       style="overflow:visible">
      <path
         id="path1427"
         d="M 0.0,0.0 L 5.0,-5.0 L -12.5,0.0 L 5.0,5.0 L 0.0,0.0 z "
         style="fill-rule:evenodd;stroke:#0b1809;stroke-width:1pt;stroke-opacity:1;fill:#0b1809;fill-opacity:1"
         transform="scale(0.2) translate(6,0)" />
    </marker>
    <marker
       orient="auto"
       refY="0.0"
       refX="0.0"
       id="marker1407"
       style="overflow:visible">
      <path
         id="path1405"
         d="M 0.0,0.0 L 5.0,-5.0 L -12.5,0.0 L 5.0,5.0 L 0.0,0.0 z "
         style="fill-rule:evenodd;stroke:#0b1809;stroke-width:1pt;stroke-opacity:1;fill:#0b1809;fill-opacity:1"
         transform="scale(0.2) translate(6,0)" />
    </marker>
    <marker
       style="overflow:visible"
       id="Arrow1Sstart"
       refX="0.0"
       refY="0.0"
       orient="auto">
      <path
         transform="scale(0.2) translate(6,0)"
         style="fill-rule:evenodd;stroke:#0b1809;stroke-width:1pt;stroke-opacity:1;fill:#0b1809;fill-opacity:1"
         d="M 0.0,0.0 L 5.0,-5.0 L -12.5,0.0 L 5.0,5.0 L 0.0,0.0 z "
         id="path1135" />
    </marker>
  </defs>
  <metadata
     id="metadata5">
    <rdf:RDF>
      <cc:Work
         rdf:about="">
        <dc:format>image/svg+xml</dc:format>
        <dc:type
           rdf:resource="http://purl.org/dc/dcmitype/StillImage" />
        <dc:title></dc:title>
      </cc:Work>
    </rdf:RDF>
  </metadata>
  <g
     transform="translate(0,496.75002)"
     id="layer1">
    <rect
       y="-496.75"
       x="0"
       height="793.75"
       width="793.75"
       id="rect9969"
       style="opacity:1;fill:#4a9c36;fill-opacity:1;stroke:none;stroke-width:10.58333302;stroke-linecap:round;stroke-linejoin:round;stroke-miterlimit:4;stroke-dasharray:none;stroke-dashoffset:0;stroke-opacity:1" />
    <g
       transform="matrix(4.9999997,0,0,5,16.933331,-1310.6343)"
       id="g28">
      <rect
         height="16.933332"
         width="67.733337"
         y="301.20685"
         x="5.2838135e-07"
         id="rect26"
         style="opacity:1;fill:none;fill-opacity:0.10050252;stroke:none;stroke-width:0.02645833;stroke-linecap:round;stroke-linejoin:round;stroke-miterlimit:4;stroke-dasharray:none;stroke-dashoffset:0;stroke-opacity:1" />
      <path
         style="fill:#ffffff;fill-opacity:1;fill-rule:evenodd;stroke:none;stroke-width:0.26458332px;stroke-linecap:butt;stroke-linejoin:miter;stroke-opacity:1"
         d="m 2.1166667,303.32353 4.7625001,6.35 -4.7625001,6.35 h 3.1750001 l 9.5250002,-12.7 h -3.175 l -3.1750001,4.23333 -3.1750001,-4.23333 z m 8.2020833,6.70295 -1.5874998,2.11666 2.9104168,3.88039 h 3.175 z"
         id="path28" />
      <path
         id="path30"
         d="m 3.1145386,305.35968 c -0.9537655,1.18092 -1.5265218,2.68132 -1.5265218,4.31395 0,1.63251 0.5723599,3.13358 1.526005,4.31446 l 0.6552573,-0.87333 c -0.7057636,-0.96311 -1.122929,-2.15217 -1.122929,-3.44113 0,-1.28897 0.4171654,-2.47751 1.122929,-3.44062 z m 10.7042564,0 -0.65474,0.87333 c 0.705763,0.96311 1.122929,2.15165 1.122929,3.44062 0,1.28896 -0.417166,2.47802 -1.122929,3.44113 l 0.655257,0.87333 c 0.953672,-1.18088 1.526522,-2.68192 1.526522,-4.31446 0,-1.63265 -0.573246,-3.13302 -1.527039,-4.31395 z m -9.3730715,1.77509 c -0.4665443,0.73626 -0.7405233,1.60559 -0.7405233,2.53886 0,0.93338 0.273879,1.80286 0.7405233,2.53886 l 0.6903971,-0.91984 c -0.2374587,-0.48907 -0.3746539,-1.03686 -0.3746539,-1.61902 0,-0.58216 0.1371952,-1.12972 0.3746539,-1.61902 z m 8.0418865,0 -0.690914,0.92087 c 0.23689,0.48902 0.373104,1.03628 0.373104,1.61799 0,0.58171 -0.136214,1.1292 -0.373104,1.61799 l 0.690914,0.92087 c 0.466645,-0.736 0.74104,-1.60548 0.74104,-2.53886 0,-0.93327 -0.274495,-1.8026 -0.74104,-2.53886 z"
         style="color:#000000;font-style:normal;font-variant:normal;font-weight:normal;font-stretch:normal;font-size:medium;line-height:normal;font-family:sans-serif;font-variant-ligatures:normal;font-variant-position:normal;font-variant-caps:normal;font-variant-numeric:normal;font-variant-alternates:normal;font-feature-settings:normal;text-indent:0;text-align:start;text-decoration:none;text-decoration-line:none;text-decoration-style:solid;text-decoration-color:#000000;letter-spacing:normal;word-spacing:normal;text-transform:none;writing-mode:lr-tb;direction:ltr;text-orientation:mixed;dominant-baseline:auto;baseline-shift:baseline;text-anchor:start;white-space:normal;shape-padding:0;clip-rule:nonzero;display:inline;overflow:visible;visibility:visible;opacity:1;isolation:auto;mix-blend-mode:normal;color-interpolation:sRGB;color-interpolation-filters:linearRGB;solid-color:#000000;solid-opacity:1;vector-effect:none;fill:#ffffff;fill-opacity:1;fill-rule:nonzero;stroke:none;stroke-width:1.0583334;stroke-linecap:round;stroke-linejoin:round;stroke-miterlimit:4;stroke-dasharray:none;stroke-dashoffset:0;stroke-opacity:1;color-rendering:auto;image-rendering:auto;shape-rendering:auto;text-rendering:auto;enable-background:accumulate" />
      <g
         id="text16"
         style="font-style:normal;font-variant:normal;font-weight:normal;font-stretch:normal;font-size:6.48190069px;line-height:7.20211172px;font-family:Raleway;-inkscape-font-specification:Raleway;text-align:start;letter-spacing:0px;word-spacing:0px;text-anchor:start;fill:#ffffff;fill-opacity:1;stroke:none;stroke-width:0.28808448px;stroke-linecap:butt;stroke-linejoin:miter;stroke-opacity:1"
         aria-label="Xyrillian Noises">
        <path
           id="path95"
           style="font-style:normal;font-variant:normal;font-weight:normal;font-stretch:normal;font-family:Raleway;-inkscape-font-specification:Raleway;text-align:start;text-anchor:start;fill:#ffffff;fill-opacity:1;stroke-width:0.28808448px"
           d="m 19.050001,304.21844 1.769559,2.33348 -1.717704,2.26867 h 0.51207 l 1.458428,-1.94457 1.458428,1.94457 h 0.499106 l -1.717704,-2.26867 1.769559,-2.33348 h -0.499106 l -1.510283,2.00939 -1.510283,-2.00939 z" />
        <path
           id="path97"
           style="font-style:normal;font-variant:normal;font-weight:normal;font-stretch:normal;font-family:Raleway;-inkscape-font-specification:Raleway;text-align:start;text-anchor:start;fill:#ffffff;fill-opacity:1;stroke-width:0.28808448px"
           d="m 23.660759,310.24661 c 0.110193,0.0194 0.181494,0.0194 0.265758,0.0194 0.375951,0 0.589853,-0.2139 0.687082,-0.4667 l 1.750113,-4.35583 h -0.421324 l -1.16026,2.96871 -1.251007,-2.96871 h -0.453733 l 1.471392,3.37707 c -0.388914,0.93339 -0.388914,1.05007 -0.693564,1.05007 -0.05834,0 -0.129638,-0.006 -0.194457,-0.013 z" />
        <path
           id="path99"
           style="font-style:normal;font-variant:normal;font-weight:normal;font-stretch:normal;font-family:Raleway;-inkscape-font-specification:Raleway;text-align:start;text-anchor:start;fill:#ffffff;fill-opacity:1;stroke-width:0.28808448px"
           d="m 28.671066,305.43055 c -0.03241,-0.006 -0.05185,-0.006 -0.08426,-0.006 -0.479661,0 -0.933394,0.31113 -1.186188,0.82968 v -0.81023 h -0.414841 v 3.37707 h 0.440769 v -2.10014 c 0.181493,-0.54448 0.654672,-0.86857 1.244525,-0.88802 z" />
        <path
           id="path101"
           style="font-style:normal;font-variant:normal;font-weight:normal;font-stretch:normal;font-family:Raleway;-inkscape-font-specification:Raleway;text-align:start;text-anchor:start;fill:#ffffff;fill-opacity:1;stroke-width:0.28808448px"
           d="m 29.705334,308.82059 v -3.37707 h -0.440769 v 3.37707 z m 0,-4.0836 v -0.64819 h -0.440769 v 0.64819 z" />
        <path
           id="path103"
           style="font-style:normal;font-variant:normal;font-weight:normal;font-stretch:normal;font-family:Raleway;-inkscape-font-specification:Raleway;text-align:start;text-anchor:start;fill:#ffffff;fill-opacity:1;stroke-width:0.28808448px"
           d="m 30.701927,308.20481 c 0,0.40836 0.252794,0.65467 0.654672,0.65467 0.175011,0 0.447251,-0.0519 0.609299,-0.11668 l -0.07778,-0.3565 c -0.110193,0.0454 -0.252794,0.0713 -0.350023,0.0713 -0.246312,0 -0.395396,-0.14908 -0.395396,-0.40188 v -3.96692 h -0.440769 z" />
        <path
           id="path105"
           style="font-style:normal;font-variant:normal;font-weight:normal;font-stretch:normal;font-family:Raleway;-inkscape-font-specification:Raleway;text-align:start;text-anchor:start;fill:#ffffff;fill-opacity:1;stroke-width:0.28808448px"
           d="m 32.461661,308.20481 c 0,0.40836 0.252794,0.65467 0.654672,0.65467 0.175011,0 0.447251,-0.0519 0.609299,-0.11668 l -0.07778,-0.3565 c -0.110192,0.0454 -0.252794,0.0713 -0.350023,0.0713 -0.246312,0 -0.395396,-0.14908 -0.395396,-0.40188 v -3.96692 h -0.440769 z" />
        <path
           id="path107"
           style="font-style:normal;font-variant:normal;font-weight:normal;font-stretch:normal;font-family:Raleway;-inkscape-font-specification:Raleway;text-align:start;text-anchor:start;fill:#ffffff;fill-opacity:1;stroke-width:0.28808448px"
           d="m 34.64272,308.82059 v -3.37707 h -0.44077 v 3.37707 z m 0,-4.0836 v -0.64819 h -0.44077 v 0.64819 z" />
        <path
           id="path109"
           style="font-style:normal;font-variant:normal;font-weight:normal;font-stretch:normal;font-family:Raleway;-inkscape-font-specification:Raleway;text-align:start;text-anchor:start;fill:#ffffff;fill-opacity:1;stroke-width:0.28808448px"
           d="m 36.468996,308.88541 c 0.537998,0 1.037104,-0.22687 1.348235,-0.62875 l 0.01296,0.26576 c 0.0065,0.19446 0.142602,0.31761 0.362986,0.31761 0.04537,0 0.09723,-0.006 0.16853,-0.0194 v -0.38892 c -0.110193,0 -0.162048,-0.0583 -0.162048,-0.18149 v -1.52325 c 0,-0.83616 -0.518552,-1.34175 -1.361199,-1.34175 -0.414842,0 -0.836165,0.14908 -1.270452,0.44077 l 0.155565,0.29168 c 0.369469,-0.25927 0.738937,-0.40187 1.082478,-0.40187 0.589853,0 0.952839,0.37595 0.952839,0.97228 v 0.30465 c -0.278722,-0.11019 -0.654672,-0.17501 -0.998213,-0.17501 -0.829683,0 -1.413054,0.42132 -1.413054,1.01766 0,0.58985 0.486142,1.05007 1.121369,1.05007 z m 0.10371,-0.33706 c -0.453733,0 -0.803756,-0.3241 -0.803756,-0.74542 0,-0.42132 0.427806,-0.70653 1.050068,-0.70653 0.324095,0 0.64819,0.0648 0.939876,0.17501 v 0.55096 c 0,0.0778 -0.03889,0.17502 -0.116674,0.2528 -0.194457,0.2852 -0.615781,0.47318 -1.069514,0.47318 z" />
        <path
           id="path111"
           style="font-style:normal;font-variant:normal;font-weight:normal;font-stretch:normal;font-family:Raleway;-inkscape-font-specification:Raleway;text-align:start;text-anchor:start;fill:#ffffff;fill-opacity:1;stroke-width:0.28808448px"
           d="m 41.991069,306.84361 c 0,-0.88802 -0.252795,-1.45843 -1.004695,-1.45843 -0.602817,0 -1.16026,0.33058 -1.4325,0.8232 v -0.76486 h -0.401878 v 3.37707 h 0.440769 v -2.06773 c 0.162048,-0.55744 0.713009,-0.9658 1.231561,-0.9658 0.492625,0 0.725973,0.35002 0.725973,1.14729 v 1.88624 h 0.44077 z" />
        <path
           id="path113"
           style="font-style:normal;font-variant:normal;font-weight:normal;font-stretch:normal;font-family:Raleway;-inkscape-font-specification:Raleway;text-align:start;text-anchor:start;fill:#ffffff;fill-opacity:1;stroke-width:0.28808448px"
           d="m 48.141379,308.82059 h 0.395395 v -4.59567 h -0.453733 v 3.82432 l -3.046493,-3.8308 h -0.350023 v 4.60215 h 0.453734 v -3.75951 z" />
        <path
           id="path115"
           style="font-style:normal;font-variant:normal;font-weight:normal;font-stretch:normal;font-family:Raleway;-inkscape-font-specification:Raleway;text-align:start;text-anchor:start;fill:#ffffff;fill-opacity:1;stroke-width:0.28808448px"
           d="m 50.984805,308.88541 c 0.978767,0 1.678813,-0.80376 1.678813,-1.74364 0,-0.94635 -0.706527,-1.75659 -1.678813,-1.75659 -0.965803,0 -1.67233,0.81024 -1.67233,1.75659 0,0.93988 0.693563,1.74364 1.67233,1.74364 z m -1.225079,-1.73715 c 0,-0.75839 0.557444,-1.37417 1.225079,-1.37417 0.674118,0 1.231562,0.6093 1.231562,1.3612 0,0.7519 -0.557444,1.3612 -1.231562,1.3612 -0.674117,0 -1.225079,-0.59633 -1.225079,-1.34823 z" />
        <path
           id="path117"
           style="font-style:normal;font-variant:normal;font-weight:normal;font-stretch:normal;font-family:Raleway;-inkscape-font-specification:Raleway;text-align:start;text-anchor:start;fill:#ffffff;fill-opacity:1;stroke-width:0.28808448px"
           d="m 53.847881,308.82059 v -3.37707 h -0.440769 v 3.37707 z m 0,-4.0836 v -0.64819 h -0.440769 v 0.64819 z" />
        <path
           id="path119"
           style="font-style:normal;font-variant:normal;font-weight:normal;font-stretch:normal;font-family:Raleway;-inkscape-font-specification:Raleway;text-align:start;text-anchor:start;fill:#ffffff;fill-opacity:1;stroke-width:0.28808448px"
           d="m 55.946396,308.88541 c 0.797274,0 1.315826,-0.3954 1.315826,-1.01118 0,-0.57689 -0.447252,-0.74542 -1.315826,-0.95284 -0.602817,-0.1426 -0.842647,-0.22038 -0.842647,-0.57689 0,-0.44077 0.369468,-0.62874 0.829683,-0.62874 0.382432,0 0.764864,0.12963 1.017658,0.38891 l 0.213903,-0.25928 c -0.259276,-0.27224 -0.700045,-0.46021 -1.218597,-0.46021 -0.693564,0 -1.263971,0.34354 -1.263971,1.02414 0,0.53152 0.350023,0.66764 1.134333,0.86209 0.680599,0.16205 1.017658,0.26576 1.017658,0.64171 0,0.40188 -0.356504,0.63523 -0.894502,0.63523 -0.447251,0 -0.836165,-0.15557 -1.212116,-0.4667 l -0.200939,0.29817 c 0.362987,0.33057 0.894503,0.50559 1.419537,0.50559 z" />
        <path
           id="path121"
           style="font-style:normal;font-variant:normal;font-weight:normal;font-stretch:normal;font-family:Raleway;-inkscape-font-specification:Raleway;text-align:start;text-anchor:start;fill:#ffffff;fill-opacity:1;stroke-width:0.28808448px"
           d="m 59.435787,308.88541 c 0.654672,0 1.231561,-0.35003 1.438982,-0.84265 l -0.382432,-0.10371 c -0.162048,0.36299 -0.596335,0.6093 -1.037104,0.6093 -0.64819,0 -1.19267,-0.53152 -1.251007,-1.25749 h 2.890927 c 0.0065,-0.0259 0.0065,-0.11019 0.0065,-0.17501 0,-0.92691 -0.680599,-1.73067 -1.67233,-1.73067 -0.972285,0 -1.685294,0.79079 -1.685294,1.73715 0,0.95932 0.713009,1.76308 1.691776,1.76308 z m -1.238043,-1.93161 c 0.04537,-0.71301 0.576889,-1.22508 1.238043,-1.22508 0.661154,0 1.186188,0.50559 1.244525,1.22508 z" />
        <path
           id="path123"
           style="font-style:normal;font-variant:normal;font-weight:normal;font-stretch:normal;font-family:Raleway;-inkscape-font-specification:Raleway;text-align:start;text-anchor:start;fill:#ffffff;fill-opacity:1;stroke-width:0.28808448px"
           d="m 62.909378,308.88541 c 0.797274,0 1.315826,-0.3954 1.315826,-1.01118 0,-0.57689 -0.447251,-0.74542 -1.315826,-0.95284 -0.602817,-0.1426 -0.842647,-0.22038 -0.842647,-0.57689 0,-0.44077 0.369468,-0.62874 0.829683,-0.62874 0.382432,0 0.764864,0.12963 1.017659,0.38891 l 0.213902,-0.25928 c -0.259276,-0.27224 -0.700045,-0.46021 -1.218597,-0.46021 -0.693563,0 -1.263971,0.34354 -1.263971,1.02414 0,0.53152 0.350023,0.66764 1.134333,0.86209 0.680599,0.16205 1.017658,0.26576 1.017658,0.64171 0,0.40188 -0.356504,0.63523 -0.894502,0.63523 -0.447251,0 -0.836165,-0.15557 -1.212115,-0.4667 l -0.200939,0.29817 c 0.362986,0.33057 0.894502,0.50559 1.419536,0.50559 z" />
      </g>
      <g
         id="text16-3"
         style="font-style:normal;font-variant:normal;font-weight:300;font-stretch:normal;font-size:5.35459614px;line-height:5.94955111px;font-family:Raleway;-inkscape-font-specification:'Raleway Light';text-align:start;letter-spacing:0px;word-spacing:0px;text-anchor:start;fill:#ffffff;fill-opacity:1;stroke:none;stroke-width:0.23798206px;stroke-linecap:butt;stroke-linejoin:miter;stroke-opacity:1"
         aria-label="Hörfunkproduktion
">
        <path
           id="path126"
           style="font-style:normal;font-variant:normal;font-weight:300;font-stretch:normal;font-family:Raleway;-inkscape-font-specification:'Raleway Light';text-align:start;text-anchor:start;fill:#ffffff;fill-opacity:1;stroke-width:0.23798206px"
           d="m 21.721946,311.37429 v 1.73489 h -2.398859 v -1.73489 h -0.273085 v 3.80177 h 0.273085 v -1.82057 h 2.398859 v 1.82057 h 0.273084 v -3.80177 z" />
        <path
           id="path128"
           style="font-style:normal;font-variant:normal;font-weight:300;font-stretch:normal;font-family:Raleway;-inkscape-font-specification:'Raleway Light';text-align:start;text-anchor:start;fill:#ffffff;fill-opacity:1;stroke-width:0.23798206px"
           d="m 23.781123,311.74911 v -0.4712 H 23.54552 v 0.4712 z m 0.728225,0 v -0.4712 h -0.235602 v 0.4712 z m -0.481914,3.48049 c 0.776417,0 1.360068,-0.66397 1.360068,-1.44038 0,-0.78178 -0.594361,-1.44575 -1.360068,-1.44575 -0.771062,0 -1.360067,0.66397 -1.360067,1.44575 0,0.77641 0.578296,1.44038 1.360067,1.44038 z m -1.092338,-1.42968 c 0,-0.66397 0.497978,-1.21549 1.092338,-1.21549 0.59436,0 1.086983,0.54617 1.086983,1.19943 0,0.66397 -0.492623,1.20479 -1.092337,1.20479 -0.599715,0 -1.086984,-0.53011 -1.086984,-1.18873 z" />
        <path
           id="path130"
           style="font-style:normal;font-variant:normal;font-weight:300;font-stretch:normal;font-family:Raleway;-inkscape-font-specification:'Raleway Light';text-align:start;text-anchor:start;fill:#ffffff;fill-opacity:1;stroke-width:0.23798206px"
           d="m 27.346196,312.38096 c -0.03748,0 -0.09638,0 -0.165992,0.005 -0.358758,0.0375 -0.701452,0.29986 -0.894218,0.69074 v -0.68538 h -0.25702 v 2.78439 h 0.267729 v -1.74025 c 0.149929,-0.48727 0.551524,-0.78712 1.049501,-0.80319 z" />
        <path
           id="path132"
           style="font-style:normal;font-variant:normal;font-weight:300;font-stretch:normal;font-family:Raleway;-inkscape-font-specification:'Raleway Light';text-align:start;text-anchor:start;fill:#ffffff;fill-opacity:1;stroke-width:0.23798206px"
           d="m 28.250035,315.17606 v -2.56486 h 0.79248 v -0.21953 h -0.79248 v -0.0964 c 0,-0.54617 0.203475,-0.84602 0.567587,-0.84602 0.155284,0 0.315922,0.0535 0.412304,0.13386 l 0.09638,-0.19276 c -0.12851,-0.1071 -0.342694,-0.17671 -0.556878,-0.17671 -0.487268,0 -0.787126,0.40695 -0.787126,1.08699 v 0.091 H 27.59142 v 0.21953 h 0.390885 v 2.56486 z" />
        <path
           id="path134"
           style="font-style:normal;font-variant:normal;font-weight:300;font-stretch:normal;font-family:Raleway;-inkscape-font-specification:'Raleway Light';text-align:start;text-anchor:start;fill:#ffffff;fill-opacity:1;stroke-width:0.23798206px"
           d="m 30.425926,315.2296 c 0.492623,0 0.947763,-0.26773 1.18872,-0.71216 v 0.41766 c 0,0.14993 0.133865,0.24631 0.273085,0.24631 0.01606,0 0.04284,0 0.08032,-0.005 v -0.24096 c -0.07496,0 -0.112446,-0.0482 -0.112446,-0.13387 v -2.40956 h -0.26773 v 1.7563 c -0.165992,0.50334 -0.615778,0.84068 -1.081628,0.84068 -0.471205,0 -0.701452,-0.33734 -0.701452,-1.02809 v -1.56889 h -0.26773 v 1.60637 c 0,0.8139 0.305212,1.23156 0.888863,1.23156 z" />
        <path
           id="path136"
           style="font-style:normal;font-variant:normal;font-weight:300;font-stretch:normal;font-family:Raleway;-inkscape-font-specification:'Raleway Light';text-align:start;text-anchor:start;fill:#ffffff;fill-opacity:1;stroke-width:0.23798206px"
           d="m 34.987456,313.57503 c 0,-0.78712 -0.224893,-1.23156 -0.829962,-1.23156 -0.492623,0 -0.969182,0.28915 -1.194075,0.71217 v -0.66397 h -0.251666 v 2.78439 h 0.267729 v -1.72418 c 0.144574,-0.49263 0.631843,-0.86209 1.103047,-0.86209 0.439077,0 0.637197,0.31592 0.637197,1.03343 v 1.55284 h 0.26773 z" />
        <path
           id="path138"
           style="font-style:normal;font-variant:normal;font-weight:300;font-stretch:normal;font-family:Raleway;-inkscape-font-specification:'Raleway Light';text-align:start;text-anchor:start;fill:#ffffff;fill-opacity:1;stroke-width:0.23798206px"
           d="m 38.10475,315.17606 -1.199429,-1.64922 1.161947,-1.12982 h -0.310566 l -1.692053,1.60102 V 311.2672 H 35.79692 v 3.90886 h 0.267729 v -0.88351 l 0.658616,-0.60507 1.086983,1.48858 z" />
        <path
           id="path140"
           style="font-style:normal;font-variant:normal;font-weight:300;font-stretch:normal;font-family:Raleway;-inkscape-font-specification:'Raleway Light';text-align:start;text-anchor:start;fill:#ffffff;fill-opacity:1;stroke-width:0.23798206px"
           d="m 39.949326,315.2296 c 0.760353,0 1.274394,-0.66397 1.274394,-1.44038 0,-0.73358 -0.556878,-1.44575 -1.333294,-1.44575 -0.423013,0 -0.824608,0.25167 -1.054856,0.60507 v -0.55687 h -0.246311 v 3.92491 h 0.26773 v -1.74024 c 0.230247,0.36411 0.615778,0.65326 1.092337,0.65326 z m -0.06425,-0.24095 c -0.444431,0 -0.846026,-0.32664 -1.028082,-0.73894 v -0.91564 c 0.04819,-0.39624 0.59436,-0.74964 0.979891,-0.74964 0.621133,0 1.113756,0.56759 1.113756,1.20479 0,0.59971 -0.417659,1.19943 -1.065565,1.19943 z" />
        <path
           id="path142"
           style="font-style:normal;font-variant:normal;font-weight:300;font-stretch:normal;font-family:Raleway;-inkscape-font-specification:'Raleway Light';text-align:start;text-anchor:start;fill:#ffffff;fill-opacity:1;stroke-width:0.23798206px"
           d="m 43.179904,312.38096 c -0.03748,0 -0.09638,0 -0.165992,0.005 -0.358758,0.0375 -0.701452,0.29986 -0.894218,0.69074 v -0.68538 h -0.257021 v 2.78439 h 0.26773 v -1.74025 c 0.149929,-0.48727 0.551524,-0.78712 1.049501,-0.80319 z" />
        <path
           id="path144"
           style="font-style:normal;font-variant:normal;font-weight:300;font-stretch:normal;font-family:Raleway;-inkscape-font-specification:'Raleway Light';text-align:start;text-anchor:start;fill:#ffffff;fill-opacity:1;stroke-width:0.23798206px"
           d="m 44.724203,315.2296 c 0.776416,0 1.360067,-0.66397 1.360067,-1.44038 0,-0.78178 -0.59436,-1.44575 -1.360067,-1.44575 -0.771062,0 -1.360068,0.66397 -1.360068,1.44575 0,0.77641 0.578297,1.44038 1.360068,1.44038 z m -1.092338,-1.42968 c 0,-0.66397 0.497977,-1.21549 1.092338,-1.21549 0.59436,0 1.086983,0.54617 1.086983,1.19943 0,0.66397 -0.492623,1.20479 -1.092338,1.20479 -0.599715,0 -1.086983,-0.53011 -1.086983,-1.18873 z" />
        <path
           id="path146"
           style="font-style:normal;font-variant:normal;font-weight:300;font-stretch:normal;font-family:Raleway;-inkscape-font-specification:'Raleway Light';text-align:start;text-anchor:start;fill:#ffffff;fill-opacity:1;stroke-width:0.23798206px"
           d="m 47.871617,315.2296 c 0.412304,0 0.829962,-0.24095 1.054855,-0.61042 v 0.31056 c 0,0.12316 0.112447,0.25703 0.257021,0.25703 0.02677,0 0.05355,-0.005 0.09638,-0.0107 v -0.24096 c -0.07496,0 -0.112447,-0.0482 -0.112447,-0.13387 v -3.53403 h -0.26773 v 1.72954 c -0.214183,-0.35341 -0.605069,-0.65327 -1.086983,-0.65327 -0.738934,0 -1.279748,0.66933 -1.279748,1.44575 0,0.73893 0.562233,1.44038 1.338649,1.44038 z m 0.04819,-0.24095 c -0.621133,0 -1.113756,-0.55688 -1.113756,-1.19408 0,-0.61042 0.417659,-1.21014 1.065565,-1.21014 0.406949,0 0.878154,0.33199 1.028082,0.73894 v 0.91563 c -0.04819,0.40695 -0.589005,0.74965 -0.979891,0.74965 z" />
        <path
           id="path148"
           style="font-style:normal;font-variant:normal;font-weight:300;font-stretch:normal;font-family:Raleway;-inkscape-font-specification:'Raleway Light';text-align:start;text-anchor:start;fill:#ffffff;fill-opacity:1;stroke-width:0.23798206px"
           d="m 50.882156,315.2296 c 0.492623,0 0.947763,-0.26773 1.18872,-0.71216 v 0.41766 c 0,0.14993 0.133865,0.24631 0.273085,0.24631 0.01606,0 0.04284,0 0.08032,-0.005 v -0.24096 c -0.07497,0 -0.112447,-0.0482 -0.112447,-0.13387 v -2.40956 h -0.26773 v 1.7563 c -0.165992,0.50334 -0.615778,0.84068 -1.081628,0.84068 -0.471205,0 -0.701452,-0.33734 -0.701452,-1.02809 v -1.56889 h -0.26773 v 1.60637 c 0,0.8139 0.305212,1.23156 0.888863,1.23156 z" />
        <path
           id="path150"
           style="font-style:normal;font-variant:normal;font-weight:300;font-stretch:normal;font-family:Raleway;-inkscape-font-specification:'Raleway Light';text-align:start;text-anchor:start;fill:#ffffff;fill-opacity:1;stroke-width:0.23798206px"
           d="m 55.475814,315.17606 -1.19943,-1.64922 1.161948,-1.12982 h -0.310567 l -1.692052,1.60102 v -2.73084 h -0.26773 v 3.90886 h 0.26773 v -0.88351 l 0.658615,-0.60507 1.086983,1.48858 z" />
        <path
           id="path152"
           style="font-style:normal;font-variant:normal;font-weight:300;font-stretch:normal;font-family:Raleway;-inkscape-font-specification:'Raleway Light';text-align:start;text-anchor:start;fill:#ffffff;fill-opacity:1;stroke-width:0.23798206px"
           d="m 57.122269,314.82801 c -0.03213,0.0214 -0.214183,0.12851 -0.433722,0.12851 -0.176702,0 -0.348049,-0.10174 -0.348049,-0.31057 v -2.03475 h 0.647907 v -0.21953 h -0.647907 v -0.95312 h -0.267729 v 0.95312 h -0.390886 v 0.21953 h 0.390886 v 2.09901 c 0,0.32127 0.251666,0.49797 0.546168,0.49797 0.299858,0 0.530105,-0.13386 0.583651,-0.16599 z" />
        <path
           id="path154"
           style="font-style:normal;font-variant:normal;font-weight:300;font-stretch:normal;font-family:Raleway;-inkscape-font-specification:'Raleway Light';text-align:start;text-anchor:start;fill:#ffffff;fill-opacity:1;stroke-width:0.23798206px"
           d="m 57.943193,315.17606 v -2.78439 h -0.26773 v 2.78439 z m 0,-3.41624 v -0.49262 h -0.26773 v 0.49262 z" />
        <path
           id="path156"
           style="font-style:normal;font-variant:normal;font-weight:300;font-stretch:normal;font-family:Raleway;-inkscape-font-specification:'Raleway Light';text-align:start;text-anchor:start;fill:#ffffff;fill-opacity:1;stroke-width:0.23798206px"
           d="m 59.951335,315.2296 c 0.776417,0 1.360068,-0.66397 1.360068,-1.44038 0,-0.78178 -0.59436,-1.44575 -1.360068,-1.44575 -0.771061,0 -1.360067,0.66397 -1.360067,1.44575 0,0.77641 0.578296,1.44038 1.360067,1.44038 z m -1.092337,-1.42968 c 0,-0.66397 0.497977,-1.21549 1.092337,-1.21549 0.594361,0 1.086983,0.54617 1.086983,1.19943 0,0.66397 -0.492622,1.20479 -1.092337,1.20479 -0.599715,0 -1.086983,-0.53011 -1.086983,-1.18873 z" />
        <path
           id="path158"
           style="font-style:normal;font-variant:normal;font-weight:300;font-stretch:normal;font-family:Raleway;-inkscape-font-specification:'Raleway Light';text-align:start;text-anchor:start;fill:#ffffff;fill-opacity:1;stroke-width:0.23798206px"
           d="m 64.228572,313.57503 c 0,-0.78712 -0.224894,-1.23156 -0.829963,-1.23156 -0.492623,0 -0.969182,0.28915 -1.194075,0.71217 v -0.66397 h -0.251666 v 2.78439 h 0.26773 v -1.72418 c 0.144574,-0.49263 0.631842,-0.86209 1.103047,-0.86209 0.439077,0 0.637197,0.31592 0.637197,1.03343 v 1.55284 h 0.26773 z" />
      </g>
    </g>
    <g
       id="text16-36"
       style="font-style:normal;font-variant:normal;font-weight:bold;font-stretch:normal;font-size:123.52469635px;line-height:137.24964905px;font-family:Raleway;-inkscape-font-specification:'Raleway Bold';text-align:start;letter-spacing:0px;word-spacing:0px;text-anchor:start;fill:#ffffff;fill-opacity:1;stroke:none;stroke-width:5.48998642px;stroke-linecap:butt;stroke-linejoin:miter;stroke-opacity:1"
       aria-label="Gar nicht so
einfach ">
      <path
         id="path60"
         style="font-style:normal;font-variant:normal;font-weight:bold;font-stretch:normal;font-family:Raleway;-inkscape-font-specification:'Raleway Bold';text-align:start;text-anchor:start;fill:#ffffff;fill-opacity:1;stroke-width:5.48998642px"
         d="m 117.96104,-351.98041 h 14.08182 v -45.08651 h -31.74585 v 12.47599 h 17.66403 v 6.17624 c -6.79386,7.90558 -14.57591,11.98189 -22.975592,11.98189 -14.946488,0 -25.940186,-12.84657 -25.940186,-29.39887 0,-15.81117 10.0055,-29.39888 24.951988,-29.39888 9.38788,0 17.91108,4.81746 22.35797,13.46419 l 12.72304,-9.38788 c -5.92918,-11.61132 -18.0346,-19.14633 -34.463386,-19.14633 -24.334365,0 -42.739545,20.01101 -42.739545,43.9748 0,25.32256 18.528704,44.96299 41.627823,44.96299 9.264348,0 17.293458,-3.33517 24.457888,-10.4996 z" />
      <path
         id="path62"
         style="font-style:normal;font-variant:normal;font-weight:bold;font-stretch:normal;font-family:Raleway;-inkscape-font-specification:'Raleway Bold';text-align:start;text-anchor:start;fill:#ffffff;fill-opacity:1;stroke-width:5.48998642px"
         d="m 162.62873,-350.74516 c 9.38788,0 17.91108,-4.07632 23.71674,-11.61132 l 0.37058,3.58221 c 0.86467,4.57042 4.19984,7.65854 10.37607,7.65854 1.9764,0 4.32337,-0.24705 7.28796,-0.86468 v -14.08181 c -2.84107,-0.12353 -3.95279,-1.4823 -3.95279,-4.94099 v -20.13453 c 0,-17.16993 -10.87017,-26.68133 -29.39888,-26.68133 -9.63492,0 -18.5287,2.71754 -26.92838,8.27615 l 5.06451,10.4996 c 6.91738,-4.81746 13.34067,-7.28795 20.25805,-7.28795 9.5114,0 14.45239,4.81746 14.45239,13.34066 v 3.70574 c -4.19984,-1.85287 -10.0055,-2.84106 -15.81116,-2.84106 -16.18174,0 -27.54601,8.5232 -27.54601,20.87567 0,11.73485 9.5114,20.5051 22.11092,20.5051 z m 4.69394,-12.10542 c -6.29976,0 -11.11722,-4.19984 -11.11722,-9.75845 0,-5.92919 6.05271,-10.25255 14.57591,-10.25255 4.19984,0 9.14083,0.9882 13.09362,2.47049 v 7.41148 c 0,1.60582 -0.9882,3.33517 -2.71754,4.69394 -2.84107,3.33517 -8.27616,5.43509 -13.83477,5.43509 z" />
      <path
         id="path64"
         style="font-style:normal;font-variant:normal;font-weight:bold;font-stretch:normal;font-family:Raleway;-inkscape-font-specification:'Raleway Bold';text-align:start;text-anchor:start;fill:#ffffff;fill-opacity:1;stroke-width:5.48998642px"
         d="m 254.4346,-417.4485 c -0.74115,-0.12352 -1.60582,-0.12352 -3.33517,-0.12352 -6.91738,0 -15.44059,5.92918 -20.011,14.69944 v -13.83477 h -15.19354 v 64.72694 h 16.55231 v -39.15733 c 3.45869,-7.28795 11.9819,-11.11722 21.9874,-11.24074 z" />
      <path
         id="path66"
         style="font-style:normal;font-variant:normal;font-weight:bold;font-stretch:normal;font-family:Raleway;-inkscape-font-specification:'Raleway Bold';text-align:start;text-anchor:start;fill:#ffffff;fill-opacity:1;stroke-width:5.48998642px"
         d="m 350.60051,-392.37298 c 0,-12.59952 -3.33517,-25.44609 -19.5169,-25.44609 -11.24075,0 -20.87568,4.94099 -25.69314,13.09362 v -11.9819 h -14.94649 v 64.72694 h 16.55231 v -37.79855 c 2.47049,-7.78206 10.12902,-13.4642 16.79936,-13.4642 6.42328,0 10.25255,4.57042 10.25255,14.94649 v 36.31626 h 16.55231 z" />
      <path
         id="path68"
         style="font-style:normal;font-variant:normal;font-weight:bold;font-stretch:normal;font-family:Raleway;-inkscape-font-specification:'Raleway Bold';text-align:start;text-anchor:start;fill:#ffffff;fill-opacity:1;stroke-width:5.48998642px"
         d="m 381.54538,-351.98041 v -64.72694 h -16.55231 v 64.72694 z m 0,-73.74424 v -16.42879 h -16.55231 v 16.42879 z" />
      <path
         id="path70"
         style="font-style:normal;font-variant:normal;font-weight:bold;font-stretch:normal;font-family:Raleway;-inkscape-font-specification:'Raleway Bold';text-align:start;text-anchor:start;fill:#ffffff;fill-opacity:1;stroke-width:5.48998642px"
         d="m 392.5217,-384.34388 c 0,17.91108 13.21715,33.59872 34.21634,33.59872 14.20534,0 24.95199,-7.04091 29.39888,-16.79936 l -16.18173,-4.94099 c -1.9764,4.32337 -7.53501,7.65853 -13.4642,7.65853 -9.26435,0 -16.92288,-8.15263 -16.92288,-19.5169 0,-11.48779 7.41148,-19.39338 16.92288,-19.39338 5.55862,0 10.4996,2.71755 13.21715,7.41149 l 16.18173,-4.94099 c -4.94099,-9.88198 -15.19354,-16.55231 -29.27535,-16.55231 -21.12272,0 -34.09282,15.44059 -34.09282,33.47519 z" />
      <path
         id="path72"
         style="font-style:normal;font-variant:normal;font-weight:bold;font-stretch:normal;font-family:Raleway;-inkscape-font-specification:'Raleway Bold';text-align:start;text-anchor:start;fill:#ffffff;fill-opacity:1;stroke-width:5.48998642px"
         d="m 526.47845,-392.37298 c 0,-12.72305 -3.70574,-25.44609 -20.38157,-25.44609 -9.75845,0 -18.40518,4.81746 -23.22265,13.09362 v -37.42799 h -16.5523 v 90.17303 h 16.5523 v -37.79855 c 2.4705,-7.90559 10.12903,-13.4642 16.18174,-13.4642 6.79386,0 10.87017,4.81747 10.87017,14.94649 v 36.31626 h 16.55231 z" />
      <path
         id="path74"
         style="font-style:normal;font-variant:normal;font-weight:bold;font-stretch:normal;font-family:Raleway;-inkscape-font-specification:'Raleway Bold';text-align:start;text-anchor:start;fill:#ffffff;fill-opacity:1;stroke-width:5.48998642px"
         d="m 575.59883,-368.40919 c -1.97639,0.86467 -5.55861,2.34697 -9.0173,2.34697 -3.45869,0 -6.17624,-1.72935 -6.17624,-6.29976 v -31.62232 h 13.58772 v -12.72305 h -13.58772 v -20.9992 h -16.55231 v 20.9992 h -8.5232 v 12.72305 h 8.5232 v 37.18093 c 0,11.4878 7.65853,15.93468 16.79936,15.93468 7.04091,0 13.83477,-2.47049 18.28166,-4.44688 z" />
      <path
         id="path76"
         style="font-style:normal;font-variant:normal;font-weight:bold;font-stretch:normal;font-family:Raleway;-inkscape-font-specification:'Raleway Bold';text-align:start;text-anchor:start;fill:#ffffff;fill-opacity:1;stroke-width:5.48998642px"
         d="m 641.80807,-350.74516 c 16.05821,0 26.18724,-7.90558 26.18724,-20.5051 0,-10.87017 -7.16443,-15.07001 -25.07551,-19.5169 -9.51141,-2.4705 -12.72305,-3.70574 -12.72305,-8.15263 0,-5.06451 4.32337,-7.28796 9.88198,-7.28796 6.05271,0 12.22894,2.22345 18.77575,7.16443 l 6.67034,-10.0055 c -7.04091,-6.17623 -15.68764,-8.89378 -25.32257,-8.89378 -14.45239,0 -25.44608,8.15263 -25.44608,21.36978 0,9.88197 6.17623,13.46419 23.09911,18.0346 10.12903,2.71755 14.20534,4.19984 14.20534,8.77026 0,4.57041 -4.07631,7.16443 -10.62312,7.16443 -7.41148,0 -14.94649,-2.96459 -22.72854,-8.52321 l -6.17624,10.37608 c 7.28796,6.42328 18.52871,10.0055 29.27535,10.0055 z" />
      <path
         id="path78"
         style="font-style:normal;font-variant:normal;font-weight:bold;font-stretch:normal;font-family:Raleway;-inkscape-font-specification:'Raleway Bold';text-align:start;text-anchor:start;fill:#ffffff;fill-opacity:1;stroke-width:5.48998642px"
         d="m 708.52301,-350.74516 c 21.12272,0 33.84576,-15.68764 33.84576,-33.47519 0,-18.03461 -12.84656,-33.59872 -33.84576,-33.59872 -20.9992,0 -33.96929,15.56411 -33.96929,33.59872 0,17.78755 12.84656,33.47519 33.96929,33.47519 z m -16.92289,-33.47519 c 0,-11.24075 7.41149,-19.51691 16.92289,-19.51691 9.5114,0 16.92288,8.15263 16.92288,19.39338 0,11.36427 -7.41148,19.5169 -16.92288,19.5169 -9.5114,0 -16.92289,-8.0291 -16.92289,-19.39337 z" />
      <path
         id="path80"
         style="font-style:normal;font-variant:normal;font-weight:bold;font-stretch:normal;font-family:Raleway;-inkscape-font-specification:'Raleway Bold';text-align:start;text-anchor:start;fill:#ffffff;fill-opacity:1;stroke-width:5.48998642px"
         d="m 85.474046,-213.49551 c 14.328865,0 25.446084,-7.0409 30.140024,-16.92288 l -14.20534,-3.95279 c -2.099918,5.31156 -8.770251,8.77025 -15.31706,8.77025 -8.646729,0 -16.30526,-6.05271 -17.169933,-16.18173 h 50.027503 c 0.24705,-1.35877 0.37057,-3.45869 0.37057,-5.55861 0,-17.54051 -12.59952,-33.22815 -33.722239,-33.22815 -21.122723,0 -34.216341,15.44059 -34.216341,33.84577 0,17.91108 13.217143,33.22814 34.092816,33.22814 z m -16.799358,-39.0338 c 0.741148,-9.63493 7.782056,-16.05821 16.675834,-16.05821 9.017303,0 16.058208,6.42328 16.922888,16.05821 z" />
      <path
         id="path82"
         style="font-style:normal;font-variant:normal;font-weight:bold;font-stretch:normal;font-family:Raleway;-inkscape-font-specification:'Raleway Bold';text-align:start;text-anchor:start;fill:#ffffff;fill-opacity:1;stroke-width:5.48998642px"
         d="m 146.07642,-214.73075 v -64.72694 h -16.55231 v 64.72694 z m 0,-73.74425 v -16.42878 h -16.55231 v 16.42878 z" />
      <path
         id="path84"
         style="font-style:normal;font-variant:normal;font-weight:bold;font-stretch:normal;font-family:Raleway;-inkscape-font-specification:'Raleway Bold';text-align:start;text-anchor:start;fill:#ffffff;fill-opacity:1;stroke-width:5.48998642px"
         d="m 221.28559,-255.12333 c 0,-12.59952 -3.33517,-25.44609 -19.5169,-25.44609 -11.24075,0 -20.87568,4.94099 -25.69314,13.09362 v -11.98189 h -14.94649 v 64.72694 h 16.55231 v -37.79856 c 2.47049,-7.78206 10.12903,-13.46419 16.79936,-13.46419 6.42328,0 10.25255,4.57041 10.25255,14.94649 v 36.31626 h 16.55231 z" />
      <path
         id="path86"
         style="font-style:normal;font-variant:normal;font-weight:bold;font-stretch:normal;font-family:Raleway;-inkscape-font-specification:'Raleway Bold';text-align:start;text-anchor:start;fill:#ffffff;fill-opacity:1;stroke-width:5.48998642px"
         d="m 255.45947,-214.73075 v -48.66873 h 15.81116 V -275.999 h -15.81116 v -4.57042 c 0,-7.535 2.96459,-11.61132 8.64673,-11.61132 2.84107,0 6.54681,0.9882 9.0173,2.34697 l 3.33517,-12.47599 c -5.18804,-2.4705 -10.74665,-3.82927 -15.93469,-3.82927 -13.21714,0 -21.61682,10.12903 -21.61682,26.18724 v 3.95279 h -8.5232 v 12.59952 h 8.5232 v 48.66873 z" />
      <path
         id="path88"
         style="font-style:normal;font-variant:normal;font-weight:bold;font-stretch:normal;font-family:Raleway;-inkscape-font-specification:'Raleway Bold';text-align:start;text-anchor:start;fill:#ffffff;fill-opacity:1;stroke-width:5.48998642px"
         d="m 297.25135,-213.49551 c 9.38788,0 17.91108,-4.07631 23.71674,-11.61132 l 0.37058,3.58222 c 0.86467,4.57041 4.19984,7.65853 10.37607,7.65853 1.9764,0 4.32337,-0.24705 7.28796,-0.86467 v -14.08182 c -2.84107,-0.12352 -3.95279,-1.4823 -3.95279,-4.94099 v -20.13452 c 0,-17.16993 -10.87017,-26.68134 -29.39888,-26.68134 -9.63492,0 -18.5287,2.71755 -26.92838,8.27616 l 5.06451,10.4996 c 6.91738,-4.81747 13.34067,-7.28796 20.25805,-7.28796 9.5114,0 14.45239,4.81746 14.45239,13.34067 v 3.70574 c -4.19984,-1.85287 -10.0055,-2.84107 -15.81116,-2.84107 -16.18174,0 -27.54601,8.5232 -27.54601,20.87567 0,11.73485 9.5114,20.5051 22.11092,20.5051 z m 4.69394,-12.10542 c -6.29976,0 -11.11722,-4.19984 -11.11722,-9.75845 0,-5.92918 6.05271,-10.25255 14.57591,-10.25255 4.19984,0 9.14083,0.9882 13.09362,2.4705 v 7.41148 c 0,1.60582 -0.9882,3.33517 -2.71754,4.69394 -2.84107,3.33516 -8.27616,5.43508 -13.83477,5.43508 z" />
      <path
         id="path90"
         style="font-style:normal;font-variant:normal;font-weight:bold;font-stretch:normal;font-family:Raleway;-inkscape-font-specification:'Raleway Bold';text-align:start;text-anchor:start;fill:#ffffff;fill-opacity:1;stroke-width:5.48998642px"
         d="m 346.4412,-247.09422 c 0,17.91108 13.21714,33.59871 34.21634,33.59871 14.20534,0 24.95199,-7.0409 29.39888,-16.79936 l -16.18174,-4.94098 c -1.97639,4.32336 -7.53501,7.65853 -13.46419,7.65853 -9.26435,0 -16.92288,-8.15263 -16.92288,-19.5169 0,-11.4878 7.41148,-19.39338 16.92288,-19.39338 5.55861,0 10.4996,2.71754 13.21714,7.41148 l 16.18174,-4.94099 c -4.94099,-9.88197 -15.19354,-16.55231 -29.27536,-16.55231 -21.12272,0 -34.09281,15.44059 -34.09281,33.4752 z" />
      <path
         id="path92"
         style="font-style:normal;font-variant:normal;font-weight:bold;font-stretch:normal;font-family:Raleway;-inkscape-font-specification:'Raleway Bold';text-align:start;text-anchor:start;fill:#ffffff;fill-opacity:1;stroke-width:5.48998642px"
         d="m 480.39795,-255.12333 c 0,-12.72304 -3.70574,-25.44609 -20.38158,-25.44609 -9.75845,0 -18.40518,4.81747 -23.22264,13.09362 v -37.42798 h -16.55231 v 90.17303 h 16.55231 v -37.79856 c 2.47049,-7.90558 10.12902,-13.46419 16.18173,-13.46419 6.79386,0 10.87018,4.81746 10.87018,14.94649 v 36.31626 h 16.55231 z" />
    </g>
    <path
       id="path855"
       d="m 514.07116,-222.75592 228.29761,0"
       style="fill:none;fill-rule:evenodd;stroke:#ffffff;stroke-width:18.52083397;stroke-linecap:butt;stroke-linejoin:miter;stroke-miterlimit:4;stroke-dasharray:none;stroke-opacity:1" />
    <rect
       y="-151.27979"
       x="66.523834"
       height="95.25"
       width="95.25"
       id="rect1053"
       style="opacity:1;fill:#4a9c36;fill-opacity:1;stroke:#0b1809;stroke-width:10.58333302;stroke-linecap:round;stroke-linejoin:round;stroke-miterlimit:4;stroke-dasharray:none;stroke-dashoffset:0;stroke-opacity:1" />
    <path
       id="rect1053-3"
       d="m 371.17263,-138.42859 47.625,95.250001 h -95.25 z"
       style="opacity:1;fill:#4a9c36;fill-opacity:1;stroke:#0b1809;stroke-width:10.58333302;stroke-linecap:round;stroke-linejoin:round;stroke-miterlimit:4;stroke-dasharray:none;stroke-dashoffset:0;stroke-opacity:1" />
    <circle
       r="47.625"
       cy="126.53271"
       cx="241.52678"
       id="path1076"
       style="opacity:1;fill:#4a9c36;fill-opacity:1;stroke:#0b1809;stroke-width:10.58333302;stroke-linecap:round;stroke-linejoin:round;stroke-miterlimit:4;stroke-dasharray:none;stroke-dashoffset:0;stroke-opacity:1" />
    <circle
       r="47.625"
       cy="-13.696444"
       cx="691.69641"
       id="path1076-6"
       style="opacity:1;fill:#4a9c36;fill-opacity:1;stroke:#0b1809;stroke-width:10.58333302;stroke-linecap:round;stroke-linejoin:round;stroke-miterlimit:4;stroke-dasharray:none;stroke-dashoffset:0;stroke-opacity:1" />
    <path
       id="rect1053-3-2"
       d="m 596.44642,269.83502 -47.625,-95.25 h 95.25 z"
       style="opacity:1;fill:#4a9c36;fill-opacity:1;stroke:#0b1809;stroke-width:10.58333302;stroke-linecap:round;stroke-linejoin:round;stroke-miterlimit:4;stroke-dasharray:none;stroke-dashoffset:0;stroke-opacity:1" />
    <path
       id="path1109"
       d="m 176.1369,-104.41075 143.63096,6.803593"
       style="fill:none;fill-rule:evenodd;stroke:#0b1809;stroke-width:10.58333302;stroke-linecap:butt;stroke-linejoin:miter;stroke-miterlimit:4;stroke-dasharray:none;stroke-opacity:1;marker-mid:url(#marker1531);marker-end:url(#marker2019)" />
    <path
       id="path1111"
       d="M 413.50594,-24.279776 578.30356,148.8333"
       style="fill:none;fill-rule:evenodd;stroke:#0b1809;stroke-width:10.58333302;stroke-linecap:butt;stroke-linejoin:miter;stroke-miterlimit:4;stroke-dasharray:none;stroke-opacity:1;marker-mid:url(#Arrow1Sstart);marker-end:url(#Arrow1Send)" />
    <path
       id="path1113"
       d="M 534.45832,167.0255 188.23214,-37.886927"
       style="fill:none;fill-rule:evenodd;stroke:#0b1809;stroke-width:10.58333302;stroke-linecap:butt;stroke-linejoin:miter;stroke-miterlimit:4;stroke-dasharray:none;stroke-opacity:1;marker-mid:url(#marker1407);marker-end:url(#marker1727)" />
    <path
       id="path1115"
       d="M 328.8393,-25.03574 272.14285,54.339258"
       style="fill:none;fill-rule:evenodd;stroke:#0b1809;stroke-width:10.58333302;stroke-linecap:butt;stroke-linejoin:miter;stroke-miterlimit:4;stroke-dasharray:none;stroke-opacity:1;marker-mid:url(#marker1491);marker-end:url(#marker1937)" />
    <path
       id="path1119"
       d="M 628.19641,-22.767886 428.625,-85.511931"
       style="fill:none;fill-rule:evenodd;stroke:#0b1809;stroke-width:10.58333302;stroke-linecap:butt;stroke-linejoin:miter;stroke-miterlimit:4;stroke-dasharray:none;stroke-opacity:1;marker-mid:url(#marker1635);marker-end:url(#marker2113)" />
    <path
       id="path1121"
       d="M 299.35714,102.72022 616.85713,8.2261605"
       style="fill:none;fill-rule:evenodd;stroke:#0b1809;stroke-width:10.58333302;stroke-linecap:butt;stroke-linejoin:miter;stroke-miterlimit:4;stroke-dasharray:none;stroke-opacity:1;marker-mid:url(#marker1429);marker-end:url(#marker1791)" />
  </g>
</svg>
