<svg height="3000" viewBox="0 0 793.74998 793.75003" width="3000" xmlns="http://www.w3.org/2000/svg" xmlns:xlink="http://www.w3.org/1999/xlink"><marker id="a" orient="auto" overflow="visible" refX="0.0" refY="0.0"><path d="m0 0 5-5-17.5 5 17.5 5z" fill="#0b1809" fill-rule="evenodd" stroke="#0b1809" stroke-width="1pt" transform="matrix(-.2 0 0 -.2 -1.2 0)"/></marker><marker id="b" orient="auto" overflow="visible" refX="0.0" refY="0.0"><path d="m0 0 5-5-17.5 5 17.5 5z" fill="#0b1809" fill-rule="evenodd" stroke="#0b1809" stroke-width="1pt" transform="matrix(-.2 0 0 -.2 -1.2 0)"/></marker><marker id="c" orient="auto" overflow="visible" refX="0.0" refY="0.0"><path d="m0 0 5-5-17.5 5 17.5 5z" fill="#0b1809" fill-rule="evenodd" stroke="#0b1809" stroke-width="1pt" transform="matrix(-.2 0 0 -.2 -1.2 0)"/></marker><marker id="d" orient="auto" overflow="visible" refX="0.0" refY="0.0"><path d="m0 0 5-5-17.5 5 17.5 5z" fill="#0b1809" fill-rule="evenodd" stroke="#0b1809" stroke-width="1pt" transform="matrix(-.2 0 0 -.2 -1.2 0)"/></marker><marker id="e" orient="auto" overflow="visible" refX="0.0" refY="0.0"><path d="m0 0 5-5-17.5 5 17.5 5z" fill="#0b1809" fill-rule="evenodd" stroke="#0b1809" stroke-width="1pt" transform="matrix(-.2 0 0 -.2 -1.2 0)"/></marker><marker id="f" orient="auto" overflow="visible" refX="0.0" refY="0.0"><path d="m0 0 5-5-17.5 5 17.5 5z" fill="#0b1809" fill-rule="evenodd" stroke="#0b1809" stroke-width="1pt" transform="matrix(-.2 0 0 -.2 -1.2 0)"/></marker><marker id="g" orient="auto" overflow="visible" refX="0.0" refY="0.0"><path d="m0 0 5-5-17.5 5 17.5 5z" fill="#0b1809" fill-rule="evenodd" stroke="#0b1809" stroke-width="1pt" transform="matrix(.2 0 0 .2 1.2 0)"/></marker><marker id="h" orient="auto" overflow="visible" refX="0.0" refY="0.0"><path d="m0 0 5-5-17.5 5 17.5 5z" fill="#0b1809" fill-rule="evenodd" stroke="#0b1809" stroke-width="1pt" transform="matrix(.2 0 0 .2 1.2 0)"/></marker><marker id="i" orient="auto" overflow="visible" refX="0.0" refY="0.0"><path d="m0 0 5-5-17.5 5 17.5 5z" fill="#0b1809" fill-rule="evenodd" stroke="#0b1809" stroke-width="1pt" transform="matrix(.2 0 0 .2 1.2 0)"/></marker><marker id="j" orient="auto" overflow="visible" refX="0.0" refY="0.0"><path d="m0 0 5-5-17.5 5 17.5 5z" fill="#0b1809" fill-rule="evenodd" stroke="#0b1809" stroke-width="1pt" transform="matrix(.2 0 0 .2 1.2 0)"/></marker><marker id="k" orient="auto" overflow="visible" refX="0.0" refY="0.0"><path d="m0 0 5-5-17.5 5 17.5 5z" fill="#0b1809" fill-rule="evenodd" stroke="#0b1809" stroke-width="1pt" transform="matrix(.2 0 0 .2 1.2 0)"/></marker><marker id="l" orient="auto" overflow="visible" refX="0.0" refY="0.0"><path d="m0 0 5-5-17.5 5 17.5 5z" fill="#0b1809" fill-rule="evenodd" stroke="#0b1809" stroke-width="1pt" transform="matrix(.2 0 0 .2 1.2 0)"/></marker><mask id="m"><path d="m-32-32h64v64h-64z"/><path d="m-34-32 24 32-24 32zm68 0-24 32 24 32z" fill="#fff"/></mask><g transform="translate(0 496.75002)"><path d="m0-496.75h793.75v793.75h-793.75z" fill="#4a9c36"/><g fill="#fff" stroke-width="5.48999"><path d="m117.96121-351.98041h14.08185v-45.08662h-31.74592v12.47602h17.66407v6.17625c-6.79387 7.9056-14.57595 11.98193-22.975646 11.98193-14.946525 0-25.94025-12.8466-25.94025-29.39895 0-15.8112 10.005525-29.39895 24.95205-29.39895 9.387896 0 17.911126 4.81747 22.358026 13.46422l12.72307-9.3879c-5.9292-11.61135-18.03465-19.14637-34.463471-19.14637-24.334425 0-42.73965 20.01105-42.73965 43.9749 0 25.32262 18.52875 44.9631 41.627925 44.9631 9.264376 0 17.293496-3.33518 24.457946-10.49963z"/><path d="m162.67731-350.74516c9.3879 0 17.91113-4.07632 23.7168-11.61135l.37058 3.58223c.86467 4.57042 4.19985 7.65855 10.3761 7.65855 1.9764 0 4.32337-.24705 7.28797-.86468v-14.08185c-2.84107-.12352-3.9528-1.4823-3.9528-4.941v-20.13457c0-17.16998-10.8702-26.6814-29.39895-26.6814-9.63495 0-18.52875 2.71755-26.92845 8.27617l5.06453 10.49963c6.9174-4.81748 13.3407-7.28798 20.2581-7.28798 9.51142 0 14.45242 4.81748 14.45242 13.3407v3.70575c-4.19985-1.85287-10.00552-2.84107-15.8112-2.84107-16.18177 0-27.54607 8.52322-27.54607 20.87572 0 11.73488 9.51142 20.50515 22.11097 20.50515zm4.69395-12.10545c-6.29977 0-11.11725-4.19985-11.11725-9.75847 0-5.9292 6.05273-10.25258 14.57595-10.25258 4.19985 0 9.14085.9882 13.09365 2.4705v7.4115c0 1.60583-.9882 3.33518-2.71755 4.69395-2.84107 3.33518-8.27617 5.4351-13.8348 5.4351z"/><path d="m254.45632-417.44866c-.74115-.12352-1.60583-.12352-3.33518-.12352-6.9174 0-15.44062 5.9292-20.01105 14.69947v-13.8348h-15.19357v64.7271h16.55235v-39.15742c3.4587-7.28798 11.98192-11.11725 21.98745-11.24078z"/><path d="m350.55861-392.37308c0-12.59955-3.33518-25.44615-19.51695-25.44615-11.24078 0-20.87573 4.941-25.6932 13.09365v-11.98193h-14.94653v64.7271h16.55235v-37.79865c2.4705-7.78207 10.12905-13.46422 16.7994-13.46422 6.4233 0 10.25258 4.57042 10.25258 14.94652v36.31635h16.55235z"/><path d="m381.56338-351.98041v-64.7271h-16.55235v64.7271zm0-73.74442v-16.42883h-16.55235v16.42883z"/><path d="m392.43348-384.34396c0 17.91113 13.21718 33.5988 34.21643 33.5988 14.20538 0 24.95205-7.04092 29.39895-16.7994l-16.18177-4.941c-1.9764 4.32338-7.53503 7.65855-13.46423 7.65855-9.26437 0-16.92292-8.15265-16.92292-19.51695 0-11.48782 7.4115-19.39342 16.92292-19.39342 5.55863 0 10.49963 2.71755 13.21718 7.4115l16.18177-4.941c-4.941-9.882-15.19357-16.55235-29.27542-16.55235-21.12278 0-34.09291 15.44062-34.09291 33.47527z"/><path d="m526.33448-392.37308c0-12.72308-3.70575-25.44615-20.38162-25.44615-9.75848 0-18.40523 4.81747-23.2227 13.09365v-37.42808h-16.55235v90.17325h16.55235v-37.79865c2.4705-7.9056 10.12905-13.46422 16.18177-13.46422 6.79388 0 10.8702 4.81747 10.8702 14.94652v36.31635h16.55235z"/><path d="m575.62109-368.40923c-1.9764.86467-5.55862 2.34697-9.01732 2.34697s-6.17625-1.72935-6.17625-6.29977v-31.6224h13.58775v-12.72308h-13.58775v-20.99925h-16.55235v20.99925h-8.52323v12.72308h8.52323v37.18102c0 11.48783 7.65855 15.93473 16.7994 15.93473 7.04092 0 13.8348-2.4705 18.2817-4.4469z"/><path d="m641.70702-350.74516c16.05825 0 26.1873-7.9056 26.1873-20.50515 0-10.8702-7.16445-15.07005-25.07558-19.51695-9.51142-2.4705-12.72307-3.70575-12.72307-8.15265 0-5.06452 4.32337-7.28797 9.882-7.28797 6.05272 0 12.22897 2.22345 18.7758 7.16445l6.67035-10.00553c-7.04093-6.17625-15.68768-8.8938-25.32263-8.8938-14.45242 0-25.44615 8.15265-25.44615 21.36983 0 9.882 6.17625 13.46422 23.09918 18.03465 10.12905 2.71755 14.20537 4.19985 14.20537 8.77027 0 4.57043-4.07632 7.16445-10.62315 7.16445-7.4115 0-14.94652-2.9646-22.7286-8.52322l-6.17625 10.3761c7.28798 6.4233 18.52875 10.00552 29.27543 10.00552z"/><path d="m708.53402-350.74516c21.12278 0 33.84586-15.68767 33.84586-33.47527 0-18.03465-12.8466-33.5988-33.84586-33.5988-20.99925 0-33.96937 15.56415-33.96937 33.5988 0 17.7876 12.8466 33.47527 33.96937 33.47527zm-16.92292-33.47527c0-11.24078 7.4115-19.51695 16.92292-19.51695 9.51143 0 16.92293 8.15265 16.92293 19.39342 0 11.3643-7.4115 19.51695-16.92293 19.51695-9.51142 0-16.92292-8.02912-16.92292-19.39342z"/><path d="m85.474139-213.49516c14.3289 0 25.446151-7.04093 30.140101-16.92293l-14.20538-3.9528c-2.099921 5.31158-8.770271 8.77028-15.317096 8.77028-8.64675 0-16.3053-6.05273-17.169975-16.18178h50.027621c.24705-1.35877.37058-3.4587.37058-5.55862 0-17.54055-12.59955-33.22823-33.722326-33.22823-21.122775 0-34.216425 15.44063-34.216425 33.84585 0 17.91113 13.217175 33.22823 34.0929 33.22823zm-16.7994-39.0339c.74115-9.63495 7.782075-16.05825 16.675875-16.05825 9.017325 0 16.058246 6.4233 16.922926 16.05825z"/><path d="m146.00151-214.73041v-64.7271h-16.55235v64.7271zm0-73.74443v-16.42883h-16.55235v16.42883z"/><path d="m221.1046-255.12309c0-12.59955-3.33517-25.44615-19.51695-25.44615-11.24077 0-20.87572 4.941-25.6932 13.09365v-11.98192h-14.94652v64.7271h16.55235v-37.79865c2.4705-7.78208 10.12905-13.46423 16.7994-13.46423 6.4233 0 10.25257 4.57043 10.25257 14.94653v36.31635h16.55235z"/><path d="m255.44468-214.73041v-48.66885h15.8112v-12.59955h-15.8112v-4.57043c0-7.53503 2.9646-11.61135 8.64675-11.61135 2.84107 0 6.54682.9882 9.01732 2.34697l3.33518-12.47602c-5.18805-2.4705-10.74668-3.82928-15.93473-3.82928-13.21717 0-21.61687 10.12905-21.61687 26.1873v3.95281h-8.52323v12.59955h8.52323v48.66885z"/><path d="m297.31982-213.49516c9.3879 0 17.91113-4.07633 23.7168-11.61135l.37058 3.58222c.86467 4.57043 4.19985 7.65855 10.3761 7.65855 1.9764 0 4.32337-.24705 7.28797-.86467v-14.08185c-2.84107-.12353-3.9528-1.4823-3.9528-4.941v-20.13458c0-17.16997-10.8702-26.6814-29.39895-26.6814-9.63495 0-18.52875 2.71755-26.92845 8.27618l5.06453 10.49962c6.9174-4.81747 13.3407-7.28797 20.2581-7.28797 9.51142 0 14.45242 4.81747 14.45242 13.3407v3.70575c-4.19985-1.85288-10.00552-2.84108-15.8112-2.84108-16.18177 0-27.54608 8.52323-27.54608 20.87573 0 11.73487 9.51143 20.50515 22.11098 20.50515zm4.69395-12.10545c-6.29977 0-11.11725-4.19985-11.11725-9.75848 0-5.9292 6.05273-10.25257 14.57595-10.25257 4.19985 0 9.14085.9882 13.09365 2.4705v7.4115c0 1.60582-.9882 3.33517-2.71755 4.69395-2.84107 3.33517-8.27617 5.4351-13.8348 5.4351z"/><path d="m346.48268-247.09396c0 17.91112 13.21717 33.5988 34.21642 33.5988 14.20538 0 24.95205-7.04093 29.39896-16.7994l-16.18178-4.941c-1.9764 4.32337-7.53503 7.65855-13.46423 7.65855-9.26437 0-16.92292-8.15265-16.92292-19.51695 0-11.48783 7.4115-19.39343 16.92292-19.39343 5.55863 0 10.49963 2.71755 13.21718 7.4115l16.18178-4.941c-4.94101-9.882-15.19358-16.55235-29.27543-16.55235-21.12278 0-34.0929 15.44063-34.0929 33.47528z"/><path d="m480.38371-255.12309c0-12.72307-3.70575-25.44615-20.38163-25.44615-9.75847 0-18.40522 4.81748-23.2227 13.09365v-37.42808h-16.55235v90.17326h16.55235v-37.79865c2.4705-7.9056 10.12905-13.46423 16.18178-13.46423 6.79387 0 10.8702 4.81748 10.8702 14.94653v36.31635h16.55235z"/></g><path d="m514.07116-222.75592h228.29761" fill="none" stroke="#fff" stroke-width="18.520834"/><g stroke="#0b1809" stroke-width="10.583333"><path d="m66.523834-151.27979h95.25v95.25h-95.25z" fill="#4a9c36" stroke-linecap="round" stroke-linejoin="round"/><path d="m371.17263-138.42859 47.625 95.250001h-95.25z" fill="#4a9c36" stroke-linecap="round" stroke-linejoin="round"/><circle cx="241.52678" cy="126.53271" fill="#4a9c36" r="47.625" stroke-linecap="round" stroke-linejoin="round"/><circle cx="691.69641" cy="-13.696444" fill="#4a9c36" r="47.625" stroke-linecap="round" stroke-linejoin="round"/><path d="m596.44642 269.83502-47.625-95.25h95.25z" fill="#4a9c36" stroke-linecap="round" stroke-linejoin="round"/><g fill="none"><path d="m176.1369-104.41075 143.63096 6.803593" marker-end="url(#b)" marker-mid="url(#h)"/><path d="m413.50594-24.279776 164.79762 173.113076" marker-end="url(#f)" marker-mid="url(#l)"/><path d="m534.45832 167.0255-346.22618-204.912427" marker-end="url(#e)" marker-mid="url(#k)"/><path d="m328.8393-25.03574-56.69645 79.374998" marker-end="url(#c)" marker-mid="url(#i)"/><path d="m628.19641-22.767886-199.57141-62.744045" marker-end="url(#a)" marker-mid="url(#g)"/><path d="m299.35714 102.72022 317.49999-94.4940595" marker-end="url(#d)" marker-mid="url(#j)"/></g></g><path d="m16.933332 195.39998h338.6666496v84.6666624h-338.6666496z" fill="none"/><g transform="matrix(1.3229166 0 0 1.3229166 59.266663 237.733311)"><path d="m-24-24h12l12 16 12-16h12l-36 48h-12l18-24zm48 48h-12l-9-12 6-8z" fill="#fff"/><g fill="none" stroke="#fff" stroke-width="3"><circle mask="url(#m)" r="18"/><circle mask="url(#m)" r="26"/></g></g><g fill="#fff" transform="matrix(1.3229166 0 0 1.3229166 16.933332 195.39998)"><g><path d="m68.075 10.25 6.675 9-6.475 8.75h2.5l5.2-7.15 5.2 7.15h2.475l-6.475-8.75 6.675-9h-2.475l-5.4 7.4-5.4-7.4z"/><path d="m85.498305 33.5c.45.1.75.125 1.05.125 1.875 0 2.95-1.025 3.4-2.2l6.35-16.475h-2.1l-4.05 11.075-4.45-11.075h-2.275l5.525 13.05c-1.175 3.075-1.5 3.65-2.3 3.65-.225 0-.725-.05-1.15-.1z"/><path d="m105.29664 14.875c-.175-.025-.4-.025-.725-.025-1.65.125-3.225 1.325-4.125 3.125v-3.025h-2.049995v13.05h2.199995v-8.05c.7-1.9 2.5-3.025 4.7-3.075z"/><path d="m109.545 28v-13.05h-2.2v13.05zm0-15.5v-2.75h-2.2v2.75z"/><path d="m113.01833 25.425c0 1.725 1.05 2.75 2.75 2.75.775 0 1.9-.225 2.625-.525l-.35-1.775c-.425.175-.975.3-1.35.3-.925 0-1.475-.575-1.475-1.55v-14.875h-2.2z"/><path d="m120.04165 25.425c0 1.725 1.05 2.75 2.75 2.75.775 0 1.9-.225 2.625-.525l-.35-1.775c-.425.175-.975.3-1.35.3-.925 0-1.475-.575-1.475-1.55v-14.875h-2.2z"/><path d="m129.21497 28v-13.05h-2.2v13.05zm0-15.5v-2.75h-2.2v2.75z"/><path d="m135.9883 28.25c2.025 0 3.9-.85 5.075-2.4l.05.925c.1.725.625 1.325 1.5 1.325.325 0 .6-.025 1.05-.1v-1.9c-.5-.025-.7-.25-.7-.8v-5.325c0-3.3-2.05-5.25-5.45-5.25-1.725 0-3.4.575-5.075 1.7l.725 1.425c1.425-1 2.8-1.525 4.15-1.525 2.175 0 3.45 1.3 3.45 3.425v1.05c-1-.4-2.375-.65-3.65-.65-3.225 0-5.5 1.65-5.5 4.025 0 2.3 1.9 4.075 4.375 4.075zm.575-1.65c-1.625 0-2.85-1.125-2.85-2.6 0-1.5 1.525-2.525 3.725-2.525 1.125 0 2.3.225 3.325.625v1.925c0 .3-.175.675-.475.975-.7.975-2.175 1.6-3.725 1.6z"/><path d="m157.68665 20.2c0-3.15-.875-5.475-3.9-5.475-2.3 0-4.4 1.2-5.425 3.025v-2.8h-2v13.05h2.2v-7.875c.6-1.975 2.55-3.425 4.35-3.425 1.725 0 2.575 1.225 2.575 4v7.3h2.2z"/><path d="m180.63334 28h1.9v-17.725h-2.25v13.8l-11-13.825h-1.75v17.75h2.25v-13.55z"/><path d="m191.78167 28.25c3.925 0 6.6-3.125 6.6-6.75 0-3.65-2.7-6.775-6.6-6.775-3.875 0-6.575 3.125-6.575 6.775 0 3.625 2.65 6.75 6.575 6.75zm-4.325-6.725c0-2.725 1.95-4.9 4.325-4.9 2.4 0 4.35 2.15 4.35 4.85 0 2.725-1.95 4.875-4.35 4.875s-4.325-2.1-4.325-4.825z"/><path d="m203.13003 28v-13.05h-2.2v13.05zm0-15.5v-2.75h-2.2v2.75z"/><path d="m211.12837 28.25c3.15 0 5.175-1.55 5.175-3.975 0-2.225-1.65-2.925-5.125-3.75-2.225-.55-3.075-.825-3.075-2.05 0-1.5 1.275-2.15 2.875-2.15 1.425 0 2.85.475 3.95 1.45l1-1.325c-1.175-1.025-2.95-1.725-4.9-1.725-2.775 0-5 1.425-5 4.05 0 2.05 1.325 2.65 4.475 3.425 2.5.6 3.675.975 3.675 2.275 0 1.35-1.225 2.15-3.1 2.15-1.675 0-3.2-.6-4.725-1.75l-.95 1.475c1.45 1.225 3.65 1.9 5.725 1.9z"/><path d="m224.55168 28.25c2.625 0 4.85-1.375 5.7-3.3l-1.9-.525c-.55 1.3-2.125 2.175-3.725 2.175-2.275 0-4.2-1.8-4.4-4.375h10.825c.025-.15.05-.5.05-.85 0-3.5-2.575-6.65-6.525-6.65-3.925 0-6.675 3.075-6.675 6.75s2.725 6.775 6.65 6.775zm-4.375-7.65c.175-2.475 2.075-4.225 4.4-4.225s4.225 1.725 4.45 4.225z"/><path d="m238.00001 28.25c3.15 0 5.175-1.55 5.175-3.975 0-2.225-1.65-2.925-5.125-3.75-2.225-.55-3.075-.825-3.075-2.05 0-1.5 1.275-2.15 2.875-2.15 1.425 0 2.85.475 3.95 1.45l1-1.325c-1.175-1.025-2.95-1.725-4.9-1.725-2.775 0-5 1.425-5 4.05 0 2.05 1.325 2.65 4.475 3.425 2.5.6 3.675.975 3.675 2.275 0 1.35-1.225 2.15-3.1 2.15-1.675 0-3.2-.6-4.725-1.75l-.95 1.475c1.45 1.225 3.65 1.9 5.725 1.9z"/></g><g><path d="m80.136 37.445v6.642h-9.184v-6.642h-1.0455v14.555h1.0455v-6.97h9.184v6.97h1.0455v-14.555z"/><path d="m88.027704 38.88v-1.804h-.902v1.804zm2.788 0v-1.804h-.902v1.804zm-1.845 13.325c2.9725 0 5.207-2.542 5.207-5.5145 0-2.993-2.2755-5.535-5.207-5.535-2.952 0-5.207 2.542-5.207 5.535 0 2.9725 2.214 5.5145 5.207 5.5145zm-4.182-5.4735c0-2.542 1.9065-4.6535 4.182-4.6535s4.1615 2.091 4.1615 4.592c0 2.542-1.886 4.6125-4.182 4.6125s-4.1615-2.0295-4.1615-4.551z"/><path d="m101.65938 41.299c-.1435 0-.369 0-.6355.0205-1.373504.1435-2.685504 1.148-3.423504 2.6445v-2.624h-.984v10.66h1.025v-6.6625c.574-1.8655 2.1115-3.0135 4.018004-3.075z"/><path d="m105.08206 52v-9.8195h3.034v-.8405h-3.034v-.369c0-2.091.779-3.239 2.173-3.239.5945 0 1.2095.205 1.5785.5125l.369-.738c-.492-.41-1.312-.6765-2.132-.6765-1.8655 0-3.0135 1.558-3.0135 4.1615v.3485h-1.4965v.8405h1.4965v9.8195z"/><path d="m113.38377 52.205c1.886 0 3.6285-1.025 4.551-2.7265v1.599c0 .574.5125.943 1.0455.943.0615 0 .164 0 .3075-.0205v-.9225c-.287 0-.4305-.1845-.4305-.5125v-9.225h-1.025v6.724c-.6355 1.927-2.3575 3.2185-4.141 3.2185-1.804 0-2.6855-1.2915-2.6855-3.936v-6.0065h-1.025v6.15c0 3.116 1.1685 4.715 3.403 4.715z"/><path d="m130.80796 45.8705c0-3.0135-.861-4.715-3.1775-4.715-1.886 0-3.7105 1.107-4.5715 2.7265v-2.542h-.9635v10.66h1.025v-6.601c.5535-1.886 2.419-3.3005 4.223-3.3005 1.681 0 2.4395 1.2095 2.4395 3.9565v5.945h1.025z"/><path d="m142.71765 52-4.592-6.314 4.4485-4.3255h-1.189l-6.478 6.1295v-10.455h-1.025v14.965h1.025v-3.3825l2.5215-2.3165 4.1615 5.699z"/><path d="m149.76883 52.205c2.911 0 4.879-2.542 4.879-5.5145 0-2.8085-2.132-5.535-5.1045-5.535-1.6195 0-3.157.9635-4.0385 2.3165v-2.132h-.943v15.0265h1.025v-6.6625c.8815 1.394 2.3575 2.501 4.182 2.501zm-.246-.9225c-1.7015 0-3.239-1.2505-3.936-2.829v-3.5055c.1845-1.517 2.2755-2.87 3.7515-2.87 2.378 0 4.264 2.173 4.264 4.6125 0 2.296-1.599 4.592-4.0795 4.592z"/><path d="m162.12951 41.299c-.1435 0-.369 0-.6355.0205-1.3735.1435-2.6855 1.148-3.4235 2.6445v-2.624h-.984v10.66h1.025v-6.6625c.574-1.8655 2.1115-3.0135 4.018-3.075z"/><path d="m167.99171 52.205c2.9725 0 5.207-2.542 5.207-5.5145 0-2.993-2.2755-5.535-5.207-5.535-2.952 0-5.207 2.542-5.207 5.535 0 2.9725 2.214 5.5145 5.207 5.5145zm-4.182-5.4735c0-2.542 1.9065-4.6535 4.182-4.6535s4.1615 2.091 4.1615 4.592c0 2.542-1.886 4.6125-4.182 4.6125s-4.1615-2.0295-4.1615-4.551z"/><path d="m180.02438 52.205c1.5785 0 3.1775-.9225 4.0385-2.337v1.189c0 .4715.4305.984.984.984.1025 0 .205-.0205.369-.041v-.9225c-.287 0-.4305-.1845-.4305-.5125v-13.53h-1.025v6.6215c-.82-1.353-2.3165-2.501-4.1615-2.501-2.829 0-4.8995 2.5625-4.8995 5.535 0 2.829 2.1525 5.5145 5.125 5.5145zm.1845-.9225c-2.378 0-4.264-2.132-4.264-4.5715 0-2.337 1.599-4.633 4.0795-4.633 1.558 0 3.362 1.271 3.936 2.829v3.5055c-.1845 1.558-2.255 2.87-3.7515 2.87z"/><path d="m191.52407 52.205c1.886 0 3.6285-1.025 4.551-2.7265v1.599c0 .574.5125.943 1.0455.943.0615 0 .164 0 .3075-.0205v-.9225c-.287 0-.4305-.1845-.4305-.5125v-9.225h-1.025v6.724c-.6355 1.927-2.3575 3.2185-4.141 3.2185-1.804 0-2.6855-1.2915-2.6855-3.936v-6.0065h-1.025v6.15c0 3.116 1.1685 4.715 3.403 4.715z"/><path d="m209.07126 52-4.592-6.314 4.4485-4.3255h-1.189l-6.478 6.1295v-10.455h-1.025v14.965h1.025v-3.3825l2.5215-2.3165 4.1615 5.699z"/><path d="m215.36394 50.6675c-.123.082-.82.492-1.6605.492-.6765 0-1.3325-.3895-1.3325-1.189v-7.79h2.4805v-.8405h-2.4805v-3.649h-1.025v3.649h-1.4965v.8405h1.4965v8.036c0 1.23.9635 1.9065 2.091 1.9065 1.148 0 2.0295-.5125 2.2345-.6355z"/><path d="m218.47912 52v-10.66h-1.025v10.66zm0-13.079v-1.886h-1.025v1.886z"/><path d="m226.14533 52.205c2.9725 0 5.207-2.542 5.207-5.5145 0-2.993-2.2755-5.535-5.207-5.535-2.952 0-5.207 2.542-5.207 5.535 0 2.9725 2.214 5.5145 5.207 5.5145zm-4.182-5.4735c0-2.542 1.9065-4.6535 4.182-4.6535s4.1615 2.091 4.1615 4.592c0 2.542-1.886 4.6125-4.182 4.6125s-4.1615-2.0295-4.1615-4.551z"/><path d="m242.5035 45.8705c0-3.0135-.861-4.715-3.1775-4.715-1.886 0-3.7105 1.107-4.5715 2.7265v-2.542h-.9635v10.66h1.025v-6.601c.5535-1.886 2.419-3.3005 4.223-3.3005 1.681 0 2.4395 1.2095 2.4395 3.9565v5.945h1.025z"/></g></g></g></svg>