<svg height="3000" viewBox="0 0 793.74998 793.75003" width="3000" xmlns="http://www.w3.org/2000/svg"><path d="m0 .00002h793.75v793.75h-793.75z" fill="#261fb3"/><path d="m59.622501 699.84123a131.7002 131.7002 0 0 1 -134.275974 79.04775 131.7002 131.7002 0 0 1 -115.703207-104.36164 131.7002 131.7002 0 0 1 64.82513-141.69081 131.7002 131.7002 0 0 1 154.614488 19.31174" fill="#261fb3" stroke="#fff" stroke-linecap="round" stroke-width="16.9333" transform="matrix(.93969263 -.34202013 .34202013 .93969263 0 0)"/><path d="m438.14999 692.14996h338.66666v84.666664h-338.66666z" fill="none"/><g fill="#fff"><path d="m448.73333 702.73337 23.8125 31.75-23.8125 31.75h15.875l47.625-63.5h-15.875l-15.875 21.16665-15.875-21.16665zm41.01042 33.51475-7.9375 10.5833 14.55208 19.40195h15.875z" fill-rule="evenodd"/><path d="m453.72269 712.91412c-4.76883 5.9046-7.63261 13.4066-7.63261 21.56975 0 8.16255 2.8618 15.6679 7.63003 21.5723l3.27628-4.36665c-3.52881-4.81555-5.61464-10.76085-5.61464-17.20565 0-6.44485 2.08583-12.38755 5.61464-17.2031zm53.52128 0-3.2737 4.36665c3.52882 4.81555 5.61465 10.75825 5.61465 17.2031 0 6.4448-2.08583 12.3901-5.61465 17.20565l3.27629 4.36665c4.76836-5.9044 7.63261-13.4096 7.63261-21.5723 0-8.16325-2.86623-15.6651-7.6352-21.56975zm-46.86535 8.87545c-2.33273 3.6813-3.70262 8.02795-3.70262 12.6943 0 4.6669 1.36939 9.0143 3.70262 12.6943l3.45198-4.5992c-1.18729-2.44535-1.87327-5.1843-1.87327-8.0951s.68598-5.6486 1.87327-8.0951zm40.20943 0-3.45457 4.60435c1.18445 2.4451 1.86552 5.1814 1.86552 8.08995s-.68107 5.646-1.86552 8.08995l3.45457 4.60435c2.33322-3.68 3.7052-8.0274 3.7052-12.6943 0-4.66635-1.37248-9.013-3.7052-12.6943z"/><path d="m533.4 707.20792 8.84779 11.6674-8.58852 11.34335h2.56035l7.29214-9.72285 7.29214 9.72285h2.49553l-8.58852-11.34335 8.8478-11.6674h-2.49553l-7.55142 10.04695-7.55141-10.04695z"/><path d="m556.45379 737.34877c.55096.097.90747.097 1.32879.097 1.87975 0 2.94926-1.0695 3.43541-2.3335l8.75056-21.77915h-2.10662l-5.8013 14.84355-6.25503-14.84355h-2.26867l7.35696 16.88535c-1.94457 4.66695-1.94457 5.25035-3.46782 5.25035-.2917 0-.64819-.03-.97228-.065z"/><path d="m581.50532 713.26847c-.16205-.03-.25925-.03-.4213-.03-2.3983 0-4.66697 1.55565-5.93094 4.1484v-4.05115h-2.0742v16.88535h2.20384v-10.5007c.90747-2.7224 3.27336-4.34285 6.22263-4.4401z"/><path d="m586.67666 730.21867v-16.88535h-2.20384v16.88535zm0-20.418v-3.24095h-2.20384v3.24095z"/><path d="m591.65963 727.13977c0 2.0418 1.26397 3.27335 3.27336 3.27335.87505 0 2.23625-.2595 3.04649-.5834l-.3889-1.7825c-.55096.227-1.26397.3565-1.75011.3565-1.23156 0-1.97698-.7454-1.97698-2.0094v-19.8346h-2.20385z"/><path d="m600.4583 727.13977c0 2.0418 1.26397 3.27335 3.27336 3.27335.87505 0 2.23625-.2595 3.04649-.5834l-.3889-1.7825c-.55096.227-1.26397.3565-1.75011.3565-1.23156 0-1.97698-.7454-1.97698-2.0094v-19.8346h-2.20385z"/><path d="m611.36359 730.21867v-16.88535h-2.20385v16.88535zm0-20.418v-3.24095h-2.20385v3.24095z"/><path d="m620.49497 730.54277c2.68999 0 5.18552-1.13435 6.74117-3.14375l.0648 1.3288c.0325.9723.71301 1.58805 1.81493 1.58805.22685 0 .48615-.03.84265-.097v-1.9446c-.55096 0-.81024-.2915-.81024-.90745v-7.61625c0-4.1808-2.59276-6.70875-6.80599-6.70875-2.07421 0-4.18083.7454-6.35226 2.20385l.77782 1.4584c1.84735-1.29635 3.69469-2.00935 5.41239-2.00935 2.94927 0 4.7642 1.87975 4.7642 4.8614v1.52325c-1.39361-.55095-3.27336-.87505-4.99107-.87505-4.14841 0-7.06527 2.1066-7.06527 5.0883 0 2.94925 2.43071 5.25035 5.60685 5.25035zm.51855-1.6853c-2.26867 0-4.01878-1.6205-4.01878-3.7271s2.13903-3.53265 5.25034-3.53265c1.62047 0 3.24095.324 4.69938.87505v2.7548c0 .389-.19445.8751-.58337 1.264-.97229 1.426-3.07891 2.3659-5.34757 2.3659z"/><path d="m648.10533 720.33377c0-4.4401-1.26397-7.29215-5.02347-7.29215-3.01409 0-5.8013 1.6529-7.1625 4.116v-3.8243h-2.00939v16.88535h2.20384v-10.33865c.81024-2.7872 3.56505-4.829 6.15781-4.829 2.46312 0 3.62986 1.7501 3.62986 5.73645v9.4312h2.20385z"/><path d="m678.85688 730.21867h1.97698v-22.97835h-2.26867v19.1216l-15.23246-19.154h-1.75012v23.01075h2.26867v-18.79755z"/><path d="m693.07401 730.54277c4.89383 0 8.39406-4.0188 8.39406-8.7182 0-4.73175-3.53263-8.78295-8.39406-8.78295-4.82902 0-8.36165 4.0512-8.36165 8.78295 0 4.6994 3.46781 8.7182 8.36165 8.7182zm-6.12539-8.68575c0-3.79195 2.78721-6.87085 6.12539-6.87085 3.37059 0 6.15781 3.0465 6.15781 6.806s-2.78722 6.806-6.15781 6.806-6.12539-2.98165-6.12539-6.74115z"/><path d="m707.38939 730.21867v-16.88535h-2.20385v16.88535zm0-20.418v-3.24095h-2.20385v3.24095z"/><path d="m717.88196 730.54277c3.98637 0 6.57913-1.977 6.57913-5.0559 0-2.88445-2.23626-3.7271-6.57913-4.7642-3.01408-.713-4.21323-1.1019-4.21323-2.88445 0-2.20385 1.84734-3.1437 4.14841-3.1437 1.91216 0 3.82432.64815 5.08829 1.94455l1.06952-1.2964c-1.29638-1.3612-3.50023-2.30105-6.09299-2.30105-3.46782 0-6.31985 1.7177-6.31985 5.1207 0 2.6576 1.75011 3.3382 5.67166 4.31045 3.403.81025 5.08829 1.3288 5.08829 3.20855 0 2.0094-1.78252 3.17615-4.47251 3.17615-2.23625 0-4.18082-.77785-6.06058-2.3335l-1.00469 1.49085c1.81493 1.65285 4.47251 2.52795 7.09768 2.52795z"/><path d="m735.32892 730.54277c3.27336 0 6.1578-1.75015 7.19491-4.21325l-1.91216-.51855c-.81024 1.81495-2.98168 3.0465-5.18552 3.0465-3.24095 0-5.96335-2.6576-6.25504-6.28745h14.45464c.0325-.1295.0325-.55095.0325-.87505 0-4.63455-3.403-8.65335-8.36165-8.65335-4.86143 0-8.42647 3.95395-8.42647 8.68575 0 4.7966 3.56504 8.8154 8.45888 8.8154zm-6.19022-9.65805c.22685-3.56505 2.88445-6.1254 6.19022-6.1254s5.93094 2.52795 6.22262 6.1254z"/><path d="m752.69687 730.54277c3.98637 0 6.57913-1.977 6.57913-5.0559 0-2.88445-2.23625-3.7271-6.57913-4.7642-3.01408-.713-4.21323-1.1019-4.21323-2.88445 0-2.20385 1.84734-3.1437 4.14841-3.1437 1.91216 0 3.82432.64815 5.0883 1.94455l1.06951-1.2964c-1.29638-1.3612-3.50023-2.30105-6.09299-2.30105-3.46781 0-6.31985 1.7177-6.31985 5.1207 0 2.6576 1.75011 3.3382 5.67166 4.31045 3.403.81025 5.08829 1.3288 5.08829 3.20855 0 2.0094-1.78252 3.17615-4.47251 3.17615-2.23625 0-4.18082-.77785-6.06057-2.3335l-1.0047 1.49085c1.81493 1.65285 4.47251 2.52795 7.09768 2.52795z"/><path d="m546.75972 742.98717v8.67445h-11.99429v-8.67445h-1.36543v19.00885h1.36543v-9.10285h11.99429v9.10285h1.36542v-19.00885z"/><path d="m557.05561 744.86127v-2.356h-1.17802v2.356zm3.64112 0v-2.356h-1.17801v2.356zm-2.40957 17.40245c3.88209 0 6.80034-3.31985 6.80034-7.2019 0-3.9089-2.9718-7.22875-6.80034-7.22875-3.85531 0-6.80033 3.31985-6.80033 7.22875 0 3.88205 2.89148 7.2019 6.80033 7.2019zm-5.46169-7.1484c0-3.31985 2.48989-6.07745 5.46169-6.07745s5.43492 2.73085 5.43492 5.99715c0 3.31985-2.46312 6.02395-5.46169 6.02395s-5.43492-2.65055-5.43492-5.94365z"/><path d="m574.88097 748.02052c-.1874 0-.4819 0-.82996.025-1.79379.1875-3.50726 1.4993-4.47109 3.4537v-3.4269h-1.2851v13.92195h1.33865v-8.70125c.74964-2.43635 2.75762-3.9356 5.2475-4.01595z"/><path d="m579.40017 761.99602v-12.8243h3.9624v-1.09765h-3.9624v-.482c0-2.73085 1.01737-4.2301 2.83793-4.2301.77642 0 1.57961.2675 2.06152.6693l.4819-.9638c-.64255-.5355-1.71347-.88355-2.78439-.88355-2.43634 0-3.93563 2.03475-3.93563 5.43495v.455h-1.95441v1.09765h1.95443v12.8243z"/><path d="m590.27962 762.26372c2.46312 0 4.73882-1.33865 5.9436-3.5608v2.0883c0 .74965.66933 1.23155 1.36543 1.23155.0803 0 .2142 0 .4016-.025v-1.2048c-.3748 0-.56223-.241-.56223-.66935v-12.0478h-1.33865v8.7815c-.82996 2.5167-3.07889 4.2034-5.40814 4.2034-2.35603 0-3.50726-1.6867-3.50726-5.14045v-7.84445h-1.33865v8.03185c0 4.0695 1.52606 6.1578 4.44431 6.1578z"/><path d="m613.08727 753.99087c0-3.9356-1.12447-6.1578-4.14981-6.1578-2.46312 0-4.84591 1.44575-5.97037 3.56085v-3.31985h-1.25833v13.92195h1.33864v-8.6209c.72287-2.46315 3.15921-4.31045 5.51523-4.31045 2.19539 0 3.18599 1.5796 3.18599 5.16715v7.7642h1.33865z"/><path d="m628.67374 761.99602-5.99715-8.2461 5.80974-5.6491h-1.55283l-8.46027 8.0051v-13.6542h-1.33864v19.5443h1.33864v-4.41755l3.29308-3.02535 5.43492 7.4429z"/><path d="m637.89662 762.26372c3.80176 0 6.37197-3.31985 6.37197-7.2019 0-3.6679-2.78439-7.22875-6.66647-7.22875-2.11507 0-4.12304 1.25835-5.27428 3.02535v-2.78435h-1.23156v19.62455h1.33865v-8.7012c1.15124 1.82055 3.07889 3.2663 5.46169 3.2663zm-.32125-1.20475c-2.22216 0-4.23013-1.6332-5.14041-3.6947v-4.5782c.24095-1.9812 2.9718-3.7482 4.89945-3.7482 3.10567 0 5.56878 2.83795 5.56878 6.02395 0 2.99855-2.08829 5.99715-5.32782 5.99715z"/><path d="m654.04951 748.02052c-.1874 0-.4819 0-.82996.025-1.79379.1875-3.50726 1.4993-4.47109 3.4537v-3.4269h-1.28511v13.92195h1.33865v-8.70125c.74965-2.43635 2.75762-3.9356 5.24751-4.01595z"/><path d="m661.771 762.26372c3.88208 0 6.80034-3.31985 6.80034-7.2019 0-3.9089-2.9718-7.22875-6.80034-7.22875-3.85531 0-6.80034 3.31985-6.80034 7.22875 0 3.88205 2.89149 7.2019 6.80034 7.2019zm-5.46169-7.1484c0-3.31985 2.48989-6.07745 5.46169-6.07745s5.43492 2.73085 5.43492 5.99715c0 3.31985-2.46312 6.02395-5.46169 6.02395-2.99858 0-5.43492-2.65055-5.43492-5.94365z"/><path d="m677.50807 762.26372c2.06152 0 4.14981-1.20475 5.27428-3.0521v1.5528c0 .6158.56223 1.28515 1.2851 1.28515.13385 0 .26775-.025.4819-.0535v-1.2048c-.3748 0-.56223-.241-.56223-.66935v-17.67015h-1.33865v8.6477c-1.07092-1.76705-3.02535-3.26635-5.43492-3.26635-3.69467 0-6.39874 3.34665-6.39874 7.22875 0 3.69465 2.81117 7.2019 6.69325 7.2019zm.24095-1.20475c-3.10566 0-5.56878-2.7844-5.56878-5.9704 0-3.0521 2.0883-6.0507 5.32783-6.0507 2.03474 0 4.39077 1.65995 5.14041 3.6947v4.57815c-.24095 2.03475-2.94503 3.74825-4.89946 3.74825z"/><path d="m692.56076 762.26372c2.46312 0 4.73882-1.33865 5.9436-3.5608v2.0883c0 .74965.66933 1.23155 1.36543 1.23155.0803 0 .2142 0 .4016-.025v-1.2048c-.37485 0-.56224-.241-.56224-.66935v-12.0478h-1.33865v8.7815c-.82996 2.5167-3.07889 4.2034-5.40814 4.2034-2.35602 0-3.50726-1.6867-3.50726-5.14045v-7.84445h-1.33864v8.03185c0 4.0695 1.52605 6.1578 4.44431 6.1578z"/><path d="m715.52905 761.99602-5.99715-8.2461 5.80974-5.6491h-1.55283l-8.46026 8.0051v-13.6542h-1.33865v19.5443h1.33865v-4.41755l3.29307-3.02535 5.43492 7.4429z"/><path d="m723.76133 760.25577c-.16065.107-1.07092.64255-2.16861.64255-.88351 0-1.74025-.5087-1.74025-1.55285v-10.17375h3.23954v-1.09765h-3.23954v-4.7656h-1.33864v4.7656h-1.95443v1.09765h1.95443v10.49505c0 1.60635 1.25833 2.48985 2.73084 2.48985 1.49929 0 2.65052-.6693 2.91825-.82995z"/><path d="m727.86595 761.99602v-13.92195h-1.33865v13.92195zm0-17.0812v-2.4631h-1.33865v2.4631z"/><path d="m737.90666 762.26372c3.88208 0 6.80034-3.31985 6.80034-7.2019 0-3.9089-2.9718-7.22875-6.80034-7.22875-3.85531 0-6.80034 3.31985-6.80034 7.22875 0 3.88205 2.89148 7.2019 6.80034 7.2019zm-5.46169-7.1484c0-3.31985 2.48989-6.07745 5.46169-6.07745s5.43491 2.73085 5.43491 5.99715c0 3.31985-2.46311 6.02395-5.46168 6.02395-2.99858 0-5.43492-2.65055-5.43492-5.94365z"/><path d="m759.29284 753.99087c0-3.9356-1.12447-6.1578-4.14981-6.1578-2.46312 0-4.84591 1.44575-5.97038 3.56085v-3.31985h-1.25833v13.92195h1.33865v-8.6209c.72287-2.46315 3.15921-4.31045 5.51524-4.31045 2.19538 0 3.18598 1.5796 3.18598 5.16715v7.7642h1.33865z"/><g fill="#fff" stroke-width=".264583"><path d="m110.17374 66.202948c-7.65526-5.185824-18.397329-9.754288-30.621057-9.754288-17.779968 0-31.979248 9.630816-31.979248 27.534256 0 13.458448 8.149152 19.014684 24.817872 23.706624 13.705392 3.82763 22.718848 6.1736 22.718848 13.70539 0 5.80319-4.815408 9.01346-14.075808 9.01346-13.334976 0-26.54648-7.77874-29.509808-10.74207l-7.531792 14.69317c10.124704 7.16138 23.706624 11.35943 36.794656 11.35943 17.162608 0 32.473137-7.16138 32.473137-26.0526 0-16.05136-10.86554-21.484124-28.151617-25.929116-13.211504-3.457216-20.002464-5.309296-20.002464-12.470672 0-6.297072 4.691936-9.87776 13.952336-9.87776 10.49512 0 21.360655 6.1736 23.583155 8.64304z"/><path d="m120.42179 112.38148c0 17.90344 13.2115 33.58438 34.20174 33.58438 14.19928 0 24.94135-7.0379 29.38634-16.79219l-16.17483-4.93888c-1.97556 4.32152-7.5318 7.65526-13.45845 7.65526-9.2604 0-16.91567-8.14915-16.91567-19.50857 0-11.4829 7.40832-19.385108 16.91567-19.385108 5.55624 0 10.49512 2.716384 13.2115 7.408318l16.17483-4.938878c-4.93888-9.87776-15.18705-16.545248-29.26286-16.545248-21.11371 0-34.07827 15.434-34.07827 33.460916z"/><path d="m254.26534 104.3558c0-12.71762-3.70416-25.435236-20.37288-25.435236-9.75428 0-18.39732 4.815408-23.21273 13.088032v-37.412016h-16.54525v90.13456h16.54525v-37.78243c2.46944-7.90221 10.1247-13.45845 16.17483-13.45845 6.79096 0 10.86554 4.815408 10.86554 14.94011v36.30077h16.54524z"/><path d="m268.58787 129.79103c0 10.1247 6.05012 15.92789 16.2983 15.92789 4.81541 0 11.35942-1.23472 15.80442-3.33375l-2.2225-12.59414c-2.09902.98777-4.69194 1.72861-6.66749 1.72861-4.19805 0-6.66749-2.71639-6.66749-7.5318v-69.39126h-16.54524z"/><path d="m332.42282 70.154052v-14.693168h-13.7054v14.693168zm23.70662 0v-14.693168h-13.70539v14.693168zm-28.52203 75.811808c10.86553 0 20.24941-4.44499 26.05259-13.33498l.37042 5.18583c.61736 4.81541 4.56846 7.65526 10.49512 7.65526 1.85208 0 3.82763-.12347 7.16137-.74083v-14.07581c-2.83985-.12347-3.9511-1.48166-3.9511-4.93888v-45.684638h-16.54525v40.128398c-3.82763 7.90221-10.24818 11.72984-16.66872 11.72984-7.0379 0-10.74206-5.06235-10.74206-14.94011v-36.918128h-16.54525v40.498818c0 16.66872 7.0379 25.43523 20.37288 25.43523z"/><path d="m408.60482 145.96586c16.05136 0 26.17607-7.90221 26.17607-20.49635 0-10.86554-7.16138-15.06359-25.06482-19.50858-9.50734-2.46944-12.71761-3.70416-12.71761-8.14915 0-5.062352 4.32152-7.284848 9.87776-7.284848 6.05012 0 12.22372 2.222496 18.76774 7.161376l6.66749-10.001232c-7.03791-6.1736-15.68095-8.889984-25.31176-8.889984-14.44623 0-25.43523 8.149152-25.43523 21.360658 0 9.87776 6.1736 13.45845 23.08926 18.02691 10.1247 2.71638 14.19928 4.19805 14.19928 8.76651 0 4.56847-4.07458 7.16138-10.61859 7.16138-7.40832 0-14.94011-2.96333-22.71885-8.51957l-6.1736 10.37165c7.28485 6.42054 18.5208 10.00123 29.26286 10.00123z"/><path d="m469.97036 145.96586c16.05136 0 26.17607-7.90221 26.17607-20.49635 0-10.86554-7.16138-15.06359-25.06482-19.50858-9.50734-2.46944-12.71761-3.70416-12.71761-8.14915 0-5.062352 4.32152-7.284848 9.87776-7.284848 6.05012 0 12.22372 2.222496 18.76774 7.161376l6.66749-10.001232c-7.03791-6.1736-15.68095-8.889984-25.31176-8.889984-14.44623 0-25.43523 8.149152-25.43523 21.360658 0 9.87776 6.1736 13.45845 23.08926 18.02691 10.1247 2.71638 14.19928 4.19805 14.19928 8.76651 0 4.56847-4.07458 7.16138-10.61859 7.16138-7.40832 0-14.94011-2.96333-22.71885-8.51957l-6.1736 10.37165c7.28485 6.42054 18.5208 10.00123 29.26286 10.00123z"/><path d="m536.89214 145.96586c14.32276 0 25.43524-7.0379 30.12717-16.91566l-14.19928-3.95111c-2.09902 5.3093-8.76651 8.76651-15.31053 8.76651-8.64304 0-16.2983-6.05012-17.1626-16.17483h50.00616c.24694-1.35819.37041-3.45721.37041-5.55624 0-17.533022-12.59414-33.213966-33.70785-33.213966-21.11372 0-34.20175 15.434-34.20175 33.831326 0 17.90344 13.21151 33.21397 34.07827 33.21397zm-16.79219-39.01715c.74083-9.630818 7.77874-16.051362 16.66872-16.051362 9.01346 0 16.05136 6.420544 16.91567 16.051362z"/><path d="m580.7246 129.79103c0 10.1247 6.05013 15.92789 16.2983 15.92789 4.81541 0 11.35943-1.23472 15.80442-3.33375l-2.2225-12.59414c-2.09902.98777-4.69193 1.72861-6.66748 1.72861-4.19805 0-6.66749-2.71639-6.66749-7.5318v-69.39126h-16.54525z"/><path d="m84.244619 265.89237c-1.975552.86431-5.55624 2.34597-9.013456 2.34597s-6.1736-1.72861-6.1736-6.29707v-31.60883h13.58192v-12.71762h-13.58192v-20.99024h-16.545248v20.99024h-8.519568v12.71762h8.519568v37.16507c0 11.48289 7.655264 15.92789 16.792192 15.92789 7.037904 0 13.828864-2.46944 18.273856-4.445z"/><path d="m124.61976 283.54887c14.32275 0 25.43523-7.03791 30.12717-16.91567l-14.19928-3.9511c-2.09902 5.3093-8.76651 8.76651-15.31053 8.76651-8.64304 0-16.2983-6.05013-17.16261-16.17483h50.00616c.24695-1.35819.37042-3.45722.37042-5.55624 0-17.53302-12.59414-33.21397-33.70786-33.21397-21.11371 0-34.20174 15.434-34.20174 33.83133 0 17.90344 13.2115 33.21397 34.07827 33.21397zm-16.79219-39.01715c.74083-9.63082 7.77874-16.05136 16.66872-16.05136 9.01346 0 16.05136 6.42054 16.91566 16.05136z"/><path d="m164.5011 249.96448c0 17.90344 13.2115 33.58439 34.20174 33.58439 14.19928 0 24.94134-7.03791 29.38634-16.79219l-16.17484-4.93888c-1.97555 4.32152-7.53179 7.65526-13.45844 7.65526-9.2604 0-16.91567-8.14915-16.91567-19.50858 0-11.48289 7.40832-19.3851 16.91567-19.3851 5.55624 0 10.49512 2.71638 13.2115 7.40832l16.17483-4.93888c-4.93888-9.87776-15.18705-16.54525-29.26286-16.54525-21.11371 0-34.07827 15.434-34.07827 33.46091z"/><path d="m298.34464 241.9388c0-12.71761-3.70416-25.43523-20.37288-25.43523-9.75428 0-18.39732 4.81541-23.21273 13.08803v-37.41201h-16.54525v90.13456h16.54525v-37.78243c2.46944-7.90221 10.1247-13.45845 16.17483-13.45845 6.79096 0 10.86554 4.81541 10.86554 14.94011v36.30077h16.54524z"/><path d="m372.9215 241.9388c0-12.59414-3.33374-25.43523-19.50857-25.43523-11.23596 0-20.86677 4.93888-25.68218 13.08803v-11.97678h-14.94011v64.69933h16.54525v-37.78243c2.46944-7.77874 10.1247-13.45845 16.79219-13.45845 6.42054 0 10.24817 4.56846 10.24817 14.94011v36.30077h16.54525z"/><path d="m417.24774 283.54887c21.11371 0 33.83132-15.68095 33.83132-33.46091 0-18.02692-12.84108-33.58439-33.83132-33.58439s-33.9548 15.55747-33.9548 33.58439c0 17.77996 12.84108 33.46091 33.9548 33.46091zm-16.91567-33.46091c0-11.23596 7.40832-19.50858 16.91567-19.50858 9.50734 0 16.91566 8.14915 16.91566 19.3851 0 11.35943-7.40832 19.50858-16.91566 19.50858-9.50735 0-16.91567-8.02568-16.91567-19.3851z"/><path d="m462.06795 267.37404c0 10.1247 6.05013 15.92788 16.29831 15.92788 4.81541 0 11.35942-1.23472 15.80441-3.33374l-2.22249-12.59414c-2.09903.98777-4.69194 1.7286-6.66749 1.7286-4.19805 0-6.66749-2.71638-6.66749-7.53179v-69.39126h-16.54525z"/><path d="m531.21218 283.54887c21.11372 0 33.83133-15.68095 33.83133-33.46091 0-18.02692-12.84109-33.58439-33.83133-33.58439s-33.9548 15.55747-33.9548 33.58439c0 17.77996 12.84109 33.46091 33.9548 33.46091zm-16.91566-33.46091c0-11.23596 7.40832-19.50858 16.91566-19.50858 9.50735 0 16.91567 8.14915 16.91567 19.3851 0 11.35943-7.40832 19.50858-16.91567 19.50858-9.50734 0-16.91566-8.02568-16.91566-19.3851z"/><path d="m601.46763 282.68456c8.76651 0 17.16261-4.19804 21.48413-11.60636v8.14915c0 12.59414-9.01346 18.15038-19.3851 18.15038-8.3961 0-16.29831-3.70416-21.23719-9.75429l-9.01345 8.76652c6.91443 8.51956 16.17483 13.45844 30.25064 13.45844 20.74329 0 35.93035-11.48289 35.93035-30.62105v-61.61253h-14.44623v11.35942c-4.93888-7.53179-12.59414-12.47067-22.59537-12.47067-17.77997 0-30.12717 14.81664-30.12717 33.46091 0 17.77997 11.85331 32.72008 29.13939 32.72008zm5.55624-13.2115c-10.1247 0-17.77997-8.3961-17.77997-19.01469 0-10.24817 6.66749-19.87899 16.7922-19.87899 6.91443 0 13.95233 5.06235 16.91566 12.59414v15.434c-2.34597 5.92666-8.76651 10.86554-15.92789 10.86554z"/><path d="m670.98225 282.31415v-64.69933h-16.54525v64.69933zm0-73.71279v-16.42177h-16.54525v16.42177z"/><path d="m715.92593 283.54887c14.32275 0 25.43523-7.03791 30.12716-16.91567l-14.19928-3.9511c-2.09902 5.3093-8.76651 8.76651-15.31052 8.76651-8.64304 0-16.29831-6.05013-17.16261-16.17483h50.00616c.24694-1.35819.37041-3.45722.37041-5.55624 0-17.53302-12.59414-33.21397-33.70785-33.21397s-34.20175 15.434-34.20175 33.83133c0 17.90344 13.21151 33.21397 34.07828 33.21397zm-16.7922-39.01715c.74084-9.63082 7.77874-16.05136 16.66872-16.05136 9.01346 0 16.05136 6.42054 16.91567 16.05136z"/></g></g><g stroke="#fff"><path d="m634.10397 136.70546h115.65328" fill="none" stroke-width="18.5208"/><g stroke-width="16.9333"><circle cx="-270.67056" cy="-539.1012" fill="none" r="0" stroke-linecap="round" transform="matrix(.93969262 -.34202014 .34202014 .93969262 0 0)"/><circle cx="47.769848" cy="573.04761" fill="#261fb3" r="26.458334" stroke-linecap="square" transform="matrix(.93969262 -.34202014 .34202014 .93969262 0 0)"/><path d="m272.21057 510.74795 419.08633-152.53495" fill="none" stroke-linecap="round"/><circle cx="-61.330265" cy="647.87268" fill="none" r="0" stroke-linecap="square" transform="matrix(.93969262 -.34202014 .34202014 .93969262 0 0)"/><path d="m296.11965 635.54782 82.12488-29.89102" fill="none" stroke-linecap="round"/><circle cx="148.28676" cy="698.49854" fill="#261fb3" r="26.458334" stroke-linecap="square" transform="matrix(.93969262 -.34202014 .34202014 .93969262 0 0)"/><path d="m406.5136 615.48971 51.51125 24.0201" fill="none" stroke-linecap="round"/><path d="m442.31157 553.62413 117.50712 54.79452" fill="none" stroke-linecap="round"/><path d="m488.11444 574.98239-30.08959 64.52743" fill="none" stroke-linecap="round"/><path d="m589.90827 543.89122-30.08959 64.52743" fill="none" stroke-linecap="round"/><path d="m472.40115 489.09671 117.50711 54.79451" fill="none" stroke-linecap="round"/><path d="m589.90828 543.89122 82.12488-29.89101" fill="none" stroke-linecap="round"/><circle cx="368.3107" cy="712.85107" fill="#261fb3" r="26.458334" stroke-linecap="square" transform="matrix(.93969262 -.34202014 .34202014 .93969262 0 0)"/><path d="m613.2796 486.60295 117.50712 54.79451" fill="none" stroke-linecap="round"/><path d="m760.8763 476.87004-30.08959 64.52743" fill="none" stroke-linecap="round"/><path d="m672.62143 435.7161 88.25486 41.15394" fill="none" stroke-linecap="round"/><circle cx="483.03372" cy="639.48926" fill="#261fb3" r="26.458334" stroke-linecap="square" transform="matrix(.93969262 -.34202014 .34202014 .93969262 0 0)"/><path d="m691.2969 358.213 58.75355 27.39726" fill="none" stroke-linecap="round"/><path d="m750.05045 385.61026-30.08959 64.52743" fill="none" stroke-linecap="round"/><circle cx="-61.384842" cy="647.85889" fill="#261fb3" r="67.50238" stroke-linecap="square" transform="matrix(.93969263 -.34202013 .34202013 .93969263 0 0)"/></g></g></svg>