<?xml version="1.0" encoding="UTF-8" standalone="no"?>
<!-- Created with Inkscape (http://www.inkscape.org/) -->

<svg
   xmlns:dc="http://purl.org/dc/elements/1.1/"
   xmlns:cc="http://creativecommons.org/ns#"
   xmlns:rdf="http://www.w3.org/1999/02/22-rdf-syntax-ns#"
   xmlns:svg="http://www.w3.org/2000/svg"
   xmlns="http://www.w3.org/2000/svg"
   xmlns:sodipodi="http://sodipodi.sourceforge.net/DTD/sodipodi-0.dtd"
   xmlns:inkscape="http://www.inkscape.org/namespaces/inkscape"
   width="3000"
   height="3000"
   viewBox="0 0 793.74998 793.75003"
   version="1.1"
   id="svg8"
   sodipodi:docname="cover-st.svg"
   inkscape:version="0.92.4 5da689c313, 2019-01-14"
   inkscape:export-filename="/x/src/git.bethselamin.de/stefan/xyrillian-noises/brand/cover-st.png"
   inkscape:export-xdpi="96"
   inkscape:export-ydpi="96">
  <defs
     id="defs2">
    <marker
       inkscape:stockid="Arrow1Sstart"
       orient="auto"
       refY="0.0"
       refX="0.0"
       id="Arrow1Sstart"
       style="overflow:visible"
       inkscape:isstock="true">
      <path
         id="path4944"
         d="M 0.0,0.0 L 5.0,-5.0 L -12.5,0.0 L 5.0,5.0 L 0.0,0.0 z "
         style="fill-rule:evenodd;stroke:#ffffff;stroke-width:1pt;stroke-opacity:1;fill:#ffffff;fill-opacity:1"
         transform="scale(0.2) translate(6,0)" />
    </marker>
    <marker
       inkscape:stockid="Arrow1Send"
       orient="auto"
       refY="0.0"
       refX="0.0"
       id="Arrow1Send"
       style="overflow:visible;"
       inkscape:isstock="true">
      <path
         id="path4947"
         d="M 0.0,0.0 L 5.0,-5.0 L -12.5,0.0 L 5.0,5.0 L 0.0,0.0 z "
         style="fill-rule:evenodd;stroke:#ffffff;stroke-width:1pt;stroke-opacity:1;fill:#ffffff;fill-opacity:1"
         transform="scale(0.2) rotate(180) translate(6,0)" />
    </marker>
  </defs>
  <sodipodi:namedview
     id="base"
     pagecolor="#ffffff"
     bordercolor="#666666"
     borderopacity="1.0"
     inkscape:pageopacity="0.0"
     inkscape:pageshadow="2"
     inkscape:zoom="0.1767767"
     inkscape:cx="1452.2046"
     inkscape:cy="1438.3848"
     inkscape:document-units="px"
     inkscape:current-layer="layer1"
     showgrid="false"
     units="px"
     inkscape:window-width="1920"
     inkscape:window-height="1044"
     inkscape:window-x="0"
     inkscape:window-y="36"
     inkscape:window-maximized="1"
     inkscape:measure-start="0,0"
     inkscape:measure-end="0,0"
     inkscape:snap-bbox="false"
     inkscape:bbox-paths="false"
     inkscape:bbox-nodes="false"
     inkscape:snap-bbox-edge-midpoints="false"
     inkscape:snap-bbox-midpoints="false" />
  <metadata
     id="metadata5">
    <rdf:RDF>
      <cc:Work
         rdf:about="">
        <dc:format>image/svg+xml</dc:format>
        <dc:type
           rdf:resource="http://purl.org/dc/dcmitype/StillImage" />
        <dc:title />
      </cc:Work>
    </rdf:RDF>
  </metadata>
  <g
     inkscape:label="Layer 1"
     inkscape:groupmode="layer"
     id="layer1"
     transform="translate(0,496.75002)">
    <path
       style="opacity:1;fill:#c01212;fill-opacity:1;stroke:none;stroke-width:10.58333302;stroke-linecap:round;stroke-linejoin:round;stroke-miterlimit:4;stroke-dasharray:none;stroke-dashoffset:0;stroke-opacity:1"
       d="M 2.4999997e-6,-496.75003 H 793.75 v 793.75 H 2.4999997e-6 Z"
       id="rect9969" />
    <g
       id="g28"
       transform="matrix(4.9999997,0,0,5,438.15,-1310.6343)">
      <path
         style="opacity:1;fill:none;fill-opacity:0.10050252;stroke:none;stroke-width:0.02645833;stroke-linecap:round;stroke-linejoin:round;stroke-miterlimit:4;stroke-dasharray:none;stroke-dashoffset:0;stroke-opacity:1"
         d="M 5.2838135e-7,301.20685 H 67.733338 v 16.93333 H 5.2838135e-7 Z"
         id="rect26" />
      <path
         inkscape:connector-curvature="0"
         id="path28"
         d="m 2.1166667,303.32353 4.7625001,6.35 -4.7625001,6.35 h 3.1750001 l 9.5250002,-12.7 h -3.175 l -3.1750001,4.23333 -3.1750001,-4.23333 z m 8.2020833,6.70295 -1.5874998,2.11666 2.9104168,3.88039 h 3.175 z"
         style="fill:#ffffff;fill-opacity:1;fill-rule:evenodd;stroke:none;stroke-width:0.26458332px;stroke-linecap:butt;stroke-linejoin:miter;stroke-opacity:1" />
      <path
         style="color:#000000;font-style:normal;font-variant:normal;font-weight:normal;font-stretch:normal;font-size:medium;line-height:normal;font-family:sans-serif;font-variant-ligatures:normal;font-variant-position:normal;font-variant-caps:normal;font-variant-numeric:normal;font-variant-alternates:normal;font-feature-settings:normal;text-indent:0;text-align:start;text-decoration:none;text-decoration-line:none;text-decoration-style:solid;text-decoration-color:#000000;letter-spacing:normal;word-spacing:normal;text-transform:none;writing-mode:lr-tb;direction:ltr;text-orientation:mixed;dominant-baseline:auto;baseline-shift:baseline;text-anchor:start;white-space:normal;shape-padding:0;clip-rule:nonzero;display:inline;overflow:visible;visibility:visible;opacity:1;isolation:auto;mix-blend-mode:normal;color-interpolation:sRGB;color-interpolation-filters:linearRGB;solid-color:#000000;solid-opacity:1;vector-effect:none;fill:#ffffff;fill-opacity:1;fill-rule:nonzero;stroke:none;stroke-width:1.0583334;stroke-linecap:round;stroke-linejoin:round;stroke-miterlimit:4;stroke-dasharray:none;stroke-dashoffset:0;stroke-opacity:1;color-rendering:auto;image-rendering:auto;shape-rendering:auto;text-rendering:auto;enable-background:accumulate"
         d="m 3.1145386,305.35968 c -0.9537655,1.18092 -1.5265218,2.68132 -1.5265218,4.31395 0,1.63251 0.5723599,3.13358 1.526005,4.31446 l 0.6552573,-0.87333 c -0.7057636,-0.96311 -1.122929,-2.15217 -1.122929,-3.44113 0,-1.28897 0.4171654,-2.47751 1.122929,-3.44062 z m 10.7042564,0 -0.65474,0.87333 c 0.705763,0.96311 1.122929,2.15165 1.122929,3.44062 0,1.28896 -0.417166,2.47802 -1.122929,3.44113 l 0.655257,0.87333 c 0.953672,-1.18088 1.526522,-2.68192 1.526522,-4.31446 0,-1.63265 -0.573246,-3.13302 -1.527039,-4.31395 z m -9.3730715,1.77509 c -0.4665443,0.73626 -0.7405233,1.60559 -0.7405233,2.53886 0,0.93338 0.273879,1.80286 0.7405233,2.53886 l 0.6903971,-0.91984 c -0.2374587,-0.48907 -0.3746539,-1.03686 -0.3746539,-1.61902 0,-0.58216 0.1371952,-1.12972 0.3746539,-1.61902 z m 8.0418865,0 -0.690914,0.92087 c 0.23689,0.48902 0.373104,1.03628 0.373104,1.61799 0,0.58171 -0.136214,1.1292 -0.373104,1.61799 l 0.690914,0.92087 c 0.466645,-0.736 0.74104,-1.60548 0.74104,-2.53886 0,-0.93327 -0.274495,-1.8026 -0.74104,-2.53886 z"
         id="path30"
         inkscape:connector-curvature="0" />
      <g
         aria-label="Xyrillian Noises"
         style="font-style:normal;font-variant:normal;font-weight:normal;font-stretch:normal;font-size:6.48190069px;line-height:7.20211172px;font-family:Raleway;-inkscape-font-specification:Raleway;text-align:start;letter-spacing:0px;word-spacing:0px;text-anchor:start;fill:#ffffff;fill-opacity:1;stroke:none;stroke-width:0.28808448px;stroke-linecap:butt;stroke-linejoin:miter;stroke-opacity:1"
         id="text16">
        <path
           d="m 19.050001,304.21844 1.769559,2.33348 -1.717704,2.26867 h 0.51207 l 1.458428,-1.94457 1.458428,1.94457 h 0.499106 l -1.717704,-2.26867 1.769559,-2.33348 h -0.499106 l -1.510283,2.00939 -1.510283,-2.00939 z"
           style="font-style:normal;font-variant:normal;font-weight:normal;font-stretch:normal;font-family:Raleway;-inkscape-font-specification:Raleway;text-align:start;text-anchor:start;fill:#ffffff;fill-opacity:1;stroke-width:0.28808448px"
           id="path63" />
        <path
           d="m 23.660759,310.24661 c 0.110193,0.0194 0.181494,0.0194 0.265758,0.0194 0.375951,0 0.589853,-0.2139 0.687082,-0.4667 l 1.750113,-4.35583 h -0.421324 l -1.16026,2.96871 -1.251007,-2.96871 h -0.453733 l 1.471392,3.37707 c -0.388914,0.93339 -0.388914,1.05007 -0.693564,1.05007 -0.05834,0 -0.129638,-0.006 -0.194457,-0.013 z"
           style="font-style:normal;font-variant:normal;font-weight:normal;font-stretch:normal;font-family:Raleway;-inkscape-font-specification:Raleway;text-align:start;text-anchor:start;fill:#ffffff;fill-opacity:1;stroke-width:0.28808448px"
           id="path65" />
        <path
           d="m 28.671066,305.43055 c -0.03241,-0.006 -0.05185,-0.006 -0.08426,-0.006 -0.479661,0 -0.933394,0.31113 -1.186188,0.82968 v -0.81023 h -0.414841 v 3.37707 h 0.440769 v -2.10014 c 0.181493,-0.54448 0.654672,-0.86857 1.244525,-0.88802 z"
           style="font-style:normal;font-variant:normal;font-weight:normal;font-stretch:normal;font-family:Raleway;-inkscape-font-specification:Raleway;text-align:start;text-anchor:start;fill:#ffffff;fill-opacity:1;stroke-width:0.28808448px"
           id="path67" />
        <path
           d="m 29.705334,308.82059 v -3.37707 h -0.440769 v 3.37707 z m 0,-4.0836 v -0.64819 h -0.440769 v 0.64819 z"
           style="font-style:normal;font-variant:normal;font-weight:normal;font-stretch:normal;font-family:Raleway;-inkscape-font-specification:Raleway;text-align:start;text-anchor:start;fill:#ffffff;fill-opacity:1;stroke-width:0.28808448px"
           id="path69" />
        <path
           d="m 30.701927,308.20481 c 0,0.40836 0.252794,0.65467 0.654672,0.65467 0.175011,0 0.447251,-0.0519 0.609299,-0.11668 l -0.07778,-0.3565 c -0.110193,0.0454 -0.252794,0.0713 -0.350023,0.0713 -0.246312,0 -0.395396,-0.14908 -0.395396,-0.40188 v -3.96692 h -0.440769 z"
           style="font-style:normal;font-variant:normal;font-weight:normal;font-stretch:normal;font-family:Raleway;-inkscape-font-specification:Raleway;text-align:start;text-anchor:start;fill:#ffffff;fill-opacity:1;stroke-width:0.28808448px"
           id="path71" />
        <path
           d="m 32.461661,308.20481 c 0,0.40836 0.252794,0.65467 0.654672,0.65467 0.175011,0 0.447251,-0.0519 0.609299,-0.11668 l -0.07778,-0.3565 c -0.110192,0.0454 -0.252794,0.0713 -0.350023,0.0713 -0.246312,0 -0.395396,-0.14908 -0.395396,-0.40188 v -3.96692 h -0.440769 z"
           style="font-style:normal;font-variant:normal;font-weight:normal;font-stretch:normal;font-family:Raleway;-inkscape-font-specification:Raleway;text-align:start;text-anchor:start;fill:#ffffff;fill-opacity:1;stroke-width:0.28808448px"
           id="path73" />
        <path
           d="m 34.64272,308.82059 v -3.37707 h -0.44077 v 3.37707 z m 0,-4.0836 v -0.64819 h -0.44077 v 0.64819 z"
           style="font-style:normal;font-variant:normal;font-weight:normal;font-stretch:normal;font-family:Raleway;-inkscape-font-specification:Raleway;text-align:start;text-anchor:start;fill:#ffffff;fill-opacity:1;stroke-width:0.28808448px"
           id="path75" />
        <path
           d="m 36.468996,308.88541 c 0.537998,0 1.037104,-0.22687 1.348235,-0.62875 l 0.01296,0.26576 c 0.0065,0.19446 0.142602,0.31761 0.362986,0.31761 0.04537,0 0.09723,-0.006 0.16853,-0.0194 v -0.38892 c -0.110193,0 -0.162048,-0.0583 -0.162048,-0.18149 v -1.52325 c 0,-0.83616 -0.518552,-1.34175 -1.361199,-1.34175 -0.414842,0 -0.836165,0.14908 -1.270452,0.44077 l 0.155565,0.29168 c 0.369469,-0.25927 0.738937,-0.40187 1.082478,-0.40187 0.589853,0 0.952839,0.37595 0.952839,0.97228 v 0.30465 c -0.278722,-0.11019 -0.654672,-0.17501 -0.998213,-0.17501 -0.829683,0 -1.413054,0.42132 -1.413054,1.01766 0,0.58985 0.486142,1.05007 1.121369,1.05007 z m 0.10371,-0.33706 c -0.453733,0 -0.803756,-0.3241 -0.803756,-0.74542 0,-0.42132 0.427806,-0.70653 1.050068,-0.70653 0.324095,0 0.64819,0.0648 0.939876,0.17501 v 0.55096 c 0,0.0778 -0.03889,0.17502 -0.116674,0.2528 -0.194457,0.2852 -0.615781,0.47318 -1.069514,0.47318 z"
           style="font-style:normal;font-variant:normal;font-weight:normal;font-stretch:normal;font-family:Raleway;-inkscape-font-specification:Raleway;text-align:start;text-anchor:start;fill:#ffffff;fill-opacity:1;stroke-width:0.28808448px"
           id="path77" />
        <path
           d="m 41.991069,306.84361 c 0,-0.88802 -0.252795,-1.45843 -1.004695,-1.45843 -0.602817,0 -1.16026,0.33058 -1.4325,0.8232 v -0.76486 h -0.401878 v 3.37707 h 0.440769 v -2.06773 c 0.162048,-0.55744 0.713009,-0.9658 1.231561,-0.9658 0.492625,0 0.725973,0.35002 0.725973,1.14729 v 1.88624 h 0.44077 z"
           style="font-style:normal;font-variant:normal;font-weight:normal;font-stretch:normal;font-family:Raleway;-inkscape-font-specification:Raleway;text-align:start;text-anchor:start;fill:#ffffff;fill-opacity:1;stroke-width:0.28808448px"
           id="path79" />
        <path
           d="m 48.141379,308.82059 h 0.395395 v -4.59567 h -0.453733 v 3.82432 l -3.046493,-3.8308 h -0.350023 v 4.60215 h 0.453734 v -3.75951 z"
           style="font-style:normal;font-variant:normal;font-weight:normal;font-stretch:normal;font-family:Raleway;-inkscape-font-specification:Raleway;text-align:start;text-anchor:start;fill:#ffffff;fill-opacity:1;stroke-width:0.28808448px"
           id="path81" />
        <path
           d="m 50.984805,308.88541 c 0.978767,0 1.678813,-0.80376 1.678813,-1.74364 0,-0.94635 -0.706527,-1.75659 -1.678813,-1.75659 -0.965803,0 -1.67233,0.81024 -1.67233,1.75659 0,0.93988 0.693563,1.74364 1.67233,1.74364 z m -1.225079,-1.73715 c 0,-0.75839 0.557444,-1.37417 1.225079,-1.37417 0.674118,0 1.231562,0.6093 1.231562,1.3612 0,0.7519 -0.557444,1.3612 -1.231562,1.3612 -0.674117,0 -1.225079,-0.59633 -1.225079,-1.34823 z"
           style="font-style:normal;font-variant:normal;font-weight:normal;font-stretch:normal;font-family:Raleway;-inkscape-font-specification:Raleway;text-align:start;text-anchor:start;fill:#ffffff;fill-opacity:1;stroke-width:0.28808448px"
           id="path83" />
        <path
           d="m 53.847881,308.82059 v -3.37707 h -0.440769 v 3.37707 z m 0,-4.0836 v -0.64819 h -0.440769 v 0.64819 z"
           style="font-style:normal;font-variant:normal;font-weight:normal;font-stretch:normal;font-family:Raleway;-inkscape-font-specification:Raleway;text-align:start;text-anchor:start;fill:#ffffff;fill-opacity:1;stroke-width:0.28808448px"
           id="path85" />
        <path
           d="m 55.946396,308.88541 c 0.797274,0 1.315826,-0.3954 1.315826,-1.01118 0,-0.57689 -0.447252,-0.74542 -1.315826,-0.95284 -0.602817,-0.1426 -0.842647,-0.22038 -0.842647,-0.57689 0,-0.44077 0.369468,-0.62874 0.829683,-0.62874 0.382432,0 0.764864,0.12963 1.017658,0.38891 l 0.213903,-0.25928 c -0.259276,-0.27224 -0.700045,-0.46021 -1.218597,-0.46021 -0.693564,0 -1.263971,0.34354 -1.263971,1.02414 0,0.53152 0.350023,0.66764 1.134333,0.86209 0.680599,0.16205 1.017658,0.26576 1.017658,0.64171 0,0.40188 -0.356504,0.63523 -0.894502,0.63523 -0.447251,0 -0.836165,-0.15557 -1.212116,-0.4667 l -0.200939,0.29817 c 0.362987,0.33057 0.894503,0.50559 1.419537,0.50559 z"
           style="font-style:normal;font-variant:normal;font-weight:normal;font-stretch:normal;font-family:Raleway;-inkscape-font-specification:Raleway;text-align:start;text-anchor:start;fill:#ffffff;fill-opacity:1;stroke-width:0.28808448px"
           id="path87" />
        <path
           d="m 59.435787,308.88541 c 0.654672,0 1.231561,-0.35003 1.438982,-0.84265 l -0.382432,-0.10371 c -0.162048,0.36299 -0.596335,0.6093 -1.037104,0.6093 -0.64819,0 -1.19267,-0.53152 -1.251007,-1.25749 h 2.890927 c 0.0065,-0.0259 0.0065,-0.11019 0.0065,-0.17501 0,-0.92691 -0.680599,-1.73067 -1.67233,-1.73067 -0.972285,0 -1.685294,0.79079 -1.685294,1.73715 0,0.95932 0.713009,1.76308 1.691776,1.76308 z m -1.238043,-1.93161 c 0.04537,-0.71301 0.576889,-1.22508 1.238043,-1.22508 0.661154,0 1.186188,0.50559 1.244525,1.22508 z"
           style="font-style:normal;font-variant:normal;font-weight:normal;font-stretch:normal;font-family:Raleway;-inkscape-font-specification:Raleway;text-align:start;text-anchor:start;fill:#ffffff;fill-opacity:1;stroke-width:0.28808448px"
           id="path89" />
        <path
           d="m 62.909378,308.88541 c 0.797274,0 1.315826,-0.3954 1.315826,-1.01118 0,-0.57689 -0.447251,-0.74542 -1.315826,-0.95284 -0.602817,-0.1426 -0.842647,-0.22038 -0.842647,-0.57689 0,-0.44077 0.369468,-0.62874 0.829683,-0.62874 0.382432,0 0.764864,0.12963 1.017659,0.38891 l 0.213902,-0.25928 c -0.259276,-0.27224 -0.700045,-0.46021 -1.218597,-0.46021 -0.693563,0 -1.263971,0.34354 -1.263971,1.02414 0,0.53152 0.350023,0.66764 1.134333,0.86209 0.680599,0.16205 1.017658,0.26576 1.017658,0.64171 0,0.40188 -0.356504,0.63523 -0.894502,0.63523 -0.447251,0 -0.836165,-0.15557 -1.212115,-0.4667 l -0.200939,0.29817 c 0.362986,0.33057 0.894502,0.50559 1.419536,0.50559 z"
           style="font-style:normal;font-variant:normal;font-weight:normal;font-stretch:normal;font-family:Raleway;-inkscape-font-specification:Raleway;text-align:start;text-anchor:start;fill:#ffffff;fill-opacity:1;stroke-width:0.28808448px"
           id="path91" />
      </g>
      <g
         aria-label="Hörfunkproduktion
"
         style="font-style:normal;font-variant:normal;font-weight:300;font-stretch:normal;font-size:5.35459614px;line-height:5.94955111px;font-family:Raleway;-inkscape-font-specification:'Raleway Light';text-align:start;letter-spacing:0px;word-spacing:0px;text-anchor:start;fill:#ffffff;fill-opacity:1;stroke:none;stroke-width:0.23798206px;stroke-linecap:butt;stroke-linejoin:miter;stroke-opacity:1"
         id="text16-3">
        <path
           d="m 21.721946,311.37429 v 1.73489 h -2.398859 v -1.73489 h -0.273085 v 3.80177 h 0.273085 v -1.82057 h 2.398859 v 1.82057 h 0.273084 v -3.80177 z"
           style="font-style:normal;font-variant:normal;font-weight:300;font-stretch:normal;font-family:Raleway;-inkscape-font-specification:'Raleway Light';text-align:start;text-anchor:start;fill:#ffffff;fill-opacity:1;stroke-width:0.23798206px"
           id="path94" />
        <path
           d="m 23.781123,311.74911 v -0.4712 H 23.54552 v 0.4712 z m 0.728225,0 v -0.4712 h -0.235602 v 0.4712 z m -0.481914,3.48049 c 0.776417,0 1.360068,-0.66397 1.360068,-1.44038 0,-0.78178 -0.594361,-1.44575 -1.360068,-1.44575 -0.771062,0 -1.360067,0.66397 -1.360067,1.44575 0,0.77641 0.578296,1.44038 1.360067,1.44038 z m -1.092338,-1.42968 c 0,-0.66397 0.497978,-1.21549 1.092338,-1.21549 0.59436,0 1.086983,0.54617 1.086983,1.19943 0,0.66397 -0.492623,1.20479 -1.092337,1.20479 -0.599715,0 -1.086984,-0.53011 -1.086984,-1.18873 z"
           style="font-style:normal;font-variant:normal;font-weight:300;font-stretch:normal;font-family:Raleway;-inkscape-font-specification:'Raleway Light';text-align:start;text-anchor:start;fill:#ffffff;fill-opacity:1;stroke-width:0.23798206px"
           id="path96" />
        <path
           d="m 27.346196,312.38096 c -0.03748,0 -0.09638,0 -0.165992,0.005 -0.358758,0.0375 -0.701452,0.29986 -0.894218,0.69074 v -0.68538 h -0.25702 v 2.78439 h 0.267729 v -1.74025 c 0.149929,-0.48727 0.551524,-0.78712 1.049501,-0.80319 z"
           style="font-style:normal;font-variant:normal;font-weight:300;font-stretch:normal;font-family:Raleway;-inkscape-font-specification:'Raleway Light';text-align:start;text-anchor:start;fill:#ffffff;fill-opacity:1;stroke-width:0.23798206px"
           id="path98" />
        <path
           d="m 28.250035,315.17606 v -2.56486 h 0.79248 v -0.21953 h -0.79248 v -0.0964 c 0,-0.54617 0.203475,-0.84602 0.567587,-0.84602 0.155284,0 0.315922,0.0535 0.412304,0.13386 l 0.09638,-0.19276 c -0.12851,-0.1071 -0.342694,-0.17671 -0.556878,-0.17671 -0.487268,0 -0.787126,0.40695 -0.787126,1.08699 v 0.091 H 27.59142 v 0.21953 h 0.390885 v 2.56486 z"
           style="font-style:normal;font-variant:normal;font-weight:300;font-stretch:normal;font-family:Raleway;-inkscape-font-specification:'Raleway Light';text-align:start;text-anchor:start;fill:#ffffff;fill-opacity:1;stroke-width:0.23798206px"
           id="path100" />
        <path
           d="m 30.425926,315.2296 c 0.492623,0 0.947763,-0.26773 1.18872,-0.71216 v 0.41766 c 0,0.14993 0.133865,0.24631 0.273085,0.24631 0.01606,0 0.04284,0 0.08032,-0.005 v -0.24096 c -0.07496,0 -0.112446,-0.0482 -0.112446,-0.13387 v -2.40956 h -0.26773 v 1.7563 c -0.165992,0.50334 -0.615778,0.84068 -1.081628,0.84068 -0.471205,0 -0.701452,-0.33734 -0.701452,-1.02809 v -1.56889 h -0.26773 v 1.60637 c 0,0.8139 0.305212,1.23156 0.888863,1.23156 z"
           style="font-style:normal;font-variant:normal;font-weight:300;font-stretch:normal;font-family:Raleway;-inkscape-font-specification:'Raleway Light';text-align:start;text-anchor:start;fill:#ffffff;fill-opacity:1;stroke-width:0.23798206px"
           id="path102" />
        <path
           d="m 34.987456,313.57503 c 0,-0.78712 -0.224893,-1.23156 -0.829962,-1.23156 -0.492623,0 -0.969182,0.28915 -1.194075,0.71217 v -0.66397 h -0.251666 v 2.78439 h 0.267729 v -1.72418 c 0.144574,-0.49263 0.631843,-0.86209 1.103047,-0.86209 0.439077,0 0.637197,0.31592 0.637197,1.03343 v 1.55284 h 0.26773 z"
           style="font-style:normal;font-variant:normal;font-weight:300;font-stretch:normal;font-family:Raleway;-inkscape-font-specification:'Raleway Light';text-align:start;text-anchor:start;fill:#ffffff;fill-opacity:1;stroke-width:0.23798206px"
           id="path104" />
        <path
           d="m 38.10475,315.17606 -1.199429,-1.64922 1.161947,-1.12982 h -0.310566 l -1.692053,1.60102 V 311.2672 H 35.79692 v 3.90886 h 0.267729 v -0.88351 l 0.658616,-0.60507 1.086983,1.48858 z"
           style="font-style:normal;font-variant:normal;font-weight:300;font-stretch:normal;font-family:Raleway;-inkscape-font-specification:'Raleway Light';text-align:start;text-anchor:start;fill:#ffffff;fill-opacity:1;stroke-width:0.23798206px"
           id="path106" />
        <path
           d="m 39.949326,315.2296 c 0.760353,0 1.274394,-0.66397 1.274394,-1.44038 0,-0.73358 -0.556878,-1.44575 -1.333294,-1.44575 -0.423013,0 -0.824608,0.25167 -1.054856,0.60507 v -0.55687 h -0.246311 v 3.92491 h 0.26773 v -1.74024 c 0.230247,0.36411 0.615778,0.65326 1.092337,0.65326 z m -0.06425,-0.24095 c -0.444431,0 -0.846026,-0.32664 -1.028082,-0.73894 v -0.91564 c 0.04819,-0.39624 0.59436,-0.74964 0.979891,-0.74964 0.621133,0 1.113756,0.56759 1.113756,1.20479 0,0.59971 -0.417659,1.19943 -1.065565,1.19943 z"
           style="font-style:normal;font-variant:normal;font-weight:300;font-stretch:normal;font-family:Raleway;-inkscape-font-specification:'Raleway Light';text-align:start;text-anchor:start;fill:#ffffff;fill-opacity:1;stroke-width:0.23798206px"
           id="path108" />
        <path
           d="m 43.179904,312.38096 c -0.03748,0 -0.09638,0 -0.165992,0.005 -0.358758,0.0375 -0.701452,0.29986 -0.894218,0.69074 v -0.68538 h -0.257021 v 2.78439 h 0.26773 v -1.74025 c 0.149929,-0.48727 0.551524,-0.78712 1.049501,-0.80319 z"
           style="font-style:normal;font-variant:normal;font-weight:300;font-stretch:normal;font-family:Raleway;-inkscape-font-specification:'Raleway Light';text-align:start;text-anchor:start;fill:#ffffff;fill-opacity:1;stroke-width:0.23798206px"
           id="path110" />
        <path
           d="m 44.724203,315.2296 c 0.776416,0 1.360067,-0.66397 1.360067,-1.44038 0,-0.78178 -0.59436,-1.44575 -1.360067,-1.44575 -0.771062,0 -1.360068,0.66397 -1.360068,1.44575 0,0.77641 0.578297,1.44038 1.360068,1.44038 z m -1.092338,-1.42968 c 0,-0.66397 0.497977,-1.21549 1.092338,-1.21549 0.59436,0 1.086983,0.54617 1.086983,1.19943 0,0.66397 -0.492623,1.20479 -1.092338,1.20479 -0.599715,0 -1.086983,-0.53011 -1.086983,-1.18873 z"
           style="font-style:normal;font-variant:normal;font-weight:300;font-stretch:normal;font-family:Raleway;-inkscape-font-specification:'Raleway Light';text-align:start;text-anchor:start;fill:#ffffff;fill-opacity:1;stroke-width:0.23798206px"
           id="path112" />
        <path
           d="m 47.871617,315.2296 c 0.412304,0 0.829962,-0.24095 1.054855,-0.61042 v 0.31056 c 0,0.12316 0.112447,0.25703 0.257021,0.25703 0.02677,0 0.05355,-0.005 0.09638,-0.0107 v -0.24096 c -0.07496,0 -0.112447,-0.0482 -0.112447,-0.13387 v -3.53403 h -0.26773 v 1.72954 c -0.214183,-0.35341 -0.605069,-0.65327 -1.086983,-0.65327 -0.738934,0 -1.279748,0.66933 -1.279748,1.44575 0,0.73893 0.562233,1.44038 1.338649,1.44038 z m 0.04819,-0.24095 c -0.621133,0 -1.113756,-0.55688 -1.113756,-1.19408 0,-0.61042 0.417659,-1.21014 1.065565,-1.21014 0.406949,0 0.878154,0.33199 1.028082,0.73894 v 0.91563 c -0.04819,0.40695 -0.589005,0.74965 -0.979891,0.74965 z"
           style="font-style:normal;font-variant:normal;font-weight:300;font-stretch:normal;font-family:Raleway;-inkscape-font-specification:'Raleway Light';text-align:start;text-anchor:start;fill:#ffffff;fill-opacity:1;stroke-width:0.23798206px"
           id="path114" />
        <path
           d="m 50.882156,315.2296 c 0.492623,0 0.947763,-0.26773 1.18872,-0.71216 v 0.41766 c 0,0.14993 0.133865,0.24631 0.273085,0.24631 0.01606,0 0.04284,0 0.08032,-0.005 v -0.24096 c -0.07497,0 -0.112447,-0.0482 -0.112447,-0.13387 v -2.40956 h -0.26773 v 1.7563 c -0.165992,0.50334 -0.615778,0.84068 -1.081628,0.84068 -0.471205,0 -0.701452,-0.33734 -0.701452,-1.02809 v -1.56889 h -0.26773 v 1.60637 c 0,0.8139 0.305212,1.23156 0.888863,1.23156 z"
           style="font-style:normal;font-variant:normal;font-weight:300;font-stretch:normal;font-family:Raleway;-inkscape-font-specification:'Raleway Light';text-align:start;text-anchor:start;fill:#ffffff;fill-opacity:1;stroke-width:0.23798206px"
           id="path116" />
        <path
           d="m 55.475814,315.17606 -1.19943,-1.64922 1.161948,-1.12982 h -0.310567 l -1.692052,1.60102 v -2.73084 h -0.26773 v 3.90886 h 0.26773 v -0.88351 l 0.658615,-0.60507 1.086983,1.48858 z"
           style="font-style:normal;font-variant:normal;font-weight:300;font-stretch:normal;font-family:Raleway;-inkscape-font-specification:'Raleway Light';text-align:start;text-anchor:start;fill:#ffffff;fill-opacity:1;stroke-width:0.23798206px"
           id="path118" />
        <path
           d="m 57.122269,314.82801 c -0.03213,0.0214 -0.214183,0.12851 -0.433722,0.12851 -0.176702,0 -0.348049,-0.10174 -0.348049,-0.31057 v -2.03475 h 0.647907 v -0.21953 h -0.647907 v -0.95312 h -0.267729 v 0.95312 h -0.390886 v 0.21953 h 0.390886 v 2.09901 c 0,0.32127 0.251666,0.49797 0.546168,0.49797 0.299858,0 0.530105,-0.13386 0.583651,-0.16599 z"
           style="font-style:normal;font-variant:normal;font-weight:300;font-stretch:normal;font-family:Raleway;-inkscape-font-specification:'Raleway Light';text-align:start;text-anchor:start;fill:#ffffff;fill-opacity:1;stroke-width:0.23798206px"
           id="path120" />
        <path
           d="m 57.943193,315.17606 v -2.78439 h -0.26773 v 2.78439 z m 0,-3.41624 v -0.49262 h -0.26773 v 0.49262 z"
           style="font-style:normal;font-variant:normal;font-weight:300;font-stretch:normal;font-family:Raleway;-inkscape-font-specification:'Raleway Light';text-align:start;text-anchor:start;fill:#ffffff;fill-opacity:1;stroke-width:0.23798206px"
           id="path122" />
        <path
           d="m 59.951335,315.2296 c 0.776417,0 1.360068,-0.66397 1.360068,-1.44038 0,-0.78178 -0.59436,-1.44575 -1.360068,-1.44575 -0.771061,0 -1.360067,0.66397 -1.360067,1.44575 0,0.77641 0.578296,1.44038 1.360067,1.44038 z m -1.092337,-1.42968 c 0,-0.66397 0.497977,-1.21549 1.092337,-1.21549 0.594361,0 1.086983,0.54617 1.086983,1.19943 0,0.66397 -0.492622,1.20479 -1.092337,1.20479 -0.599715,0 -1.086983,-0.53011 -1.086983,-1.18873 z"
           style="font-style:normal;font-variant:normal;font-weight:300;font-stretch:normal;font-family:Raleway;-inkscape-font-specification:'Raleway Light';text-align:start;text-anchor:start;fill:#ffffff;fill-opacity:1;stroke-width:0.23798206px"
           id="path124" />
        <path
           d="m 64.228572,313.57503 c 0,-0.78712 -0.224894,-1.23156 -0.829963,-1.23156 -0.492623,0 -0.969182,0.28915 -1.194075,0.71217 v -0.66397 h -0.251666 v 2.78439 h 0.26773 v -1.72418 c 0.144574,-0.49263 0.631842,-0.86209 1.103047,-0.86209 0.439077,0 0.637197,0.31592 0.637197,1.03343 v 1.55284 h 0.26773 z"
           style="font-style:normal;font-variant:normal;font-weight:300;font-stretch:normal;font-family:Raleway;-inkscape-font-specification:'Raleway Light';text-align:start;text-anchor:start;fill:#ffffff;fill-opacity:1;stroke-width:0.23798206px"
           id="path126" />
      </g>
    </g>
    <g
       aria-label="Space 
          Tourist"
       style="font-style:normal;font-variant:normal;font-weight:bold;font-stretch:normal;font-size:123.52469635px;line-height:137.24964905px;font-family:Raleway;-inkscape-font-specification:'Raleway Bold';text-align:start;letter-spacing:0px;word-spacing:0px;text-anchor:start;fill:#ffffff;fill-opacity:1;stroke:none;stroke-width:5.48998642px;stroke-linecap:butt;stroke-linejoin:miter;stroke-opacity:1"
       id="text16-36">
      <path
         d="m 116.84932,-430.54211 c -7.65853,-5.18804 -18.40518,-9.75846 -30.634125,-9.75846 -17.787557,0 -31.992897,9.63493 -31.992897,27.54601 0,13.46419 8.15263,19.0228 24.828464,23.71674 13.711242,3.82927 22.728548,6.17624 22.728548,13.71124 0,5.80567 -4.817467,9.01731 -14.081819,9.01731 -13.340667,0 -26.55781,-7.78206 -29.522402,-10.74665 l -7.535007,14.69944 c 10.129025,7.16443 23.716742,11.36427 36.81036,11.36427 17.169928,0 32.486998,-7.16443 32.486998,-26.06371 0,-16.05821 -10.87018,-21.4933 -28.163634,-25.94019 -13.217143,-3.45869 -20.011001,-5.31156 -20.011001,-12.47599 0,-6.29976 4.693939,-9.88198 13.958291,-9.88198 10.499599,0 21.369774,6.17624 23.593214,8.64673 z"
         style="font-style:normal;font-variant:normal;font-weight:bold;font-stretch:normal;font-family:Raleway;-inkscape-font-specification:'Raleway Bold';text-align:start;text-anchor:start;fill:#ffffff;fill-opacity:1;stroke-width:5.48998642px"
         id="path129" />
      <path
         d="m 169.99968,-350.74516 c 16.42878,0 28.28715,-14.82296 28.28715,-33.72224 0,-18.28166 -12.84656,-33.35167 -30.26355,-33.35167 -9.75845,0 -17.5405,4.69394 -22.35797,12.22894 v -11.11722 h -14.45239 v 91.0377 h 16.55231 v -37.67503 c 4.32337,7.65853 12.10542,12.59952 22.23445,12.59952 z m -5.55861,-14.08182 c -7.04091,0 -13.71124,-5.55861 -16.67584,-12.84656 v -15.19354 c 2.22345,-6.29976 9.38788,-10.87018 15.68764,-10.87018 10.25255,0 17.91108,8.39968 17.91108,19.26986 0,10.25255 -6.91738,19.64042 -16.92288,19.64042 z"
         style="font-style:normal;font-variant:normal;font-weight:bold;font-stretch:normal;font-family:Raleway;-inkscape-font-specification:'Raleway Bold';text-align:start;text-anchor:start;fill:#ffffff;fill-opacity:1;stroke-width:5.48998642px"
         id="path131" />
      <path
         d="m 227.28619,-350.74516 c 9.38788,0 17.91108,-4.07632 23.71674,-11.61132 l 0.37057,3.58221 c 0.86468,4.57042 4.19984,7.65854 10.37608,7.65854 1.97639,0 4.32336,-0.24705 7.28796,-0.86468 v -14.08181 c -2.84107,-0.12353 -3.95279,-1.4823 -3.95279,-4.94099 v -20.13453 c 0,-17.16993 -10.87018,-26.68133 -29.39888,-26.68133 -9.63493,0 -18.52871,2.71754 -26.92839,8.27615 l 5.06452,10.4996 c 6.91738,-4.81746 13.34066,-7.28795 20.25805,-7.28795 9.5114,0 14.45239,4.81746 14.45239,13.34066 v 3.70574 c -4.19984,-1.85287 -10.0055,-2.84106 -15.81116,-2.84106 -16.18174,0 -27.54601,8.5232 -27.54601,20.87567 0,11.73485 9.5114,20.5051 22.11092,20.5051 z m 4.69394,-12.10542 c -6.29976,0 -11.11723,-4.19984 -11.11723,-9.75845 0,-5.92919 6.05271,-10.25255 14.57592,-10.25255 4.19984,0 9.14083,0.9882 13.09362,2.47049 v 7.41148 c 0,1.60582 -0.9882,3.33517 -2.71755,4.69394 -2.84106,3.33517 -8.27615,5.43509 -13.83476,5.43509 z"
         style="font-style:normal;font-variant:normal;font-weight:bold;font-stretch:normal;font-family:Raleway;-inkscape-font-specification:'Raleway Bold';text-align:start;text-anchor:start;fill:#ffffff;fill-opacity:1;stroke-width:5.48998642px"
         id="path133" />
      <path
         d="m 276.47605,-384.34388 c 0,17.91108 13.21714,33.59872 34.21634,33.59872 14.20534,0 24.95199,-7.04091 29.39888,-16.79936 l -16.18174,-4.94099 c -1.97639,4.32337 -7.535,7.65853 -13.46419,7.65853 -9.26435,0 -16.92288,-8.15263 -16.92288,-19.5169 0,-11.48779 7.41148,-19.39338 16.92288,-19.39338 5.55861,0 10.4996,2.71755 13.21714,7.41149 l 16.18174,-4.94099 c -4.94099,-9.88198 -15.19354,-16.55231 -29.27536,-16.55231 -21.12272,0 -34.09281,15.44059 -34.09281,33.47519 z"
         style="font-style:normal;font-variant:normal;font-weight:bold;font-stretch:normal;font-family:Raleway;-inkscape-font-specification:'Raleway Bold';text-align:start;text-anchor:start;fill:#ffffff;fill-opacity:1;stroke-width:5.48998642px"
         id="path135" />
      <path
         d="m 379.56899,-350.74516 c 14.32886,0 25.44608,-7.04091 30.14002,-16.92288 l -14.20534,-3.95279 c -2.09992,5.31156 -8.77025,8.77025 -15.31706,8.77025 -8.64673,0 -16.30526,-6.05271 -17.16993,-16.18174 h 50.0275 c 0.24705,-1.35877 0.37057,-3.45869 0.37057,-5.55861 0,-17.5405 -12.59952,-33.22814 -33.72224,-33.22814 -21.12272,0 -34.21634,15.44059 -34.21634,33.84577 0,17.91108 13.21714,33.22814 34.09282,33.22814 z m -16.79936,-39.0338 c 0.74115,-9.63493 7.78205,-16.05822 16.67583,-16.05822 9.0173,0 16.05821,6.42329 16.92289,16.05822 z"
         style="font-style:normal;font-variant:normal;font-weight:bold;font-stretch:normal;font-family:Raleway;-inkscape-font-specification:'Raleway Bold';text-align:start;text-anchor:start;fill:#ffffff;fill-opacity:1;stroke-width:5.48998642px"
         id="path137" />
      <path
         d="m 416.02613,-302.43329 h -73.00309 v 14.94649 h 28.04011 v 72.75605 h 16.92288 v -72.75605 h 28.0401 z"
         style="font-style:normal;font-variant:normal;font-weight:bold;font-stretch:normal;font-family:Raleway;-inkscape-font-specification:'Raleway Bold';text-align:start;text-anchor:start;fill:#ffffff;fill-opacity:1;stroke-width:5.48998642px"
         id="path139" />
      <path
         d="m 441.20782,-213.49551 c 21.12272,0 33.84577,-15.68763 33.84577,-33.47519 0,-18.0346 -12.84657,-33.59872 -33.84577,-33.59872 -20.9992,0 -33.96929,15.56412 -33.96929,33.59872 0,17.78756 12.84657,33.47519 33.96929,33.47519 z m -16.92288,-33.47519 c 0,-11.24075 7.41148,-19.5169 16.92288,-19.5169 9.5114,0 16.92288,8.15263 16.92288,19.39338 0,11.36427 -7.41148,19.5169 -16.92288,19.5169 -9.5114,0 -16.92288,-8.02911 -16.92288,-19.39338 z"
         style="font-style:normal;font-variant:normal;font-weight:bold;font-stretch:normal;font-family:Raleway;-inkscape-font-specification:'Raleway Bold';text-align:start;text-anchor:start;fill:#ffffff;fill-opacity:1;stroke-width:5.48998642px"
         id="path141" />
      <path
         d="m 505.86914,-213.49551 c 10.87017,0 20.25805,-4.44689 26.06371,-13.34066 l 0.37058,5.18803 c 0.61762,4.81747 4.57041,7.65853 10.49959,7.65853 1.85288,0 3.82927,-0.12352 7.16444,-0.74114 v -14.08182 c -2.84107,-0.12352 -3.95279,-1.4823 -3.95279,-4.94099 v -45.70413 h -16.55231 v 40.14552 c -3.82927,7.90558 -10.25255,11.73485 -16.67584,11.73485 -7.0409,0 -10.74664,-5.06451 -10.74664,-14.94649 v -36.93388 h -16.55231 v 40.5161 c 0,16.67583 7.0409,25.44608 20.38157,25.44608 z"
         style="font-style:normal;font-variant:normal;font-weight:bold;font-stretch:normal;font-family:Raleway;-inkscape-font-specification:'Raleway Bold';text-align:start;text-anchor:start;fill:#ffffff;fill-opacity:1;stroke-width:5.48998642px"
         id="path143" />
      <path
         d="m 600.88278,-280.19884 c -0.74115,-0.12353 -1.60582,-0.12353 -3.33517,-0.12353 -6.91738,0 -15.44058,5.92919 -20.011,14.69944 v -13.83476 h -15.19354 v 64.72694 h 16.55231 v -39.15733 c 3.45869,-7.28796 11.9819,-11.11722 21.9874,-11.24075 z"
         style="font-style:normal;font-variant:normal;font-weight:bold;font-stretch:normal;font-family:Raleway;-inkscape-font-specification:'Raleway Bold';text-align:start;text-anchor:start;fill:#ffffff;fill-opacity:1;stroke-width:5.48998642px"
         id="path145" />
      <path
         d="m 626.6647,-214.73075 v -64.72694 h -16.55231 v 64.72694 z m 0,-73.74425 v -16.42878 h -16.55231 v 16.42878 z"
         style="font-style:normal;font-variant:normal;font-weight:bold;font-stretch:normal;font-family:Raleway;-inkscape-font-specification:'Raleway Bold';text-align:start;text-anchor:start;fill:#ffffff;fill-opacity:1;stroke-width:5.48998642px"
         id="path147" />
      <path
         d="m 666.17526,-213.49551 c 16.05821,0 26.18724,-7.90558 26.18724,-20.5051 0,-10.87017 -7.16443,-15.07001 -25.07552,-19.5169 -9.5114,-2.47049 -12.72304,-3.70574 -12.72304,-8.15263 0,-5.06451 4.32336,-7.28795 9.88198,-7.28795 6.05271,0 12.22894,2.22344 18.77575,7.16443 l 6.67033,-10.0055 c -7.0409,-6.17624 -15.68763,-8.89378 -25.32256,-8.89378 -14.45239,0 -25.44609,8.15263 -25.44609,21.36977 0,9.88198 6.17624,13.46419 23.09912,18.03461 10.12903,2.71754 14.20534,4.19984 14.20534,8.77025 0,4.57041 -4.07631,7.16443 -10.62312,7.16443 -7.41148,0 -14.94649,-2.96459 -22.72855,-8.5232 l -6.17623,10.37607 c 7.28796,6.42329 18.5287,10.0055 29.27535,10.0055 z"
         style="font-style:normal;font-variant:normal;font-weight:bold;font-stretch:normal;font-family:Raleway;-inkscape-font-specification:'Raleway Bold';text-align:start;text-anchor:start;fill:#ffffff;fill-opacity:1;stroke-width:5.48998642px"
         id="path149" />
      <path
         d="m 738.44874,-231.15954 c -1.97639,0.86467 -5.55861,2.34697 -9.0173,2.34697 -3.45869,0 -6.17623,-1.72934 -6.17623,-6.29976 v -31.62232 h 13.58771 v -12.72304 h -13.58771 v -20.9992 H 706.7029 v 20.9992 h -8.52321 v 12.72304 h 8.52321 v 37.18093 c 0,11.4878 7.65853,15.93469 16.79936,15.93469 7.0409,0 13.83476,-2.47049 18.28165,-4.44689 z"
         style="font-style:normal;font-variant:normal;font-weight:bold;font-stretch:normal;font-family:Raleway;-inkscape-font-specification:'Raleway Bold';text-align:start;text-anchor:start;fill:#ffffff;fill-opacity:1;stroke-width:5.48998642px"
         id="path151" />
    </g>
    <path
       style="fill:none;fill-rule:evenodd;stroke:#ffffff;stroke-width:18.52083397;stroke-linecap:butt;stroke-linejoin:miter;stroke-miterlimit:4;stroke-dasharray:none;stroke-opacity:1;marker-end:url(#Arrow1Send)"
       d="m 49.651885,-247.67598 246.175505,0"
       id="path855"
       inkscape:connector-curvature="0"
       sodipodi:nodetypes="cc" />
    <path
       style="fill:none;fill-rule:evenodd;stroke:#ffffff;stroke-width:18.52083397;stroke-linecap:butt;stroke-linejoin:miter;stroke-miterlimit:4;stroke-dasharray:none;stroke-opacity:1;marker-start:url(#Arrow1Sstart)"
       d="m 476.01922,-382.76382 266.34955,0"
       id="path855-3"
       inkscape:connector-curvature="0"
       sodipodi:nodetypes="cc" />
    <g
       id="g6458">
      <path
         inkscape:export-ydpi="145.94"
         inkscape:export-xdpi="145.94"
         sodipodi:nodetypes="cccccccccccccccc"
         inkscape:connector-curvature="0"
         id="path4147"
         d="m 228.05285,208.41241 c -2.73878,1.4387 12.29874,37.99867 16.77035,38.74522 44.84848,5.11231 167.88377,-71.67969 186.99116,-135.49455 131.93445,-23.961156 213.34339,-90.287116 252.79609,-214.87507 1.79442,-6.50258 14.42487,-15.26745 34.98638,-27.83008 -15.49353,4.61608 -34.23345,13.08723 -41.63666,8.09602 -38.64936,-20.4336 -69.23103,-28.60425 -94.26078,-28.33605 -13.66391,-7.1772 -35.72826,-9.16837 -49.73271,-0.57827 -60.10996,6.3732 -130.03666,36.26552 -216.27933,105.248221 -48.7414,-5.611476 -97.55054,-10.789918 -153.82432,31.805759 0.0718,5.554315 -0.98174,11.6710783 3.46971,15.03547227 C 149.21937,8.874071 131.51226,18.737877 116.44348,36.516591 c -12.00095,9.361033 29.08114,41.982191 35.85378,37.877816 33.65328,-21.279663 72.79433,-23.275338 115.07915,-18.649772 7.18126,21.203475 17.63352,39.181225 34.62705,56.023675 -2.32424,43.9109 -28.08131,73.10903 -73.95061,96.6441 z"
         style="fill:#6e0a0a;fill-opacity:1;fill-rule:evenodd;stroke:none;stroke-width:1.14494979px;stroke-linecap:butt;stroke-linejoin:miter;stroke-opacity:1" />
      <path
         inkscape:export-ydpi="145.94"
         inkscape:export-xdpi="145.94"
         sodipodi:nodetypes="ccccc"
         inkscape:connector-curvature="0"
         id="path4149"
         d="m 126.21832,35.480335 c 77.79954,-60.182093 210.17426,-75.047702 244.11967,-47.433663 5.10948,5.305504 -44.79841,52.823834 -85.05341,67.061354 24.67538,-2.194342 106.04938,-50.1476138 92.82268,-78.101947 -19.54363,-39.476036 -177.78159,-20.886306 -251.88894,58.474256 z"
         style="fill:#ee9700;fill-opacity:1;fill-rule:evenodd;stroke:none;stroke-width:1.14494979px;stroke-linecap:butt;stroke-linejoin:miter;stroke-opacity:1" />
      <path
         inkscape:export-ydpi="145.94"
         inkscape:export-xdpi="145.94"
         sodipodi:nodetypes="cccc"
         inkscape:connector-curvature="0"
         id="path4151"
         d="m 383.32295,-38.805277 c 50.67213,-47.294552 79.61281,-57.109431 112.47682,-69.394433 3.03952,6.26881 6.47669,13.93945 9.74367,22.243496 -39.03618,12.718653 -85.49744,29.805988 -122.22049,47.150937 z"
         style="fill:#ee9700;fill-opacity:1;fill-rule:evenodd;stroke:none;stroke-width:1.14494979px;stroke-linecap:butt;stroke-linejoin:miter;stroke-opacity:1" />
      <path
         inkscape:export-ydpi="145.94"
         inkscape:export-xdpi="145.94"
         sodipodi:nodetypes="ccccc"
         inkscape:connector-curvature="0"
         id="path4155"
         d="m 602.61047,-132.57245 c 10.46293,15.26546 5.63756,21.20996 -2.8716,41.768311 6.28427,-5.550784 14.92095,-9.918291 21.97562,-19.863561 20.98485,-3.89086 38.80069,-3.51843 58.55881,-3.3149 -23.20276,-21.58401 -51.31531,-18.49475 -77.66283,-18.58985 z"
         style="fill:#ee9700;fill-opacity:1;fill-rule:evenodd;stroke:none;stroke-width:1.14494979px;stroke-linecap:butt;stroke-linejoin:miter;stroke-opacity:1" />
      <path
         inkscape:export-ydpi="145.94"
         inkscape:export-xdpi="145.94"
         sodipodi:nodetypes="cccc"
         inkscape:connector-curvature="0"
         id="path4157"
         d="m 431.89903,111.54932 c -38.51568,9.40339 -75.97284,13.27863 -111.03106,4.6263 22.33284,8.84187 48.64149,15.35447 108.57335,2.16858 z"
         style="fill:#ee9700;fill-opacity:1;fill-rule:evenodd;stroke:none;stroke-width:1.14494979px;stroke-linecap:butt;stroke-linejoin:miter;stroke-opacity:1" />
      <path
         inkscape:export-ydpi="145.94"
         inkscape:export-xdpi="145.94"
         sodipodi:nodetypes="cccccc"
         inkscape:connector-curvature="0"
         id="path4159"
         d="m 260.72612,66.153812 22.26403,49.154408 c -15.19563,24.65477 -31.1042,64.72859 -67.94873,26.02291 -58.23693,13.78206 -114.70793,42.7496 -172.907814,70.55099 45.171368,-36.46346 97.977874,-65.29181 148.041474,-96.86304 16.48489,-38.171785 41.21601,-65.043735 70.55104,-48.865268 z"
         style="fill:#e10000;fill-opacity:1;fill-rule:evenodd;stroke:none;stroke-width:1.14494979px;stroke-linecap:butt;stroke-linejoin:miter;stroke-opacity:1" />
      <path
         inkscape:export-ydpi="145.94"
         inkscape:export-xdpi="145.94"
         style="fill:#ffac1c;fill-opacity:1;fill-rule:evenodd;stroke:none;stroke-width:1.14494979px;stroke-linecap:butt;stroke-linejoin:miter;stroke-opacity:1"
         d="m 265.12961,75.672902 12.85476,28.327158 c -8.77363,14.20832 -17.95883,37.30244 -39.23201,14.99673 -33.62465,7.94251 -66.2297,24.63615 -99.83296,40.65782 26.0809,-21.01348 56.57015,-37.62698 85.47571,-55.82117 9.51799,-21.997971 23.79714,-37.484004 40.7345,-28.160538 z"
         id="path4161"
         inkscape:connector-curvature="0"
         sodipodi:nodetypes="cccccc" />
      <path
         style="opacity:1;fill:#ee9700;fill-opacity:1;stroke:#6e0a0a;stroke-width:5.27529621;stroke-linecap:round;stroke-linejoin:round;stroke-miterlimit:4;stroke-dasharray:none;stroke-dashoffset:0;stroke-opacity:1"
         d="m 608.22979,-117.97596 a 55.31316,42.113213 0 0 1 -55.31316,42.113213 55.31316,42.113213 0 0 1 -55.31316,-42.113213 55.31316,42.113213 0 0 1 55.31316,-42.11321 55.31316,42.113213 0 0 1 55.31316,42.11321 z"
         id="path4165" />
    </g>
    <g
       aria-label="Image credit: https://www.elektrollart.de/?p=4741"
       style="font-style:normal;font-variant:normal;font-weight:normal;font-stretch:normal;font-size:4.23333359px;line-height:1.25;font-family:Raleway;-inkscape-font-specification:Raleway;letter-spacing:0px;word-spacing:0px;fill:#ffffff;fill-opacity:1;stroke:none;stroke-width:0.26458332"
       id="text6462">
      <path
         d="m 4.5296667,292.88095 v -3.00567 H 4.2333334 v 3.00567 z"
         style="font-size:4.23333359px;fill:#ffffff;fill-opacity:1;stroke-width:0.26458332"
         id="path155" />
      <path
         d="m 8.5049654,291.58978 c 0,-0.57573 -0.1778,-0.9525 -0.6731001,-0.9525 -0.3598333,0 -0.6477,0.19474 -0.8509,0.56727 -0.0508,-0.33443 -0.2836334,-0.56727 -0.6519334,-0.56727 -0.3556,0 -0.6604,0.19897 -0.8424334,0.53764 v -0.49954 H 5.2241318 v 2.20557 h 0.2878667 v -1.35043 c 0.1100667,-0.37677 0.3937001,-0.63077 0.7239001,-0.63077 0.3259667,0 0.4826,0.2286 0.4826,0.7493 v 1.2319 h 0.2878667 v -1.3462 c 0.1058333,-0.37253 0.3894667,-0.635 0.7239,-0.635 0.3217334,0 0.4868334,0.23707 0.4868334,0.7493 v 1.2319 h 0.2878667 z"
         style="font-size:4.23333359px;fill:#ffffff;fill-opacity:1;stroke-width:0.26458332"
         id="path157" />
      <path
         d="m 9.6730347,292.92328 c 0.3513663,0 0.6773333,-0.14816 0.8805333,-0.41063 l 0.0085,0.17357 c 0.0042,0.127 0.09313,0.20743 0.237066,0.20743 0.02963,0 0.0635,-0.004 0.110067,-0.0127 v -0.254 c -0.07197,0 -0.105833,-0.0381 -0.105833,-0.11853 v -0.99484 c 0,-0.5461 -0.338667,-0.8763 -0.8890003,-0.8763 -0.2709334,0 -0.5461001,0.0974 -0.8297334,0.28787 l 0.1016,0.1905 c 0.2413,-0.16933 0.4826,-0.26247 0.7069667,-0.26247 0.385233,0 0.6223,0.24554 0.6223,0.635 v 0.19897 c -0.182033,-0.072 -0.427567,-0.1143 -0.6519333,-0.1143 -0.5418667,0 -0.9228668,0.27517 -0.9228668,0.66463 0,0.38524 0.3175001,0.6858 0.7323668,0.6858 z m 0.067733,-0.22013 c -0.2963334,0 -0.5249334,-0.21167 -0.5249334,-0.48683 0,-0.27517 0.2794,-0.46144 0.6858001,-0.46144 0.2116663,0 0.4233333,0.0423 0.6138333,0.1143 v 0.35984 c 0,0.0508 -0.0254,0.1143 -0.0762,0.1651 -0.127,0.18626 -0.402167,0.30903 -0.6985,0.30903 z"
         style="font-size:4.23333359px;fill:#ffffff;fill-opacity:1;stroke-width:0.26458332"
         id="path159" />
      <path
         d="m 12.310071,292.91058 c 0.3175,0 0.639233,-0.1778 0.808567,-0.4572 v 0.43604 c 0,0.47413 -0.364067,0.70696 -0.791634,0.70696 -0.3302,0 -0.639233,-0.13123 -0.8128,-0.41063 l -0.1778,0.1397 c 0.194733,0.3048 0.4826,0.49953 0.9906,0.49953 0.588434,0 1.0795,-0.32173 1.0795,-0.93556 v -2.21404 h -0.258233 v 0.46144 c -0.194733,-0.28364 -0.4699,-0.49954 -0.846667,-0.49954 -0.605367,0 -1.024467,0.5334 -1.024467,1.14724 0,0.57996 0.427567,1.12606 1.032934,1.12606 z m 0.08043,-0.2413 c -0.4572,0 -0.821267,-0.4064 -0.821267,-0.88053 0,-0.43603 0.296334,-0.89747 0.7874,-0.89747 0.3175,0 0.639234,0.23284 0.762001,0.55034 v 0.68156 c -0.0508,0.27094 -0.385234,0.5461 -0.728134,0.5461 z"
         style="font-size:4.23333359px;fill:#ffffff;fill-opacity:1;stroke-width:0.26458332"
         id="path161" />
      <path
         d="m 14.990565,292.92328 c 0.427567,0 0.804334,-0.2286 0.9398,-0.55033 l -0.249766,-0.0677 c -0.105834,0.23706 -0.389467,0.39793 -0.677334,0.39793 -0.423333,0 -0.778933,-0.34713 -0.817033,-0.82127 h 1.888067 c 0.0042,-0.0169 0.0042,-0.072 0.0042,-0.1143 0,-0.60536 -0.4445,-1.1303 -1.0922,-1.1303 -0.635,0 -1.100667,0.51647 -1.100667,1.13454 0,0.62653 0.465667,1.15146 1.1049,1.15146 z m -0.808567,-1.26153 c 0.02963,-0.46567 0.376767,-0.8001 0.808567,-0.8001 0.4318,0 0.7747,0.3302 0.8128,0.8001 z"
         style="font-size:4.23333359px;fill:#ffffff;fill-opacity:1;stroke-width:0.26458332"
         id="path163" />
      <path
         d="m 17.45754,291.77182 c 0,0.62653 0.465666,1.15146 1.109133,1.15146 0.423333,0 0.791633,-0.2286 0.9144,-0.5461 l -0.283633,-0.0847 c -0.06773,0.2032 -0.359834,0.37676 -0.643467,0.37676 -0.436033,0 -0.804333,-0.39793 -0.804333,-0.89746 0,-0.50377 0.351366,-0.88054 0.8001,-0.88054 0.270933,0 0.508,0.13547 0.630766,0.35984 l 0.2794,-0.0889 c -0.156633,-0.32174 -0.4826,-0.52494 -0.897466,-0.52494 -0.651934,0 -1.1049,0.508 -1.1049,1.13454 z"
         style="font-size:4.23333359px;fill:#ffffff;fill-opacity:1;stroke-width:0.26458332"
         id="path165" />
      <path
         d="m 21.033979,290.66692 c -0.02117,-0.004 -0.03387,-0.004 -0.05503,-0.004 -0.313267,0 -0.6096,0.2032 -0.7747,0.54187 v -0.52917 h -0.270933 v 2.20557 h 0.287866 v -1.3716 c 0.118534,-0.3556 0.427567,-0.56727 0.8128,-0.57997 z"
         style="font-size:4.23333359px;fill:#ffffff;fill-opacity:1;stroke-width:0.26458332"
         id="path167" />
      <path
         d="m 22.266606,292.92328 c 0.427567,0 0.804334,-0.2286 0.9398,-0.55033 l -0.249766,-0.0677 c -0.105834,0.23706 -0.389467,0.39793 -0.677334,0.39793 -0.423333,0 -0.778933,-0.34713 -0.817033,-0.82127 h 1.888067 c 0.0042,-0.0169 0.0042,-0.072 0.0042,-0.1143 0,-0.60536 -0.4445,-1.1303 -1.0922,-1.1303 -0.635,0 -1.100667,0.51647 -1.100667,1.13454 0,0.62653 0.465667,1.15146 1.1049,1.15146 z m -0.808567,-1.26153 c 0.02963,-0.46567 0.376767,-0.8001 0.808567,-0.8001 0.4318,0 0.7747,0.3302 0.8128,0.8001 z"
         style="font-size:4.23333359px;fill:#ffffff;fill-opacity:1;stroke-width:0.26458332"
         id="path169" />
      <path
         d="m 24.708777,292.92328 c 0.321733,0 0.6477,-0.18203 0.821266,-0.4699 v 0.2159 c 0,0.12277 0.118534,0.22437 0.254,0.22437 0.02963,0 0.05927,-0.004 0.1016,-0.0127 v -0.254 c -0.07197,0 -0.1016,-0.0381 -0.1016,-0.11853 v -2.7178 h -0.287866 v 1.3462 c -0.1651,-0.27517 -0.465667,-0.49954 -0.833967,-0.49954 -0.5842,0 -1.007533,0.52494 -1.007533,1.14724 0,0.59266 0.440266,1.13876 1.0541,1.13876 z m 0.0635,-0.254 c -0.461434,0 -0.821267,-0.4064 -0.821267,-0.88476 0,-0.45297 0.309033,-0.89324 0.783167,-0.89324 0.3048,0 0.651933,0.24554 0.762,0.55034 v 0.68156 c -0.04657,0.30057 -0.436034,0.5461 -0.7239,0.5461 z"
         style="font-size:4.23333359px;fill:#ffffff;fill-opacity:1;stroke-width:0.26458332"
         id="path171" />
      <path
         d="m 26.720007,292.88095 v -2.20557 H 26.43214 v 2.20557 z m 0,-2.667 v -0.42333 H 26.43214 v 0.42333 z"
         style="font-size:4.23333359px;fill:#ffffff;fill-opacity:1;stroke-width:0.26458332"
         id="path173" />
      <path
         d="m 28.340316,292.54228 c -0.03387,0.0212 -0.173566,0.0974 -0.334433,0.0974 -0.135467,0 -0.254,-0.0762 -0.2667,-0.23707 v -1.4986 h 0.508 v -0.2286 h -0.508 v -0.74506 h -0.287867 v 0.74506 h -0.3048 v 0.2286 h 0.3048 v 1.57904 c 0,0.28363 0.2159,0.42333 0.465667,0.42333 0.237067,0 0.4318,-0.1016 0.499533,-0.13123 z"
         style="font-size:4.23333359px;fill:#ffffff;fill-opacity:1;stroke-width:0.26458332"
         id="path175" />
      <path
         d="m 28.983517,291.10295 v -0.41487 h -0.245533 v 0.41487 z m 0,1.778 v -0.41487 h -0.245533 v 0.41487 z"
         style="font-size:4.23333359px;fill:#ffffff;fill-opacity:1;stroke-width:0.26458332"
         id="path177" />
      <path
         d="m 32.511406,291.58978 c 0,-0.56726 -0.194734,-0.9525 -0.6985,-0.9525 -0.359834,0 -0.694267,0.20744 -0.867834,0.53764 v -1.3843 h -0.287866 v 3.09033 h 0.287866 v -1.35043 c 0.1016,-0.35984 0.4445,-0.63077 0.770467,-0.63077 0.3302,0 0.508,0.24977 0.508,0.7493 v 1.2319 h 0.287867 z"
         style="font-size:4.23333359px;fill:#ffffff;fill-opacity:1;stroke-width:0.26458332"
         id="path179" />
      <path
         d="m 34.086736,292.54228 c -0.03387,0.0212 -0.173566,0.0974 -0.334433,0.0974 -0.135467,0 -0.254,-0.0762 -0.2667,-0.23707 v -1.4986 h 0.508 v -0.2286 h -0.508 v -0.74506 h -0.287867 v 0.74506 h -0.3048 v 0.2286 h 0.3048 v 1.57904 c 0,0.28363 0.2159,0.42333 0.465667,0.42333 0.237067,0 0.4318,-0.1016 0.499533,-0.13123 z"
         style="font-size:4.23333359px;fill:#ffffff;fill-opacity:1;stroke-width:0.26458332"
         id="path181" />
      <path
         d="m 35.508871,292.54228 c -0.03387,0.0212 -0.173567,0.0974 -0.334434,0.0974 -0.135466,0 -0.254,-0.0762 -0.2667,-0.23707 v -1.4986 h 0.508 v -0.2286 h -0.508 v -0.74506 h -0.287866 v 0.74506 h -0.3048 v 0.2286 h 0.3048 v 1.57904 c 0,0.28363 0.2159,0.42333 0.465666,0.42333 0.237067,0 0.4318,-0.1016 0.499534,-0.13123 z"
         style="font-size:4.23333359px;fill:#ffffff;fill-opacity:1;stroke-width:0.26458332"
         id="path183" />
      <path
         d="m 37.07494,292.92328 c 0.592667,0 0.999067,-0.5207 0.999067,-1.143 0,-0.58843 -0.440267,-1.143 -1.045633,-1.143 -0.334434,0 -0.643467,0.1905 -0.821267,0.46567 v -0.42757 h -0.258233 v 3.10727 h 0.287866 v -1.3589 c 0.173567,0.28363 0.4699,0.49953 0.8382,0.49953 z m -0.08043,-0.254 c -0.325967,0 -0.626533,-0.2413 -0.757767,-0.55456 v -0.67734 c 0.04233,-0.29633 0.436034,-0.5461 0.7239,-0.5461 0.461434,0 0.821267,0.41487 0.821267,0.889 0,0.44874 -0.309033,0.889 -0.7874,0.889 z"
         style="font-size:4.23333359px;fill:#ffffff;fill-opacity:1;stroke-width:0.26458332"
         id="path185" />
      <path
         d="m 39.293999,292.92328 c 0.5207,0 0.859367,-0.25823 0.859367,-0.6604 0,-0.37676 -0.2921,-0.48683 -0.859367,-0.6223 -0.3937,-0.0931 -0.550333,-0.14393 -0.550333,-0.37676 0,-0.28787 0.2413,-0.41064 0.541866,-0.41064 0.249767,0 0.499534,0.0847 0.664634,0.254 l 0.1397,-0.16933 c -0.169334,-0.1778 -0.4572,-0.30057 -0.795867,-0.30057 -0.452967,0 -0.8255,0.22437 -0.8255,0.66887 0,0.34713 0.2286,0.43603 0.740833,0.56303 0.4445,0.10584 0.664634,0.17357 0.664634,0.4191 0,0.26247 -0.232834,0.41487 -0.5842,0.41487 -0.2921,0 -0.5461,-0.1016 -0.791634,-0.3048 l -0.131233,0.19473 c 0.237067,0.2159 0.5842,0.3302 0.9271,0.3302 z"
         style="font-size:4.23333359px;fill:#ffffff;fill-opacity:1;stroke-width:0.26458332"
         id="path187" />
      <path
         d="m 40.823624,291.10295 v -0.41487 h -0.245533 v 0.41487 z m 0,1.778 v -0.41487 h -0.245533 v 0.41487 z"
         style="font-size:4.23333359px;fill:#ffffff;fill-opacity:1;stroke-width:0.26458332"
         id="path189" />
      <path
         d="m 43.209105,289.87528 -1.998134,3.00567 h 0.325967 l 1.998133,-3.00567 z"
         style="font-size:4.23333359px;fill:#ffffff;fill-opacity:1;stroke-width:0.26458332"
         id="path191" />
      <path
         d="m 44.722193,289.87528 -1.998133,3.00567 h 0.325966 l 1.998134,-3.00567 z"
         style="font-size:4.23333359px;fill:#ffffff;fill-opacity:1;stroke-width:0.26458332"
         id="path193" />
      <path
         d="m 47.401232,292.58462 -0.4191,-1.00754 0.376767,-0.89746 h -0.245534 l -0.287867,0.71966 -0.287866,-0.71966 h -0.2413 l 0.376766,0.89746 -0.4191,1.00754 -0.804333,-1.90924 h -0.2794 l 0.948267,2.20557 h 0.237066 l 0.4699,-1.12607 0.474134,1.12607 h 0.237067 l 0.948266,-2.20557 h -0.283633 z"
         style="font-size:4.23333359px;fill:#ffffff;fill-opacity:1;stroke-width:0.26458332"
         id="path195" />
      <path
         d="m 50.840815,292.58462 -0.4191,-1.00754 0.376766,-0.89746 h -0.245533 l -0.287867,0.71966 -0.287866,-0.71966 h -0.2413 l 0.376766,0.89746 -0.4191,1.00754 -0.804333,-1.90924 h -0.2794 l 0.948267,2.20557 h 0.237066 l 0.4699,-1.12607 0.474134,1.12607 h 0.237066 l 0.948267,-2.20557 h -0.283633 z"
         style="font-size:4.23333359px;fill:#ffffff;fill-opacity:1;stroke-width:0.26458332"
         id="path197" />
      <path
         d="m 54.280397,292.58462 -0.4191,-1.00754 0.376767,-0.89746 h -0.245533 l -0.287867,0.71966 -0.287867,-0.71966 h -0.2413 l 0.376767,0.89746 -0.4191,1.00754 -0.804333,-1.90924 h -0.2794 l 0.948266,2.20557 h 0.237067 l 0.4699,-1.12607 0.474133,1.12607 h 0.237067 l 0.948267,-2.20557 h -0.283633 z"
         style="font-size:4.23333359px;fill:#ffffff;fill-opacity:1;stroke-width:0.26458332"
         id="path199" />
      <path
         d="m 55.743744,292.88095 v -0.41487 h -0.249767 v 0.41487 z"
         style="font-size:4.23333359px;fill:#ffffff;fill-opacity:1;stroke-width:0.26458332"
         id="path201" />
      <path
         d="m 57.290828,292.92328 c 0.427566,0 0.804333,-0.2286 0.9398,-0.55033 l -0.249767,-0.0677 c -0.105833,0.23706 -0.389467,0.39793 -0.677333,0.39793 -0.423334,0 -0.778934,-0.34713 -0.817034,-0.82127 h 1.888067 c 0.0042,-0.0169 0.0042,-0.072 0.0042,-0.1143 0,-0.60536 -0.4445,-1.1303 -1.0922,-1.1303 -0.635,0 -1.100666,0.51647 -1.100666,1.13454 0,0.62653 0.465666,1.15146 1.1049,1.15146 z m -0.808567,-1.26153 c 0.02963,-0.46567 0.376767,-0.8001 0.808567,-0.8001 0.4318,0 0.7747,0.3302 0.8128,0.8001 z"
         style="font-size:4.23333359px;fill:#ffffff;fill-opacity:1;stroke-width:0.26458332"
         id="path203" />
      <path
         d="m 58.839767,292.47878 c 0,0.2667 0.1651,0.42757 0.427566,0.42757 0.1143,0 0.2921,-0.0339 0.397934,-0.0762 l -0.0508,-0.23283 c -0.07197,0.0296 -0.1651,0.0466 -0.2286,0.0466 -0.160867,0 -0.258234,-0.0974 -0.258234,-0.26246 v -2.5908 h -0.287866 z"
         style="font-size:4.23333359px;fill:#ffffff;fill-opacity:1;stroke-width:0.26458332"
         id="path205" />
      <path
         d="m 60.928847,292.92328 c 0.427567,0 0.804334,-0.2286 0.9398,-0.55033 l -0.249766,-0.0677 c -0.105834,0.23706 -0.389467,0.39793 -0.677334,0.39793 -0.423333,0 -0.778933,-0.34713 -0.817033,-0.82127 h 1.888067 c 0.0042,-0.0169 0.0042,-0.072 0.0042,-0.1143 0,-0.60536 -0.4445,-1.1303 -1.0922,-1.1303 -0.635,0 -1.100667,0.51647 -1.100667,1.13454 0,0.62653 0.465667,1.15146 1.1049,1.15146 z m -0.808567,-1.26153 c 0.02963,-0.46567 0.376767,-0.8001 0.808567,-0.8001 0.4318,0 0.7747,0.3302 0.8128,0.8001 z"
         style="font-size:4.23333359px;fill:#ffffff;fill-opacity:1;stroke-width:0.26458332"
         id="path207" />
      <path
         d="m 64.353153,292.88095 -0.935567,-1.29963 0.9017,-0.9017 H 63.99332 l -1.240367,1.21073 v -2.09973 h -0.287867 v 3.09033 h 0.287867 v -0.69003 l 0.474133,-0.44027 0.8128,1.1303 z"
         style="font-size:4.23333359px;fill:#ffffff;fill-opacity:1;stroke-width:0.26458332"
         id="path209" />
      <path
         d="m 65.687908,292.54228 c -0.03387,0.0212 -0.173567,0.0974 -0.334434,0.0974 -0.135466,0 -0.254,-0.0762 -0.2667,-0.23707 v -1.4986 h 0.508001 v -0.2286 h -0.508001 v -0.74506 h -0.287866 v 0.74506 h -0.3048 v 0.2286 h 0.3048 v 1.57904 c 0,0.28363 0.2159,0.42333 0.465666,0.42333 0.237067,0 0.431801,-0.1016 0.499534,-0.13123 z"
         style="font-size:4.23333359px;fill:#ffffff;fill-opacity:1;stroke-width:0.26458332"
         id="path211" />
      <path
         d="m 67.228579,290.66692 c -0.02117,-0.004 -0.03387,-0.004 -0.05503,-0.004 -0.313267,0 -0.6096,0.2032 -0.7747,0.54187 v -0.52917 h -0.270933 v 2.20557 h 0.287866 v -1.3716 c 0.118534,-0.3556 0.427567,-0.56727 0.8128,-0.57997 z"
         style="font-size:4.23333359px;fill:#ffffff;fill-opacity:1;stroke-width:0.26458332"
         id="path213" />
      <path
         d="m 68.448507,292.92328 c 0.639234,0 1.096434,-0.52493 1.096434,-1.13876 0,-0.61807 -0.461434,-1.14724 -1.096434,-1.14724 -0.630766,0 -1.0922,0.52917 -1.0922,1.14724 0,0.61383 0.452967,1.13876 1.0922,1.13876 z m -0.8001,-1.13453 c 0,-0.4953 0.364067,-0.89747 0.8001,-0.89747 0.440267,0 0.804334,0.39794 0.804334,0.889 0,0.49107 -0.364067,0.889 -0.804334,0.889 -0.440266,0 -0.8001,-0.38946 -0.8001,-0.88053 z"
         style="font-size:4.23333359px;fill:#ffffff;fill-opacity:1;stroke-width:0.26458332"
         id="path215" />
      <path
         d="m 70.04322,292.47878 c 0,0.2667 0.1651,0.42757 0.427566,0.42757 0.1143,0 0.2921,-0.0339 0.397934,-0.0762 l -0.0508,-0.23283 c -0.07197,0.0296 -0.1651,0.0466 -0.2286,0.0466 -0.160867,0 -0.258234,-0.0974 -0.258234,-0.26246 v -2.5908 H 70.04322 Z"
         style="font-size:4.23333359px;fill:#ffffff;fill-opacity:1;stroke-width:0.26458332"
         id="path217" />
      <path
         d="m 71.192496,292.47878 c 0,0.2667 0.1651,0.42757 0.427567,0.42757 0.1143,0 0.2921,-0.0339 0.397933,-0.0762 l -0.0508,-0.23283 c -0.07197,0.0296 -0.1651,0.0466 -0.2286,0.0466 -0.160866,0 -0.258233,-0.0974 -0.258233,-0.26246 v -2.5908 h -0.287867 z"
         style="font-size:4.23333359px;fill:#ffffff;fill-opacity:1;stroke-width:0.26458332"
         id="path219" />
      <path
         d="m 72.883647,292.92328 c 0.351367,0 0.677334,-0.14816 0.880534,-0.41063 l 0.0085,0.17357 c 0.0042,0.127 0.09313,0.20743 0.237067,0.20743 0.02963,0 0.0635,-0.004 0.110067,-0.0127 v -0.254 c -0.07197,0 -0.105834,-0.0381 -0.105834,-0.11853 v -0.99484 c 0,-0.5461 -0.338666,-0.8763 -0.889,-0.8763 -0.270933,0 -0.5461,0.0974 -0.829733,0.28787 l 0.1016,0.1905 c 0.2413,-0.16933 0.4826,-0.26247 0.706967,-0.26247 0.385233,0 0.6223,0.24554 0.6223,0.635 v 0.19897 c -0.182034,-0.072 -0.427567,-0.1143 -0.651934,-0.1143 -0.541866,0 -0.922866,0.27517 -0.922866,0.66463 0,0.38524 0.3175,0.6858 0.732366,0.6858 z m 0.06773,-0.22013 c -0.296334,0 -0.524934,-0.21167 -0.524934,-0.48683 0,-0.27517 0.2794,-0.46144 0.6858,-0.46144 0.211667,0 0.423334,0.0423 0.613834,0.1143 v 0.35984 c 0,0.0508 -0.0254,0.1143 -0.0762,0.1651 -0.127,0.18626 -0.402167,0.30903 -0.6985,0.30903 z"
         style="font-size:4.23333359px;fill:#ffffff;fill-opacity:1;stroke-width:0.26458332"
         id="path221" />
      <path
         d="m 75.736586,290.66692 c -0.02117,-0.004 -0.03387,-0.004 -0.05503,-0.004 -0.313267,0 -0.6096,0.2032 -0.7747,0.54187 v -0.52917 H 74.63592 v 2.20557 h 0.287866 v -1.3716 c 0.118534,-0.3556 0.427567,-0.56727 0.8128,-0.57997 z"
         style="font-size:4.23333359px;fill:#ffffff;fill-opacity:1;stroke-width:0.26458332"
         id="path223" />
      <path
         d="m 77.106334,292.54228 c -0.03387,0.0212 -0.173566,0.0974 -0.334433,0.0974 -0.135467,0 -0.254,-0.0762 -0.2667,-0.23707 v -1.4986 h 0.508 v -0.2286 h -0.508 v -0.74506 h -0.287867 v 0.74506 h -0.3048 v 0.2286 h 0.3048 v 1.57904 c 0,0.28363 0.2159,0.42333 0.465667,0.42333 0.237067,0 0.4318,-0.1016 0.499533,-0.13123 z"
         style="font-size:4.23333359px;fill:#ffffff;fill-opacity:1;stroke-width:0.26458332"
         id="path225" />
      <path
         d="m 77.753769,292.88095 v -0.41487 h -0.249767 v 0.41487 z"
         style="font-size:4.23333359px;fill:#ffffff;fill-opacity:1;stroke-width:0.26458332"
         id="path227" />
      <path
         d="m 79.254286,292.92328 c 0.321733,0 0.6477,-0.18203 0.821267,-0.4699 v 0.2159 c 0,0.12277 0.118533,0.22437 0.254,0.22437 0.02963,0 0.05927,-0.004 0.1016,-0.0127 v -0.254 c -0.07197,0 -0.1016,-0.0381 -0.1016,-0.11853 v -2.7178 h -0.287867 v 1.3462 c -0.1651,-0.27517 -0.465667,-0.49954 -0.833967,-0.49954 -0.5842,0 -1.007533,0.52494 -1.007533,1.14724 0,0.59266 0.440267,1.13876 1.0541,1.13876 z m 0.0635,-0.254 c -0.461433,0 -0.821267,-0.4064 -0.821267,-0.88476 0,-0.45297 0.309034,-0.89324 0.783167,-0.89324 0.3048,0 0.651933,0.24554 0.762,0.55034 v 0.68156 c -0.04657,0.30057 -0.436033,0.5461 -0.7239,0.5461 z"
         style="font-size:4.23333359px;fill:#ffffff;fill-opacity:1;stroke-width:0.26458332"
         id="path229" />
      <path
         d="m 81.930156,292.92328 c 0.427566,0 0.804333,-0.2286 0.9398,-0.55033 l -0.249767,-0.0677 c -0.105833,0.23706 -0.389467,0.39793 -0.677333,0.39793 -0.423334,0 -0.778934,-0.34713 -0.817034,-0.82127 h 1.888067 c 0.0042,-0.0169 0.0042,-0.072 0.0042,-0.1143 0,-0.60536 -0.4445,-1.1303 -1.0922,-1.1303 -0.635,0 -1.100666,0.51647 -1.100666,1.13454 0,0.62653 0.465666,1.15146 1.1049,1.15146 z m -0.808567,-1.26153 c 0.02963,-0.46567 0.376767,-0.8001 0.808567,-0.8001 0.4318,0 0.7747,0.3302 0.8128,0.8001 z"
         style="font-size:4.23333359px;fill:#ffffff;fill-opacity:1;stroke-width:0.26458332"
         id="path231" />
      <path
         d="m 85.26132,289.87528 -1.998133,3.00567 h 0.325967 l 1.998133,-3.00567 z"
         style="font-size:4.23333359px;fill:#ffffff;fill-opacity:1;stroke-width:0.26458332"
         id="path233" />
      <path
         d="m 86.60124,292.02582 c 0,-0.4064 0.186266,-0.51647 0.385233,-0.62654 0.287867,-0.15663 0.5715,-0.3048 0.5715,-0.75353 0,-0.5461 -0.410633,-0.80857 -0.8255,-0.80857 -0.3683,0 -0.728134,0.19897 -0.884767,0.5461 l 0.198967,0.127 c 0.122766,-0.2413 0.381,-0.4318 0.681567,-0.4318 0.2921,0 0.575733,0.18204 0.575733,0.55034 0,0.41486 -0.364067,0.54186 -0.588433,0.67733 -0.245534,0.14817 -0.359834,0.34713 -0.359834,0.71967 z m 0.0085,0.85513 v -0.45297 h -0.249767 v 0.45297 z"
         style="font-size:4.23333359px;fill:#ffffff;fill-opacity:1;stroke-width:0.26458332"
         id="path235" />
      <path
         d="m 89.164788,292.92328 c 0.592667,0 0.999067,-0.5207 0.999067,-1.143 0,-0.58843 -0.440267,-1.143 -1.045634,-1.143 -0.334433,0 -0.643466,0.1905 -0.821266,0.46567 v -0.42757 h -0.258234 v 3.10727 h 0.287867 v -1.3589 c 0.173567,0.28363 0.4699,0.49953 0.8382,0.49953 z m -0.08043,-0.254 c -0.325967,0 -0.626534,-0.2413 -0.757767,-0.55456 v -0.67734 c 0.04233,-0.29633 0.436033,-0.5461 0.7239,-0.5461 0.461433,0 0.821267,0.41487 0.821267,0.889 0,0.44874 -0.309034,0.889 -0.7874,0.889 z"
         style="font-size:4.23333359px;fill:#ffffff;fill-opacity:1;stroke-width:0.26458332"
         id="path237" />
      <path
         d="m 91.900317,292.05968 v -0.20743 H 90.62185 v 0.20743 z m 0,-0.48683 v -0.20743 H 90.62185 v 0.20743 z"
         style="font-size:4.23333359px;fill:#ffffff;fill-opacity:1;stroke-width:0.26458332"
         id="path239" />
      <path
         d="m 93.980998,293.41858 v -0.75353 h 0.372534 v -0.26247 h -0.372534 v -1.93886 h -0.194733 l -1.502833,1.94733 v 0.254 h 1.4097 v 0.75353 z m -0.258233,-2.5019 v 1.4859 h -1.134533 z"
         style="font-size:4.23333359px;fill:#ffffff;fill-opacity:1;stroke-width:0.26458332"
         id="path241" />
      <path
         d="m 94.79929,293.41858 h 0.3302 l 1.519767,-3.00566 H 94.57069 v 0.2667 h 1.621367 z"
         style="font-size:4.23333359px;fill:#ffffff;fill-opacity:1;stroke-width:0.26458332"
         id="path243" />
      <path
         d="m 98.222598,293.41858 v -0.75353 h 0.372534 v -0.26247 h -0.372534 v -1.93886 h -0.194733 l -1.502833,1.94733 v 0.254 h 1.4097 v 0.75353 z m -0.258233,-2.5019 v 1.4859 h -1.134533 z"
         style="font-size:4.23333359px;fill:#ffffff;fill-opacity:1;stroke-width:0.26458332"
         id="path245" />
      <path
         d="m 99.923867,292.61848 v -2.15476 h -0.296334 c -0.0254,0.0508 -0.427566,0.40216 -0.690033,0.40216 v 0.2794 c 0.220133,0 0.5969,-0.20743 0.690033,-0.33866 v 1.81186 H 99.0264 v 0.26247 h 1.4351 v -0.26247 z"
         style="font-size:4.23333359px;fill:#ffffff;fill-opacity:1;stroke-width:0.26458332"
         id="path247" />
    </g>
  </g>
</svg>
