<?xml version="1.0" encoding="UTF-8" standalone="no"?>
<svg
   xmlns:dc="http://purl.org/dc/elements/1.1/"
   xmlns:cc="http://creativecommons.org/ns#"
   xmlns:rdf="http://www.w3.org/1999/02/22-rdf-syntax-ns#"
   xmlns:svg="http://www.w3.org/2000/svg"
   xmlns="http://www.w3.org/2000/svg"
   width="288"
   height="64"
   viewBox="0 0 76.199999 16.933334"
   version="1.1"
   id="svg8">
  <defs
     id="defs2" />
  <metadata
     id="metadata5">
    <rdf:RDF>
      <cc:Work
         rdf:about="">
        <dc:format>image/svg+xml</dc:format>
        <dc:type
           rdf:resource="http://purl.org/dc/dcmitype/StillImage" />
        <dc:title></dc:title>
      </cc:Work>
    </rdf:RDF>
  </metadata>
  <g
     id="layer1"
     transform="translate(0,-280.06665)">
    <path
       style="fill:none;stroke:#000000;stroke-width:0.39687502;stroke-linecap:butt;stroke-linejoin:miter;stroke-miterlimit:4;stroke-dasharray:none;stroke-opacity:1"
       d="m 8.4666684,282.17669 a 7.4083335,6.3499999 0 0 0 -7.4083335,6.35 7.4083335,6.3499999 0 0 0 7.4083335,6.35 7.4083335,6.3499999 0 0 0 5.6425496,-2.23707 l 3.124874,-0.91881 -1.6738,-1.37098 a 7.4083335,6.3499999 0 0 0 0.31471,-1.82314 7.4083335,6.3499999 0 0 0 -7.4083336,-6.35 z"
       id="path4571" />
    <g
       transform="translate(-3.4895108,-20.816074)"
       aria-label="Xyrillian Thoughts"
       style="font-style:normal;font-variant:normal;font-weight:normal;font-stretch:normal;font-size:6.48190069px;line-height:7.20211172px;font-family:Raleway;-inkscape-font-specification:Raleway;text-align:start;letter-spacing:0px;word-spacing:0px;text-anchor:start;fill:#000000;fill-opacity:1;stroke:none;stroke-width:0.28808448px;stroke-linecap:butt;stroke-linejoin:miter;stroke-opacity:1"
       id="text875">
      <path
         d="m 22.539512,304.49239 1.769559,2.33349 -1.717703,2.26866 h 0.51207 l 1.458427,-1.94457 1.458428,1.94457 h 0.499106 l -1.717703,-2.26866 1.769559,-2.33349 h -0.499107 l -1.510283,2.00939 -1.510282,-2.00939 z"
         style="font-style:normal;font-variant:normal;font-weight:normal;font-stretch:normal;font-family:Raleway;-inkscape-font-specification:Raleway;text-align:start;text-anchor:start;stroke-width:0.28808448px"
         id="path72" />
      <path
         d="m 27.150271,310.52056 c 0.110192,0.0195 0.181493,0.0195 0.265758,0.0195 0.37595,0 0.589853,-0.21391 0.687081,-0.4667 l 1.750113,-4.35584 H 29.4319 l -1.16026,2.96871 -1.251007,-2.96871 H 26.5669 l 1.471391,3.37707 c -0.388914,0.9334 -0.388914,1.05007 -0.693563,1.05007 -0.05834,0 -0.129638,-0.006 -0.194457,-0.013 z"
         style="font-style:normal;font-variant:normal;font-weight:normal;font-stretch:normal;font-family:Raleway;-inkscape-font-specification:Raleway;text-align:start;text-anchor:start;stroke-width:0.28808448px"
         id="path74" />
      <path
         d="m 32.160577,305.70451 c -0.03241,-0.006 -0.05186,-0.006 -0.08426,-0.006 -0.479661,0 -0.933394,0.31113 -1.186188,0.82968 v -0.81024 h -0.414842 v 3.37707 h 0.440769 v -2.10013 c 0.181494,-0.54448 0.654672,-0.86858 1.244525,-0.88802 z"
         style="font-style:normal;font-variant:normal;font-weight:normal;font-stretch:normal;font-family:Raleway;-inkscape-font-specification:Raleway;text-align:start;text-anchor:start;stroke-width:0.28808448px"
         id="path76" />
      <path
         d="m 33.194846,309.09454 v -3.37707 h -0.44077 v 3.37707 z m 0,-4.08359 v -0.64819 h -0.44077 v 0.64819 z"
         style="font-style:normal;font-variant:normal;font-weight:normal;font-stretch:normal;font-family:Raleway;-inkscape-font-specification:Raleway;text-align:start;text-anchor:start;stroke-width:0.28808448px"
         id="path78" />
      <path
         d="m 34.191438,308.47876 c 0,0.40836 0.252795,0.65467 0.654672,0.65467 0.175012,0 0.447252,-0.0519 0.609299,-0.11667 l -0.07778,-0.3565 c -0.110192,0.0454 -0.252794,0.0713 -0.350022,0.0713 -0.246313,0 -0.395396,-0.14909 -0.395396,-0.40188 v -3.96692 h -0.44077 z"
         style="font-style:normal;font-variant:normal;font-weight:normal;font-stretch:normal;font-family:Raleway;-inkscape-font-specification:Raleway;text-align:start;text-anchor:start;stroke-width:0.28808448px"
         id="path80" />
      <path
         d="m 35.951173,308.47876 c 0,0.40836 0.252794,0.65467 0.654672,0.65467 0.175011,0 0.447251,-0.0519 0.609298,-0.11667 l -0.07778,-0.3565 c -0.110192,0.0454 -0.252794,0.0713 -0.350022,0.0713 -0.246312,0 -0.395396,-0.14909 -0.395396,-0.40188 v -3.96692 h -0.440769 z"
         style="font-style:normal;font-variant:normal;font-weight:normal;font-stretch:normal;font-family:Raleway;-inkscape-font-specification:Raleway;text-align:start;text-anchor:start;stroke-width:0.28808448px"
         id="path82" />
      <path
         d="m 38.132231,309.09454 v -3.37707 h -0.440769 v 3.37707 z m 0,-4.08359 v -0.64819 h -0.440769 v 0.64819 z"
         style="font-style:normal;font-variant:normal;font-weight:normal;font-stretch:normal;font-family:Raleway;-inkscape-font-specification:Raleway;text-align:start;text-anchor:start;stroke-width:0.28808448px"
         id="path84" />
      <path
         d="m 39.958507,309.15936 c 0.537998,0 1.037104,-0.22686 1.348236,-0.62874 l 0.01296,0.26576 c 0.0065,0.19445 0.142602,0.31761 0.362987,0.31761 0.04537,0 0.09723,-0.006 0.168529,-0.0195 v -0.38891 c -0.110192,0 -0.162047,-0.0583 -0.162047,-0.18149 v -1.52325 c 0,-0.83617 -0.518552,-1.34175 -1.361199,-1.34175 -0.414842,0 -0.836166,0.14908 -1.270453,0.44077 l 0.155566,0.29168 c 0.369468,-0.25928 0.738936,-0.40188 1.082477,-0.40188 0.589853,0 0.952839,0.37595 0.952839,0.97229 v 0.30465 c -0.278721,-0.11019 -0.654671,-0.17501 -0.998212,-0.17501 -0.829684,0 -1.413055,0.42132 -1.413055,1.01765 0,0.58986 0.486143,1.05007 1.121369,1.05007 z m 0.103711,-0.33706 c -0.453733,0 -0.803756,-0.32409 -0.803756,-0.74541 0,-0.42133 0.427805,-0.70653 1.050068,-0.70653 0.324095,0 0.64819,0.0648 0.939875,0.17501 v 0.55096 c 0,0.0778 -0.03889,0.17501 -0.116674,0.25279 -0.194457,0.28521 -0.61578,0.47318 -1.069513,0.47318 z"
         style="font-style:normal;font-variant:normal;font-weight:normal;font-stretch:normal;font-family:Raleway;-inkscape-font-specification:Raleway;text-align:start;text-anchor:start;stroke-width:0.28808448px"
         id="path86" />
      <path
         d="m 45.48058,307.11756 c 0,-0.88802 -0.252794,-1.45842 -1.004695,-1.45842 -0.602816,0 -1.16026,0.33057 -1.4325,0.8232 v -0.76487 h -0.401877 v 3.37707 h 0.440769 v -2.06772 c 0.162047,-0.55745 0.713009,-0.96581 1.231561,-0.96581 0.492624,0 0.725973,0.35003 0.725973,1.1473 v 1.88623 h 0.440769 z"
         style="font-style:normal;font-variant:normal;font-weight:normal;font-stretch:normal;font-family:Raleway;-inkscape-font-specification:Raleway;text-align:start;text-anchor:start;stroke-width:0.28808448px"
         id="path88" />
      <path
         d="m 51.265676,304.49239 h -3.733574 v 0.40188 h 1.639921 v 4.20027 h 0.453733 v -4.20027 h 1.63992 z"
         style="font-style:normal;font-variant:normal;font-weight:normal;font-stretch:normal;font-family:Raleway;-inkscape-font-specification:Raleway;text-align:start;text-anchor:start;stroke-width:0.28808448px"
         id="path90" />
      <path
         d="m 54.697032,307.11756 c 0,-0.86857 -0.298168,-1.45842 -1.069514,-1.45842 -0.550961,0 -1.063032,0.31761 -1.32879,0.8232 v -2.11958 h -0.440769 v 4.73178 h 0.440769 v -2.06772 c 0.155566,-0.55096 0.6806,-0.96581 1.179706,-0.96581 0.505589,0 0.777828,0.38244 0.777828,1.1473 v 1.88623 h 0.44077 z"
         style="font-style:normal;font-variant:normal;font-weight:normal;font-stretch:normal;font-family:Raleway;-inkscape-font-specification:Raleway;text-align:start;text-anchor:start;stroke-width:0.28808448px"
         id="path92" />
      <path
         d="m 57.082271,309.15936 c 0.978767,0 1.678812,-0.80375 1.678812,-1.74363 0,-0.94636 -0.706527,-1.75659 -1.678812,-1.75659 -0.965803,0 -1.67233,0.81023 -1.67233,1.75659 0,0.93988 0.693563,1.74363 1.67233,1.74363 z m -1.225079,-1.73715 c 0,-0.75838 0.557443,-1.37416 1.225079,-1.37416 0.674118,0 1.231561,0.6093 1.231561,1.3612 0,0.7519 -0.557443,1.3612 -1.231561,1.3612 -0.674118,0 -1.225079,-0.59634 -1.225079,-1.34824 z"
         style="font-style:normal;font-variant:normal;font-weight:normal;font-stretch:normal;font-family:Raleway;-inkscape-font-specification:Raleway;text-align:start;text-anchor:start;stroke-width:0.28808448px"
         id="path94" />
      <path
         d="m 60.561125,309.15936 c 0.570407,0 1.114887,-0.30465 1.406572,-0.82968 v 0.38891 c 0,0.23335 0.142602,0.38244 0.350023,0.38892 0.02593,0 0.09075,0 0.194457,-0.013 v -0.38891 c -0.110192,0 -0.155566,-0.0583 -0.155566,-0.18149 v -2.80667 h -0.440769 v 2.12607 c -0.200939,0.56392 -0.700045,0.92691 -1.218597,0.92691 -0.525034,0 -0.78431,-0.37595 -0.78431,-1.1473 v -1.90568 h -0.440769 v 1.98346 c 0,0.95933 0.362986,1.45843 1.088959,1.45843 z"
         style="font-style:normal;font-variant:normal;font-weight:normal;font-stretch:normal;font-family:Raleway;-inkscape-font-specification:Raleway;text-align:start;text-anchor:start;stroke-width:0.28808448px"
         id="path96" />
      <path
         d="m 64.707921,309.13992 c 0.486143,0 0.978767,-0.27224 1.238043,-0.70005 v 0.66764 c 0,0.72597 -0.557443,1.08247 -1.212115,1.08247 -0.505588,0 -0.978767,-0.20093 -1.244525,-0.62874 l -0.27224,0.2139 c 0.298168,0.4667 0.738937,0.76487 1.516765,0.76487 0.900984,0 1.652885,-0.49263 1.652885,-1.4325 v -3.39004 h -0.395396 v 0.70653 c -0.298168,-0.43429 -0.719491,-0.76486 -1.29638,-0.76486 -0.926912,0 -1.56862,0.81672 -1.56862,1.75659 0,0.88802 0.654672,1.72419 1.581583,1.72419 z m 0.123157,-0.36947 c -0.700046,0 -1.257489,-0.62226 -1.257489,-1.34824 0,-0.66763 0.453733,-1.37416 1.205633,-1.37416 0.486143,0 0.978767,0.3565 1.166742,0.84265 v 1.04358 c -0.07778,0.41484 -0.589853,0.83617 -1.114886,0.83617 z"
         style="font-style:normal;font-variant:normal;font-weight:normal;font-stretch:normal;font-family:Raleway;-inkscape-font-specification:Raleway;text-align:start;text-anchor:start;stroke-width:0.28808448px"
         id="path98" />
      <path
         d="m 70.192826,307.11756 c 0,-0.86857 -0.298167,-1.45842 -1.069514,-1.45842 -0.550961,0 -1.063031,0.31761 -1.328789,0.8232 v -2.11958 h -0.44077 v 4.73178 h 0.44077 v -2.06772 c 0.155565,-0.55096 0.680599,-0.96581 1.179706,-0.96581 0.505588,0 0.777828,0.38244 0.777828,1.1473 v 1.88623 h 0.440769 z"
         style="font-style:normal;font-variant:normal;font-weight:normal;font-stretch:normal;font-family:Raleway;-inkscape-font-specification:Raleway;text-align:start;text-anchor:start;stroke-width:0.28808448px"
         id="path100" />
      <path
         d="m 72.604903,308.57599 c -0.05185,0.0324 -0.265758,0.14909 -0.51207,0.14909 -0.207421,0 -0.388914,-0.11668 -0.40836,-0.36299 v -2.29459 h 0.777828 v -0.35003 h -0.777828 v -1.14081 h -0.440769 v 1.14081 h -0.466697 v 0.35003 h 0.466697 v 2.41774 c 0,0.43429 0.330577,0.64819 0.713009,0.64819 0.362987,0 0.661154,-0.15556 0.764864,-0.20093 z"
         style="font-style:normal;font-variant:normal;font-weight:normal;font-stretch:normal;font-family:Raleway;-inkscape-font-specification:Raleway;text-align:start;text-anchor:start;stroke-width:0.28808448px"
         id="path102" />
      <path
         d="m 74.399984,309.15936 c 0.797274,0 1.315826,-0.39539 1.315826,-1.01117 0,-0.57689 -0.447251,-0.74542 -1.315826,-0.95284 -0.602817,-0.14261 -0.842647,-0.22039 -0.842647,-0.57689 0,-0.44077 0.369468,-0.62875 0.829683,-0.62875 0.382433,0 0.764865,0.12964 1.017659,0.38892 l 0.213903,-0.25928 c -0.259276,-0.27224 -0.700046,-0.46021 -1.218598,-0.46021 -0.693563,0 -1.26397,0.34354 -1.26397,1.02414 0,0.53151 0.350022,0.66763 1.134332,0.86209 0.6806,0.16205 1.017659,0.26576 1.017659,0.64171 0,0.40188 -0.356505,0.63522 -0.894503,0.63522 -0.447251,0 -0.836165,-0.15556 -1.212115,-0.46669 l -0.200939,0.29816 c 0.362986,0.33058 0.894502,0.50559 1.419536,0.50559 z"
         style="font-style:normal;font-variant:normal;font-weight:normal;font-stretch:normal;font-family:Raleway;-inkscape-font-specification:Raleway;text-align:start;text-anchor:start;stroke-width:0.28808448px"
         id="path104" />
    </g>
    <g
       transform="translate(-3.4895108,-20.816074)"
       aria-label="Stefan Majewsky's personal blog"
       style="font-style:normal;font-variant:normal;font-weight:300;font-stretch:normal;font-size:4.54546881px;line-height:5.0505209px;font-family:Raleway;-inkscape-font-specification:'Raleway Light';text-align:start;letter-spacing:0px;word-spacing:0px;text-anchor:start;fill:#241c1c;fill-opacity:1;stroke:none;stroke-width:0.20202087px;stroke-linecap:butt;stroke-linejoin:miter;stroke-opacity:1"
       id="text881">
      <path
         d="m 24.325552,311.8909 c -0.208431,-0.19765 -0.463579,-0.29827 -0.794194,-0.29827 -0.535452,0 -0.902003,0.25515 -0.902003,0.71513 0,0.41686 0.294678,0.53905 0.837318,0.65404 0.539045,0.115 0.801381,0.23 0.801381,0.5678 0,0.32702 -0.269523,0.49233 -0.71154,0.49233 -0.388113,0 -0.707947,-0.14375 -0.919972,-0.36655 l -0.09703,0.14733 c 0.27671,0.25515 0.610918,0.38093 1.009812,0.38093 0.54264,0 0.912785,-0.2264 0.912785,-0.6756 0,-0.4528 -0.348583,-0.58936 -0.89841,-0.70436 -0.524671,-0.1114 -0.747477,-0.19405 -0.747477,-0.52107 0,-0.31984 0.215618,-0.52468 0.715134,-0.52468 0.305459,0 0.535452,0.0934 0.70076,0.27671 z"
         style="font-style:normal;font-variant:normal;font-weight:300;font-stretch:normal;font-size:3.59363914px;line-height:4.49204874px;font-family:Raleway;-inkscape-font-specification:'Raleway Light';text-align:start;text-anchor:start;fill:#241c1c;stroke-width:0.20202087px"
         id="path15" />
      <path
         d="m 25.62864,313.92849 c -0.02156,0.0144 -0.143746,0.0863 -0.291085,0.0863 -0.11859,0 -0.233587,-0.0683 -0.233587,-0.20843 v -1.36558 h 0.434831 v -0.14734 h -0.434831 v -0.63967 h -0.179682 v 0.63967 h -0.262335 v 0.14734 h 0.262335 v 1.4087 c 0,0.21562 0.168901,0.33421 0.366551,0.33421 0.201244,0 0.355771,-0.0898 0.391707,-0.1114 z"
         style="font-style:normal;font-variant:normal;font-weight:300;font-stretch:normal;font-size:3.59363914px;line-height:4.49204874px;font-family:Raleway;-inkscape-font-specification:'Raleway Light';text-align:start;text-anchor:start;fill:#241c1c;stroke-width:0.20202087px"
         id="path17" />
      <path
         d="m 26.74497,314.19802 c 0.344989,0 0.664823,-0.19406 0.772632,-0.45999 l -0.15812,-0.0431 c -0.09343,0.21202 -0.348583,0.35936 -0.607325,0.35936 -0.388113,0 -0.711541,-0.32343 -0.743883,-0.75466 h 1.638699 c 0.0036,-0.0108 0.0036,-0.0539 0.0036,-0.0791 0,-0.52108 -0.388113,-0.95951 -0.916378,-0.95951 -0.521078,0 -0.912784,0.43124 -0.912784,0.95951 0,0.53185 0.398893,0.97747 0.923565,0.97747 z m -0.74029,-1.04216 c 0.02516,-0.43483 0.337802,-0.74748 0.733102,-0.74748 0.395301,0 0.707947,0.30906 0.74029,0.74748 z"
         style="font-style:normal;font-variant:normal;font-weight:300;font-stretch:normal;font-size:3.59363914px;line-height:4.49204874px;font-family:Raleway;-inkscape-font-specification:'Raleway Light';text-align:start;text-anchor:start;fill:#241c1c;stroke-width:0.20202087px"
         id="path19" />
      <path
         d="m 28.290684,314.16208 v -1.72135 h 0.531859 v -0.14734 h -0.531859 v -0.0647 c 0,-0.36655 0.136558,-0.56779 0.380926,-0.56779 0.104215,0 0.212024,0.0359 0.27671,0.0898 l 0.06469,-0.12937 c -0.08625,-0.0719 -0.229992,-0.11859 -0.373738,-0.11859 -0.327021,0 -0.528265,0.27311 -0.528265,0.7295 v 0.0611 h -0.262336 v 0.14734 h 0.262336 v 1.72135 z"
         style="font-style:normal;font-variant:normal;font-weight:300;font-stretch:normal;font-size:3.59363914px;line-height:4.49204874px;font-family:Raleway;-inkscape-font-specification:'Raleway Light';text-align:start;text-anchor:start;fill:#241c1c;stroke-width:0.20202087px"
         id="path21" />
      <path
         d="m 29.604327,314.19802 c 0.309053,0 0.592951,-0.12578 0.765445,-0.34859 v 0.15453 c 0.0072,0.0898 0.07187,0.16531 0.165308,0.16531 0.01797,0 0.05031,-0.004 0.07187,-0.007 v -0.16171 c -0.0539,0 -0.07906,-0.0288 -0.07906,-0.0898 v -0.91278 c 0,-0.45639 -0.27671,-0.7367 -0.725915,-0.7367 -0.219212,0 -0.445611,0.0827 -0.682791,0.24437 l 0.06828,0.12218 c 0.208431,-0.14374 0.416862,-0.2228 0.600138,-0.2228 0.344989,0 0.560607,0.2264 0.560607,0.57858 v 0.18327 c -0.161713,-0.0611 -0.380925,-0.10062 -0.578575,-0.10062 -0.459986,0 -0.77982,0.22999 -0.77982,0.55342 0,0.32702 0.269523,0.57858 0.614512,0.57858 z m 0.03594,-0.14375 c -0.269523,0 -0.477954,-0.19406 -0.477954,-0.44561 0,-0.24796 0.255148,-0.41686 0.625293,-0.41686 0.19765,0 0.388113,0.0359 0.560607,0.10062 v 0.33061 c 0,0.0431 -0.02156,0.097 -0.0575,0.14375 -0.125777,0.17249 -0.373738,0.28749 -0.650448,0.28749 z"
         style="font-style:normal;font-variant:normal;font-weight:300;font-stretch:normal;font-size:3.59363914px;line-height:4.49204874px;font-family:Raleway;-inkscape-font-specification:'Raleway Light';text-align:start;text-anchor:start;fill:#241c1c;stroke-width:0.20202087px"
         id="path23" />
      <path
         d="m 32.601816,313.08758 c 0,-0.52826 -0.150933,-0.82654 -0.557014,-0.82654 -0.330615,0 -0.650449,0.19406 -0.801382,0.47796 v -0.44561 h -0.168901 v 1.86869 h 0.179682 v -1.15715 c 0.09703,-0.33062 0.424049,-0.57858 0.74029,-0.57858 0.294678,0 0.427643,0.21203 0.427643,0.69357 v 1.04216 h 0.179682 z"
         style="font-style:normal;font-variant:normal;font-weight:300;font-stretch:normal;font-size:3.59363914px;line-height:4.49204874px;font-family:Raleway;-inkscape-font-specification:'Raleway Light';text-align:start;text-anchor:start;fill:#241c1c;stroke-width:0.20202087px"
         id="path25" />
      <path
         d="m 36.619448,314.16208 v -2.55148 h -0.183276 l -1.063717,1.82556 -1.063717,-1.82556 h -0.183276 v 2.55148 h 0.183276 v -2.2065 l 1.006219,1.72136 h 0.114996 l 1.006219,-1.72136 v 2.2065 z"
         style="font-style:normal;font-variant:normal;font-weight:300;font-stretch:normal;font-size:3.59363914px;line-height:4.49204874px;font-family:Raleway;-inkscape-font-specification:'Raleway Light';text-align:start;text-anchor:start;fill:#241c1c;stroke-width:0.20202087px"
         id="path27" />
      <path
         d="m 37.675978,314.19802 c 0.309053,0 0.59295,-0.12578 0.765445,-0.34859 v 0.15453 c 0.0072,0.0898 0.07187,0.16531 0.165307,0.16531 0.01797,0 0.05031,-0.004 0.07187,-0.007 v -0.16171 c -0.05391,0 -0.07906,-0.0288 -0.07906,-0.0898 v -0.91278 c 0,-0.45639 -0.27671,-0.7367 -0.725915,-0.7367 -0.219212,0 -0.445611,0.0827 -0.682792,0.24437 l 0.06828,0.12218 c 0.208431,-0.14374 0.416862,-0.2228 0.600137,-0.2228 0.34499,0 0.560608,0.2264 0.560608,0.57858 v 0.18327 c -0.161714,-0.0611 -0.380926,-0.10062 -0.578576,-0.10062 -0.459986,0 -0.77982,0.22999 -0.77982,0.55342 0,0.32702 0.269523,0.57858 0.614513,0.57858 z m 0.03594,-0.14375 c -0.269523,0 -0.477954,-0.19406 -0.477954,-0.44561 0,-0.24796 0.255148,-0.41686 0.625293,-0.41686 0.19765,0 0.388113,0.0359 0.560608,0.10062 v 0.33061 c 0,0.0431 -0.02156,0.097 -0.0575,0.14375 -0.125778,0.17249 -0.373739,0.28749 -0.650449,0.28749 z"
         style="font-style:normal;font-variant:normal;font-weight:300;font-stretch:normal;font-size:3.59363914px;line-height:4.49204874px;font-family:Raleway;-inkscape-font-specification:'Raleway Light';text-align:start;text-anchor:start;fill:#241c1c;stroke-width:0.20202087px"
         id="path29" />
      <path
         d="m 38.829929,314.79815 c 0.258742,0 0.524672,-0.2228 0.524672,-0.53545 v -1.96931 h -0.179682 v 1.9765 c 0,0.20843 -0.183276,0.36296 -0.362958,0.36296 -0.09343,0 -0.19765,-0.018 -0.27671,-0.0863 l -0.09703,0.11859 c 0.104215,0.097 0.240773,0.13296 0.391706,0.13296 z m 0.524672,-2.92881 v -0.33062 h -0.179682 v 0.33062 z"
         style="font-style:normal;font-variant:normal;font-weight:300;font-stretch:normal;font-size:3.59363914px;line-height:4.49204874px;font-family:Raleway;-inkscape-font-specification:'Raleway Light';text-align:start;text-anchor:start;fill:#241c1c;stroke-width:0.20202087px"
         id="path31" />
      <path
         d="m 40.712434,314.19802 c 0.344989,0 0.664823,-0.19406 0.772632,-0.45999 l -0.15812,-0.0431 c -0.09343,0.21202 -0.348583,0.35936 -0.607325,0.35936 -0.388113,0 -0.711541,-0.32343 -0.743883,-0.75466 h 1.638699 c 0.0036,-0.0108 0.0036,-0.0539 0.0036,-0.0791 0,-0.52108 -0.388113,-0.95951 -0.916378,-0.95951 -0.521078,0 -0.912785,0.43124 -0.912785,0.95951 0,0.53185 0.398894,0.97747 0.923566,0.97747 z m -0.74029,-1.04216 c 0.02516,-0.43483 0.337802,-0.74748 0.733102,-0.74748 0.395301,0 0.707947,0.30906 0.74029,0.74748 z"
         style="font-style:normal;font-variant:normal;font-weight:300;font-stretch:normal;font-size:3.59363914px;line-height:4.49204874px;font-family:Raleway;-inkscape-font-specification:'Raleway Light';text-align:start;text-anchor:start;fill:#241c1c;stroke-width:0.20202087px"
         id="path33" />
      <path
         d="m 43.624405,313.96443 -0.391707,-0.91997 0.31624,-0.74748 h -0.15812 l -0.255148,0.61811 -0.258742,-0.61811 h -0.154527 l 0.316241,0.74748 -0.391707,0.91997 -0.715134,-1.67104 h -0.176089 l 0.808569,1.86869 h 0.150933 l 0.420456,-0.98825 0.420456,0.98825 h 0.150932 l 0.808569,-1.86869 h -0.179682 z"
         style="font-style:normal;font-variant:normal;font-weight:300;font-stretch:normal;font-size:3.59363914px;line-height:4.49204874px;font-family:Raleway;-inkscape-font-specification:'Raleway Light';text-align:start;text-anchor:start;fill:#241c1c;stroke-width:0.20202087px"
         id="path35" />
      <path
         d="m 45.410331,314.19802 c 0.434831,0 0.718728,-0.21562 0.718728,-0.54983 0,-0.32343 -0.258742,-0.40608 -0.729509,-0.51749 -0.344989,-0.0827 -0.488735,-0.12577 -0.488735,-0.34139 0,-0.26952 0.2264,-0.38452 0.50311,-0.38452 0.222806,0 0.438424,0.0719 0.560608,0.21562 l 0.100622,-0.097 c -0.122184,-0.15453 -0.359364,-0.26234 -0.650449,-0.26234 -0.373739,0 -0.686385,0.17969 -0.686385,0.55342 0,0.29468 0.194056,0.36296 0.618106,0.46358 0.391706,0.0934 0.596544,0.15453 0.596544,0.38812 0,0.24436 -0.219212,0.38811 -0.54264,0.38811 -0.255148,0 -0.467173,-0.0862 -0.668417,-0.26593 l -0.08984,0.12218 c 0.194057,0.19047 0.470767,0.2875 0.758258,0.2875 z"
         style="font-style:normal;font-variant:normal;font-weight:300;font-stretch:normal;font-size:3.59363914px;line-height:4.49204874px;font-family:Raleway;-inkscape-font-specification:'Raleway Light';text-align:start;text-anchor:start;fill:#241c1c;stroke-width:0.20202087px"
         id="path37" />
      <path
         d="m 48.09287,314.16208 -0.804975,-1.10684 0.77982,-0.75826 h -0.208431 l -1.13559,1.0745 v -1.83276 h -0.179682 v 2.62336 h 0.179682 v -0.59295 l 0.442018,-0.40608 0.729508,0.99903 z"
         style="font-style:normal;font-variant:normal;font-weight:300;font-stretch:normal;font-size:3.59363914px;line-height:4.49204874px;font-family:Raleway;-inkscape-font-specification:'Raleway Light';text-align:start;text-anchor:start;fill:#241c1c;stroke-width:0.20202087px"
         id="path39" />
      <path
         d="m 48.543817,314.95987 c 0.02516,0.004 0.04672,0.004 0.06469,0.004 0.201244,0 0.312647,-0.0791 0.366551,-0.21202 l 1.024187,-2.45805 h -0.176088 l -0.693572,1.6926 -0.743884,-1.6926 h -0.186869 l 0.833725,1.86869 c -0.2264,0.54983 -0.255149,0.58936 -0.309053,0.61451 -0.03953,0.018 -0.07906,0.0216 -0.125778,0.0216 -0.01797,0 -0.03594,0 -0.0539,-0.004 z"
         style="font-style:normal;font-variant:normal;font-weight:300;font-stretch:normal;font-size:3.59363914px;line-height:4.49204874px;font-family:Raleway;-inkscape-font-specification:'Raleway Light';text-align:start;text-anchor:start;fill:#241c1c;stroke-width:0.20202087px"
         id="path41" />
      <path
         d="m 50.488199,312.22511 v -0.62889 h -0.161714 v 0.62889 z"
         style="font-style:normal;font-variant:normal;font-weight:300;font-stretch:normal;font-size:3.59363914px;line-height:4.49204874px;font-family:Raleway;-inkscape-font-specification:'Raleway Light';text-align:start;text-anchor:start;fill:#241c1c;stroke-width:0.20202087px"
         id="path43" />
      <path
         d="m 51.57286,314.19802 c 0.434831,0 0.718728,-0.21562 0.718728,-0.54983 0,-0.32343 -0.258742,-0.40608 -0.729509,-0.51749 -0.344989,-0.0827 -0.488735,-0.12577 -0.488735,-0.34139 0,-0.26952 0.2264,-0.38452 0.50311,-0.38452 0.222806,0 0.438424,0.0719 0.560608,0.21562 l 0.100621,-0.097 c -0.122183,-0.15453 -0.359363,-0.26234 -0.650448,-0.26234 -0.373739,0 -0.686385,0.17969 -0.686385,0.55342 0,0.29468 0.194056,0.36296 0.618106,0.46358 0.391706,0.0934 0.596544,0.15453 0.596544,0.38812 0,0.24436 -0.219212,0.38811 -0.54264,0.38811 -0.255148,0 -0.467173,-0.0862 -0.668417,-0.26593 l -0.08984,0.12218 c 0.194057,0.19047 0.470767,0.2875 0.758258,0.2875 z"
         style="font-style:normal;font-variant:normal;font-weight:300;font-stretch:normal;font-size:3.59363914px;line-height:4.49204874px;font-family:Raleway;-inkscape-font-specification:'Raleway Light';text-align:start;text-anchor:start;fill:#241c1c;stroke-width:0.20202087px"
         id="path45" />
      <path
         d="m 54.54581,314.19802 c 0.510297,0 0.855286,-0.44562 0.855286,-0.96669 0,-0.49233 -0.373738,-0.97029 -0.894816,-0.97029 -0.283897,0 -0.55342,0.1689 -0.707947,0.40608 v -0.37373 h -0.165307 v 2.63413 h 0.179682 v -1.16793 c 0.154526,0.24437 0.413268,0.43843 0.733102,0.43843 z m -0.04312,-0.16172 c -0.298272,0 -0.567795,-0.21921 -0.689979,-0.49592 v -0.61451 c 0.03234,-0.26593 0.398894,-0.50311 0.657636,-0.50311 0.416862,0 0.747477,0.38092 0.747477,0.80857 0,0.40248 -0.280304,0.80497 -0.715134,0.80497 z"
         style="font-style:normal;font-variant:normal;font-weight:300;font-stretch:normal;font-size:3.59363914px;line-height:4.49204874px;font-family:Raleway;-inkscape-font-specification:'Raleway Light';text-align:start;text-anchor:start;fill:#241c1c;stroke-width:0.20202087px"
         id="path47" />
      <path
         d="m 56.624114,314.19802 c 0.344989,0 0.664823,-0.19406 0.772632,-0.45999 l -0.15812,-0.0431 c -0.09343,0.21202 -0.348583,0.35936 -0.607325,0.35936 -0.388113,0 -0.71154,-0.32343 -0.743883,-0.75466 h 1.638699 c 0.0036,-0.0108 0.0036,-0.0539 0.0036,-0.0791 0,-0.52108 -0.388113,-0.95951 -0.916378,-0.95951 -0.521078,0 -0.912784,0.43124 -0.912784,0.95951 0,0.53185 0.398894,0.97747 0.923565,0.97747 z m -0.74029,-1.04216 c 0.02516,-0.43483 0.337802,-0.74748 0.733103,-0.74748 0.3953,0 0.707947,0.30906 0.740289,0.74748 z"
         style="font-style:normal;font-variant:normal;font-weight:300;font-stretch:normal;font-size:3.59363914px;line-height:4.49204874px;font-family:Raleway;-inkscape-font-specification:'Raleway Light';text-align:start;text-anchor:start;fill:#241c1c;stroke-width:0.20202087px"
         id="path49" />
      <path
         d="m 58.812584,312.2862 c -0.02516,0 -0.06469,0 -0.111403,0.004 -0.240774,0.0252 -0.470767,0.20125 -0.600138,0.46358 v -0.45998 h -0.172494 v 1.86869 h 0.179682 v -1.16793 c 0.100622,-0.32703 0.370144,-0.52827 0.704353,-0.53905 z"
         style="font-style:normal;font-variant:normal;font-weight:300;font-stretch:normal;font-size:3.59363914px;line-height:4.49204874px;font-family:Raleway;-inkscape-font-specification:'Raleway Light';text-align:start;text-anchor:start;fill:#241c1c;stroke-width:0.20202087px"
         id="path51" />
      <path
         d="m 59.749794,314.19802 c 0.43483,0 0.718727,-0.21562 0.718727,-0.54983 0,-0.32343 -0.258742,-0.40608 -0.729508,-0.51749 -0.34499,-0.0827 -0.488735,-0.12577 -0.488735,-0.34139 0,-0.26952 0.226399,-0.38452 0.503109,-0.38452 0.222806,0 0.438424,0.0719 0.560608,0.21562 l 0.100622,-0.097 c -0.122184,-0.15453 -0.359364,-0.26234 -0.650449,-0.26234 -0.373738,0 -0.686385,0.17969 -0.686385,0.55342 0,0.29468 0.194057,0.36296 0.618106,0.46358 0.391707,0.0934 0.596544,0.15453 0.596544,0.38812 0,0.24436 -0.219212,0.38811 -0.542639,0.38811 -0.255149,0 -0.467174,-0.0862 -0.668417,-0.26593 l -0.08984,0.12218 c 0.194056,0.19047 0.470766,0.2875 0.758258,0.2875 z"
         style="font-style:normal;font-variant:normal;font-weight:300;font-stretch:normal;font-size:3.59363914px;line-height:4.49204874px;font-family:Raleway;-inkscape-font-specification:'Raleway Light';text-align:start;text-anchor:start;fill:#241c1c;stroke-width:0.20202087px"
         id="path53" />
      <path
         d="m 61.666888,314.19802 c 0.521077,0 0.912784,-0.44562 0.912784,-0.96669 0,-0.52467 -0.398894,-0.97029 -0.912784,-0.97029 -0.517484,0 -0.912785,0.44562 -0.912785,0.97029 0,0.52107 0.388113,0.96669 0.912785,0.96669 z m -0.733103,-0.95951 c 0,-0.44561 0.334209,-0.81575 0.733103,-0.81575 0.398894,0 0.729508,0.36655 0.729508,0.80497 0,0.44561 -0.330614,0.80857 -0.733102,0.80857 -0.402488,0 -0.729509,-0.35577 -0.729509,-0.79779 z"
         style="font-style:normal;font-variant:normal;font-weight:300;font-stretch:normal;font-size:3.59363914px;line-height:4.49204874px;font-family:Raleway;-inkscape-font-specification:'Raleway Light';text-align:start;text-anchor:start;fill:#241c1c;stroke-width:0.20202087px"
         id="path55" />
      <path
         d="m 64.537476,313.08758 c 0,-0.52826 -0.150933,-0.82654 -0.557014,-0.82654 -0.330615,0 -0.650449,0.19406 -0.801382,0.47796 v -0.44561 h -0.168901 v 1.86869 h 0.179682 v -1.15715 c 0.09703,-0.33062 0.42405,-0.57858 0.74029,-0.57858 0.294678,0 0.427643,0.21203 0.427643,0.69357 v 1.04216 h 0.179682 z"
         style="font-style:normal;font-variant:normal;font-weight:300;font-stretch:normal;font-size:3.59363914px;line-height:4.49204874px;font-family:Raleway;-inkscape-font-specification:'Raleway Light';text-align:start;text-anchor:start;fill:#241c1c;stroke-width:0.20202087px"
         id="path57" />
      <path
         d="m 65.540718,314.19802 c 0.309053,0 0.592951,-0.12578 0.765445,-0.34859 v 0.15453 c 0.0072,0.0898 0.07187,0.16531 0.165308,0.16531 0.01797,0 0.05031,-0.004 0.07187,-0.007 v -0.16171 c -0.0539,0 -0.07906,-0.0288 -0.07906,-0.0898 v -0.91278 c 0,-0.45639 -0.27671,-0.7367 -0.725915,-0.7367 -0.219212,0 -0.445611,0.0827 -0.682791,0.24437 l 0.06828,0.12218 c 0.208431,-0.14374 0.416862,-0.2228 0.600138,-0.2228 0.344989,0 0.560607,0.2264 0.560607,0.57858 v 0.18327 c -0.161713,-0.0611 -0.380925,-0.10062 -0.578576,-0.10062 -0.459985,0 -0.779819,0.22999 -0.779819,0.55342 0,0.32702 0.269523,0.57858 0.614512,0.57858 z m 0.03594,-0.14375 c -0.269522,0 -0.477954,-0.19406 -0.477954,-0.44561 0,-0.24796 0.255149,-0.41686 0.625294,-0.41686 0.19765,0 0.388113,0.0359 0.560607,0.10062 v 0.33061 c 0,0.0431 -0.02156,0.097 -0.0575,0.14375 -0.125777,0.17249 -0.373738,0.28749 -0.650449,0.28749 z"
         style="font-style:normal;font-variant:normal;font-weight:300;font-stretch:normal;font-size:3.59363914px;line-height:4.49204874px;font-family:Raleway;-inkscape-font-specification:'Raleway Light';text-align:start;text-anchor:start;fill:#241c1c;stroke-width:0.20202087px"
         id="path59" />
      <path
         d="m 67.025283,313.84584 c 0,0.20484 0.132964,0.3378 0.334208,0.3378 0.08625,0 0.222806,-0.0252 0.305459,-0.0575 l -0.03594,-0.14374 c -0.06109,0.0216 -0.143746,0.0359 -0.19765,0.0359 -0.136558,0 -0.222806,-0.0862 -0.222806,-0.2264 v -2.25321 h -0.183275 z"
         style="font-style:normal;font-variant:normal;font-weight:300;font-stretch:normal;font-size:3.59363914px;line-height:4.49204874px;font-family:Raleway;-inkscape-font-specification:'Raleway Light';text-align:start;text-anchor:start;fill:#241c1c;stroke-width:0.20202087px"
         id="path61" />
      <path
         d="m 69.631851,314.19802 c 0.506703,0 0.894816,-0.44921 0.894816,-0.9631 0,-0.48155 -0.323428,-0.97388 -0.855286,-0.97388 -0.316241,0 -0.557014,0.17969 -0.733103,0.43843 v -1.16075 h -0.179682 v 2.62336 h 0.165308 v -0.37374 c 0.143745,0.23718 0.416862,0.40968 0.707947,0.40968 z m -0.03594,-0.16172 c -0.262335,0 -0.625293,-0.2228 -0.657636,-0.49951 v -0.61811 c 0.129371,-0.26234 0.373739,-0.49592 0.689979,-0.49592 0.424049,0 0.715134,0.3917 0.715134,0.81216 0,0.40249 -0.309053,0.80138 -0.747477,0.80138 z"
         style="font-style:normal;font-variant:normal;font-weight:300;font-stretch:normal;font-size:3.59363914px;line-height:4.49204874px;font-family:Raleway;-inkscape-font-specification:'Raleway Light';text-align:start;text-anchor:start;fill:#241c1c;stroke-width:0.20202087px"
         id="path63" />
      <path
         d="m 70.969866,313.84584 c 0,0.20484 0.132965,0.3378 0.334209,0.3378 0.08625,0 0.222806,-0.0252 0.305459,-0.0575 l -0.03594,-0.14374 c -0.06109,0.0216 -0.143746,0.0359 -0.19765,0.0359 -0.136559,0 -0.222806,-0.0862 -0.222806,-0.2264 v -2.25321 h -0.183276 z"
         style="font-style:normal;font-variant:normal;font-weight:300;font-stretch:normal;font-size:3.59363914px;line-height:4.49204874px;font-family:Raleway;-inkscape-font-specification:'Raleway Light';text-align:start;text-anchor:start;fill:#241c1c;stroke-width:0.20202087px"
         id="path65" />
      <path
         d="m 72.672407,314.19802 c 0.521078,0 0.912785,-0.44562 0.912785,-0.96669 0,-0.52467 -0.398894,-0.97029 -0.912785,-0.97029 -0.517484,0 -0.912784,0.44562 -0.912784,0.97029 0,0.52107 0.388113,0.96669 0.912784,0.96669 z m -0.733102,-0.95951 c 0,-0.44561 0.334209,-0.81575 0.733102,-0.81575 0.398894,0 0.729509,0.36655 0.729509,0.80497 0,0.44561 -0.330615,0.80857 -0.733102,0.80857 -0.402488,0 -0.729509,-0.35577 -0.729509,-0.79779 z"
         style="font-style:normal;font-variant:normal;font-weight:300;font-stretch:normal;font-size:3.59363914px;line-height:4.49204874px;font-family:Raleway;-inkscape-font-specification:'Raleway Light';text-align:start;text-anchor:start;fill:#241c1c;stroke-width:0.20202087px"
         id="path67" />
      <path
         d="m 74.770364,314.19083 c 0.27671,0 0.55342,-0.16172 0.704353,-0.40249 v 0.40968 c 0,0.40967 -0.319834,0.6181 -0.70076,0.6181 -0.287491,0 -0.560608,-0.115 -0.707947,-0.36655 l -0.122183,0.0827 c 0.15812,0.26234 0.3953,0.43124 0.83013,0.43124 0.470767,0 0.880442,-0.25874 0.880442,-0.76544 v -1.90463 h -0.165308 v 0.40608 c -0.168901,-0.24437 -0.406081,-0.43843 -0.733102,-0.43843 -0.51389,0 -0.869661,0.45999 -0.869661,0.97029 0,0.48873 0.370145,0.9595 0.884036,0.9595 z m 0.04312,-0.15453 c -0.413268,0 -0.743883,-0.37374 -0.743883,-0.80138 0,-0.39171 0.265929,-0.81216 0.715134,-0.81216 0.287491,0 0.578576,0.20843 0.689979,0.49592 v 0.61451 c -0.03594,0.24078 -0.34499,0.50311 -0.66123,0.50311 z"
         style="font-style:normal;font-variant:normal;font-weight:300;font-stretch:normal;font-size:3.59363914px;line-height:4.49204874px;font-family:Raleway;-inkscape-font-specification:'Raleway Light';text-align:start;text-anchor:start;fill:#241c1c;stroke-width:0.20202087px"
         id="path69" />
    </g>
    <path
       id="path22-7"
       d="m 4.0216685,284.08169 3.3337501,4.44501 -3.3337501,4.445 h 2.2225001 l 6.6674994,-8.89 h -2.2225 l -2.2224993,2.96333 -2.2225001,-2.96333 z m 5.7414584,4.69207 -1.1112499,1.48167 2.037291,2.71626 h 2.2225 z"
       style="fill:#000000;fill-opacity:1;fill-rule:evenodd;stroke:none;stroke-width:0.18520832px;stroke-linecap:butt;stroke-linejoin:miter;stroke-opacity:1" />
  </g>
</svg>
