<svg height="64" viewBox="0 0 288 64" width="288" xmlns="http://www.w3.org/2000/svg"><path d="m-24-24h12l12 16 12-16h12l-36 48h-12l18-24zm48 48h-12l-9-12 6-8z" transform="translate(32 32)"/><path d="m64.075 10.25 6.675 9-6.475 8.75h2.5l5.2-7.15 5.2 7.15h2.475l-6.475-8.75 6.675-9h-2.475l-5.4 7.4-5.4-7.4z"/><path d="m81.542615 33.5c.45.1.75.125 1.05.125 1.875 0 2.95-1.025 3.4-2.2l6.35-16.475h-2.1l-4.05 11.075-4.45-11.075h-2.275l5.525 13.05c-1.175 3.075-1.5 3.65-2.3 3.65-.225 0-.725-.05-1.15-.1z"/><path d="m101.38526 14.875c-.175-.025-.4-.025-.725-.025-1.649996.125-3.224996 1.325-4.124996 3.125v-3.025h-2.05v13.05h2.2v-8.05c.7-1.9 2.5-3.025 4.699996-3.075z"/><path d="m105.67793 28v-13.05h-2.2v13.05zm0-15.5v-2.75h-2.2v2.75z"/><path d="m109.19557 25.425c0 1.725 1.05 2.75 2.75 2.75.775 0 1.9-.225 2.625-.525l-.35-1.775c-.425.175-.975.3-1.35.3-.925 0-1.475-.575-1.475-1.55v-14.875h-2.2z"/><path d="m116.2632 25.425c0 1.725 1.05 2.75 2.75 2.75.775 0 1.9-.225 2.625-.525l-.35-1.775c-.425.175-.975.3-1.35.3-.925 0-1.475-.575-1.475-1.55v-14.875h-2.2z"/><path d="m125.48083 28v-13.05h-2.2v13.05zm0-15.5v-2.75h-2.2v2.75z"/><path d="m132.29847 28.25c2.025 0 3.9-.85 5.075-2.4l.05.925c.1.725.625 1.325 1.5 1.325.325 0 .6-.025 1.05-.1v-1.9c-.5-.025-.7-.25-.7-.8v-5.325c0-3.3-2.05-5.25-5.45-5.25-1.725 0-3.4.575-5.075 1.7l.725 1.425c1.425-1 2.8-1.525 4.15-1.525 2.175 0 3.45 1.3 3.45 3.425v1.05c-1-.4-2.375-.65-3.65-.65-3.225 0-5.5 1.65-5.5 4.025 0 2.3 1.9 4.075 4.375 4.075zm.575-1.65c-1.625 0-2.85-1.125-2.85-2.6 0-1.5 1.525-2.525 3.725-2.525 1.125 0 2.3.225 3.325.625v1.925c0 .3-.175.675-.475.975-.7.975-2.175 1.6-3.725 1.6z"/><path d="m154.04113 20.2c0-3.15-.875-5.475-3.9-5.475-2.3 0-4.4 1.2-5.425 3.025v-2.8h-2v13.05h2.2v-7.875c.6-1.975 2.55-3.425 4.35-3.425 1.725 0 2.575 1.225 2.575 4v7.3h2.2z"/><path d="m176.02643 10.25h-14.5v2h6.125v15.75h2.25v-15.75h6.125z"/><path d="m189.46908 20.2c0-3.1-1.025-5.475-4.125-5.475-2.075 0-3.975 1.15-5 3.025v-8h-2.2v18.25h2.2v-7.875c.575-1.975 2.45-3.425 4.175-3.425 1.775 0 2.75 1.325 2.75 4v7.3h2.2z"/><path d="m198.51173 28.25c3.925 0 6.6-3.125 6.6-6.75 0-3.65-2.7-6.775-6.6-6.775-3.875 0-6.575 3.125-6.575 6.775 0 3.625 2.65 6.75 6.575 6.75zm-4.325-6.725c0-2.725 1.95-4.9 4.325-4.9 2.4 0 4.35 2.15 4.35 4.85 0 2.725-1.95 4.875-4.35 4.875s-4.325-2.1-4.325-4.825z"/><path d="m211.7294 28.25c2.25 0 4.275-1.1 5.425-3.05l.05 1.525c.025.775.7 1.35 1.55 1.35.275 0 .5 0 1-.075v-1.9c-.5-.025-.7-.25-.7-.8v-10.35h-2.2v8.175c-.775 2-2.5 3.225-4.3 3.225-1.85 0-2.775-1.325-2.775-4v-7.4h-2.2v7.825c0 3.6 1.425 5.475 4.15 5.475z"/><path d="m227.84704 28.15c1.85 0 3.675-1 4.65-2.6v2.3c0 2.725-2.05 4.025-4.45 4.025-1.875 0-3.625-.775-4.65-2.3l-1.275 1.125c1.225 1.775 2.975 2.875 5.925 2.875 3.7 0 6.65-2.025 6.65-5.725v-12.9h-1.95v2.6c-1.1-1.625-2.7-2.825-4.875-2.825-3.575 0-6.05 3.1-6.05 6.775 0 3.475 2.475 6.65 6.025 6.65zm.675-1.8c-2.5 0-4.475-2.2-4.475-4.8 0-2.425 1.625-4.925 4.275-4.925 1.725 0 3.475 1.275 4.175 3.05v3.75c-.35 1.475-2.125 2.925-3.975 2.925z"/><path d="m249.48971 20.2c0-3.1-1.025-5.475-4.125-5.475-2.075 0-3.975 1.15-5 3.025v-8h-2.2v18.25h2.2v-7.875c.575-1.975 2.45-3.425 4.175-3.425 1.775 0 2.75 1.325 2.75 4v7.3h2.2z"/><path d="m258.93237 25.6c-.25.15-1.05.55-1.925.55-.775 0-1.425-.425-1.475-1.375v-8.1h2.925v-1.725h-2.925v-4.35h-2.2v4.35h-1.775v1.725h1.775v8.775c0 1.875 1.35 2.725 2.95 2.725 1.4 0 2.625-.575 3.175-.825z"/><path d="m266.00001 28.25c3.15 0 5.175-1.55 5.175-3.975 0-2.225-1.65-2.925-5.125-3.75-2.225-.55-3.075-.825-3.075-2.05 0-1.5 1.275-2.15 2.875-2.15 1.425 0 2.85.475 3.95 1.45l1-1.325c-1.175-1.025-2.95-1.725-4.9-1.725-2.775 0-5 1.425-5 4.05 0 2.05 1.325 2.65 4.475 3.425 2.5.6 3.675.975 3.675 2.275 0 1.35-1.225 2.15-3.1 2.15-1.675 0-3.2-.6-4.725-1.75l-.95 1.475c1.45 1.225 3.65 1.9 5.725 1.9z"/><path d="m71.708 52.1025c3.8745 0 6.8265-3.4645 6.8265-7.38 0-3.6285-2.747-7.38-6.806-7.38-3.8745 0-6.8265 3.5055-6.8265 7.38 0 3.731 2.7675 7.3595 6.806 7.38zm-5.7605-7.38c0-3.1775 2.296-6.4165 5.781-6.4165 3.321 0 5.74 3.075 5.74 6.4165 0 3.157-2.255 6.4165-5.74 6.4165-3.403 0-5.781-3.075-5.781-6.4165z"/><path d="m89.574574 45.8705c0-3.0135-.861-4.715-3.1775-4.715-1.886 0-3.7105 1.107-4.5715 2.7265v-2.542h-.9635v10.66h1.025v-6.601c.5535-1.886 2.419-3.3005 4.223-3.3005 1.681 0 2.4395 1.2095 2.4395 3.9565v5.945h1.025z"/><path d="m102.04021 50.6675c-.123.082-.82.492-1.6605.492-.676496 0-1.332496-.3895-1.332496-1.189v-7.79h2.480496v-.8405h-2.480496v-3.649h-1.025v3.649h-1.4965v.8405h1.4965v8.036c0 1.23.9635 1.9065 2.090996 1.9065 1.148 0 2.0295-.5125 2.2345-.6355z"/><path d="m108.24227 52.205c1.968 0 3.7925-1.107 4.4075-2.624l-.902-.246c-.533 1.2095-1.9885 2.05-3.4645 2.05-2.214 0-4.059-1.845-4.2435-4.305h9.348c.0205-.0615.0205-.3075.0205-.451 0-2.9725-2.214-5.4735-5.2275-5.4735-2.9725 0-5.207 2.46-5.207 5.4735 0 3.034 2.2755 5.576 5.2685 5.576zm-4.223-5.945c.1435-2.4805 1.927-4.264 4.182-4.264s4.0385 1.763 4.223 4.264z"/><path d="m114.75184 46.629c0 3.034 2.2755 5.576 5.2685 5.576 1.9885 0 3.772-1.107 4.3255-2.6035l-1.0045-.287c-.328 1.0455-1.886 1.968-3.362 1.968-2.296 0-4.2025-2.091-4.2025-4.6535 0-2.583 1.845-4.551 4.182-4.551 1.394 0 2.624.7175 3.2595 1.886l1.0045-.328c-.738-1.5375-2.296-2.4805-4.223-2.4805-3.0545 0-5.248 2.4395-5.248 5.4735z"/><path d="m135.20141 45.8705c0-2.911-1.025-4.715-3.3825-4.715-1.763 0-3.444 1.066-4.305 2.7265v-6.847h-1.025v14.965h1.025v-6.601c.533-1.886 2.296-3.3005 4.018-3.3005 1.7425 0 2.6445 1.3325 2.6445 3.9565v5.945h1.025z"/><path d="m146.83598 45.8705c0-3.0135-.861-4.715-3.1775-4.715-1.886 0-3.7105 1.107-4.5715 2.7265v-2.542h-.9635v10.66h1.025v-6.601c.5535-1.886 2.419-3.3005 4.223-3.3005 1.681 0 2.4395 1.2095 2.4395 3.9565v5.945h1.025z"/><path d="m154.22706 52.205c2.9725 0 5.207-2.542 5.207-5.5145 0-2.993-2.2755-5.535-5.207-5.535-2.952 0-5.207 2.542-5.207 5.535 0 2.9725 2.214 5.5145 5.207 5.5145zm-4.182-5.4735c0-2.542 1.9065-4.6535 4.182-4.6535s4.1615 2.091 4.1615 4.592c0 2.542-1.886 4.6125-4.182 4.6125s-4.1615-2.0295-4.1615-4.551z"/><path d="m161.8026 50.196c0 1.1685.7585 1.927 1.9065 1.927.492 0 1.271-.1435 1.7425-.328l-.205-.82c-.3485.123-.82.205-1.1275.205-.779 0-1.271-.492-1.271-1.2915v-12.8535h-1.0455z"/><path d="m171.32569 52.205c2.9725 0 5.207-2.542 5.207-5.5145 0-2.993-2.2755-5.535-5.207-5.535-2.952 0-5.207 2.542-5.207 5.535 0 2.9725 2.214 5.5145 5.207 5.5145zm-4.182-5.4735c0-2.542 1.9065-4.6535 4.182-4.6535s4.1615 2.091 4.1615 4.592c0 2.542-1.886 4.6125-4.182 4.6125s-4.1615-2.0295-4.1615-4.551z"/><path d="m183.12424 52.164c1.5785 0 3.157-.9225 4.018-2.296v2.337c0 2.337-1.8245 3.526-3.9975 3.526-1.64 0-3.198-.656-4.0385-2.091l-.697.4715c.902 1.4965 2.255 2.46 4.7355 2.46 2.6855 0 5.0225-1.476 5.0225-4.3665v-10.865h-.943v2.3165c-.9635-1.394-2.3165-2.501-4.182-2.501-2.9315 0-4.961 2.624-4.961 5.535 0 2.788 2.1115 5.4735 5.043 5.4735zm.246-.8815c-2.3575 0-4.2435-2.132-4.2435-4.5715 0-2.2345 1.517-4.633 4.0795-4.633 1.64 0 3.3005 1.189 3.936 2.829v3.5055c-.205 1.3735-1.968 2.87-3.772 2.87z"/><path d="m191.9093 56.551c.1435.0205.2665.0205.369.0205 1.148 0 1.7835-.451 2.091-1.2095l5.8425-14.022h-1.0045l-3.9565 9.6555-4.2435-9.6555h-1.066l4.756 10.66c-1.2915 3.1365-1.4555 3.362-1.763 3.5055-.2255.1025-.451.123-.7175.123-.1025 0-.205 0-.3075-.0205z"/><path d="m209.25394 52.205c1.763 0 3.3825-.7175 4.3665-1.9885v.8815c.041.5125.41.943.943.943.1025 0 .287-.0205.41-.041v-.9225c-.3075 0-.451-.164-.451-.5125v-5.207c0-2.6035-1.5785-4.2025-4.141-4.2025-1.2505 0-2.542.4715-3.895 1.394l.3895.697c1.189-.82 2.378-1.271 3.4235-1.271 1.968 0 3.198 1.2915 3.198 3.3005v1.0455c-.9225-.3485-2.173-.574-3.3005-.574-2.624 0-4.4485 1.312-4.4485 3.157 0 1.8655 1.5375 3.3005 3.5055 3.3005zm.205-.82c-1.5375 0-2.7265-1.107-2.7265-2.542 0-1.4145 1.4555-2.378 3.567-2.378 1.1275 0 2.214.205 3.198.574v1.886c0 .246-.123.5535-.328.82-.7175.984-2.132 1.64-3.7105 1.64z"/><path d="m226.17753 45.8705c0-3.0135-.861-4.715-3.1775-4.715-1.886 0-3.7105 1.107-4.5715 2.7265v-2.542h-.9635v10.66h1.025v-6.601c.5535-1.886 2.419-3.3005 4.223-3.3005 1.681 0 2.4395 1.2095 2.4395 3.9565v5.945h1.025z"/><path d="m233.4866 52.205c1.5785 0 3.1775-.9225 4.0385-2.337v1.189c0 .4715.4305.984.984.984.1025 0 .205-.0205.369-.041v-.9225c-.287 0-.4305-.1845-.4305-.5125v-13.53h-1.025v6.6215c-.82-1.353-2.3165-2.501-4.1615-2.501-2.829 0-4.8995 2.5625-4.8995 5.535 0 2.829 2.1525 5.5145 5.125 5.5145zm.1845-.9225c-2.378 0-4.264-2.132-4.264-4.5715 0-2.337 1.599-4.633 4.0795-4.633 1.558 0 3.362 1.271 3.936 2.829v3.5055c-.1845 1.558-2.255 2.87-3.7515 2.87z"/><path d="m246.71072 50.196c0 1.1685.7585 1.927 1.9065 1.927.492 0 1.271-.1435 1.7425-.328l-.205-.82c-.3485.123-.82.205-1.1275.205-.779 0-1.271-.492-1.271-1.2915v-12.8535h-1.0455z"/><path d="m252.78982 52v-10.66h-1.025v10.66zm0-13.079v-1.886h-1.025v1.886z"/><path d="m257.3314 52v-9.8195h3.034v-.8405h-3.034v-.369c0-2.091.779-3.239 2.173-3.239.5945 0 1.2095.205 1.5785.5125l.369-.738c-.492-.41-1.312-.6765-2.132-.6765-1.8655 0-3.0135 1.558-3.0135 4.1615v.3485h-1.4965v.8405h1.4965v9.8195z"/><path d="m266.17801 52.205c1.968 0 3.7925-1.107 4.4075-2.624l-.902-.246c-.533 1.2095-1.9885 2.05-3.4645 2.05-2.214 0-4.059-1.845-4.2435-4.305h9.348c.0205-.0615.0205-.3075.0205-.451 0-2.9725-2.214-5.4735-5.2275-5.4735-2.9725 0-5.207 2.46-5.207 5.4735 0 3.034 2.2755 5.576 5.2685 5.576zm-4.223-5.945c.1435-2.4805 1.927-4.264 4.182-4.264s4.0385 1.763 4.223 4.264z"/></svg>