<svg height="64" viewBox="0 0 256 64" width="256" xmlns="http://www.w3.org/2000/svg" xmlns:xlink="http://www.w3.org/1999/xlink"><mask id="a"><path d="m-32-32h64v64h-64z"/><path d="m-34-32 24 32-24 32zm68 0-24 32 24 32z" fill="#fff"/></mask><g transform="translate(32 32)"><path d="m-24-24h12l12 16 12-16h12l-36 48h-12l18-24zm48 48h-12l-9-12 6-8z"/><g fill="none" stroke="#000" stroke-width="3"><circle mask="url(#a)" r="18"/><circle mask="url(#a)" r="26"/></g></g><path d="m68.075 10.25 6.675 9-6.475 8.75h2.5l5.2-7.15 5.2 7.15h2.475l-6.475-8.75 6.675-9h-2.475l-5.4 7.4-5.4-7.4z"/><path d="m85.498305 33.5c.45.1.75.125 1.05.125 1.875 0 2.95-1.025 3.4-2.2l6.35-16.475h-2.1l-4.05 11.075-4.45-11.075h-2.275l5.525 13.05c-1.175 3.075-1.5 3.65-2.3 3.65-.225 0-.725-.05-1.15-.1z"/><path d="m105.29664 14.875c-.175-.025-.4-.025-.725-.025-1.65.125-3.225 1.325-4.125 3.125v-3.025h-2.049995v13.05h2.199995v-8.05c.7-1.9 2.5-3.025 4.7-3.075z"/><path d="m109.545 28v-13.05h-2.2v13.05zm0-15.5v-2.75h-2.2v2.75z"/><path d="m113.01833 25.425c0 1.725 1.05 2.75 2.75 2.75.775 0 1.9-.225 2.625-.525l-.35-1.775c-.425.175-.975.3-1.35.3-.925 0-1.475-.575-1.475-1.55v-14.875h-2.2z"/><path d="m120.04165 25.425c0 1.725 1.05 2.75 2.75 2.75.775 0 1.9-.225 2.625-.525l-.35-1.775c-.425.175-.975.3-1.35.3-.925 0-1.475-.575-1.475-1.55v-14.875h-2.2z"/><path d="m129.21497 28v-13.05h-2.2v13.05zm0-15.5v-2.75h-2.2v2.75z"/><path d="m135.9883 28.25c2.025 0 3.9-.85 5.075-2.4l.05.925c.1.725.625 1.325 1.5 1.325.325 0 .6-.025 1.05-.1v-1.9c-.5-.025-.7-.25-.7-.8v-5.325c0-3.3-2.05-5.25-5.45-5.25-1.725 0-3.4.575-5.075 1.7l.725 1.425c1.425-1 2.8-1.525 4.15-1.525 2.175 0 3.45 1.3 3.45 3.425v1.05c-1-.4-2.375-.65-3.65-.65-3.225 0-5.5 1.65-5.5 4.025 0 2.3 1.9 4.075 4.375 4.075zm.575-1.65c-1.625 0-2.85-1.125-2.85-2.6 0-1.5 1.525-2.525 3.725-2.525 1.125 0 2.3.225 3.325.625v1.925c0 .3-.175.675-.475.975-.7.975-2.175 1.6-3.725 1.6z"/><path d="m157.68665 20.2c0-3.15-.875-5.475-3.9-5.475-2.3 0-4.4 1.2-5.425 3.025v-2.8h-2v13.05h2.2v-7.875c.6-1.975 2.55-3.425 4.35-3.425 1.725 0 2.575 1.225 2.575 4v7.3h2.2z"/><path d="m180.63334 28h1.9v-17.725h-2.25v13.8l-11-13.825h-1.75v17.75h2.25v-13.55z"/><path d="m191.78167 28.25c3.925 0 6.6-3.125 6.6-6.75 0-3.65-2.7-6.775-6.6-6.775-3.875 0-6.575 3.125-6.575 6.775 0 3.625 2.65 6.75 6.575 6.75zm-4.325-6.725c0-2.725 1.95-4.9 4.325-4.9 2.4 0 4.35 2.15 4.35 4.85 0 2.725-1.95 4.875-4.35 4.875s-4.325-2.1-4.325-4.825z"/><path d="m203.13003 28v-13.05h-2.2v13.05zm0-15.5v-2.75h-2.2v2.75z"/><path d="m211.12837 28.25c3.15 0 5.175-1.55 5.175-3.975 0-2.225-1.65-2.925-5.125-3.75-2.225-.55-3.075-.825-3.075-2.05 0-1.5 1.275-2.15 2.875-2.15 1.425 0 2.85.475 3.95 1.45l1-1.325c-1.175-1.025-2.95-1.725-4.9-1.725-2.775 0-5 1.425-5 4.05 0 2.05 1.325 2.65 4.475 3.425 2.5.6 3.675.975 3.675 2.275 0 1.35-1.225 2.15-3.1 2.15-1.675 0-3.2-.6-4.725-1.75l-.95 1.475c1.45 1.225 3.65 1.9 5.725 1.9z"/><path d="m224.55168 28.25c2.625 0 4.85-1.375 5.7-3.3l-1.9-.525c-.55 1.3-2.125 2.175-3.725 2.175-2.275 0-4.2-1.8-4.4-4.375h10.825c.025-.15.05-.5.05-.85 0-3.5-2.575-6.65-6.525-6.65-3.925 0-6.675 3.075-6.675 6.75s2.725 6.775 6.65 6.775zm-4.375-7.65c.175-2.475 2.075-4.225 4.4-4.225s4.225 1.725 4.45 4.225z"/><path d="m238.00001 28.25c3.15 0 5.175-1.55 5.175-3.975 0-2.225-1.65-2.925-5.125-3.75-2.225-.55-3.075-.825-3.075-2.05 0-1.5 1.275-2.15 2.875-2.15 1.425 0 2.85.475 3.95 1.45l1-1.325c-1.175-1.025-2.95-1.725-4.9-1.725-2.775 0-5 1.425-5 4.05 0 2.05 1.325 2.65 4.475 3.425 2.5.6 3.675.975 3.675 2.275 0 1.35-1.225 2.15-3.1 2.15-1.675 0-3.2-.6-4.725-1.75l-.95 1.475c1.45 1.225 3.65 1.9 5.725 1.9z"/><path d="m80.136 37.445v6.642h-9.184v-6.642h-1.0455v14.555h1.0455v-6.97h9.184v6.97h1.0455v-14.555z"/><path d="m88.027704 38.88v-1.804h-.902v1.804zm2.788 0v-1.804h-.902v1.804zm-1.845 13.325c2.9725 0 5.207-2.542 5.207-5.5145 0-2.993-2.2755-5.535-5.207-5.535-2.952 0-5.207 2.542-5.207 5.535 0 2.9725 2.214 5.5145 5.207 5.5145zm-4.182-5.4735c0-2.542 1.9065-4.6535 4.182-4.6535s4.1615 2.091 4.1615 4.592c0 2.542-1.886 4.6125-4.182 4.6125s-4.1615-2.0295-4.1615-4.551z"/><path d="m101.65938 41.299c-.1435 0-.369 0-.6355.0205-1.373504.1435-2.685504 1.148-3.423504 2.6445v-2.624h-.984v10.66h1.025v-6.6625c.574-1.8655 2.1115-3.0135 4.018004-3.075z"/><path d="m105.08206 52v-9.8195h3.034v-.8405h-3.034v-.369c0-2.091.779-3.239 2.173-3.239.5945 0 1.2095.205 1.5785.5125l.369-.738c-.492-.41-1.312-.6765-2.132-.6765-1.8655 0-3.0135 1.558-3.0135 4.1615v.3485h-1.4965v.8405h1.4965v9.8195z"/><path d="m113.38377 52.205c1.886 0 3.6285-1.025 4.551-2.7265v1.599c0 .574.5125.943 1.0455.943.0615 0 .164 0 .3075-.0205v-.9225c-.287 0-.4305-.1845-.4305-.5125v-9.225h-1.025v6.724c-.6355 1.927-2.3575 3.2185-4.141 3.2185-1.804 0-2.6855-1.2915-2.6855-3.936v-6.0065h-1.025v6.15c0 3.116 1.1685 4.715 3.403 4.715z"/><path d="m130.80796 45.8705c0-3.0135-.861-4.715-3.1775-4.715-1.886 0-3.7105 1.107-4.5715 2.7265v-2.542h-.9635v10.66h1.025v-6.601c.5535-1.886 2.419-3.3005 4.223-3.3005 1.681 0 2.4395 1.2095 2.4395 3.9565v5.945h1.025z"/><path d="m142.71765 52-4.592-6.314 4.4485-4.3255h-1.189l-6.478 6.1295v-10.455h-1.025v14.965h1.025v-3.3825l2.5215-2.3165 4.1615 5.699z"/><path d="m149.76883 52.205c2.911 0 4.879-2.542 4.879-5.5145 0-2.8085-2.132-5.535-5.1045-5.535-1.6195 0-3.157.9635-4.0385 2.3165v-2.132h-.943v15.0265h1.025v-6.6625c.8815 1.394 2.3575 2.501 4.182 2.501zm-.246-.9225c-1.7015 0-3.239-1.2505-3.936-2.829v-3.5055c.1845-1.517 2.2755-2.87 3.7515-2.87 2.378 0 4.264 2.173 4.264 4.6125 0 2.296-1.599 4.592-4.0795 4.592z"/><path d="m162.12951 41.299c-.1435 0-.369 0-.6355.0205-1.3735.1435-2.6855 1.148-3.4235 2.6445v-2.624h-.984v10.66h1.025v-6.6625c.574-1.8655 2.1115-3.0135 4.018-3.075z"/><path d="m167.99171 52.205c2.9725 0 5.207-2.542 5.207-5.5145 0-2.993-2.2755-5.535-5.207-5.535-2.952 0-5.207 2.542-5.207 5.535 0 2.9725 2.214 5.5145 5.207 5.5145zm-4.182-5.4735c0-2.542 1.9065-4.6535 4.182-4.6535s4.1615 2.091 4.1615 4.592c0 2.542-1.886 4.6125-4.182 4.6125s-4.1615-2.0295-4.1615-4.551z"/><path d="m180.02438 52.205c1.5785 0 3.1775-.9225 4.0385-2.337v1.189c0 .4715.4305.984.984.984.1025 0 .205-.0205.369-.041v-.9225c-.287 0-.4305-.1845-.4305-.5125v-13.53h-1.025v6.6215c-.82-1.353-2.3165-2.501-4.1615-2.501-2.829 0-4.8995 2.5625-4.8995 5.535 0 2.829 2.1525 5.5145 5.125 5.5145zm.1845-.9225c-2.378 0-4.264-2.132-4.264-4.5715 0-2.337 1.599-4.633 4.0795-4.633 1.558 0 3.362 1.271 3.936 2.829v3.5055c-.1845 1.558-2.255 2.87-3.7515 2.87z"/><path d="m191.52407 52.205c1.886 0 3.6285-1.025 4.551-2.7265v1.599c0 .574.5125.943 1.0455.943.0615 0 .164 0 .3075-.0205v-.9225c-.287 0-.4305-.1845-.4305-.5125v-9.225h-1.025v6.724c-.6355 1.927-2.3575 3.2185-4.141 3.2185-1.804 0-2.6855-1.2915-2.6855-3.936v-6.0065h-1.025v6.15c0 3.116 1.1685 4.715 3.403 4.715z"/><path d="m209.07126 52-4.592-6.314 4.4485-4.3255h-1.189l-6.478 6.1295v-10.455h-1.025v14.965h1.025v-3.3825l2.5215-2.3165 4.1615 5.699z"/><path d="m215.36394 50.6675c-.123.082-.82.492-1.6605.492-.6765 0-1.3325-.3895-1.3325-1.189v-7.79h2.4805v-.8405h-2.4805v-3.649h-1.025v3.649h-1.4965v.8405h1.4965v8.036c0 1.23.9635 1.9065 2.091 1.9065 1.148 0 2.0295-.5125 2.2345-.6355z"/><path d="m218.47912 52v-10.66h-1.025v10.66zm0-13.079v-1.886h-1.025v1.886z"/><path d="m226.14533 52.205c2.9725 0 5.207-2.542 5.207-5.5145 0-2.993-2.2755-5.535-5.207-5.535-2.952 0-5.207 2.542-5.207 5.535 0 2.9725 2.214 5.5145 5.207 5.5145zm-4.182-5.4735c0-2.542 1.9065-4.6535 4.182-4.6535s4.1615 2.091 4.1615 4.592c0 2.542-1.886 4.6125-4.182 4.6125s-4.1615-2.0295-4.1615-4.551z"/><path d="m242.5035 45.8705c0-3.0135-.861-4.715-3.1775-4.715-1.886 0-3.7105 1.107-4.5715 2.7265v-2.542h-.9635v10.66h1.025v-6.601c.5535-1.886 2.419-3.3005 4.223-3.3005 1.681 0 2.4395 1.2095 2.4395 3.9565v5.945h1.025z"/></svg>