<?xml version="1.0" encoding="UTF-8" standalone="no"?>
<svg
   xmlns:dc="http://purl.org/dc/elements/1.1/"
   xmlns:cc="http://creativecommons.org/ns#"
   xmlns:rdf="http://www.w3.org/1999/02/22-rdf-syntax-ns#"
   xmlns:svg="http://www.w3.org/2000/svg"
   xmlns="http://www.w3.org/2000/svg"
   id="svg8"
   version="1.1"
   viewBox="0 0 67.733332 16.933334"
   height="64"
   width="256">
  <defs
     id="defs2" />
  <metadata
     id="metadata5">
    <rdf:RDF>
      <cc:Work
         rdf:about="">
        <dc:format>image/svg+xml</dc:format>
        <dc:type
           rdf:resource="http://purl.org/dc/dcmitype/StillImage" />
        <dc:title></dc:title>
      </cc:Work>
    </rdf:RDF>
  </metadata>
  <g
     transform="translate(0,-280.06665)"
     id="layer1">
    <path
       id="path28"
       d="m 2.1166667,282.18333 4.7625001,6.35 -4.7625001,6.35 h 3.1750001 l 9.5250002,-12.7 h -3.175 l -3.1750001,4.23333 -3.1750001,-4.23333 z m 8.2020833,6.70295 -1.5874998,2.11666 2.9104168,3.88039 h 3.175 z"
       style="fill:#000000;fill-opacity:1;fill-rule:evenodd;stroke:none;stroke-width:0.26458332px;stroke-linecap:butt;stroke-linejoin:miter;stroke-opacity:1" />
    <path
       style="color:#000000;font-style:normal;font-variant:normal;font-weight:normal;font-stretch:normal;font-size:medium;line-height:normal;font-family:sans-serif;font-variant-ligatures:normal;font-variant-position:normal;font-variant-caps:normal;font-variant-numeric:normal;font-variant-alternates:normal;font-feature-settings:normal;text-indent:0;text-align:start;text-decoration:none;text-decoration-line:none;text-decoration-style:solid;text-decoration-color:#000000;letter-spacing:normal;word-spacing:normal;text-transform:none;writing-mode:lr-tb;direction:ltr;text-orientation:mixed;dominant-baseline:auto;baseline-shift:baseline;text-anchor:start;white-space:normal;shape-padding:0;clip-rule:nonzero;display:inline;overflow:visible;visibility:visible;opacity:1;isolation:auto;mix-blend-mode:normal;color-interpolation:sRGB;color-interpolation-filters:linearRGB;solid-color:#000000;solid-opacity:1;vector-effect:none;fill:#000000;fill-opacity:1;fill-rule:nonzero;stroke:none;stroke-width:1.0583334;stroke-linecap:round;stroke-linejoin:round;stroke-miterlimit:4;stroke-dasharray:none;stroke-dashoffset:0;stroke-opacity:1;color-rendering:auto;image-rendering:auto;shape-rendering:auto;text-rendering:auto;enable-background:accumulate"
       d="m 3.1145386,284.21948 c -0.9537655,1.18092 -1.5265218,2.68132 -1.5265218,4.31395 0,1.63251 0.5723599,3.13358 1.526005,4.31446 l 0.6552573,-0.87333 c -0.7057636,-0.96311 -1.122929,-2.15217 -1.122929,-3.44113 0,-1.28897 0.4171654,-2.47751 1.122929,-3.44062 z m 10.7042564,0 -0.65474,0.87333 c 0.705763,0.96311 1.122929,2.15165 1.122929,3.44062 0,1.28896 -0.417166,2.47802 -1.122929,3.44113 l 0.655257,0.87333 c 0.953672,-1.18088 1.526522,-2.68192 1.526522,-4.31446 0,-1.63265 -0.573246,-3.13302 -1.527039,-4.31395 z m -9.3730715,1.77509 c -0.4665443,0.73626 -0.7405233,1.60559 -0.7405233,2.53886 0,0.93338 0.273879,1.80286 0.7405233,2.53886 l 0.6903971,-0.91984 c -0.2374587,-0.48907 -0.3746539,-1.03686 -0.3746539,-1.61902 0,-0.58216 0.1371952,-1.12972 0.3746539,-1.61902 z m 8.0418865,0 -0.690914,0.92087 c 0.23689,0.48902 0.373104,1.03628 0.373104,1.61799 0,0.58171 -0.136214,1.1292 -0.373104,1.61799 l 0.690914,0.92087 c 0.466645,-0.736 0.74104,-1.60548 0.74104,-2.53886 0,-0.93327 -0.274495,-1.8026 -0.74104,-2.53886 z"
       id="path30" />
    <g
       transform="translate(-3.4895123,-21.277171)"
       aria-label="Xyrillian Noises"
       style="font-style:normal;font-variant:normal;font-weight:normal;font-stretch:normal;font-size:6.48190069px;line-height:7.20211172px;font-family:Raleway;-inkscape-font-specification:Raleway;text-align:start;letter-spacing:0px;word-spacing:0px;text-anchor:start;fill:#000000;fill-opacity:1;stroke:none;stroke-width:0.28808448px;stroke-linecap:butt;stroke-linejoin:miter;stroke-opacity:1"
       id="text16">
      <path
         d="m 22.539512,304.3554 1.769559,2.33348 -1.717703,2.26867 h 0.51207 l 1.458427,-1.94457 1.458428,1.94457 h 0.499106 l -1.717703,-2.26867 1.769559,-2.33348 h -0.499107 l -1.510283,2.00939 -1.510282,-2.00939 z"
         style="font-style:normal;font-variant:normal;font-weight:normal;font-stretch:normal;font-family:Raleway;-inkscape-font-specification:Raleway;text-align:start;text-anchor:start;stroke-width:0.28808448px"
         id="path19" />
      <path
         d="m 27.150271,310.38357 c 0.110192,0.0194 0.181493,0.0194 0.265758,0.0194 0.37595,0 0.589853,-0.2139 0.687081,-0.46669 l 1.750113,-4.35584 H 29.4319 l -1.16026,2.96871 -1.251007,-2.96871 H 26.5669 l 1.471391,3.37707 c -0.388914,0.93339 -0.388914,1.05007 -0.693563,1.05007 -0.05834,0 -0.129638,-0.006 -0.194457,-0.013 z"
         style="font-style:normal;font-variant:normal;font-weight:normal;font-stretch:normal;font-family:Raleway;-inkscape-font-specification:Raleway;text-align:start;text-anchor:start;stroke-width:0.28808448px"
         id="path21" />
      <path
         d="m 32.160577,305.56752 c -0.03241,-0.006 -0.05186,-0.006 -0.08426,-0.006 -0.479661,0 -0.933394,0.31114 -1.186188,0.82969 v -0.81024 h -0.414842 v 3.37707 h 0.440769 v -2.10014 c 0.181494,-0.54448 0.654672,-0.86857 1.244525,-0.88802 z"
         style="font-style:normal;font-variant:normal;font-weight:normal;font-stretch:normal;font-family:Raleway;-inkscape-font-specification:Raleway;text-align:start;text-anchor:start;stroke-width:0.28808448px"
         id="path23" />
      <path
         d="m 33.194846,308.95755 v -3.37707 h -0.44077 v 3.37707 z m 0,-4.0836 v -0.64819 h -0.44077 v 0.64819 z"
         style="font-style:normal;font-variant:normal;font-weight:normal;font-stretch:normal;font-family:Raleway;-inkscape-font-specification:Raleway;text-align:start;text-anchor:start;stroke-width:0.28808448px"
         id="path25" />
      <path
         d="m 34.191438,308.34177 c 0,0.40836 0.252795,0.65467 0.654672,0.65467 0.175012,0 0.447252,-0.0519 0.609299,-0.11667 l -0.07778,-0.35651 c -0.110192,0.0454 -0.252794,0.0713 -0.350022,0.0713 -0.246313,0 -0.395396,-0.14908 -0.395396,-0.40187 v -3.96693 h -0.44077 z"
         style="font-style:normal;font-variant:normal;font-weight:normal;font-stretch:normal;font-family:Raleway;-inkscape-font-specification:Raleway;text-align:start;text-anchor:start;stroke-width:0.28808448px"
         id="path27" />
      <path
         d="m 35.951173,308.34177 c 0,0.40836 0.252794,0.65467 0.654672,0.65467 0.175011,0 0.447251,-0.0519 0.609298,-0.11667 l -0.07778,-0.35651 c -0.110192,0.0454 -0.252794,0.0713 -0.350022,0.0713 -0.246312,0 -0.395396,-0.14908 -0.395396,-0.40187 v -3.96693 h -0.440769 z"
         style="font-style:normal;font-variant:normal;font-weight:normal;font-stretch:normal;font-family:Raleway;-inkscape-font-specification:Raleway;text-align:start;text-anchor:start;stroke-width:0.28808448px"
         id="path29" />
      <path
         d="m 38.132231,308.95755 v -3.37707 h -0.440769 v 3.37707 z m 0,-4.0836 v -0.64819 h -0.440769 v 0.64819 z"
         style="font-style:normal;font-variant:normal;font-weight:normal;font-stretch:normal;font-family:Raleway;-inkscape-font-specification:Raleway;text-align:start;text-anchor:start;stroke-width:0.28808448px"
         id="path31" />
      <path
         d="m 39.958507,309.02237 c 0.537998,0 1.037104,-0.22687 1.348236,-0.62875 l 0.01296,0.26576 c 0.0065,0.19446 0.142602,0.31762 0.362987,0.31762 0.04537,0 0.09723,-0.006 0.168529,-0.0194 v -0.38891 c -0.110192,0 -0.162047,-0.0583 -0.162047,-0.1815 v -1.52324 c 0,-0.83617 -0.518552,-1.34176 -1.361199,-1.34176 -0.414842,0 -0.836166,0.14909 -1.270453,0.44077 l 0.155566,0.29169 c 0.369468,-0.25928 0.738936,-0.40188 1.082477,-0.40188 0.589853,0 0.952839,0.37595 0.952839,0.97228 v 0.30465 c -0.278721,-0.11019 -0.654671,-0.17501 -0.998212,-0.17501 -0.829684,0 -1.413055,0.42133 -1.413055,1.01766 0,0.58985 0.486143,1.05007 1.121369,1.05007 z m 0.103711,-0.33706 c -0.453733,0 -0.803756,-0.32409 -0.803756,-0.74542 0,-0.42132 0.427805,-0.70653 1.050068,-0.70653 0.324095,0 0.64819,0.0648 0.939875,0.17502 v 0.55096 c 0,0.0778 -0.03889,0.17501 -0.116674,0.25279 -0.194457,0.28521 -0.61578,0.47318 -1.069513,0.47318 z"
         style="font-style:normal;font-variant:normal;font-weight:normal;font-stretch:normal;font-family:Raleway;-inkscape-font-specification:Raleway;text-align:start;text-anchor:start;stroke-width:0.28808448px"
         id="path33" />
      <path
         d="m 45.48058,306.98057 c 0,-0.88802 -0.252794,-1.45843 -1.004695,-1.45843 -0.602816,0 -1.16026,0.33058 -1.4325,0.8232 v -0.76486 h -0.401877 v 3.37707 h 0.440769 v -2.06773 c 0.162047,-0.55744 0.713009,-0.9658 1.231561,-0.9658 0.492624,0 0.725973,0.35002 0.725973,1.1473 v 1.88623 h 0.440769 z"
         style="font-style:normal;font-variant:normal;font-weight:normal;font-stretch:normal;font-family:Raleway;-inkscape-font-specification:Raleway;text-align:start;text-anchor:start;stroke-width:0.28808448px"
         id="path35" />
      <path
         d="m 51.63089,308.95755 h 0.395396 v -4.59567 h -0.453733 v 3.82432 l -3.046493,-3.8308 h -0.350023 v 4.60215 h 0.453733 v -3.7595 z"
         style="font-style:normal;font-variant:normal;font-weight:normal;font-stretch:normal;font-family:Raleway;-inkscape-font-specification:Raleway;text-align:start;text-anchor:start;stroke-width:0.28808448px"
         id="path37" />
      <path
         d="m 54.474317,309.02237 c 0.978767,0 1.678812,-0.80376 1.678812,-1.74363 0,-0.94636 -0.706527,-1.7566 -1.678812,-1.7566 -0.965803,0 -1.67233,0.81024 -1.67233,1.7566 0,0.93987 0.693563,1.74363 1.67233,1.74363 z m -1.225079,-1.73715 c 0,-0.75838 0.557443,-1.37416 1.225079,-1.37416 0.674118,0 1.231561,0.6093 1.231561,1.3612 0,0.7519 -0.557443,1.3612 -1.231561,1.3612 -0.674118,0 -1.225079,-0.59634 -1.225079,-1.34824 z"
         style="font-style:normal;font-variant:normal;font-weight:normal;font-stretch:normal;font-family:Raleway;-inkscape-font-specification:Raleway;text-align:start;text-anchor:start;stroke-width:0.28808448px"
         id="path39" />
      <path
         d="m 57.337392,308.95755 v -3.37707 h -0.440769 v 3.37707 z m 0,-4.0836 v -0.64819 h -0.440769 v 0.64819 z"
         style="font-style:normal;font-variant:normal;font-weight:normal;font-stretch:normal;font-family:Raleway;-inkscape-font-specification:Raleway;text-align:start;text-anchor:start;stroke-width:0.28808448px"
         id="path41" />
      <path
         d="m 59.435907,309.02237 c 0.797274,0 1.315826,-0.3954 1.315826,-1.01118 0,-0.57689 -0.447251,-0.74542 -1.315826,-0.95284 -0.602817,-0.1426 -0.842647,-0.22038 -0.842647,-0.57689 0,-0.44077 0.369468,-0.62874 0.829683,-0.62874 0.382433,0 0.764865,0.12964 1.017659,0.38891 l 0.213903,-0.25927 c -0.259276,-0.27224 -0.700046,-0.46022 -1.218598,-0.46022 -0.693563,0 -1.26397,0.34354 -1.26397,1.02414 0,0.53152 0.350022,0.66764 1.134332,0.8621 0.6806,0.16204 1.017659,0.26575 1.017659,0.6417 0,0.40188 -0.356505,0.63523 -0.894503,0.63523 -0.447251,0 -0.836165,-0.15557 -1.212115,-0.4667 l -0.200939,0.29817 c 0.362986,0.33058 0.894502,0.50559 1.419536,0.50559 z"
         style="font-style:normal;font-variant:normal;font-weight:normal;font-stretch:normal;font-family:Raleway;-inkscape-font-specification:Raleway;text-align:start;text-anchor:start;stroke-width:0.28808448px"
         id="path43" />
      <path
         d="m 62.925298,309.02237 c 0.654672,0 1.231561,-0.35002 1.438982,-0.84265 l -0.382432,-0.10371 c -0.162047,0.36299 -0.596335,0.6093 -1.037104,0.6093 -0.64819,0 -1.19267,-0.53152 -1.251007,-1.25749 h 2.890928 c 0.0065,-0.0259 0.0065,-0.11019 0.0065,-0.17501 0,-0.92691 -0.6806,-1.73067 -1.672331,-1.73067 -0.972285,0 -1.685294,0.79079 -1.685294,1.73715 0,0.95932 0.713009,1.76308 1.691776,1.76308 z m -1.238043,-1.93161 c 0.04537,-0.71301 0.576889,-1.22508 1.238043,-1.22508 0.661154,0 1.186188,0.50559 1.244525,1.22508 z"
         style="font-style:normal;font-variant:normal;font-weight:normal;font-stretch:normal;font-family:Raleway;-inkscape-font-specification:Raleway;text-align:start;text-anchor:start;stroke-width:0.28808448px"
         id="path45" />
      <path
         d="m 66.398889,309.02237 c 0.797274,0 1.315826,-0.3954 1.315826,-1.01118 0,-0.57689 -0.447251,-0.74542 -1.315826,-0.95284 -0.602816,-0.1426 -0.842647,-0.22038 -0.842647,-0.57689 0,-0.44077 0.369469,-0.62874 0.829684,-0.62874 0.382432,0 0.764864,0.12964 1.017658,0.38891 l 0.213903,-0.25927 c -0.259276,-0.27224 -0.700046,-0.46022 -1.218598,-0.46022 -0.693563,0 -1.26397,0.34354 -1.26397,1.02414 0,0.53152 0.350022,0.66764 1.134332,0.8621 0.6806,0.16204 1.017659,0.26575 1.017659,0.6417 0,0.40188 -0.356505,0.63523 -0.894503,0.63523 -0.447251,0 -0.836165,-0.15557 -1.212115,-0.4667 l -0.200939,0.29817 c 0.362987,0.33058 0.894502,0.50559 1.419536,0.50559 z"
         style="font-style:normal;font-variant:normal;font-weight:normal;font-stretch:normal;font-family:Raleway;-inkscape-font-specification:Raleway;text-align:start;text-anchor:start;stroke-width:0.28808448px"
         id="path47" />
    </g>
    <g
       transform="translate(-3.4895123,-21.277171)"
       aria-label="Hörfunkproduktion
"
       style="font-style:normal;font-variant:normal;font-weight:300;font-stretch:normal;font-size:5.35459614px;line-height:5.94955111px;font-family:Raleway;-inkscape-font-specification:'Raleway Light';text-align:start;letter-spacing:0px;word-spacing:0px;text-anchor:start;fill:#000000;fill-opacity:1;stroke:none;stroke-width:0.23798206px;stroke-linecap:butt;stroke-linejoin:miter;stroke-opacity:1"
       id="text16-3">
      <path
         d="m 25.211457,311.51126 v 1.73488 h -2.398859 v -1.73488 h -0.273084 v 3.80176 h 0.273084 v -1.82056 h 2.398859 v 1.82056 h 0.273085 v -3.80176 z"
         style="font-style:normal;font-variant:normal;font-weight:300;font-stretch:normal;font-family:Raleway;-inkscape-font-specification:'Raleway Light';text-align:start;text-anchor:start;stroke-width:0.23798206px"
         id="path50" />
      <path
         d="m 27.270634,311.88608 v -0.47121 h -0.235602 v 0.47121 z m 0.728225,0 v -0.47121 h -0.235602 v 0.47121 z m -0.481913,3.48048 c 0.776416,0 1.360067,-0.66397 1.360067,-1.44038 0,-0.78177 -0.59436,-1.44574 -1.360067,-1.44574 -0.771062,0 -1.360068,0.66397 -1.360068,1.44574 0,0.77641 0.578297,1.44038 1.360068,1.44038 z m -1.092338,-1.42967 c 0,-0.66397 0.497977,-1.2155 1.092338,-1.2155 0.59436,0 1.086983,0.54617 1.086983,1.19943 0,0.66397 -0.492623,1.20479 -1.092338,1.20479 -0.599715,0 -1.086983,-0.53011 -1.086983,-1.18872 z"
         style="font-style:normal;font-variant:normal;font-weight:300;font-stretch:normal;font-family:Raleway;-inkscape-font-specification:'Raleway Light';text-align:start;text-anchor:start;stroke-width:0.23798206px"
         id="path52" />
      <path
         d="m 30.835708,312.51792 c -0.03748,0 -0.09638,0 -0.165993,0.005 -0.358758,0.0375 -0.701452,0.29986 -0.894217,0.69075 v -0.68539 h -0.257021 v 2.78439 h 0.26773 v -1.74024 c 0.149929,-0.48727 0.551523,-0.78713 1.049501,-0.80319 z"
         style="font-style:normal;font-variant:normal;font-weight:300;font-stretch:normal;font-family:Raleway;-inkscape-font-specification:'Raleway Light';text-align:start;text-anchor:start;stroke-width:0.23798206px"
         id="path54" />
      <path
         d="m 31.739547,315.31302 v -2.56485 h 0.79248 v -0.21954 h -0.79248 v -0.0964 c 0,-0.54617 0.203474,-0.84603 0.567587,-0.84603 0.155283,0 0.315921,0.0535 0.412304,0.13386 l 0.09638,-0.19276 c -0.12851,-0.10709 -0.342694,-0.1767 -0.556878,-0.1767 -0.487268,0 -0.787125,0.40695 -0.787125,1.08698 v 0.091 h -0.390886 v 0.21954 h 0.390886 v 2.56485 z"
         style="font-style:normal;font-variant:normal;font-weight:300;font-stretch:normal;font-family:Raleway;-inkscape-font-specification:'Raleway Light';text-align:start;text-anchor:start;stroke-width:0.23798206px"
         id="path56" />
      <path
         d="m 33.915437,315.36656 c 0.492623,0 0.947764,-0.26773 1.188721,-0.71216 v 0.41766 c 0,0.14993 0.133865,0.24631 0.273084,0.24631 0.01606,0 0.04284,0 0.08032,-0.005 v -0.24096 c -0.07496,0 -0.112447,-0.0482 -0.112447,-0.13386 v -2.40957 h -0.267729 v 1.75631 c -0.165993,0.50333 -0.615779,0.84067 -1.081629,0.84067 -0.471204,0 -0.701452,-0.33734 -0.701452,-1.02808 v -1.5689 h -0.26773 v 1.60638 c 0,0.8139 0.305212,1.23155 0.888863,1.23155 z"
         style="font-style:normal;font-variant:normal;font-weight:300;font-stretch:normal;font-family:Raleway;-inkscape-font-specification:'Raleway Light';text-align:start;text-anchor:start;stroke-width:0.23798206px"
         id="path58" />
      <path
         d="m 38.476967,313.71199 c 0,-0.78712 -0.224893,-1.23155 -0.829962,-1.23155 -0.492623,0 -0.969182,0.28915 -1.194075,0.71216 v -0.66397 h -0.251666 v 2.78439 h 0.26773 v -1.72418 c 0.144574,-0.49262 0.631842,-0.86209 1.103047,-0.86209 0.439077,0 0.637197,0.31592 0.637197,1.03344 v 1.55283 h 0.267729 z"
         style="font-style:normal;font-variant:normal;font-weight:300;font-stretch:normal;font-family:Raleway;-inkscape-font-specification:'Raleway Light';text-align:start;text-anchor:start;stroke-width:0.23798206px"
         id="path60" />
      <path
         d="m 41.594262,315.31302 -1.19943,-1.64922 1.161948,-1.12982 h -0.310567 l -1.692052,1.60103 v -2.73085 h -0.26773 v 3.90886 h 0.26773 v -0.88351 l 0.658615,-0.60507 1.086983,1.48858 z"
         style="font-style:normal;font-variant:normal;font-weight:300;font-stretch:normal;font-family:Raleway;-inkscape-font-specification:'Raleway Light';text-align:start;text-anchor:start;stroke-width:0.23798206px"
         id="path62" />
      <path
         d="m 43.438838,315.36656 c 0.760352,0 1.274394,-0.66397 1.274394,-1.44038 0,-0.73358 -0.556878,-1.44574 -1.333295,-1.44574 -0.423013,0 -0.824608,0.25166 -1.054855,0.60507 v -0.55688 H 42.07877 v 3.92492 h 0.26773 v -1.74025 c 0.230248,0.36412 0.615779,0.65326 1.092338,0.65326 z m -0.06425,-0.24095 c -0.444432,0 -0.846027,-0.32663 -1.028083,-0.73894 v -0.91563 c 0.04819,-0.39624 0.59436,-0.74965 0.979891,-0.74965 0.621133,0 1.113756,0.56759 1.113756,1.20479 0,0.59971 -0.417658,1.19943 -1.065564,1.19943 z"
         style="font-style:normal;font-variant:normal;font-weight:300;font-stretch:normal;font-family:Raleway;-inkscape-font-specification:'Raleway Light';text-align:start;text-anchor:start;stroke-width:0.23798206px"
         id="path64" />
      <path
         d="m 46.669416,312.51792 c -0.03748,0 -0.09638,0 -0.165993,0.005 -0.358758,0.0375 -0.701452,0.29986 -0.894217,0.69075 v -0.68539 h -0.257021 v 2.78439 h 0.26773 v -1.74024 c 0.149928,-0.48727 0.551523,-0.78713 1.049501,-0.80319 z"
         style="font-style:normal;font-variant:normal;font-weight:300;font-stretch:normal;font-family:Raleway;-inkscape-font-specification:'Raleway Light';text-align:start;text-anchor:start;stroke-width:0.23798206px"
         id="path66" />
      <path
         d="m 48.213714,315.36656 c 0.776417,0 1.360068,-0.66397 1.360068,-1.44038 0,-0.78177 -0.594361,-1.44574 -1.360068,-1.44574 -0.771062,0 -1.360067,0.66397 -1.360067,1.44574 0,0.77641 0.578296,1.44038 1.360067,1.44038 z m -1.092337,-1.42967 c 0,-0.66397 0.497977,-1.2155 1.092337,-1.2155 0.59436,0 1.086983,0.54617 1.086983,1.19943 0,0.66397 -0.492623,1.20479 -1.092337,1.20479 -0.599715,0 -1.086983,-0.53011 -1.086983,-1.18872 z"
         style="font-style:normal;font-variant:normal;font-weight:300;font-stretch:normal;font-family:Raleway;-inkscape-font-specification:'Raleway Light';text-align:start;text-anchor:start;stroke-width:0.23798206px"
         id="path68" />
      <path
         d="m 51.361129,315.36656 c 0.412303,0 0.829962,-0.24095 1.054855,-0.61042 v 0.31057 c 0,0.12315 0.112446,0.25702 0.257021,0.25702 0.02677,0 0.05355,-0.005 0.09638,-0.0107 v -0.24096 c -0.07496,0 -0.112446,-0.0482 -0.112446,-0.13386 v -3.53404 h -0.26773 v 1.72954 c -0.214184,-0.35341 -0.605069,-0.65326 -1.086983,-0.65326 -0.738934,0 -1.279749,0.66932 -1.279749,1.44574 0,0.73893 0.562233,1.44038 1.33865,1.44038 z m 0.04819,-0.24095 c -0.621133,0 -1.113756,-0.55688 -1.113756,-1.19408 0,-0.61042 0.417658,-1.21014 1.065565,-1.21014 0.406949,0 0.878153,0.33199 1.028082,0.73894 v 0.91563 c -0.04819,0.40695 -0.589006,0.74965 -0.979891,0.74965 z"
         style="font-style:normal;font-variant:normal;font-weight:300;font-stretch:normal;font-family:Raleway;-inkscape-font-specification:'Raleway Light';text-align:start;text-anchor:start;stroke-width:0.23798206px"
         id="path70" />
      <path
         d="m 54.371667,315.36656 c 0.492623,0 0.947764,-0.26773 1.188721,-0.71216 v 0.41766 c 0,0.14993 0.133865,0.24631 0.273084,0.24631 0.01606,0 0.04284,0 0.08032,-0.005 v -0.24096 c -0.07496,0 -0.112446,-0.0482 -0.112446,-0.13386 v -2.40957 h -0.26773 v 1.75631 c -0.165993,0.50333 -0.615779,0.84067 -1.081629,0.84067 -0.471204,0 -0.701452,-0.33734 -0.701452,-1.02808 v -1.5689 h -0.26773 v 1.60638 c 0,0.8139 0.305212,1.23155 0.888863,1.23155 z"
         style="font-style:normal;font-variant:normal;font-weight:300;font-stretch:normal;font-family:Raleway;-inkscape-font-specification:'Raleway Light';text-align:start;text-anchor:start;stroke-width:0.23798206px"
         id="path72" />
      <path
         d="m 58.965325,315.31302 -1.199429,-1.64922 1.161947,-1.12982 h -0.310567 l -1.692052,1.60103 v -2.73085 h -0.26773 v 3.90886 h 0.26773 v -0.88351 l 0.658615,-0.60507 1.086983,1.48858 z"
         style="font-style:normal;font-variant:normal;font-weight:300;font-stretch:normal;font-family:Raleway;-inkscape-font-specification:'Raleway Light';text-align:start;text-anchor:start;stroke-width:0.23798206px"
         id="path74" />
      <path
         d="m 60.611781,314.96497 c -0.03213,0.0214 -0.214184,0.12851 -0.433722,0.12851 -0.176702,0 -0.348049,-0.10174 -0.348049,-0.31057 v -2.03474 h 0.647906 v -0.21954 H 59.83001 v -0.95312 h -0.26773 v 0.95312 h -0.390885 v 0.21954 h 0.390885 v 2.099 c 0,0.32127 0.251666,0.49798 0.546169,0.49798 0.299857,0 0.530105,-0.13387 0.583651,-0.166 z"
         style="font-style:normal;font-variant:normal;font-weight:300;font-stretch:normal;font-family:Raleway;-inkscape-font-specification:'Raleway Light';text-align:start;text-anchor:start;stroke-width:0.23798206px"
         id="path76" />
      <path
         d="m 61.432705,315.31302 v -2.78439 h -0.26773 v 2.78439 z m 0,-3.41623 v -0.49263 h -0.26773 v 0.49263 z"
         style="font-style:normal;font-variant:normal;font-weight:300;font-stretch:normal;font-family:Raleway;-inkscape-font-specification:'Raleway Light';text-align:start;text-anchor:start;stroke-width:0.23798206px"
         id="path78" />
      <path
         d="m 63.440847,315.36656 c 0.776416,0 1.360067,-0.66397 1.360067,-1.44038 0,-0.78177 -0.59436,-1.44574 -1.360067,-1.44574 -0.771062,0 -1.360068,0.66397 -1.360068,1.44574 0,0.77641 0.578297,1.44038 1.360068,1.44038 z m -1.092338,-1.42967 c 0,-0.66397 0.497978,-1.2155 1.092338,-1.2155 0.59436,0 1.086983,0.54617 1.086983,1.19943 0,0.66397 -0.492623,1.20479 -1.092338,1.20479 -0.599714,0 -1.086983,-0.53011 -1.086983,-1.18872 z"
         style="font-style:normal;font-variant:normal;font-weight:300;font-stretch:normal;font-family:Raleway;-inkscape-font-specification:'Raleway Light';text-align:start;text-anchor:start;stroke-width:0.23798206px"
         id="path80" />
      <path
         d="m 67.718083,313.71199 c 0,-0.78712 -0.224893,-1.23155 -0.829962,-1.23155 -0.492623,0 -0.969182,0.28915 -1.194075,0.71216 v -0.66397 H 65.44238 v 2.78439 h 0.267729 v -1.72418 c 0.144575,-0.49262 0.631843,-0.86209 1.103047,-0.86209 0.439077,0 0.637197,0.31592 0.637197,1.03344 v 1.55283 h 0.26773 z"
         style="font-style:normal;font-variant:normal;font-weight:300;font-stretch:normal;font-family:Raleway;-inkscape-font-specification:'Raleway Light';text-align:start;text-anchor:start;stroke-width:0.23798206px"
         id="path82" />
    </g>
  </g>
</svg>
